<svg xmlns="http://www.w3.org/2000/svg" width="91" height="47" viewBox="0 0 91 47" role="img" aria-label="image2 08 douyin" shape-rendering="crispEdges">
  <title>image2 08 douyin</title>
  <desc>Pixel-level vector reconstruction extracted from the supplied PNG, with white background removed.</desc>
  <path fill="#393939" d="M11 33H12V34H11Z"/>
  <path fill="#393939" opacity="0.995" d="M27 12H28V13H27ZM30 14H31V15H30ZM10 25H11V26H10Z"/>
  <path fill="#393939" opacity="0.99" d="M26 15H27V16H26ZM27 16H28V17H27ZM8 25H9V26H8ZM55 26H56V27H55ZM8 32H9V33H8ZM21 34H22V35H21Z"/>
  <path fill="#393939" opacity="0.98" d="M27 14H28V15H27ZM73 15H74V16H73ZM78 15H79V16H78ZM45 16H46V17H45ZM47 17H48V18H47ZM43 18H44V19H43ZM70 21H71V22H70ZM73 21H74V22H73ZM13 35H14V36H13Z"/>
  <path fill="#393939" opacity="0.975" d="M27 13H28V14H27ZM58 15H59V16H58ZM84 15H85V16H84ZM58 22H59V23H58ZM13 23H14V24H13ZM59 26H60V27H59ZM61 26H62V27H61ZM55 27H56V28H55ZM21 31H22V32H21ZM13 32H14V33H13ZM21 33H22V34H21ZM12 34H13V35H12ZM20 34H21V35H20ZM11 36H12V37H11Z"/>
  <path fill="#393939" opacity="0.97" d="M28 15H29V16H28ZM45 15H46V16H45ZM32 16H33V17H32ZM80 16H81V17H80ZM82 16H83V17H82ZM58 20H59V21H58ZM10 22H11V23H10ZM45 22H46V23H45ZM12 23H13V24H12ZM16 23H17V24H16ZM8 24H9V25H8ZM80 32H82V33H80ZM9 33H10V34H9ZM16 34H17V35H16ZM21 35H22V36H21Z"/>
  <path fill="#393939" opacity="0.965" d="M81 15H82V16H81ZM83 15H84V16H83ZM55 16H56V17H55ZM81 16H82V17H81ZM45 18H46V19H45ZM11 22H12V23H11ZM68 25H69V26H68ZM11 26H12V27H11ZM7 27H8V28H7ZM52 27H53V28H52ZM45 28H46V29H45ZM80 28H82V29H80ZM26 30H27V31H26ZM68 30H69V31H68ZM11 31H12V32H11ZM18 34H19V35H18ZM14 35H15V36H14ZM13 36H14V37H13ZM19 37H20V38H19Z"/>
  <path fill="#393939" opacity="0.96" d="M27 10H28V11H27ZM29 14H30V15H29ZM76 14H77V15H76ZM29 15H30V16H29ZM32 15H33V16H32ZM71 15H72V16H71ZM31 16H32V17H31ZM33 16H34V17H33ZM70 16H71V17H70ZM79 16H80V17H79ZM25 17H26V18H25ZM28 17H29V18H28ZM32 17H33V18H32ZM44 17H45V18H44ZM58 17H59V18H58ZM12 20H13V21H12ZM69 21H70V22H69ZM12 22H13V23H12ZM9 23H10V24H9ZM11 24H12V25H11ZM47 24H48V25H47ZM58 24H59V25H58ZM8 26H9V27H8ZM58 26H59V27H58ZM8 27H9V28H8ZM58 27H59V28H58ZM23 31H24V32H23ZM68 31H69V32H68ZM22 32H23V33H22ZM25 32H26V33H25ZM70 32H72V33H70ZM13 33H14V34H13ZM23 34H24V35H23ZM20 35H21V36H20Z"/>
  <path fill="#393939" opacity="0.955" d="M26 12H27V13H26ZM32 14H33V15H32ZM31 15H32V16H31ZM68 15H69V16H68ZM72 15H73V16H72ZM25 16H26V17H25ZM52 16H53V17H52ZM67 16H68V17H67ZM83 16H84V17H83ZM31 17H32V18H31ZM33 17H34V18H33ZM45 17H46V18H45ZM24 18H26V19H24ZM24 19H25V20H24ZM13 20H14V21H13ZM54 21H55V22H54ZM58 21H59V22H58ZM24 22H26V23H24ZM10 23H11V24H10ZM24 23H26V24H24ZM10 24H11V25H10ZM13 24H14V25H13ZM82 25H83V26H82ZM57 26H58V27H57ZM11 27H12V28H11ZM50 27H51V28H50ZM68 27H69V28H68ZM7 28H8V29H7ZM10 28H11V29H10ZM25 28H26V29H25ZM10 29H11V30H10ZM25 29H26V30H25ZM11 30H12V31H11ZM25 30H26V31H25ZM25 31H26V32H25ZM45 31H46V32H45ZM58 31H59V32H58ZM23 32H24V33H23ZM42 32H43V33H42ZM72 32H76V33H72ZM78 32H79V33H78ZM82 32H83V33H82ZM24 33H25V34H24ZM22 34H23V35H22ZM17 35H18V36H17ZM17 36H18V37H17ZM21 36H22V37H21ZM16 37H18V38H16ZM20 37H21V38H20Z"/>
  <path fill="#393939" opacity="0.944" d="M26 11H27V12H26ZM26 13H27V14H26ZM28 13H29V14H28ZM26 14H27V15H26ZM27 15H28V16H27ZM69 15H70V16H69ZM58 16H59V17H58ZM73 16H74V17H73ZM16 19H18V20H16ZM25 19H26V20H25ZM45 19H46V20H45ZM58 19H59V20H58ZM14 20H18V21H14ZM24 20H26V21H24ZM13 21H18V22H13ZM24 21H26V22H24ZM51 21H52V22H51ZM13 22H18V23H13ZM55 22H56V23H55ZM45 23H46V24H45ZM24 24H26V25H24ZM9 25H10V26H9ZM11 25H12V26H11ZM43 25H44V26H43ZM56 26H57V27H56ZM68 26H69V27H68ZM9 27H10V28H9ZM25 27H26V28H25ZM8 28H9V29H8ZM11 28H12V29H11ZM22 28H23V29H22ZM71 28H72V29H71ZM77 28H79V29H77ZM11 29H12V30H11ZM22 29H23V30H22ZM22 30H23V31H22ZM58 30H59V31H58ZM8 31H9V32H8ZM76 32H78V33H76ZM17 34H18V35H17ZM10 35H11V36H10ZM15 35H16V36H15ZM18 35H19V36H18ZM16 36H17V37H16ZM20 36H21V37H20Z"/>
  <path fill="#393939" opacity="0.939" d="M22 7H26V8H22ZM22 8H26V9H22ZM22 9H26V10H22ZM22 10H26V11H22ZM22 11H26V12H22ZM22 12H26V13H22ZM22 13H26V14H22ZM22 14H26V15H22ZM75 14H76V15H75ZM22 15H26V16H22ZM82 15H83V16H82ZM22 16H25V17H22ZM51 16H52V17H51ZM72 16H73V17H72ZM78 16H79V17H78ZM22 17H25V18H22ZM29 17H31V18H29ZM22 18H24V19H22ZM31 18H32V19H31ZM58 18H59V19H58ZM70 19H71V20H70ZM80 20H81V21H80ZM12 21H13V22H12ZM66 21H67V22H66ZM68 21H69V22H68ZM74 21H78V22H74ZM80 21H81V22H80ZM22 22H24V23H22ZM26 22H27V23H26ZM17 23H18V24H17ZM22 23H24V24H22ZM26 23H27V24H26ZM46 24H47V25H46ZM45 25H46V26H45ZM69 25H70V26H69ZM71 25H72V26H71ZM83 25H84V26H83ZM25 26H26V27H25ZM45 26H46V27H45ZM22 27H23V28H22ZM24 27H25V28H24ZM51 27H52V28H51ZM24 28H25V29H24ZM70 28H71V29H70ZM75 28H77V29H75ZM7 29H8V30H7ZM24 29H25V30H24ZM26 29H27V30H26ZM24 30H25V31H24ZM68 32H69V33H68ZM79 32H80V33H79ZM10 33H11V34H10ZM19 34H20V35H19ZM12 35H13V36H12ZM19 35H20V36H19ZM16 38H17V39H16Z"/>
  <path fill="#393939" opacity="0.934" d="M26 10H27V11H26ZM27 11H28V12H27ZM28 14H29V15H28ZM30 15H31V16H30ZM33 15H34V16H33ZM67 15H68V16H67ZM30 16H31V17H30ZM68 16H69V17H68ZM74 16H78V17H74ZM42 17H43V18H42ZM55 17H56V18H55ZM26 18H27V19H26ZM32 18H33V19H32ZM22 19H24V20H22ZM26 19H27V20H26ZM22 20H24V21H22ZM26 20H27V21H26ZM22 21H24V22H22ZM26 21H27V22H26ZM71 21H73V22H71ZM78 21H79V22H78ZM82 21H84V22H82ZM52 22H53V23H52ZM14 23H15V24H14ZM22 24H24V25H22ZM26 24H27V25H26ZM24 25H26V26H24ZM42 25H43V26H42ZM80 25H82V26H80ZM22 26H23V27H22ZM24 26H25V27H24ZM54 26H55V27H54ZM60 26H61V27H60ZM26 27H27V28H26ZM9 28H10V29H9ZM58 28H59V29H58ZM72 28H73V29H72ZM74 28H75V29H74ZM79 28H80V29H79ZM58 29H59V30H58ZM44 31H45V32H44ZM9 32H10V33H9ZM43 32H44V33H43ZM58 32H59V33H58ZM12 33H13V34H12ZM20 33H21V34H20ZM15 34H16V35H15ZM16 35H17V36H16Z"/>
  <path fill="#393939" opacity="0.929" d="M26 7H27V8H26ZM28 12H29V13H28ZM58 14H59V15H58ZM48 17H49V18H48ZM33 18H34V19H33ZM42 18H43V19H42ZM67 21H68V22H67ZM79 21H80V22H79ZM84 21H85V22H84ZM53 22H54V23H53ZM12 24H13V25H12ZM70 25H71V26H70ZM72 25H73V26H72ZM75 25H78V26H75ZM26 26H27V27H26ZM82 26H83V27H82ZM23 27H24V28H23ZM45 27H46V28H45ZM54 27H55V28H54ZM56 27H57V28H56ZM59 27H60V28H59ZM23 28H24V29H23ZM26 28H27V29H26ZM68 28H69V29H68ZM8 29H9V30H8ZM23 29H24V30H23ZM45 29H46V30H45ZM68 29H69V30H68ZM7 30H8V31H7ZM23 30H24V31H23ZM9 31H10V32H9ZM44 32H45V33H44ZM69 32H70V33H69ZM13 34H14V35H13ZM13 37H14V38H13ZM15 37H16V38H15Z"/>
  <path fill="#393939" opacity="0.924" d="M29 13H30V14H29ZM34 15H35V16H34ZM79 15H80V16H79ZM28 16H29V17H28ZM53 16H54V17H53ZM43 17H44V18H43ZM46 18H47V19H46ZM80 19H81V20H80ZM81 20H82V21H81ZM10 21H11V22H10ZM54 22H55V23H54ZM12 25H13V26H12ZM22 25H24V26H22ZM26 25H27V26H26ZM74 25H75V26H74ZM9 26H10V27H9ZM23 26H24V27H23ZM83 26H84V27H83ZM53 27H54V28H53ZM57 27H58V28H57ZM73 28H74V29H73ZM82 31H83V32H82ZM24 32H25V33H24ZM23 33H24V34H23ZM10 34H11V35H10ZM15 36H16V37H15Z"/>
  <path fill="#393939" opacity="0.919" d="M26 9H27V10H26ZM31 14H32V15H31ZM54 16H55V17H54ZM30 18H31V19H30ZM34 18H35V19H34ZM15 19H16V20H15ZM71 20H73V21H71ZM9 24H10V25H9ZM44 25H45V26H44ZM73 25H74V26H73ZM78 25H79V26H78ZM53 26H54V27H53ZM10 27H11V28H10ZM83 27H84V28H83ZM83 28H84V29H83ZM9 29H10V30H9ZM83 29H84V30H83ZM8 30H9V31H8ZM10 30H11V31H10ZM45 30H46V31H45ZM83 30H84V31H83ZM24 31H25V32H24ZM26 31H27V32H26ZM83 31H84V32H83ZM21 32H22V33H21ZM22 33H23V34H22ZM25 33H26V34H25ZM24 34H25V35H24ZM22 36H23V37H22Z"/>
  <path fill="#393939" opacity="0.909" d="M66 15H67V16H66ZM74 15H78V16H74ZM80 15H81V16H80ZM29 16H30V17H29ZM84 16H85V17H84ZM46 17H47V18H46ZM54 17H55V18H54ZM45 20H46V21H45ZM79 20H80V21H79ZM11 21H12V22H11ZM81 21H82V22H81ZM11 23H12V24H11ZM44 24H45V25H44ZM59 25H60V26H59ZM82 27H83V28H82ZM69 28H70V29H69ZM82 28H83V29H82ZM69 29H70V30H69ZM82 29H83V30H82ZM82 30H83V31H82ZM12 31H13V32H12ZM11 32H12V33H11ZM11 34H12V35H11ZM11 35H12V36H11ZM23 35H24V36H23ZM19 36H20V37H19ZM12 37H13V38H12ZM14 37H15V38H14ZM17 38H18V39H17Z"/>
  <path fill="#393939" opacity="0.904" d="M26 8H27V9H26ZM26 16H27V17H26ZM34 16H35V17H34ZM71 16H72V17H71ZM26 17H27V18H26ZM52 17H53V18H52ZM48 18H49V19H48ZM53 21H54V22H53ZM79 25H80V26H79ZM10 26H11V27H10ZM9 30H10V31H9ZM12 32H13V33H12ZM14 33H15V34H14Z"/>
  <path fill="#393939" opacity="0.899" d="M29 12H30V13H29ZM34 17H35V18H34ZM53 17H54V18H53ZM44 18H45V19H44ZM44 19H45V20H44ZM52 21H53V22H52ZM15 23H16V24H15ZM58 23H60V24H58ZM47 25H48V26H47ZM12 26H13V27H12ZM60 27H61V28H60ZM14 36H15V37H14Z"/>
  <path fill="#393939" opacity="0.894" d="M45 14H46V15H45ZM66 16H67V17H66ZM85 21H86V22H85ZM48 24H49V25H48ZM46 25H47V26H46ZM8 33H9V34H8ZM22 35H23V36H22ZM18 37H19V38H18ZM18 38H19V39H18Z"/>
  <path fill="#393939" opacity="0.889" d="M47 18H48V19H47ZM14 19H15V20H14ZM45 21H46V22H45ZM58 25H59V26H58ZM59 29H60V30H59ZM59 31H60V32H59ZM10 32H11V33H10ZM59 32H60V33H59ZM19 33H20V34H19ZM14 34H15V35H14ZM12 36H13V37H12Z"/>
  <path fill="#393939" opacity="0.884" d="M30 13H31V14H30ZM59 15H60V16H59ZM59 22H60V23H59ZM7 26H8V27H7ZM44 30H45V31H44ZM45 32H46V33H45ZM21 37H22V38H21Z"/>
  <path fill="#393939" opacity="0.874" d="M71 19H72V20H71ZM59 20H60V21H59ZM9 22H10V23H9ZM44 26H45V27H44ZM52 26H53V27H52ZM59 28H60V29H59ZM59 30H60V31H59ZM20 32H21V33H20ZM83 32H84V33H83Z"/>
  <path fill="#393939" opacity="0.869" d="M28 11H29V12H28ZM70 15H71V16H70ZM34 19H35V20H34ZM44 20H45V21H44ZM70 20H71V21H70ZM73 20H74V21H73ZM84 20H85V21H84ZM45 24H46V25H45ZM10 31H11V32H10ZM22 31H23V32H22ZM9 34H10V35H9ZM18 36H19V37H18Z"/>
  <path fill="#393939" opacity="0.864" d="M44 16H45V17H44ZM27 17H28V18H27ZM59 17H60V18H59ZM33 19H34V20H33ZM85 20H86V21H85ZM55 21H56V22H55ZM15 38H16V39H15Z"/>
  <path fill="#393939" opacity="0.859" d="M44 15H45V16H44ZM69 16H70V17H69ZM59 21H60V22H59ZM44 27H45V28H44ZM80 29H82V30H80Z"/>
  <path fill="#393939" opacity="0.854" d="M59 14H60V15H59ZM51 15H52V16H51ZM59 16H60V17H59ZM59 19H60V20H59ZM82 20H83V21H82ZM59 24H60V25H59ZM13 25H14V26H13ZM43 31H44V32H43Z"/>
  <path fill="#393939" opacity="0.848" d="M59 18H60V19H59ZM44 29H45V30H44ZM15 33H16V34H15Z"/>
  <path fill="#393939" opacity="0.843" d="M44 23H45V24H44ZM43 24H44V25H43ZM71 29H72V30H71ZM77 29H79V30H77Z"/>
  <path fill="#393939" opacity="0.833" d="M27 9H28V10H27ZM61 27H62V28H61ZM70 29H71V30H70ZM75 29H77V30H75ZM42 31H43V32H42ZM69 31H70V32H69Z"/>
  <path fill="#393939" opacity="0.828" d="M13 19H14V20H13ZM69 20H70V21H69ZM74 20H79V21H74ZM72 29H73V30H72ZM74 29H75V30H74ZM79 29H80V30H79Z"/>
  <path fill="#393939" opacity="0.823" d="M51 22H52V23H51ZM42 24H43V25H42ZM71 24H72V25H71Z"/>
  <path fill="#393939" opacity="0.818" d="M14 24H15V25H14ZM80 24H82V25H80ZM50 28H51V29H50ZM73 29H74V30H73ZM23 36H24V37H23Z"/>
  <path fill="#393939" opacity="0.813" d="M33 14H34V15H33ZM44 14H45V15H44ZM66 20H67V21H66ZM70 24H71V25H70ZM72 24H73V25H72ZM75 24H78V25H75ZM51 26H52V27H51ZM7 31H8V32H7ZM19 38H20V39H19Z"/>
  <path fill="#393939" opacity="0.808" d="M68 20H69V21H68ZM46 23H47V24H46ZM74 24H75V25H74ZM67 30H68V31H67Z"/>
  <path fill="#393939" opacity="0.798" d="M71 18H72V19H71ZM81 19H82V20H81ZM67 20H68V21H67ZM44 22H45V23H44ZM73 24H74V25H73ZM78 24H79V25H78ZM48 25H49V26H48ZM67 26H68V27H67ZM67 31H68V32H67Z"/>
  <path fill="#393939" opacity="0.793" d="M83 20H84V21H83ZM44 21H45V22H44ZM67 27H68V28H67ZM67 28H68V29H67ZM67 29H68V30H67Z"/>
  <path fill="#393939" opacity="0.788" d="M79 24H80V25H79ZM61 25H62V26H61ZM44 28H45V29H44Z"/>
  <path fill="#393939" opacity="0.783" d="M32 19H33V20H32ZM69 24H70V25H69ZM24 35H25V36H24Z"/>
  <path fill="#393939" opacity="0.778" d="M79 19H80V20H79Z"/>
  <path fill="#393939" opacity="0.773" d="M51 17H52V18H51ZM50 26H51V27H50ZM14 38H15V39H14Z"/>
  <path fill="#393939" opacity="0.763" d="M80 18H81V19H80ZM11 20H12V21H11ZM18 33H19V34H18ZM10 36H11V37H10Z"/>
  <path fill="#393939" opacity="0.758" d="M82 24H83V25H82ZM69 26H70V27H69ZM58 33H59V34H58Z"/>
  <path fill="#393939" opacity="0.753" d="M29 18H30V19H29ZM8 23H9V24H8Z"/>
  <path fill="#393939" opacity="0.747" d="M70 18H71V19H70Z"/>
  <path fill="#393939" opacity="0.742" d="M81 18H82V19H81Z"/>
  <path fill="#393939" opacity="0.737" d="M46 19H47V20H46ZM67 25H68V26H67ZM26 32H27V33H26Z"/>
  <path fill="#393939" opacity="0.727" d="M51 20H52V21H51ZM52 28H53V29H52Z"/>
  <path fill="#393939" opacity="0.722" d="M46 16H47V17H46Z"/>
  <path fill="#393939" opacity="0.717" d="M42 26H43V27H42Z"/>
  <path fill="#393939" opacity="0.712" d="M76 13H77V14H76ZM60 25H61V26H60ZM12 27H13V28H12ZM12 30H13V31H12Z"/>
  <path fill="#393939" opacity="0.707" d="M51 28H52V29H51Z"/>
  <path fill="#393939" opacity="0.692" d="M46 26H47V27H46ZM59 33H60V34H59Z"/>
  <path fill="#393939" opacity="0.687" d="M69 33H70V34H69Z"/>
  <path fill="#393939" opacity="0.682" d="M48 23H49V24H48Z"/>
  <path fill="#393939" opacity="0.677" d="M46 15H47V16H46ZM52 15H53V16H52ZM7 25H8V26H7ZM16 33H17V34H16Z"/>
  <path fill="#393939" opacity="0.672" d="M34 14H35V15H34ZM65 21H66V22H65ZM25 34H26V35H25Z"/>
  <path fill="#393939" opacity="0.657" d="M58 13H59V14H58ZM75 13H76V14H75Z"/>
  <path fill="#393939" opacity="0.652" d="M45 13H46V14H45ZM41 17H42V18H41ZM46 22H47V23H46ZM9 35H10V36H9Z"/>
  <path fill="#393939" opacity="0.646" d="M46 14H47V15H46ZM46 20H47V21H46ZM41 25H42V26H41ZM80 33H82V34H80Z"/>
  <path fill="#393939" opacity="0.641" d="M59 13H60V14H59ZM46 27H47V28H46Z"/>
  <path fill="#393939" opacity="0.636" d="M44 13H45V14H44ZM70 33H72V34H70Z"/>
  <path fill="#393939" opacity="0.631" d="M46 28H47V29H46ZM17 33H18V34H17ZM72 33H76V34H72ZM78 33H79V34H78Z"/>
  <path fill="#393939" opacity="0.621" d="M82 22H83V23H82ZM53 28H54V29H53ZM42 33H43V34H42ZM76 33H78V34H76Z"/>
  <path fill="#393939" opacity="0.616" d="M31 13H32V14H31ZM47 23H48V24H47ZM21 30H22V31H21ZM46 30H47V31H46ZM80 31H82V32H80ZM43 33H44V34H43ZM79 33H80V34H79Z"/>
  <path fill="#393939" opacity="0.611" d="M27 8H28V9H27ZM85 16H86V17H85ZM68 24H69V25H68ZM41 26H42V27H41Z"/>
  <path fill="#393939" opacity="0.606" d="M52 20H53V21H52ZM46 21H47V22H46ZM79 22H80V23H79ZM69 30H70V31H69ZM70 31H72V32H70Z"/>
  <path fill="#393939" opacity="0.601" d="M41 18H42V19H41ZM31 19H32V20H31ZM72 31H76V32H72ZM78 31H79V32H78ZM44 33H45V34H44ZM22 37H23V38H22Z"/>
  <path fill="#393939" opacity="0.596" d="M74 14H75V15H74ZM78 22H79V23H78ZM43 26H44V27H43ZM69 27H70V28H69ZM76 31H78V32H76ZM82 33H83V34H82Z"/>
  <path fill="#393939" opacity="0.586" d="M70 22H71V23H70ZM84 22H85V23H84ZM46 29H47V30H46ZM46 31H47V32H46ZM79 31H80V32H79Z"/>
  <path fill="#393939" opacity="0.581" d="M83 22H84V23H83Z"/>
  <path fill="#393939" opacity="0.576" d="M85 15H86V16H85ZM69 22H70V23H69ZM81 22H82V23H81ZM55 23H56V24H55Z"/>
  <path fill="#393939" opacity="0.571" d="M74 22H78V23H74ZM85 22H86V23H85ZM8 34H9V35H8Z"/>
  <path fill="#393939" opacity="0.566" d="M77 14H78V15H77ZM53 15H54V16H53ZM73 22H74V23H73ZM7 32H8V33H7Z"/>
  <path fill="#393939" opacity="0.561" d="M16 18H17V19H16ZM66 22H67V23H66ZM68 22H69V23H68Z"/>
  <path fill="#393939" opacity="0.551" d="M18 19H19V20H18ZM18 20H19V21H18ZM18 21H19V22H18ZM18 22H19V23H18ZM71 22H72V23H71ZM80 22H81V23H80Z"/>
  <path fill="#393939" opacity="0.545" d="M67 22H68V23H67ZM20 38H21V39H20Z"/>
  <path fill="#393939" opacity="0.54" d="M72 22H73V23H72ZM12 28H13V29H12ZM12 29H13V30H12ZM14 32H15V33H14ZM67 32H68V33H67Z"/>
  <path fill="#393939" opacity="0.535" d="M18 23H19V24H18Z"/>
  <path fill="#393939" opacity="0.53" d="M74 13H75V14H74ZM65 20H66V21H65ZM57 25H58V26H57Z"/>
  <path fill="#393939" opacity="0.525" d="M22 6H26V7H22ZM15 18H16V19H15Z"/>
  <path fill="#393939" opacity="0.51" d="M57 28H58V29H57Z"/>
  <path fill="#393939" opacity="0.5" d="M15 24H16V25H15Z"/>
  <path fill="#393939" opacity="0.495" d="M27 7H28V8H27ZM72 19H73V20H72Z"/>
  <path fill="#393939" opacity="0.49" d="M41 32H42V33H41Z"/>
  <path fill="#393939" opacity="0.48" d="M21 29H22V30H21ZM68 33H69V34H68Z"/>
  <path fill="#393939" opacity="0.475" d="M54 28H55V29H54ZM19 32H20V33H19ZM11 37H12V38H11Z"/>
  <path fill="#393939" opacity="0.47" d="M27 18H28V19H27ZM27 28H28V29H27Z"/>
  <path fill="#393939" opacity="0.465" d="M55 18H56V19H55ZM12 19H13V20H12ZM62 26H63V27H62ZM21 27H22V28H21ZM27 27H28V28H27Z"/>
  <path fill="#393939" opacity="0.46" d="M46 13H47V14H46ZM79 18H80V19H79ZM56 22H57V23H56Z"/>
  <path fill="#393939" opacity="0.455" d="M57 15H58V16H57Z"/>
  <path fill="#393939" opacity="0.444" d="M57 16H58V17H57ZM21 18H22V19H21ZM27 22H28V23H27ZM27 23H28V24H27ZM57 23H58V24H57ZM57 29H58V30H57ZM57 30H58V31H57Z"/>
  <path fill="#393939" opacity="0.439" d="M27 19H28V20H27ZM27 20H28V21H27ZM27 21H28V22H27ZM27 24H28V25H27ZM41 24H42V25H41Z"/>
  <path fill="#393939" opacity="0.434" d="M21 7H22V8H21ZM21 8H22V9H21ZM21 9H22V10H21ZM21 10H22V11H21ZM21 11H22V12H21ZM21 12H22V13H21ZM21 13H22V14H21ZM21 14H22V15H21ZM21 15H22V16H21ZM57 17H58V18H57ZM17 18H18V19H17ZM13 38H14V39H13Z"/>
  <path fill="#393939" opacity="0.429" d="M27 25H28V26H27ZM27 26H28V27H27Z"/>
  <path fill="#393939" opacity="0.424" d="M56 16H57V17H56ZM21 19H22V20H21ZM21 20H22V21H21ZM21 26H22V27H21Z"/>
  <path fill="#393939" opacity="0.419" d="M28 10H29V11H28ZM57 20H58V21H57ZM21 21H22V22H21ZM57 24H58V25H57ZM71 26H72V27H71ZM80 26H82V27H80ZM21 28H22V29H21ZM57 31H58V32H57ZM57 32H58V33H57Z"/>
  <path fill="#393939" opacity="0.414" d="M21 16H22V17H21ZM21 17H22V18H21ZM57 19H58V20H57ZM10 20H11V21H10ZM21 22H22V23H21ZM70 26H71V27H70ZM75 26H78V27H75ZM41 31H42V32H41Z"/>
  <path fill="#393939" opacity="0.404" d="M21 23H22V24H21ZM21 25H22V26H21ZM72 26H73V27H72ZM74 26H75V27H74Z"/>
  <path fill="#393939" opacity="0.399" d="M21 24H22V25H21ZM78 26H79V27H78ZM55 28H56V29H55ZM27 29H28V30H27Z"/>
  <path fill="#393939" opacity="0.394" d="M56 17H57V18H56ZM65 22H66V23H65ZM83 24H84V25H83ZM73 26H74V27H73Z"/>
  <path fill="#393939" opacity="0.389" d="M30 12H31V13H30ZM62 25H63V26H62ZM79 26H80V27H79Z"/>
  <path fill="#393939" opacity="0.384" d="M54 15H55V16H54ZM57 22H58V23H57Z"/>
  <path fill="#393939" opacity="0.379" d="M57 21H58V22H57ZM56 23H57V24H56ZM7 24H8V25H7ZM84 26H85V27H84ZM20 31H21V32H20Z"/>
  <path fill="#393939" opacity="0.369" d="M6 27H7V28H6ZM13 31H14V32H13ZM45 33H46V34H45Z"/>
  <path fill="#393939" opacity="0.364" d="M28 18H29V19H28ZM53 20H54V21H53ZM9 21H10V22H9ZM54 23H55V24H54ZM26 33H27V34H26Z"/>
  <path fill="#393939" opacity="0.359" d="M57 18H58V19H57ZM6 28H7V29H6ZM46 32H47V33H46Z"/>
  <path fill="#393939" opacity="0.354" d="M26 6H27V7H26Z"/>
  <path fill="#393939" opacity="0.348" d="M14 18H15V19H14ZM8 22H9V23H8ZM6 29H7V30H6Z"/>
  <path fill="#393939" opacity="0.343" d="M56 21H57V22H56Z"/>
  <path fill="#393939" opacity="0.333" d="M57 14H58V15H57ZM6 30H7V31H6Z"/>
  <path fill="#393939" opacity="0.328" d="M57 13H58V14H57ZM57 33H58V34H57Z"/>
  <path fill="#393939" opacity="0.323" d="M21 6H22V7H21Z"/>
  <path fill="#393939" opacity="0.318" d="M32 13H33V14H32ZM77 13H78V14H77ZM84 27H85V28H84ZM56 28H57V29H56ZM84 28H85V29H84ZM84 29H85V30H84ZM84 30H85V31H84Z"/>
  <path fill="#393939" opacity="0.313" d="M50 21H51V22H50ZM6 26H7V27H6ZM41 33H42V34H41Z"/>
  <path fill="#393939" opacity="0.308" d="M16 24H17V25H16ZM62 27H63V28H62ZM27 30H28V31H27Z"/>
  <path fill="#393939" opacity="0.298" d="M43 16H44V17H43ZM50 16H51V17H50Z"/>
  <path fill="#393939" opacity="0.288" d="M68 17H69V18H68ZM78 17H79V18H78ZM54 18H55V19H54ZM56 18H57V19H56ZM56 25H57V26H56ZM84 31H85V32H84Z"/>
  <path fill="#393939" opacity="0.283" d="M77 17H78V18H77ZM84 17H85V18H84Z"/>
  <path fill="#393939" opacity="0.278" d="M50 15H51V16H50ZM42 16H43V17H42ZM48 16H49V17H48ZM71 17H72V18H71ZM74 17H77V18H74ZM79 17H80V18H79ZM11 19H12V20H11ZM8 20H10V21H8ZM7 23H8V24H7ZM20 30H21V31H20Z"/>
  <path fill="#393939" opacity="0.273" d="M55 15H56V16H55ZM67 17H68V18H67ZM69 17H70V18H69ZM83 17H84V18H83ZM6 24H7V25H6Z"/>
  <path fill="#393939" opacity="0.263" d="M15 17H16V18H15ZM80 17H82V18H80ZM72 18H73V19H72ZM5 27H6V28H5ZM20 29H21V30H20ZM19 31H20V32H19ZM15 32H16V33H15ZM18 32H19V33H18Z"/>
  <path fill="#393939" opacity="0.258" d="M13 18H14V19H13ZM18 18H19V19H18ZM8 21H9V22H8ZM17 24H18V25H17ZM84 25H85V26H84ZM7 33H8V34H7ZM83 33H84V34H83Z"/>
  <path fill="#393939" opacity="0.253" d="M47 16H48V17H47ZM82 17H83V18H82ZM7 21H8V22H7ZM50 22H51V23H50ZM20 28H21V29H20ZM16 32H17V33H16ZM21 38H22V39H21Z"/>
  <path fill="#393939" opacity="0.247" d="M43 19H44V20H43Z"/>
  <path fill="#393939" opacity="0.242" d="M66 17H67V18H66ZM72 17H73V18H72ZM12 18H13V19H12ZM47 19H49V20H47ZM20 27H21V28H20Z"/>
  <path fill="#393939" opacity="0.237" d="M73 17H74V18H73ZM7 22H8V23H7Z"/>
  <path fill="#393939" opacity="0.227" d="M41 16H42V17H41ZM13 17H14V18H13ZM20 17H21V18H20ZM70 17H71V18H70ZM42 19H43V20H42ZM6 23H7V24H6ZM55 25H56V26H55Z"/>
  <path fill="#393939" opacity="0.222" d="M11 18H12V19H11ZM20 18H21V19H20ZM9 19H11V20H9ZM30 19H31V20H30ZM20 26H21V27H20ZM49 27H50V28H49Z"/>
  <path fill="#393939" opacity="0.217" d="M50 20H51V21H50ZM53 23H54V24H53ZM5 26H6V27H5ZM5 28H6V29H5Z"/>
  <path fill="#393939" opacity="0.212" d="M21 5H22V6H21ZM20 6H21V7H20ZM20 16H21V17H20ZM16 17H17V18H16ZM10 18H11V19H10ZM69 18H70V19H69ZM20 19H21V20H20ZM20 20H21V21H20ZM20 21H21V22H20ZM20 22H21V23H20ZM18 24H19V25H18ZM19 30H20V31H19ZM17 32H18V33H17Z"/>
  <path fill="#393939" opacity="0.207" d="M85 17H86V18H85ZM20 23H21V24H20ZM18 31H19V32H18Z"/>
  <path fill="#393939" opacity="0.202" d="M33 13H34V14H33ZM6 25H7V26H6Z"/>
  <path fill="#393939" opacity="0.192" d="M20 7H21V8H20ZM20 8H21V9H20ZM20 9H21V10H20ZM20 10H21V11H20ZM20 11H21V12H20ZM20 12H21V13H20ZM20 13H21V14H20ZM20 14H21V15H20ZM14 17H15V18H14ZM86 21H87V22H86ZM6 31H7V32H6Z"/>
  <path fill="#393939" opacity="0.187" d="M29 11H30V12H29Z"/>
  <path fill="#393939" opacity="0.182" d="M22 5H26V6H22ZM65 15H66V16H65ZM54 20H55V21H54ZM20 25H21V26H20ZM13 26H14V27H13Z"/>
  <path fill="#393939" opacity="0.177" d="M20 15H21V16H20ZM7 20H8V21H7ZM20 24H21V25H20ZM5 25H6V26H5Z"/>
  <path fill="#393939" opacity="0.172" d="M49 26H50V27H49Z"/>
  <path fill="#393939" opacity="0.167" d="M12 17H13V18H12ZM35 19H36V20H35ZM41 19H42V20H41ZM6 22H7V23H6ZM67 24H68V25H67Z"/>
  <path fill="#393939" opacity="0.157" d="M20 5H21V6H20ZM50 17H51V18H50Z"/>
  <path fill="#393939" opacity="0.152" d="M35 15H36V16H35ZM5 29H6V30H5ZM19 29H20V30H19ZM17 31H18V32H17Z"/>
  <path fill="#393939" opacity="0.146" d="M27 6H28V7H27ZM35 18H36V19H35ZM49 28H50V29H49ZM6 32H7V33H6ZM84 32H85V33H84ZM25 35H26V36H25ZM12 38H13V39H12Z"/>
  <path fill="#393939" opacity="0.141" d="M78 14H79V15H78ZM35 16H36V17H35ZM60 24H61V25H60ZM47 26H48V27H47ZM80 27H82V28H80ZM17 39H18V40H17Z"/>
  <path fill="#393939" opacity="0.136" d="M35 17H36V18H35ZM54 25H55V26H54Z"/>
  <path fill="#393939" opacity="0.131" d="M53 18H54V19H53ZM34 20H35V21H34ZM86 20H87V21H86ZM14 25H15V26H14Z"/>
  <path fill="#393939" opacity="0.121" d="M65 16H66V17H65ZM52 23H53V24H52ZM71 27H72V28H71ZM77 27H79V28H77ZM16 39H17V40H16Z"/>
  <path fill="#393939" opacity="0.116" d="M31 12H32V13H31ZM86 22H87V23H86ZM5 24H6V25H5ZM70 27H71V28H70ZM75 27H77V28H75Z"/>
  <path fill="#393939" opacity="0.111" d="M60 15H61V16H60ZM60 22H61V23H60ZM48 26H49V27H48ZM72 27H73V28H72ZM74 27H75V28H74ZM79 27H80V28H79ZM24 36H25V37H24Z"/>
  <path fill="#393939" opacity="0.106" d="M60 14H61V15H60ZM8 19H9V20H8ZM60 20H61V21H60ZM5 30H6V31H5ZM27 31H28V32H27Z"/>
  <path fill="#393939" opacity="0.101" d="M66 14H74V15H66ZM60 23H61V24H60ZM73 27H74V28H73ZM18 30H19V31H18Z"/>
  <path fill="#393939" opacity="0.096" d="M82 14H86V15H82ZM56 15H57V16H56ZM33 20H34V21H33Z"/>
  <path fill="#393939" opacity="0.086" d="M35 14H36V15H35ZM60 17H61V18H60ZM69 19H70V20H69ZM60 21H61V22H60ZM15 39H16V40H15Z"/>
  <path fill="#393939" opacity="0.081" d="M19 5H20V6H19ZM19 15H20V16H19ZM16 16H17V17H16ZM60 19H61V20H60ZM43 23H44V24H43ZM69 23H70V24H69ZM60 29H61V30H60ZM60 30H61V31H60ZM60 31H61V32H60Z"/>
  <path fill="#393939" opacity="0.076" d="M15 16H16V17H15ZM60 16H61V17H60ZM60 18H61V19H60ZM49 19H50V20H49ZM5 23H6V24H5Z"/>
  <path fill="#393939" opacity="0.071" d="M43 14H44V15H43ZM80 14H82V15H80ZM11 17H12V18H11ZM66 19H67V20H66ZM85 19H86V20H85ZM15 25H16V26H15ZM53 25H54V26H53ZM19 28H20V29H19ZM60 32H61V33H60ZM46 33H47V34H46ZM7 34H8V35H7Z"/>
  <path fill="#393939" opacity="0.066" d="M28 9H29V10H28ZM68 19H69V20H68ZM83 19H84V20H83ZM43 20H44V21H43ZM49 25H50V26H49ZM52 25H53V26H52ZM42 28H43V29H42ZM61 30H62V31H61ZM14 31H15V32H14ZM60 33H61V34H60ZM8 35H9V36H8ZM9 36H10V37H9ZM14 39H15V40H14ZM18 39H19V40H18Z"/>
  <path fill="#393939" opacity="0.061" d="M33 12H34V13H33ZM79 14H80V15H79ZM67 19H68V20H67ZM56 20H57V21H56ZM6 21H7V22H6ZM49 23H50V24H49ZM19 24H20V25H19ZM47 27H48V28H47ZM80 30H82V31H80ZM16 31H17V32H16ZM67 33H68V34H67ZM7 36H8V37H7ZM8 37H9V38H8Z"/>
  <path fill="#393939" opacity="0.051" d="M17 17H18V18H17ZM38 17H39V18H38ZM65 19H66V20H65ZM82 19H83V20H82ZM84 24H85V25H84ZM19 25H20V26H19ZM60 28H61V29H60ZM50 29H51V30H50ZM6 33H7V34H6ZM10 37H11V38H10Z"/>
  <path fill="#393939" opacity="0.045" d="M19 6H20V7H19ZM74 11H75V12H74ZM19 16H20V17H19ZM68 18H69V19H68ZM78 19H79V20H78ZM64 20H65V21H64ZM13 27H14V28H13ZM4 30H5V31H4ZM13 30H14V31H13ZM26 34H27V35H26ZM38 34H39V35H38ZM68 34H69V35H68ZM8 36H9V37H8ZM24 38H25V39H24Z"/>
  <path fill="#393939" opacity="0.04" d="M48 12H49V13H48ZM18 17H19V18H18ZM65 17H66V18H65ZM6 19H7V20H6ZM48 21H49V22H48ZM48 22H49V23H48ZM66 23H67V24H66ZM66 24H67V25H66ZM43 28H44V29H43ZM71 30H72V31H71ZM77 30H79V31H77ZM85 33H86V34H85ZM42 34H43V35H42ZM60 34H61V35H60ZM23 37H24V38H23ZM14 42H15V43H14Z"/>
  <path fill="#393939" opacity="0.035" d="M28 6H29V7H28ZM31 11H32V12H31ZM32 12H33V13H32ZM45 12H46V13H45ZM36 13H37V14H36ZM18 15H19V16H18ZM19 18H20V19H19ZM49 18H50V19H49ZM51 18H52V19H51ZM52 19H53V20H52ZM51 23H52V24H51ZM67 23H68V24H67ZM83 23H84V24H83ZM38 24H39V25H38ZM64 24H65V25H64ZM17 25H18V26H17ZM28 27H29V28H28ZM64 27H65V28H64ZM47 28H48V29H47ZM4 29H5V30H4ZM70 30H71V31H70ZM75 30H77V31H75ZM57 34H59V35H57ZM61 34H62V35H61ZM8 38H9V39H8Z"/>
  <path fill="#393939" opacity="0.03" d="M22 4H26V5H22ZM18 5H19V6H18ZM60 11H61V12H60ZM76 11H77V12H76ZM44 12H45V13H44ZM60 13H61V14H60ZM37 14H38V15H37ZM49 14H50V15H49ZM61 14H62V15H61ZM16 15H17V16H16ZM49 17H50V18H49ZM82 18H83V19H82ZM50 19H51V20H50ZM28 22H29V23H28ZM32 22H33V23H32ZM19 23H20V24H19ZM28 23H29V24H28ZM42 23H43V24H42ZM65 24H66V25H65ZM38 25H39V26H38ZM51 25H52V26H51ZM63 25H64V26H63ZM18 26H19V27H18ZM64 28H65V29H64ZM54 29H55V30H54ZM72 30H73V31H72ZM74 30H75V31H74ZM79 30H80V31H79ZM56 31H57V32H56ZM55 32H56V33H55ZM56 34H57V35H56ZM59 34H60V35H59ZM6 36H7V37H6ZM23 38H24V39H23Z"/>
</svg>