<svg xmlns="http://www.w3.org/2000/svg" width="154" height="29" viewBox="0 0 154 29" role="img" aria-label="image2 03 hyundai" shape-rendering="crispEdges">
  <title>image2 03 hyundai</title>
  <desc>Pixel-level vector reconstruction extracted from the supplied PNG, with white background removed.</desc>
  <path fill="#343434" d="M134 9H135V10H134ZM123 10H124V11H123Z"/>
  <path fill="#343434" opacity="0.98" d="M130 20H131V21H130Z"/>
  <path fill="#343434" opacity="0.97" d="M116 8H117V9H116ZM135 9H136V10H135ZM20 12H21V13H20ZM147 20H148V21H147Z"/>
  <path fill="#343434" opacity="0.966" d="M21 8H22V9H21ZM138 8H139V9H138ZM17 13H18V14H17ZM25 14H26V15H25ZM27 14H28V15H27ZM31 22H32V23H31Z"/>
  <path fill="#343434" opacity="0.956" d="M20 13H21V14H20ZM24 14H25V15H24ZM62 16H63V17H62ZM17 17H18V18H17ZM30 18H31V19H30Z"/>
  <path fill="#343434" opacity="0.951" d="M101 8H102V9H101ZM121 8H122V9H121ZM101 9H102V10H101ZM117 9H118V10H117ZM137 9H138V10H137ZM42 11H43V12H42ZM61 12H62V13H61ZM16 13H17V14H16ZM35 13H36V14H35ZM14 16H15V17H14ZM115 16H116V17H115ZM14 17H15V18H14ZM19 17H20V18H19ZM40 19H41V20H40ZM91 20H92V21H91ZM30 21H31V22H30Z"/>
  <path fill="#343434" opacity="0.946" d="M115 8H116V9H115ZM130 8H131V9H130ZM133 8H134V9H133ZM83 10H84V11H83ZM108 10H109V11H108ZM130 10H131V11H130ZM30 12H31V13H30ZM7 13H8V14H7ZM75 13H76V14H75ZM92 16H93V17H92ZM132 16H133V17H132ZM115 17H116V18H115ZM32 18H33V19H32ZM92 19H93V20H92ZM72 20H73V21H72ZM140 20H141V21H140Z"/>
  <path fill="#343434" opacity="0.941" d="M19 6H20V7H19ZM22 7H23V8H22ZM92 8H93V9H92ZM107 8H108V9H107ZM92 9H93V10H92ZM33 10H34V11H33ZM109 10H110V11H109ZM20 11H21V12H20ZM33 11H34V12H33ZM76 11H77V12H76ZM140 11H141V12H140ZM147 11H148V12H147ZM76 12H77V13H76ZM53 13H54V14H53ZM74 13H75V14H74ZM53 14H54V15H53ZM30 15H31V16H30ZM92 15H93V16H92ZM20 16H21V17H20ZM131 16H132V17H131ZM135 16H136V17H135ZM16 17H17V18H16ZM83 17H84V18H83ZM146 17H147V18H146ZM131 18H132V19H131ZM146 18H147V19H146ZM122 19H123V20H122ZM146 19H147V20H146ZM92 20H93V21H92ZM116 20H117V21H116Z"/>
  <path fill="#343434" opacity="0.936" d="M25 5H26V6H25ZM53 8H54V9H53ZM146 8H147V9H146ZM53 9H54V10H53ZM116 9H117V10H116ZM120 9H121V10H120ZM136 9H137V10H136ZM140 9H141V10H140ZM146 9H147V10H146ZM53 10H54V11H53ZM84 10H85V11H84ZM92 10H93V11H92ZM146 10H147V11H146ZM75 11H76V12H75ZM92 11H93V12H92ZM99 11H100V12H99ZM146 11H147V12H146ZM19 12H20V13H19ZM92 12H93V13H92ZM115 12H116V13H115ZM130 12H131V13H130ZM58 13H59V14H58ZM71 13H72V14H71ZM92 13H93V14H92ZM115 13H116V14H115ZM130 13H131V14H130ZM26 14H27V15H26ZM115 14H116V15H115ZM130 14H131V15H130ZM115 15H116V16H115ZM130 15H132V16H130ZM133 15H134V16H133ZM138 15H139V16H138ZM146 15H147V16H146ZM52 16H53V17H52ZM130 16H131V17H130ZM146 16H147V17H146ZM30 17H31V18H30ZM130 17H131V18H130ZM61 18H62V19H61ZM83 18H84V19H83ZM130 18H131V19H130ZM10 19H11V20H10ZM14 19H15V20H14ZM32 19H33V20H32ZM116 19H117V20H116ZM119 19H120V20H119ZM130 19H131V20H130Z"/>
  <path fill="#343434" opacity="0.931" d="M38 8H39V9H38ZM62 8H63V9H62ZM68 8H69V9H68ZM82 8H83V9H82ZM120 8H121V9H120ZM131 8H132V9H131ZM37 9H38V10H37ZM62 9H63V10H62ZM77 9H78V10H77ZM82 9H83V10H82ZM106 9H107V10H106ZM35 10H36V11H35ZM37 10H38V11H37ZM62 10H64V11H62ZM139 10H140V11H139ZM17 11H18V12H17ZM53 11H54V12H53ZM62 11H63V12H62ZM83 11H84V12H83ZM109 11H110V12H109ZM17 12H18V13H17ZM35 12H36V13H35ZM63 12H64V13H63ZM114 12H115V13H114ZM146 12H147V13H146ZM18 13H19V14H18ZM114 13H115V14H114ZM146 13H147V14H146ZM19 14H20V15H19ZM35 14H36V15H35ZM55 14H56V15H55ZM71 14H72V15H71ZM92 14H93V15H92ZM114 14H115V15H114ZM146 14H147V15H146ZM52 15H53V16H52ZM61 15H62V16H61ZM114 15H115V16H114ZM17 16H18V17H17ZM31 16H32V17H31ZM114 16H115V17H114ZM134 16H135V17H134ZM138 16H139V17H138ZM18 17H19V18H18ZM52 17H53V18H52ZM63 17H64V18H63ZM92 17H93V18H92ZM98 17H99V18H98ZM114 17H115V18H114ZM147 17H148V18H147ZM52 18H53V19H52ZM92 18H94V19H92ZM114 18H115V19H114ZM147 18H148V19H147ZM52 19H53V20H52ZM83 19H84V20H83ZM91 19H92V20H91ZM114 19H115V20H114ZM120 19H121V20H120ZM147 19H148V20H147ZM12 20H13V21H12ZM52 20H53V21H52ZM122 20H123V21H122Z"/>
  <path fill="#343434" opacity="0.921" d="M20 6H21V7H20ZM23 6H24V7H23ZM32 6H33V7H32ZM63 8H64V9H63ZM98 8H99V9H98ZM123 8H124V9H123ZM20 9H21V10H20ZM98 9H101V10H98ZM108 9H109V10H108ZM114 9H116V10H114ZM139 9H140V10H139ZM36 10H37V11H36ZM77 10H78V11H77ZM82 10H83V11H82ZM99 10H100V11H99ZM147 10H148V11H147ZM19 11H20V12H19ZM32 11H33V12H32ZM34 11H35V12H34ZM63 11H64V12H63ZM115 11H116V12H115ZM52 12H54V13H52ZM71 12H72V13H71ZM108 12H109V13H108ZM139 12H140V13H139ZM19 13H20V14H19ZM108 13H109V14H108ZM139 13H140V14H139ZM21 14H22V15H21ZM60 14H62V15H60ZM108 14H109V15H108ZM131 14H132V15H131ZM15 15H16V16H15ZM22 15H23V16H22ZM24 15H25V16H24ZM31 15H32V16H31ZM108 15H109V16H108ZM147 15H148V16H147ZM32 16H33V17H32ZM63 16H64V17H63ZM82 16H83V17H82ZM108 16H109V17H108ZM147 16H148V17H147ZM32 17H33V18H32ZM93 17H94V18H93ZM108 17H109V18H108ZM124 17H125V18H124ZM14 18H16V19H14ZM98 18H99V19H98ZM108 18H109V19H108ZM124 18H125V19H124ZM63 19H64V20H63ZM108 19H109V20H108ZM121 19H122V20H121ZM124 19H125V20H124ZM83 20H84V21H83ZM109 20H110V21H109ZM119 20H120V21H119ZM29 21H30V22H29Z"/>
  <path fill="#343434" opacity="0.916" d="M93 8H94V9H93ZM136 8H137V9H136ZM76 9H77V10H76ZM93 9H94V10H93ZM119 9H120V10H119ZM122 9H123V10H122ZM34 10H35V11H34ZM98 10H99V11H98ZM107 10H108V11H107ZM18 11H19V12H18ZM52 11H53V12H52ZM69 11H70V12H69ZM98 11H99V12H98ZM114 11H115V12H114ZM130 11H131V12H130ZM31 12H35V13H31ZM98 12H99V13H98ZM123 12H124V13H123ZM147 12H148V13H147ZM31 13H35V14H31ZM52 13H53V14H52ZM59 13H60V14H59ZM62 13H64V14H62ZM98 13H99V14H98ZM123 13H124V14H123ZM147 13H148V14H147ZM18 14H19V15H18ZM31 14H35V15H31ZM52 14H53V15H52ZM58 14H60V15H58ZM72 14H73V15H72ZM123 14H124V15H123ZM139 14H140V15H139ZM147 14H148V15H147ZM32 15H35V16H32ZM53 15H54V16H53ZM63 15H64V16H63ZM123 15H125V16H123ZM134 15H136V16H134ZM139 15H140V16H139ZM18 16H20V17H18ZM22 16H23V17H22ZM61 16H62V17H61ZM73 16H74V17H73ZM98 16H99V17H98ZM123 16H125V17H123ZM61 17H63V18H61ZM73 17H74V18H73ZM82 17H83V18H82ZM123 17H124V18H123ZM131 17H132V18H131ZM73 18H74V19H73ZM84 18H85V19H84ZM123 18H124V19H123ZM30 19H32V20H30ZM61 19H63V20H61ZM73 19H74V20H73ZM84 19H85V20H84ZM87 19H91V20H87ZM123 19H124V20H123ZM29 20H30V21H29ZM62 20H63V21H62ZM98 20H99V21H98ZM108 20H109V21H108ZM117 20H119V21H117ZM120 20H121V21H120ZM124 20H125V21H124ZM131 20H132V21H131ZM34 22H35V23H34Z"/>
  <path fill="#343434" opacity="0.911" d="M20 8H21V9H20ZM36 8H37V9H36ZM77 8H78V9H77ZM104 8H105V9H104ZM114 8H115V9H114ZM102 9H103V10H102ZM107 9H108V10H107ZM121 9H122V10H121ZM123 9H125V10H123ZM132 9H133V10H132ZM138 9H139V10H138ZM76 10H77V11H76ZM93 10H94V11H93ZM100 10H101V11H100ZM8 11H9V12H8ZM82 11H83V12H82ZM93 11H94V12H93ZM123 11H124V12H123ZM131 11H132V12H131ZM18 12H19V13H18ZM75 12H76V13H75ZM82 12H84V13H82ZM93 12H94V13H93ZM99 12H100V13H99ZM107 12H108V13H107ZM109 12H110V13H109ZM124 12H125V13H124ZM28 13H29V14H28ZM56 13H57V14H56ZM82 13H84V14H82ZM93 13H94V14H93ZM99 13H100V14H99ZM107 13H108V14H107ZM109 13H110V14H109ZM124 13H125V14H124ZM15 14H16V15H15ZM57 14H58V15H57ZM98 14H100V15H98ZM107 14H108V15H107ZM109 14H110V15H109ZM124 14H125V15H124ZM138 14H139V15H138ZM29 15H30V16H29ZM73 15H74V16H73ZM98 15H99V16H98ZM107 15H108V16H107ZM109 15H110V16H109ZM136 15H137V16H136ZM53 16H54V17H53ZM107 16H108V17H107ZM109 16H110V17H109ZM133 16H134V17H133ZM139 16H140V17H139ZM31 17H32V18H31ZM33 17H34V18H33ZM53 17H54V18H53ZM99 17H100V18H99ZM107 17H108V18H107ZM109 17H110V18H109ZM53 18H54V19H53ZM107 18H108V19H107ZM109 18H110V19H109ZM53 19H54V20H53ZM82 19H83V20H82ZM85 19H87V20H85ZM93 19H94V20H93ZM98 19H99V20H98ZM107 19H108V20H107ZM109 19H110V20H109ZM117 19H119V20H117ZM14 20H15V21H14ZM30 20H31V21H30ZM73 20H74V21H73ZM84 20H85V21H84ZM87 20H91V21H87ZM107 20H108V21H107ZM121 20H122V21H121ZM139 20H140V21H139ZM146 20H147V21H146Z"/>
  <path fill="#343434" opacity="0.906" d="M23 5H25V6H23ZM26 5H27V6H26ZM21 6H22V7H21ZM52 8H53V9H52ZM78 8H79V9H78ZM100 8H101V9H100ZM103 8H104V9H103ZM105 8H106V9H105ZM117 8H118V9H117ZM147 8H148V9H147ZM52 9H53V10H52ZM69 9H70V10H69ZM103 9H104V10H103ZM105 9H106V10H105ZM131 9H132V10H131ZM18 10H19V11H18ZM52 10H53V11H52ZM124 10H125V11H124ZM124 11H125V12H124ZM29 12H30V13H29ZM84 12H85V13H84ZM131 12H132V13H131ZM26 13H27V14H26ZM30 13H31V14H30ZM55 13H56V14H55ZM84 13H85V14H84ZM16 14H17V15H16ZM23 14H24V15H23ZM28 14H29V15H28ZM62 14H64V15H62ZM73 14H75V15H73ZM93 14H94V15H93ZM16 15H17V16H16ZM20 15H22V16H20ZM99 15H100V16H99ZM83 16H84V17H83ZM93 16H94V17H93ZM99 16H100V17H99ZM136 16H137V17H136ZM139 17H140V18H139ZM13 18H14V19H13ZM63 18H64V19H63ZM99 18H100V19H99ZM115 18H116V19H115ZM85 20H87V21H85ZM123 20H124V21H123ZM14 21H15V22H14ZM17 22H18V23H17ZM32 22H33V23H32ZM25 23H26V24H25Z"/>
  <path fill="#343434" opacity="0.901" d="M18 6H19V7H18ZM21 7H22V8H21ZM19 8H20V9H19ZM37 8H38V9H37ZM67 8H68V9H67ZM83 8H84V9H83ZM108 8H109V9H108ZM137 8H138V9H137ZM140 8H141V9H140ZM19 9H20V10H19ZM84 9H85V10H84ZM20 10H21V11H20ZM41 10H42V11H41ZM125 10H126V11H125ZM131 10H132V11H131ZM35 11H37V12H35ZM70 11H71V12H70ZM139 11H140V12H139ZM70 12H71V13H70ZM129 12H130V13H129ZM129 13H130V14H129ZM7 14H8V15H7ZM20 14H21V15H20ZM29 14H30V15H29ZM129 14H130V15H129ZM17 15H18V16H17ZM71 15H72V16H71ZM82 15H84V16H82ZM93 15H94V16H93ZM129 15H130V16H129ZM7 16H8V17H7ZM34 16H35V17H34ZM129 16H130V17H129ZM15 17H16V18H15ZM129 17H130V18H129ZM31 18H32V19H31ZM129 18H130V19H129ZM139 18H140V19H139ZM129 19H130V20H129ZM139 19H140V20H139ZM13 20H14V21H13ZM61 20H62V21H61ZM63 20H64V21H63ZM99 20H100V21H99ZM115 20H116V21H115ZM24 23H25V24H24Z"/>
  <path fill="#343434" opacity="0.897" d="M22 6H23V7H22ZM31 6H32V7H31ZM14 7H15V8H14ZM99 8H100V9H99ZM106 8H107V9H106ZM134 8H135V9H134ZM104 9H105V10H104ZM68 10H69V11H68ZM114 10H116V11H114ZM108 11H109V12H108ZM36 12H37V13H36ZM62 12H63V13H62ZM140 12H141V13H140ZM27 13H28V14H27ZM54 13H55V14H54ZM60 13H61V14H60ZM73 13H74V14H73ZM131 13H132V14H131ZM140 13H141V14H140ZM43 14H44V15H43ZM54 14H55V15H54ZM56 14H57V15H56ZM140 14H141V15H140ZM72 15H73V16H72ZM74 15H75V16H74ZM84 15H85V16H84ZM140 15H141V16H140ZM30 16H31V17H30ZM43 16H44V17H43ZM72 16H73V17H72ZM140 16H141V17H140ZM72 17H73V18H72ZM140 17H141V18H140ZM17 18H18V19H17ZM72 18H73V19H72ZM125 18H126V19H125ZM140 18H141V19H140ZM72 19H73V20H72ZM99 19H100V20H99ZM115 19H116V20H115ZM125 19H126V20H125ZM131 19H132V20H131ZM140 19H141V20H140ZM31 20H32V21H31ZM53 20H54V21H53ZM114 20H115V21H114ZM36 21H37V22H36Z"/>
  <path fill="#343434" opacity="0.887" d="M61 8H62V9H61ZM118 8H119V9H118ZM122 8H123V9H122ZM132 8H133V9H132ZM135 8H136V9H135ZM10 9H11V10H10ZM61 9H62V10H61ZM63 9H64V10H63ZM78 9H79V10H78ZM147 9H148V10H147ZM19 10H20V11H19ZM61 10H62V11H61ZM70 10H71V11H70ZM75 10H76V11H75ZM61 11H62V12H61ZM84 11H85V12H84ZM129 11H130V12H129ZM16 12H17V13H16ZM29 13H30V14H29ZM43 13H44V14H43ZM22 14H23V15H22ZM82 14H84V15H82ZM23 15H24V16H23ZM132 15H133V16H132ZM33 16H34V17H33ZM125 17H126V18H125ZM15 19H16V20H15ZM11 20H12V21H11ZM29 22H30V23H29Z"/>
  <path fill="#343434" opacity="0.882" d="M17 6H18V7H17ZM84 8H85V9H84ZM40 9H41V10H40ZM67 9H68V10H67ZM118 9H119V10H118ZM130 9H131V10H130ZM133 9H134V10H133ZM129 10H130V11H129ZM107 11H108V12H107ZM69 12H70V13H69ZM61 13H62V14H61ZM70 13H71V14H70ZM30 14H31V15H30ZM70 14H71V15H70ZM84 14H85V15H84ZM62 15H63V16H62ZM137 15H138V16H137ZM15 16H16V17H15ZM84 16H85V17H84ZM125 16H126V17H125ZM137 16H138V17H137ZM16 18H17V19H16ZM82 18H83V19H82ZM19 22H20V23H19ZM30 22H31V23H30ZM33 22H34V23H33Z"/>
  <path fill="#343434" opacity="0.877" d="M36 7H37V8H36ZM76 8H77V9H76ZM119 8H120V9H119ZM124 8H125V9H124ZM139 8H140V9H139ZM83 9H84V10H83ZM9 10H10V11H9ZM31 11H32V12H31ZM72 13H73V14H72ZM17 14H18V15H17ZM19 15H20V16H19ZM125 15H126V16H125ZM42 17H43V18H42ZM84 17H85V18H84ZM62 18H63V19H62ZM38 20H39V21H38Z"/>
  <path fill="#343434" opacity="0.872" d="M35 7H36V8H35ZM102 8H103V9H102ZM18 9H19V10H18ZM68 9H69V10H68ZM109 9H110V10H109ZM74 12H75V13H74ZM57 13H58V14H57ZM75 14H76V15H75ZM125 14H126V15H125ZM25 15H26V16H25ZM21 16H22V17H21ZM82 20H83V21H82ZM18 22H19V23H18ZM28 22H29V23H28Z"/>
  <path fill="#343434" opacity="0.867" d="M35 9H37V10H35ZM69 10H70V11H69ZM140 10H141V11H140ZM7 12H8V13H7ZM125 12H126V13H125ZM21 13H22V14H21ZM125 13H126V14H125ZM7 15H8V16H7ZM18 15H19V16H18ZM43 15H44V16H43ZM16 16H17V17H16ZM8 17H9V18H8ZM13 19H14V20H13ZM145 20H146V21H145ZM28 21H29V22H28ZM16 22H17V23H16Z"/>
  <path fill="#343434" opacity="0.862" d="M12 8H13V9H12ZM125 11H126V12H125ZM43 12H44V13H43ZM16 19H17V20H16Z"/>
  <path fill="#343434" opacity="0.847" d="M20 7H21V8H20ZM21 9H22V10H21ZM145 17H146V18H145ZM145 18H146V19H145ZM145 19H146V20H145ZM100 20H101V21H100ZM27 22H28V23H27ZM28 23H29V24H28Z"/>
  <path fill="#343434" opacity="0.842" d="M30 6H31V7H30ZM33 6H34V7H33ZM145 8H146V9H145ZM145 9H146V10H145ZM145 10H146V11H145ZM145 11H146V12H145ZM54 12H55V13H54ZM54 15H55V16H54ZM145 15H146V16H145ZM145 16H146V17H145ZM26 23H28V24H26Z"/>
  <path fill="#343434" opacity="0.837" d="M145 12H146V13H145ZM36 13H37V14H36ZM145 13H146V14H145ZM145 14H146V15H145ZM14 15H15V16H14ZM60 15H61V16H60ZM91 18H92V19H91Z"/>
  <path fill="#343434" opacity="0.833" d="M27 5H28V6H27ZM15 7H16V8H15ZM132 14H133V15H132ZM58 15H59V16H58ZM41 18H42V19H41ZM39 20H40V21H39ZM129 20H130V21H129Z"/>
  <path fill="#343434" opacity="0.828" d="M100 12H101V13H100ZM100 13H101V14H100ZM100 14H101V15H100ZM57 15H58V16H57ZM100 17H101V18H100ZM29 19H30V20H29ZM23 23H24V24H23Z"/>
  <path fill="#343434" opacity="0.823" d="M11 8H12V9H11ZM39 8H40V9H39ZM69 8H70V9H69ZM125 9H126V10H125ZM138 10H139V11H138ZM68 11H69V12H68ZM74 11H75V12H74ZM100 15H101V16H100ZM100 16H101V17H100ZM100 18H101V19H100Z"/>
  <path fill="#343434" opacity="0.813" d="M38 9H39V10H38ZM17 10H18V11H17ZM132 10H133V11H132ZM77 11H78V12H77ZM100 11H101V12H100ZM9 18H10V19H9ZM13 21H14V22H13ZM15 21H16V22H15ZM31 21H32V22H31Z"/>
  <path fill="#343434" opacity="0.808" d="M19 7H20V8H19ZM33 18H34V19H33ZM100 19H101V20H100Z"/>
  <path fill="#343434" opacity="0.803" d="M122 10H123V11H122ZM133 14H134V15H133ZM54 16H55V17H54ZM13 17H14V18H13ZM54 17H55V18H54ZM54 18H55V19H54ZM54 19H55V20H54ZM54 20H55V21H54ZM22 23H23V24H22Z"/>
  <path fill="#343434" opacity="0.798" d="M116 10H117V11H116ZM37 21H38V22H37Z"/>
  <path fill="#343434" opacity="0.793" d="M28 5H29V6H28ZM54 8H55V9H54ZM54 9H55V10H54ZM54 10H55V11H54ZM54 11H55V12H54ZM55 15H56V16H55Z"/>
  <path fill="#343434" opacity="0.788" d="M129 9H130V10H129ZM28 12H29V13H28ZM25 13H26V14H25ZM35 15H36V16H35Z"/>
  <path fill="#343434" opacity="0.778" d="M56 15H57V16H56ZM59 15H60V16H59ZM91 16H92V17H91ZM20 17H21V18H20ZM12 19H13V20H12Z"/>
  <path fill="#343434" opacity="0.773" d="M66 8H67V9H66ZM71 16H72V17H71ZM91 17H92V18H91Z"/>
  <path fill="#343434" opacity="0.768" d="M91 8H92V9H91ZM91 9H92V10H91ZM26 15H27V16H26Z"/>
  <path fill="#343434" opacity="0.764" d="M22 5H23V6H22ZM79 8H80V9H79ZM91 10H92V11H91ZM91 11H92V12H91ZM91 12H92V13H91ZM91 13H92V14H91ZM116 18H117V19H116Z"/>
  <path fill="#343434" opacity="0.759" d="M13 8H14V9H13ZM71 11H72V12H71ZM91 14H92V15H91ZM91 15H92V16H91Z"/>
  <path fill="#343434" opacity="0.754" d="M37 11H38V12H37ZM8 18H9V19H8ZM41 19H42V20H41ZM20 22H21V23H20ZM29 23H30V24H29Z"/>
  <path fill="#343434" opacity="0.744" d="M106 10H107V11H106ZM21 23H22V24H21Z"/>
  <path fill="#343434" opacity="0.739" d="M16 6H17V7H16ZM39 9H40V10H39ZM137 14H138V15H137Z"/>
  <path fill="#343434" opacity="0.729" d="M134 14H136V15H134Z"/>
  <path fill="#343434" opacity="0.724" d="M28 15H29V16H28Z"/>
  <path fill="#343434" opacity="0.719" d="M74 16H75V17H74Z"/>
  <path fill="#343434" opacity="0.709" d="M34 9H35V10H34ZM15 13H16V14H15ZM42 18H43V19H42ZM15 20H16V21H15ZM35 22H36V23H35Z"/>
  <path fill="#343434" opacity="0.704" d="M34 6H35V7H34ZM13 7H14V8H13ZM9 19H10V20H9ZM35 21H36V22H35Z"/>
  <path fill="#343434" opacity="0.7" d="M29 6H30V7H29ZM37 7H38V8H37Z"/>
  <path fill="#343434" opacity="0.695" d="M136 14H137V15H136ZM93 20H94V21H93Z"/>
  <path fill="#343434" opacity="0.69" d="M16 7H17V8H16ZM27 15H28V16H27ZM18 18H19V19H18ZM122 18H123V19H122ZM15 22H16V23H15Z"/>
  <path fill="#343434" opacity="0.685" d="M102 10H103V11H102Z"/>
  <path fill="#343434" opacity="0.675" d="M120 10H121V11H120ZM76 13H77V14H76ZM71 19H72V20H71Z"/>
  <path fill="#343434" opacity="0.67" d="M21 10H22V11H21ZM103 10H104V11H103ZM119 10H120V11H119ZM22 13H23V14H22ZM71 17H72V18H71ZM30 23H31V24H30Z"/>
  <path fill="#343434" opacity="0.665" d="M21 5H22V6H21ZM29 5H30V6H29ZM34 7H35V8H34ZM105 10H106V11H105ZM137 10H138V11H137Z"/>
  <path fill="#343434" opacity="0.66" d="M8 10H9V11H8ZM101 10H102V11H101ZM117 10H118V11H117ZM138 17H139V18H138Z"/>
  <path fill="#343434" opacity="0.655" d="M135 10H136V11H135ZM69 13H70V14H69ZM23 16H24V17H23ZM20 23H21V24H20Z"/>
  <path fill="#343434" opacity="0.65" d="M11 9H12V10H11Z"/>
  <path fill="#343434" opacity="0.64" d="M118 10H119V11H118ZM121 10H122V11H121ZM24 13H25V14H24ZM71 20H72V21H71Z"/>
  <path fill="#343434" opacity="0.635" d="M70 9H71V10H70ZM78 10H79V11H78ZM104 10H105V11H104Z"/>
  <path fill="#343434" opacity="0.631" d="M67 10H68V11H67ZM133 10H134V11H133ZM136 10H137V11H136ZM30 11H31V12H30ZM71 18H72V19H71Z"/>
  <path fill="#343434" opacity="0.626" d="M113 9H114V10H113ZM42 10H43V11H42ZM138 12H139V13H138Z"/>
  <path fill="#343434" opacity="0.621" d="M113 8H114V9H113ZM141 9H142V10H141ZM134 10H135V11H134ZM141 10H142V11H141ZM113 11H114V12H113ZM113 12H114V13H113ZM113 13H114V14H113ZM113 14H114V15H113ZM113 15H114V16H113ZM113 16H114V17H113ZM113 17H114V18H113ZM113 18H114V19H113ZM74 19H75V20H74ZM113 19H114V20H113Z"/>
  <path fill="#343434" opacity="0.616" d="M74 17H75V18H74ZM113 20H114V21H113ZM141 20H142V21H141Z"/>
  <path fill="#343434" opacity="0.606" d="M75 9H76V10H75ZM141 11H142V12H141ZM85 18H86V19H85ZM39 19H40V20H39Z"/>
  <path fill="#343434" opacity="0.601" d="M141 8H142V9H141ZM113 10H114V11H113ZM42 12H43V13H42ZM141 12H142V13H141ZM138 13H139V14H138ZM141 16H142V17H141ZM141 17H142V18H141ZM141 18H142V19H141ZM141 19H142V20H141Z"/>
  <path fill="#343434" opacity="0.596" d="M32 10H33V11H32ZM72 12H74V13H72ZM141 13H142V14H141ZM141 14H142V15H141ZM141 15H142V16H141ZM29 16H30V17H29ZM19 23H20V24H19Z"/>
  <path fill="#343434" opacity="0.591" d="M24 6H25V7H24ZM116 16H117V17H116ZM74 20H75V21H74Z"/>
  <path fill="#343434" opacity="0.586" d="M116 12H117V13H116ZM116 13H117V14H116ZM116 14H117V15H116ZM116 15H117V16H116ZM34 17H35V18H34ZM138 19H139V20H138Z"/>
  <path fill="#343434" opacity="0.581" d="M35 8H36V9H35ZM41 9H42V10H41ZM16 11H17V12H16ZM43 17H44V18H43ZM116 17H117V18H116ZM138 18H139V19H138ZM37 20H38V21H37Z"/>
  <path fill="#343434" opacity="0.571" d="M28 6H29V7H28ZM116 11H117V12H116ZM74 18H75V19H74ZM138 20H139V21H138Z"/>
  <path fill="#343434" opacity="0.567" d="M138 11H139V12H138ZM21 12H22V13H21ZM7 17H8V18H7Z"/>
  <path fill="#343434" opacity="0.562" d="M9 9H10V10H9Z"/>
  <path fill="#343434" opacity="0.557" d="M15 6H16V7H15ZM29 18H30V19H29ZM32 20H33V21H32ZM21 22H22V23H21Z"/>
  <path fill="#343434" opacity="0.547" d="M23 13H24V14H23Z"/>
  <path fill="#343434" opacity="0.537" d="M27 12H28V13H27ZM11 19H12V20H11ZM34 21H35V22H34Z"/>
  <path fill="#343434" opacity="0.532" d="M27 6H28V7H27ZM44 14H45V15H44ZM38 21H39V22H38Z"/>
  <path fill="#343434" opacity="0.527" d="M20 5H21V6H20ZM30 5H31V6H30ZM35 6H36V7H35ZM31 23H32V24H31Z"/>
  <path fill="#343434" opacity="0.517" d="M43 11H44V12H43Z"/>
  <path fill="#343434" opacity="0.502" d="M8 12H9V13H8ZM42 16H43V17H42ZM87 18H91V19H87Z"/>
  <path fill="#343434" opacity="0.498" d="M25 6H26V7H25ZM8 16H9V17H8ZM119 18H120V19H119ZM121 18H122V19H121ZM16 21H17V22H16Z"/>
  <path fill="#343434" opacity="0.493" d="M26 6H27V7H26ZM51 12H52V13H51ZM51 15H52V16H51Z"/>
  <path fill="#343434" opacity="0.488" d="M22 8H23V9H22ZM44 15H45V16H44ZM12 21H13V22H12Z"/>
  <path fill="#343434" opacity="0.483" d="M40 10H41V11H40Z"/>
  <path fill="#343434" opacity="0.478" d="M10 10H11V11H10ZM6 14H7V15H6ZM86 18H87V19H86Z"/>
  <path fill="#343434" opacity="0.468" d="M148 8H149V9H148ZM118 18H119V19H118ZM120 18H121V19H120ZM116 21H117V22H116ZM140 21H141V22H140Z"/>
  <path fill="#343434" opacity="0.463" d="M18 8H19V9H18ZM28 20H29V21H28ZM61 21H62V22H61ZM139 21H140V22H139Z"/>
  <path fill="#343434" opacity="0.458" d="M51 8H52V9H51ZM51 9H52V10H51ZM51 10H52V11H51ZM7 11H8V12H7ZM51 11H52V12H51ZM73 21H74V22H73ZM83 21H84V22H83ZM122 21H123V22H122Z"/>
  <path fill="#343434" opacity="0.453" d="M51 16H52V17H51ZM21 17H22V18H21ZM51 17H52V18H51ZM94 17H95V18H94ZM51 18H52V19H51ZM51 19H52V20H51ZM109 21H110V22H109ZM119 21H120V22H119Z"/>
  <path fill="#343434" opacity="0.448" d="M33 7H34V8H33ZM148 11H149V12H148ZM51 13H52V14H51ZM51 14H52V15H51ZM94 16H95V17H94ZM117 18H118V19H117ZM84 21H85V22H84ZM87 21H91V22H87ZM107 21H108V22H107ZM117 21H119V22H117ZM120 21H121V22H120ZM26 22H27V23H26Z"/>
  <path fill="#343434" opacity="0.443" d="M148 9H149V10H148ZM21 11H22V12H21ZM33 19H34V20H33ZM85 21H87V22H85ZM121 21H122V22H121ZM146 21H147V22H146Z"/>
  <path fill="#343434" opacity="0.433" d="M148 10H149V11H148ZM70 15H71V16H70ZM148 17H149V18H148ZM148 18H149V19H148ZM148 19H149V20H148ZM51 20H52V21H51Z"/>
  <path fill="#343434" opacity="0.429" d="M94 8H95V9H94ZM94 9H95V10H94ZM148 15H149V16H148ZM148 16H149V17H148ZM114 21H116V22H114ZM23 22H24V23H23ZM32 23H33V24H32Z"/>
  <path fill="#343434" opacity="0.424" d="M19 5H20V6H19ZM109 8H110V9H109ZM94 10H95V11H94ZM94 11H95V12H94ZM94 12H95V13H94ZM148 12H149V13H148ZM94 13H95V14H94ZM148 13H149V14H148ZM148 14H149V15H148ZM75 15H76V16H75ZM132 17H133V18H132ZM63 21H64V22H63ZM72 21H73V22H72ZM82 21H83V22H82ZM98 21H100V22H98ZM22 22H23V23H22ZM36 22H37V23H36ZM18 23H19V24H18Z"/>
  <path fill="#343434" opacity="0.419" d="M68 12H69V13H68ZM94 14H95V15H94ZM94 15H95V16H94ZM52 21H53V22H52ZM108 21H109V22H108ZM147 21H148V22H147Z"/>
  <path fill="#343434" opacity="0.414" d="M62 21H63V22H62ZM100 21H101V22H100ZM130 21H131V22H130ZM145 21H146V22H145Z"/>
  <path fill="#343434" opacity="0.409" d="M17 7H18V8H17ZM36 14H37V15H36ZM97 17H98V18H97ZM10 20H11V21H10ZM97 20H98V21H97ZM148 20H149V21H148ZM91 21H92V22H91ZM129 21H130V22H129Z"/>
  <path fill="#343434" opacity="0.404" d="M31 5H32V6H31ZM97 8H98V9H97ZM97 9H98V10H97ZM6 15H7V16H6ZM97 18H98V19H97ZM54 21H55V22H54Z"/>
  <path fill="#343434" opacity="0.394" d="M38 10H39V11H38ZM97 10H98V11H97ZM97 11H98V12H97ZM97 12H98V13H97ZM97 13H98V14H97ZM24 16H25V17H24ZM97 16H98V17H97ZM131 21H132V22H131Z"/>
  <path fill="#343434" opacity="0.389" d="M14 14H15V15H14ZM97 14H98V15H97ZM97 15H98V16H97ZM94 18H95V19H94ZM97 19H98V20H97ZM40 20H41V21H40ZM53 21H54V22H53Z"/>
  <path fill="#343434" opacity="0.384" d="M44 13H45V14H44Z"/>
  <path fill="#343434" opacity="0.379" d="M37 12H38V13H37Z"/>
  <path fill="#343434" opacity="0.374" d="M40 18H41V19H40ZM123 21H124V22H123Z"/>
  <path fill="#343434" opacity="0.369" d="M6 13H7V14H6Z"/>
  <path fill="#343434" opacity="0.36" d="M125 8H126V9H125ZM71 21H72V22H71ZM14 22H15V23H14Z"/>
  <path fill="#343434" opacity="0.355" d="M12 7H13V8H12ZM10 18H11V19H10ZM12 18H13V19H12Z"/>
  <path fill="#343434" opacity="0.35" d="M17 9H18V10H17ZM41 11H42V12H41Z"/>
  <path fill="#343434" opacity="0.345" d="M9 11H10V12H9Z"/>
  <path fill="#343434" opacity="0.34" d="M38 7H39V8H38ZM25 22H26V23H25Z"/>
  <path fill="#343434" opacity="0.335" d="M14 8H15V9H14ZM132 11H133V12H132ZM77 12H78V13H77ZM92 21H93V22H92ZM24 22H25V23H24Z"/>
  <path fill="#343434" opacity="0.325" d="M18 7H19V8H18ZM35 16H36V17H35ZM125 20H126V21H125Z"/>
  <path fill="#343434" opacity="0.32" d="M141 21H142V22H141Z"/>
  <path fill="#343434" opacity="0.315" d="M79 9H80V10H79ZM74 10H75V11H74ZM13 16H14V17H13Z"/>
  <path fill="#343434" opacity="0.31" d="M98 7H99V8H98ZM40 8H41V9H40ZM29 17H30V18H29Z"/>
  <path fill="#343434" opacity="0.305" d="M122 17H123V18H122ZM19 18H20V19H19ZM17 19H18V20H17Z"/>
  <path fill="#343434" opacity="0.3" d="M94 19H95V20H94Z"/>
  <path fill="#343434" opacity="0.291" d="M77 7H78V8H77ZM36 20H37V21H36Z"/>
  <path fill="#343434" opacity="0.286" d="M83 7H84V8H83ZM92 7H93V8H92ZM138 21H139V22H138Z"/>
  <path fill="#343434" opacity="0.281" d="M68 7H69V8H68ZM99 7H107V8H99ZM140 7H141V8H140ZM71 10H72V11H71ZM122 11H123V12H122ZM132 13H133V14H132ZM122 16H123V17H122ZM132 19H133V20H132Z"/>
  <path fill="#343434" opacity="0.276" d="M32 5H33V6H32ZM23 7H24V8H23Z"/>
  <path fill="#343434" opacity="0.271" d="M18 5H19V6H18ZM52 7H54V8H52ZM15 12H16V13H15ZM122 12H123V13H122ZM132 12H133V13H132ZM122 13H123V14H122ZM122 14H123V15H122ZM122 15H123V16H122ZM17 21H18V22H17ZM113 21H114V22H113Z"/>
  <path fill="#343434" opacity="0.266" d="M93 7H94V8H93ZM115 7H123V8H115ZM10 8H11V9H10ZM110 12H111V13H110ZM110 13H111V14H110ZM110 14H111V15H110ZM110 15H111V16H110ZM110 16H111V17H110ZM9 17H10V18H9ZM110 17H111V18H110ZM110 18H111V19H110ZM110 19H111V20H110ZM74 21H75V22H74Z"/>
  <path fill="#343434" opacity="0.256" d="M61 7H62V8H61ZM78 7H79V8H78ZM107 7H108V8H107ZM146 7H147V8H146ZM32 21H33V22H32ZM33 23H34V24H33Z"/>
  <path fill="#343434" opacity="0.251" d="M63 7H64V8H63ZM66 7H68V8H66ZM79 7H80V8H79ZM82 7H83V8H82ZM81 16H82V17H81ZM132 18H133V19H132Z"/>
  <path fill="#343434" opacity="0.246" d="M62 7H63V8H62ZM114 7H115V8H114ZM129 8H130V9H129ZM33 9H34V10H33ZM66 9H67V10H66ZM26 12H27V13H26ZM81 17H82V18H81ZM132 20H133V21H132ZM33 21H34V22H33ZM17 23H18V24H17Z"/>
  <path fill="#343434" opacity="0.241" d="M36 6H37V7H36ZM131 7H140V8H131ZM81 8H82V9H81ZM81 11H82V12H81ZM81 12H82V13H81ZM81 13H82V14H81ZM81 19H82V20H81Z"/>
  <path fill="#343434" opacity="0.232" d="M123 7H124V8H123ZM147 7H148V8H147ZM12 9H13V10H12ZM81 15H82V16H81Z"/>
  <path fill="#343434" opacity="0.222" d="M64 12H65V13H64ZM64 17H65V18H64ZM64 20H65V21H64ZM124 21H125V22H124Z"/>
  <path fill="#343434" opacity="0.217" d="M32 7H33V8H32ZM64 9H65V10H64ZM29 11H30V12H29ZM81 14H82V15H81ZM6 16H7V17H6ZM64 16H65V17H64ZM41 17H42V18H41ZM64 19H65V20H64ZM51 21H52V22H51Z"/>
  <path fill="#343434" opacity="0.212" d="M84 7H85V8H84ZM64 11H65V12H64ZM110 11H111V12H110ZM81 18H82V19H81Z"/>
  <path fill="#343434" opacity="0.207" d="M145 7H146V8H145ZM64 13H65V14H64ZM64 15H65V16H64Z"/>
  <path fill="#343434" opacity="0.202" d="M42 13H43V14H42ZM137 17H138V18H137ZM64 18H65V19H64ZM110 20H111V21H110ZM132 21H133V22H132Z"/>
  <path fill="#343434" opacity="0.197" d="M91 7H92V8H91ZM113 7H114V8H113ZM141 7H142V8H141ZM81 9H82V10H81ZM64 10H65V11H64ZM81 10H82V11H81ZM110 10H111V11H110ZM64 14H65V15H64Z"/>
  <path fill="#343434" opacity="0.187" d="M60 16H61V17H60ZM136 17H137V18H136ZM97 21H98V22H97Z"/>
  <path fill="#343434" opacity="0.182" d="M76 7H77V8H76Z"/>
  <path fill="#343434" opacity="0.177" d="M69 7H70V8H69ZM8 13H9V14H8ZM81 20H82V21H81Z"/>
  <path fill="#343434" opacity="0.172" d="M64 8H65V9H64ZM60 12H61V13H60ZM11 21H12V22H11ZM148 21H149V22H148Z"/>
  <path fill="#343434" opacity="0.167" d="M18 21H19V22H18Z"/>
  <path fill="#343434" opacity="0.163" d="M14 6H15V7H14ZM51 7H52V8H51ZM54 7H55V8H54ZM42 15H43V16H42ZM85 17H86V18H85ZM134 17H135V18H134Z"/>
  <path fill="#343434" opacity="0.153" d="M31 10H32V11H31ZM6 12H7V13H6Z"/>
  <path fill="#343434" opacity="0.148" d="M17 5H18V6H17ZM108 7H109V8H108ZM44 16H45V17H44Z"/>
  <path fill="#343434" opacity="0.143" d="M94 7H95V8H94ZM44 12H45V13H44ZM57 12H58V13H57ZM85 12H86V13H85ZM85 13H86V14H85ZM133 17H134V18H133Z"/>
  <path fill="#343434" opacity="0.138" d="M85 10H86V11H85ZM135 17H136V18H135ZM34 18H35V19H34ZM110 21H111V22H110Z"/>
  <path fill="#343434" opacity="0.133" d="M148 7H149V8H148ZM22 9H23V10H22ZM106 11H107V12H106ZM69 14H70V15H69ZM85 15H86V16H85ZM60 18H61V19H60Z"/>
  <path fill="#343434" opacity="0.128" d="M85 11H86V12H85ZM56 12H57V13H56Z"/>
  <path fill="#343434" opacity="0.118" d="M97 7H98V8H97ZM124 7H125V8H124ZM110 9H111V10H110ZM67 11H68V12H67ZM25 12H26V13H25ZM55 12H56V13H55ZM85 14H86V15H85Z"/>
  <path fill="#343434" opacity="0.113" d="M31 7H32V8H31ZM60 8H61V9H60ZM60 9H61V10H60ZM60 10H61V11H60ZM60 11H61V12H60ZM58 12H59V13H58ZM25 16H26V17H25ZM39 21H40V22H39Z"/>
  <path fill="#343434" opacity="0.108" d="M33 5H34V6H33ZM85 16H86V17H85ZM106 17H107V18H106ZM106 18H107V19H106ZM42 19H43V20H42ZM106 19H107V20H106ZM16 20H17V21H16ZM144 20H145V21H144ZM64 21H65V22H64Z"/>
  <path fill="#343434" opacity="0.103" d="M59 12H60V13H59ZM42 14H43V15H42ZM8 15H9V16H8ZM106 16H107V17H106Z"/>
  <path fill="#343434" opacity="0.099" d="M75 8H76V9H75ZM85 8H86V9H85ZM78 11H79V12H78ZM106 15H107V16H106ZM144 17H145V18H144ZM144 18H145V19H144ZM60 19H61V20H60ZM144 19H145V20H144ZM27 21H28V22H27ZM93 21H94V22H93Z"/>
  <path fill="#343434" opacity="0.094" d="M64 7H66V8H64ZM80 7H82V8H80ZM144 8H145V9H144ZM144 9H145V10H144ZM16 10H17V11H16ZM144 10H145V11H144ZM128 11H129V12H128ZM144 11H145V12H144ZM106 12H107V13H106ZM106 13H107V14H106ZM106 14H107V15H106ZM144 15H145V16H144ZM144 16H145V17H144Z"/>
  <path fill="#343434" opacity="0.084" d="M144 12H145V13H144ZM68 13H69V14H68ZM144 13H145V14H144ZM76 14H77V15H76ZM144 14H145V15H144ZM6 17H7V18H6ZM8 19H9V20H8Z"/>
  <path fill="#343434" opacity="0.079" d="M26 4H27V5H26ZM73 11H74V12H73ZM38 19H39V20H38ZM9 20H10V21H9ZM81 21H82V22H81Z"/>
  <path fill="#343434" opacity="0.074" d="M55 16H56V17H55ZM60 17H61V18H60ZM7 18H8V19H7ZM60 20H61V21H60Z"/>
  <path fill="#343434" opacity="0.069" d="M8 9H9V10H8ZM43 18H44V19H43Z"/>
  <path fill="#343434" opacity="0.064" d="M25 4H26V5H25ZM65 8H66V9H65ZM73 10H74V11H73ZM128 10H129V11H128ZM38 11H39V12H38ZM126 12H127V13H126ZM126 13H127V14H126ZM126 14H127V15H126ZM13 15H14V16H13ZM126 15H127V16H126ZM26 16H27V17H26ZM28 16H29V17H28ZM126 16H127V17H126ZM126 17H127V18H126ZM126 18H127V19H126ZM126 19H127V20H126ZM106 20H107V21H106ZM42 21H43V22H42ZM13 22H14V23H13Z"/>
  <path fill="#343434" opacity="0.059" d="M24 4H25V5H24ZM85 9H86V10H85ZM28 11H29V12H28ZM126 11H127V12H126ZM37 13H38V14H37ZM36 15H37V16H36ZM76 16H77V17H76ZM41 20H42V21H41ZM37 22H38V23H37ZM97 23H98V24H97ZM134 23H135V24H134Z"/>
  <path fill="#343434" opacity="0.049" d="M27 4H28V5H27ZM11 7H12V8H11ZM34 8H35V9H34ZM28 10H29V11H28ZM44 10H45V11H44ZM38 12H39V13H38ZM10 16H11V17H10ZM12 17H13V18H12ZM128 20H129V21H128ZM130 22H131V23H130ZM23 24H25V25H23Z"/>
  <path fill="#343434" opacity="0.044" d="M70 8H71V9H70ZM15 9H16V10H15ZM43 10H44V11H43ZM9 12H10V13H9ZM128 12H129V13H128ZM41 13H42V14H41ZM128 13H129V14H128ZM41 14H42V15H41ZM128 14H129V15H128ZM38 15H39V16H38ZM128 15H129V16H128ZM40 16H41V17H40ZM75 16H76V17H75ZM128 16H129V17H128ZM128 17H129V18H128ZM128 18H129V19H128ZM44 19H45V20H44ZM128 19H129V20H128ZM133 19H134V20H133ZM137 19H138V20H137ZM60 21H61V22H60ZM128 21H129V22H128ZM52 22H53V23H52ZM82 22H83V23H82ZM62 23H63V24H62ZM79 23H80V24H79ZM126 23H127V24H126ZM146 23H147V24H146ZM25 24H29V25H25Z"/>
  <path fill="#343434" opacity="0.039" d="M23 4H24V5H23ZM114 4H115V5H114ZM16 5H17V6H16ZM23 8H24V9H23ZM30 8H31V9H30ZM137 12H138V13H137ZM59 16H60V17H59ZM57 17H58V18H57ZM18 19H19V20H18ZM28 19H29V20H28ZM78 19H79V20H78ZM94 20H95V21H94ZM106 21H107V22H106ZM144 21H145V22H144ZM98 22H99V23H98ZM42 23H43V24H42ZM29 24H31V25H29Z"/>
  <path fill="#343434" opacity="0.034" d="M34 4H35V5H34ZM13 6H14V7H13ZM29 7H30V8H29ZM85 7H86V8H85ZM144 7H145V8H144ZM16 8H17V9H16ZM42 9H43V10H42ZM86 9H87V10H86ZM66 10H67V11H66ZM40 11H41V12H40ZM45 11H46V12H45ZM4 14H5V15H4ZM120 16H121V17H120ZM20 18H21V19H20ZM38 18H39V19H38ZM19 19H20V20H19ZM37 19H38V20H37ZM66 20H67V21H66ZM133 20H134V21H133ZM136 21H137V22H136ZM131 22H132V23H131ZM95 23H96V24H95ZM111 23H112V24H111Z"/>
  <path fill="#343434" opacity="0.03" d="M30 4H31V5H30ZM37 4H38V5H37ZM64 4H66V5H64ZM98 4H99V5H98ZM112 4H113V5H112ZM146 4H147V5H146ZM83 5H84V6H83ZM94 5H95V6H94ZM77 6H78V7H77ZM28 7H29V8H28ZM142 7H143V8H142ZM128 8H129V9H128ZM73 9H74V10H73ZM112 9H113V10H112ZM7 10H8V11H7ZM12 10H13V11H12ZM22 10H23V11H22ZM126 10H127V11H126ZM39 11H40V12H39ZM101 11H102V12H101ZM137 11H138V12H137ZM149 11H150V12H149ZM4 13H5V14H4ZM27 16H28V17H27ZM36 16H37V17H36ZM57 16H59V17H57ZM80 16H81V17H80ZM86 16H87V17H86ZM35 17H36V18H35ZM118 17H119V18H118ZM11 18H12V19H11ZM22 18H23V19H22ZM59 18H60V19H59ZM75 19H76V20H75ZM17 20H18V21H17ZM35 20H36V21H35ZM56 20H57V21H56ZM59 20H60V21H59ZM11 22H12V23H11ZM51 22H52V23H51ZM59 22H60V23H59ZM65 22H66V23H65ZM142 22H143V23H142ZM16 23H17V24H16ZM73 23H74V24H73ZM83 23H84V24H83ZM144 23H145V24H144Z"/>
</svg>