<svg xmlns="http://www.w3.org/2000/svg" width="91" height="44" viewBox="0 0 91 44" role="img" aria-label="image2 12 kuaishou" shape-rendering="crispEdges">
  <title>image2 12 kuaishou</title>
  <desc>Pixel-level vector reconstruction extracted from the supplied PNG, with white background removed.</desc>
  <path fill="#373737" d="M28 18H29V19H28Z"/>
  <path fill="#373737" opacity="0.995" d="M10 11H11V12H10ZM57 17H58V18H57Z"/>
  <path fill="#373737" opacity="0.985" d="M51 13H52V14H51ZM27 22H28V23H27ZM24 23H25V24H24ZM56 29H57V30H56Z"/>
  <path fill="#373737" opacity="0.98" d="M31 14H32V15H31ZM50 14H51V15H50ZM16 19H17V20H16ZM49 24H50V25H49ZM51 25H52V26H51ZM54 28H55V29H54ZM17 35H18V36H17Z"/>
  <path fill="#373737" opacity="0.97" d="M56 14H57V15H56ZM78 14H79V15H78ZM50 15H51V16H50ZM51 16H52V17H51ZM25 23H26V24H25ZM50 24H51V25H50ZM58 24H59V25H58ZM16 25H17V26H16ZM71 31H72V32H71ZM30 34H31V35H30Z"/>
  <path fill="#373737" opacity="0.965" d="M11 10H12V11H11ZM27 10H28V11H27ZM73 14H74V15H73ZM46 15H47V16H46ZM11 16H12V17H11ZM21 17H22V18H21ZM30 17H31V18H30ZM17 19H18V20H17ZM57 21H58V22H57ZM28 23H29V24H28ZM45 24H46V25H45ZM56 24H57V25H56ZM54 26H55V27H54Z"/>
  <path fill="#373737" opacity="0.96" d="M55 14H56V15H55ZM12 18H13V19H12ZM26 19H27V20H26ZM38 25H39V26H38ZM72 25H73V26H72ZM15 26H16V27H15ZM53 26H54V27H53ZM14 27H15V28H14ZM31 27H32V28H31ZM15 31H16V32H15Z"/>
  <path fill="#373737" opacity="0.955" d="M13 8H14V9H13ZM27 9H28V10H27ZM21 11H22V12H21ZM9 13H10V14H9ZM52 13H53V14H52ZM77 14H78V15H77ZM21 15H22V16H21ZM47 15H48V16H47ZM21 16H22V17H21ZM19 18H20V19H19ZM72 20H73V21H72ZM23 23H24V24H23ZM52 24H53V25H52ZM57 24H58V25H57ZM74 25H75V26H74ZM13 26H14V27H13ZM78 26H79V27H78ZM74 30H75V31H74ZM14 31H15V32H14ZM13 32H14V33H13ZM31 32H32V33H31Z"/>
  <path fill="#373737" opacity="0.95" d="M12 9H13V10H12ZM19 9H20V10H19ZM82 13H83V14H82ZM48 14H49V15H48ZM52 14H53V15H52ZM74 14H75V15H74ZM49 15H50V16H49ZM20 16H21V17H20ZM29 18H30V19H29ZM15 19H16V20H15ZM27 19H28V20H27ZM42 21H43V22H42ZM42 22H43V23H42ZM50 23H52V24H50ZM57 23H59V24H57ZM48 24H49V25H48ZM52 25H53V26H52ZM7 26H8V27H7ZM71 26H72V27H71ZM73 26H74V27H73ZM53 27H54V28H53ZM47 31H48V32H47ZM70 31H71V32H70ZM72 31H73V32H72ZM8 33H9V34H8ZM7 34H8V35H7ZM27 35H28V36H27Z"/>
  <path fill="#373737" opacity="0.945" d="M16 8H17V9H16ZM18 8H19V9H18ZM20 9H21V10H20ZM10 10H11V11H10ZM11 11H12V12H11ZM20 11H21V12H20ZM30 11H31V12H30ZM30 12H31V13H30ZM42 14H43V15H42ZM57 14H58V15H57ZM65 14H66V15H65ZM71 14H72V15H71ZM11 17H12V18H11ZM25 19H26V20H25ZM28 19H29V20H28ZM43 19H44V20H43ZM73 20H74V21H73ZM74 22H75V23H74ZM19 23H23V24H19ZM27 23H28V24H27ZM83 25H84V26H83ZM72 26H73V27H72ZM7 27H8V28H7ZM49 29H50V30H49ZM73 31H74V32H73ZM8 32H9V33H8ZM12 32H13V33H12ZM42 32H43V33H42ZM8 34H10V35H8ZM28 35H29V36H28Z"/>
  <path fill="#373737" opacity="0.935" d="M11 9H12V10H11ZM29 11H30V12H29ZM10 12H11V13H10ZM10 13H11V14H10ZM49 14H50V15H49ZM75 14H76V15H75ZM51 15H52V16H51ZM22 16H23V17H22ZM38 16H39V17H38ZM74 16H75V17H74ZM29 17H30V18H29ZM74 17H75V18H74ZM27 18H28V19H27ZM74 18H75V19H74ZM14 19H15V20H14ZM42 20H43V21H42ZM51 20H52V21H51ZM57 20H58V21H57ZM65 20H66V21H65ZM71 20H72V21H71ZM51 21H52V22H51ZM51 22H52V23H51ZM52 23H53V24H52ZM53 24H54V25H53ZM9 25H10V26H9ZM11 25H12V26H11ZM75 25H76V26H75ZM12 26H13V27H12ZM14 26H15V27H14ZM30 26H31V27H30ZM67 26H71V27H67ZM48 30H49V31H48ZM13 31H14V32H13ZM74 31H75V32H74ZM70 32H71V33H70ZM10 33H11V34H10ZM30 33H31V34H30ZM17 34H18V35H17Z"/>
  <path fill="#373737" opacity="0.93" d="M16 7H17V8H16ZM14 8H15V9H14ZM25 9H27V10H25ZM23 10H24V11H23ZM21 12H22V13H21ZM10 14H11V15H10ZM21 14H22V15H21ZM51 14H52V15H51ZM67 14H71V15H67ZM72 14H73V15H72ZM10 15H11V16H10ZM20 15H21V16H20ZM38 15H39V16H38ZM42 15H43V16H42ZM52 15H53V16H52ZM42 16H43V17H42ZM38 17H39V18H38ZM15 18H16V19H15ZM24 18H25V19H24ZM44 18H45V19H44ZM57 18H58V19H57ZM44 19H45V20H44ZM57 19H58V20H57ZM74 19H75V20H74ZM67 20H71V21H67ZM75 20H76V21H75ZM23 22H24V23H23ZM26 23H27V24H26ZM42 23H43V24H42ZM9 24H10V25H9ZM29 24H30V25H29ZM37 24H38V25H37ZM8 25H9V26H8ZM12 25H13V26H12ZM30 25H31V26H30ZM41 25H42V26H41ZM37 26H38V27H37ZM51 26H53V27H51ZM63 26H67V27H63ZM75 26H76V27H75ZM54 27H55V28H54ZM15 28H16V29H15ZM50 28H51V29H50ZM15 29H16V30H15ZM30 29H31V30H30ZM30 30H31V31H30ZM30 31H31V32H30ZM11 32H12V33H11ZM15 32H16V33H15ZM29 33H30V34H29ZM18 34H19V35H18ZM19 35H27V36H19Z"/>
  <path fill="#373737" opacity="0.925" d="M15 8H16V9H15ZM20 10H22V11H20ZM26 10H27V11H26ZM28 10H29V11H28ZM28 11H29V12H28ZM82 12H83V13H82ZM46 14H48V15H46ZM55 15H56V16H55ZM74 15H75V16H74ZM10 16H11V17H10ZM30 16H31V17H30ZM12 17H13V18H12ZM42 17H43V18H42ZM38 18H39V19H38ZM18 19H19V20H18ZM42 19H43V20H42ZM51 19H52V20H51ZM79 20H83V21H79ZM73 21H74V22H73ZM22 22H23V23H22ZM17 23H18V24H17ZM54 23H55V24H54ZM10 24H11V25H10ZM28 24H29V25H28ZM30 24H31V25H30ZM10 25H11V26H10ZM15 25H16V26H15ZM73 25H74V26H73ZM77 25H78V26H77ZM79 25H83V26H79ZM84 26H85V27H84ZM50 27H51V28H50ZM30 28H31V29H30ZM74 29H75V30H74ZM9 33H10V34H9ZM12 33H13V34H12ZM15 33H16V34H15Z"/>
  <path fill="#373737" opacity="0.92" d="M15 7H16V8H15ZM17 8H18V9H17ZM24 10H25V11H24ZM21 13H22V14H21ZM81 13H82V14H81ZM30 14H31V15H30ZM53 14H55V15H53ZM80 14H81V15H80ZM41 15H42V16H41ZM48 15H49V16H48ZM73 15H74V16H73ZM52 16H53V17H52ZM22 17H23V18H22ZM13 18H14V19H13ZM16 18H17V19H16ZM23 18H24V19H23ZM42 18H43V19H42ZM51 18H52V19H51ZM38 19H39V20H38ZM77 20H78V21H77ZM19 22H22V23H19ZM26 22H27V23H26ZM18 23H19V24H18ZM17 24H18V25H17ZM46 24H47V25H46ZM51 24H52V25H51ZM42 25H43V26H42ZM54 25H55V26H54ZM31 26H32V27H31ZM41 26H42V27H41ZM79 26H84V27H79ZM15 27H16V28H15ZM30 27H31V28H30ZM73 27H74V28H73ZM7 28H8V29H7ZM31 28H32V29H31ZM55 28H56V29H55ZM74 28H75V29H74ZM7 29H8V30H7ZM31 29H32V30H31ZM55 29H56V30H55ZM7 30H8V31H7ZM31 30H32V31H31ZM56 30H58V31H56ZM73 30H74V31H73ZM7 31H8V32H7ZM31 31H32V32H31ZM46 31H47V32H46ZM30 32H31V33H30ZM7 33H8V34H7ZM11 33H12V34H11ZM27 34H29V35H27Z"/>
  <path fill="#373737" opacity="0.915" d="M19 8H20V9H19ZM29 10H30V11H29ZM22 11H23V12H22ZM52 12H53V13H52ZM42 13H43V14H42ZM80 13H81V14H80ZM81 14H82V15H81ZM30 15H31V16H30ZM37 15H38V16H37ZM41 16H42V17H41ZM57 16H58V17H57ZM20 17H21V18H20ZM17 18H19V19H17ZM43 18H44V19H43ZM13 19H14V20H13ZM73 19H74V20H73ZM74 20H75V21H74ZM29 23H30V24H29ZM7 24H8V25H7ZM42 24H43V25H42ZM54 24H56V25H54ZM84 25H85V26H84ZM11 26H12V27H11ZM42 26H43V27H42ZM42 29H43V30H42ZM42 30H43V31H42ZM42 31H43V32H42ZM57 31H58V32H57ZM14 32H15V33H14ZM58 32H59V33H58ZM71 32H73V33H71ZM16 33H17V34H16ZM18 35H19V36H18Z"/>
  <path fill="#373737" opacity="0.91" d="M17 7H18V8H17ZM24 9H25V10H24ZM23 11H24V12H23ZM22 13H23V14H22ZM41 13H42V14H41ZM9 14H10V15H9ZM76 14H77V15H76ZM79 14H80V15H79ZM53 15H54V16H53ZM57 15H58V16H57ZM31 16H32V17H31ZM22 18H23V19H22ZM38 20H39V21H38ZM38 21H39V22H38ZM74 21H75V22H74ZM24 22H25V23H24ZM38 22H39V23H38ZM38 23H39V24H38ZM56 23H57V24H56ZM8 24H9V25H8ZM38 24H39V25H38ZM41 24H42V25H41ZM7 25H8V26H7ZM53 25H54V26H53ZM76 25H77V26H76ZM78 25H79V26H78ZM42 28H43V29H42ZM48 29H49V30H48ZM47 30H48V31H47Z"/>
  <path fill="#373737" opacity="0.9" d="M12 8H13V9H12ZM28 9H29V10H28ZM25 10H26V11H25ZM9 12H10V13H9ZM22 12H23V13H22ZM22 14H23V15H22ZM41 14H42V15H41ZM66 14H67V15H66ZM56 15H57V16H56ZM19 17H20V18H19ZM51 17H52V18H51ZM14 18H15V19H14ZM78 20H79V21H78ZM41 21H42V22H41ZM25 22H26V23H25ZM41 22H42V23H41ZM73 22H74V23H73ZM41 23H42V24H41ZM37 25H38V26H37ZM67 25H71V26H67ZM50 26H51V27H50ZM74 26H75V27H74ZM77 26H78V27H77ZM42 27H43V28H42ZM51 27H52V28H51ZM74 27H75V28H74ZM49 28H50V29H49ZM29 34H30V35H29Z"/>
  <path fill="#373737" opacity="0.895" d="M13 9H14V10H13ZM41 12H43V13H41ZM51 12H52V13H51ZM31 13H32V14H31ZM54 15H55V16H54ZM23 17H24V18H23ZM41 17H42V18H41ZM24 19H25V20H24ZM41 20H42V21H41ZM37 21H38V22H37ZM37 22H38V23H37ZM37 23H38V24H37ZM59 24H60V25H59ZM73 24H75V25H73ZM63 25H67V26H63ZM13 27H14V28H13ZM41 27H42V28H41ZM15 30H16V31H15ZM48 31H49V32H48ZM16 34H17V35H16ZM19 34H27V35H19Z"/>
  <path fill="#373737" opacity="0.89" d="M14 7H15V8H14ZM22 10H23V11H22ZM11 18H12V19H11ZM41 18H42V19H41ZM41 19H42V20H41ZM75 19H76V20H75ZM77 19H78V20H77ZM66 20H67V21H66ZM76 20H77V21H76ZM47 23H48V24H47ZM74 23H75V24H74ZM76 26H77V27H76ZM58 31H59V32H58ZM41 32H42V33H41ZM46 32H47V33H46ZM73 32H74V33H73ZM31 33H32V34H31Z"/>
  <path fill="#373737" opacity="0.885" d="M29 12H30V13H29ZM31 12H32V13H31ZM11 15H12V16H11ZM22 15H23V16H22ZM31 15H32V16H31ZM29 16H30V17H29ZM20 18H21V19H20ZM37 20H38V21H37ZM75 21H76V22H75ZM71 25H72V26H71ZM41 28H42V29H41ZM41 29H42V30H41ZM41 30H42V31H41ZM49 30H50V31H49ZM41 31H42V32H41ZM29 35H30V36H29Z"/>
  <path fill="#373737" opacity="0.88" d="M18 9H19V10H18ZM37 16H38V17H37ZM10 17H11V18H10ZM26 18H27V19H26ZM57 22H58V23H57ZM46 23H47V24H46ZM47 24H48V25H47ZM50 25H51V26H50ZM14 28H15V29H14ZM16 32H17V33H16Z"/>
  <path fill="#373737" opacity="0.875" d="M30 13H31V14H30ZM65 13H67V14H65ZM76 13H77V14H76ZM73 16H74V17H73ZM37 17H38V18H37ZM37 19H38V20H37ZM52 19H53V20H52ZM67 19H71V20H67ZM52 20H53V21H52ZM38 26H39V27H38ZM69 31H70V32H69ZM7 32H8V33H7Z"/>
  <path fill="#373737" opacity="0.865" d="M72 13H73V14H72ZM37 18H38V19H37ZM52 18H53V19H52ZM23 19H24V20H23ZM72 19H73V20H72ZM52 22H53V23H52ZM59 23H60V24H59ZM73 23H74V24H73ZM8 26H9V27H8ZM75 27H76V28H75ZM14 30H15V31H14ZM55 30H56V31H55ZM10 34H11V35H10Z"/>
  <path fill="#373737" opacity="0.86" d="M18 7H19V8H18ZM19 10H20V11H19ZM25 18H26V19H25ZM73 18H74V19H73ZM79 19H83V20H79ZM48 23H50V24H48ZM53 23H54V24H53ZM55 23H56V24H55ZM31 25H32V26H31ZM73 29H74V30H73Z"/>
  <path fill="#373737" opacity="0.855" d="M66 19H67V20H66ZM78 19H79V20H78ZM15 24H17V25H15ZM16 26H17V27H16Z"/>
  <path fill="#373737" opacity="0.85" d="M71 13H72V14H71ZM52 17H53V18H52ZM59 31H60V32H59Z"/>
  <path fill="#373737" opacity="0.845" d="M67 13H71V14H67ZM74 13H76V14H74ZM71 19H72V20H71ZM76 19H77V20H76ZM16 23H17V24H16Z"/>
  <path fill="#373737" opacity="0.84" d="M20 12H21V13H20ZM29 19H30V20H29ZM58 22H59V23H58ZM12 31H13V32H12ZM45 31H46V32H45Z"/>
  <path fill="#373737" opacity="0.835" d="M20 14H21V15H20ZM30 18H31V19H30ZM6 26H7V27H6ZM73 28H74V29H73Z"/>
  <path fill="#373737" opacity="0.825" d="M13 7H14V8H13ZM73 13H74V14H73ZM77 13H78V14H77ZM79 13H80V14H79ZM6 32H7V33H6Z"/>
  <path fill="#373737" opacity="0.82" d="M73 17H74V18H73ZM52 21H53V22H52Z"/>
  <path fill="#373737" opacity="0.815" d="M75 15H76V16H75ZM6 27H7V28H6Z"/>
  <path fill="#373737" opacity="0.81" d="M78 13H79V14H78ZM9 15H10V16H9ZM54 29H55V30H54Z"/>
  <path fill="#373737" opacity="0.805" d="M83 12H84V13H83ZM58 20H59V21H58ZM8 23H9V24H8ZM56 31H57V32H56Z"/>
  <path fill="#373737" opacity="0.8" d="M20 13H21V14H20ZM58 18H59V19H58ZM45 23H46V24H45ZM29 25H30V26H29ZM6 28H7V29H6ZM6 29H7V30H6ZM6 30H7V31H6ZM6 31H7V32H6Z"/>
  <path fill="#373737" opacity="0.79" d="M9 11H10V12H9ZM24 11H25V12H24ZM13 17H14V18H13ZM18 17H19V18H18ZM18 22H19V23H18Z"/>
  <path fill="#373737" opacity="0.785" d="M50 29H51V30H50ZM10 32H11V33H10ZM6 33H7V34H6Z"/>
  <path fill="#373737" opacity="0.78" d="M11 12H12V13H11ZM65 19H66V20H65ZM18 24H19V25H18ZM16 27H17V28H16Z"/>
  <path fill="#373737" opacity="0.775" d="M23 12H24V13H23Z"/>
  <path fill="#373737" opacity="0.77" d="M83 13H84V14H83ZM58 15H59V16H58ZM58 19H59V20H58ZM28 22H29V23H28ZM6 25H7V26H6Z"/>
  <path fill="#373737" opacity="0.765" d="M58 21H59V22H58Z"/>
  <path fill="#373737" opacity="0.755" d="M11 8H12V9H11ZM10 9H11V10H10ZM12 10H13V11H12ZM16 31H17V32H16ZM69 32H70V33H69Z"/>
  <path fill="#373737" opacity="0.75" d="M28 17H29V18H28ZM16 28H17V29H16ZM14 29H15V30H14Z"/>
  <path fill="#373737" opacity="0.745" d="M82 14H83V15H82ZM49 27H50V28H49Z"/>
  <path fill="#373737" opacity="0.74" d="M19 16H20V17H19ZM12 19H13V20H12ZM15 34H16V35H15Z"/>
  <path fill="#373737" opacity="0.735" d="M56 21H57V22H56ZM16 35H17V36H16Z"/>
  <path fill="#373737" opacity="0.73" d="M58 14H59V15H58ZM58 16H59V17H58ZM15 20H16V21H15ZM56 22H57V23H56ZM19 36H27V37H19Z"/>
  <path fill="#373737" opacity="0.72" d="M56 16H57V17H56ZM12 27H13V28H12ZM16 29H17V30H16ZM16 30H17V31H16ZM17 33H18V34H17Z"/>
  <path fill="#373737" opacity="0.715" d="M8 27H9V28H8Z"/>
  <path fill="#373737" opacity="0.71" d="M50 13H51V14H50ZM12 16H13V17H12ZM19 19H20V20H19ZM56 20H57V21H56ZM55 27H56V28H55Z"/>
  <path fill="#373737" opacity="0.705" d="M23 9H24V10H23ZM58 17H59V18H58ZM30 23H31V24H30ZM27 36H28V37H27Z"/>
  <path fill="#373737" opacity="0.7" d="M45 19H46V20H45ZM38 27H39V28H38Z"/>
  <path fill="#373737" opacity="0.695" d="M13 25H14V26H13ZM8 28H9V29H8ZM8 29H9V30H8ZM8 30H9V31H8ZM8 31H9V32H8Z"/>
  <path fill="#373737" opacity="0.685" d="M64 14H65V15H64ZM39 16H40V17H39ZM27 24H28V25H27Z"/>
  <path fill="#373737" opacity="0.68" d="M39 17H40V18H39ZM56 19H57V20H56ZM16 20H17V21H16Z"/>
  <path fill="#373737" opacity="0.675" d="M11 14H12V15H11ZM56 17H57V18H56ZM39 18H40V19H39ZM71 21H72V22H71ZM78 21H79V22H78ZM46 30H47V31H46Z"/>
  <path fill="#373737" opacity="0.67" d="M30 10H31V11H30ZM56 18H57V19H56ZM50 22H51V23H50ZM11 24H12V25H11Z"/>
  <path fill="#373737" opacity="0.665" d="M29 13H30V14H29ZM24 17H25V18H24ZM39 19H40V20H39ZM76 21H78V22H76ZM79 21H83V22H79ZM37 27H38V28H37Z"/>
  <path fill="#373737" opacity="0.66" d="M20 8H21V9H20ZM66 21H67V22H66ZM9 23H10V24H9ZM23 24H24V25H23ZM75 24H76V25H75ZM17 25H18V26H17ZM10 26H11V27H10Z"/>
  <path fill="#373737" opacity="0.65" d="M39 20H40V21H39ZM43 20H44V21H43ZM67 21H71V22H67ZM22 24H23V25H22ZM75 29H76V30H75Z"/>
  <path fill="#373737" opacity="0.645" d="M81 12H82V13H81ZM75 16H76V17H75ZM75 17H76V18H75ZM45 18H46V19H45ZM39 21H40V22H39ZM39 22H40V23H39ZM39 23H40V24H39ZM19 24H22V25H19ZM24 24H25V25H24ZM85 25H86V26H85Z"/>
  <path fill="#373737" opacity="0.64" d="M21 9H22V10H21ZM72 21H73V22H72ZM26 24H27V25H26ZM85 26H86V27H85ZM75 28H76V29H75Z"/>
  <path fill="#373737" opacity="0.635" d="M11 13H12V14H11ZM50 16H51V17H50ZM75 18H76V19H75ZM25 24H26V25H25ZM58 30H59V31H58Z"/>
  <path fill="#373737" opacity="0.63" d="M64 13H65V14H64ZM39 15H40V16H39ZM65 21H66V22H65ZM75 22H76V23H75ZM49 25H50V26H49ZM18 36H19V37H18Z"/>
  <path fill="#373737" opacity="0.625" d="M31 17H32V18H31ZM45 32H46V33H45ZM59 32H60V33H59Z"/>
  <path fill="#373737" opacity="0.615" d="M25 20H26V21H25Z"/>
  <path fill="#373737" opacity="0.61" d="M17 9H18V10H17ZM26 20H27V21H26ZM75 23H76V24H75ZM47 32H48V33H47Z"/>
  <path fill="#373737" opacity="0.595" d="M14 25H15V26H14Z"/>
  <path fill="#373737" opacity="0.59" d="M23 16H24V17H23ZM50 21H51V22H50ZM55 25H56V26H55Z"/>
  <path fill="#373737" opacity="0.58" d="M8 35H9V36H8Z"/>
  <path fill="#373737" opacity="0.57" d="M27 11H28V12H27Z"/>
  <path fill="#373737" opacity="0.565" d="M50 20H51V21H50ZM6 24H7V25H6ZM31 24H32V25H31ZM51 28H52V29H51ZM75 30H76V31H75Z"/>
  <path fill="#373737" opacity="0.56" d="M78 15H79V16H78ZM53 28H54V29H53Z"/>
  <path fill="#373737" opacity="0.555" d="M9 16H10V17H9ZM21 18H22V19H21Z"/>
  <path fill="#373737" opacity="0.545" d="M76 15H77V16H76ZM50 17H51V18H50ZM56 25H57V26H56ZM56 28H57V29H56ZM57 32H58V33H57Z"/>
  <path fill="#373737" opacity="0.54" d="M50 18H51V19H50ZM17 22H18V23H17ZM57 25H58V26H57ZM36 26H37V27H36ZM72 27H73V28H72ZM57 29H58V30H57ZM28 36H29V37H28Z"/>
  <path fill="#373737" opacity="0.535" d="M50 12H51V13H50ZM27 20H28V21H27ZM7 23H8V24H7ZM29 32H30V33H29Z"/>
  <path fill="#373737" opacity="0.53" d="M66 15H67V16H66ZM77 15H78V16H77ZM50 19H51V20H50ZM17 20H18V21H17ZM47 25H48V26H47ZM76 27H78V28H76Z"/>
  <path fill="#373737" opacity="0.525" d="M45 25H46V26H45ZM78 27H83V28H78Z"/>
  <path fill="#373737" opacity="0.52" d="M31 11H32V12H31ZM65 15H66V16H65ZM67 15H71V16H67ZM72 15H73V16H72ZM79 15H80V16H79ZM48 25H49V26H48ZM67 27H72V28H67ZM83 27H84V28H83ZM13 33H14V34H13ZM9 35H10V36H9Z"/>
  <path fill="#373737" opacity="0.51" d="M19 7H20V8H19ZM43 17H44V18H43ZM14 20H15V21H14ZM39 24H40V25H39ZM63 27H67V28H63ZM9 32H10V33H9Z"/>
  <path fill="#373737" opacity="0.505" d="M71 15H72V16H71ZM84 27H85V28H84ZM11 34H12V35H11Z"/>
  <path fill="#373737" opacity="0.5" d="M12 7H13V8H12ZM47 29H48V30H47Z"/>
  <path fill="#373737" opacity="0.495" d="M29 9H30V10H29ZM30 35H31V36H30Z"/>
  <path fill="#373737" opacity="0.49" d="M53 13H54V14H53ZM38 14H39V15H38ZM29 15H30V16H29ZM59 25H60V26H59Z"/>
  <path fill="#373737" opacity="0.485" d="M55 13H56V14H55ZM46 25H47V26H46Z"/>
  <path fill="#373737" opacity="0.475" d="M58 25H59V26H58Z"/>
  <path fill="#373737" opacity="0.47" d="M80 15H81V16H80Z"/>
  <path fill="#373737" opacity="0.465" d="M14 9H15V10H14ZM49 13H50V14H49Z"/>
  <path fill="#373737" opacity="0.46" d="M48 13H49V14H48ZM56 13H58V14H56Z"/>
  <path fill="#373737" opacity="0.455" d="M16 6H17V7H16Z"/>
  <path fill="#373737" opacity="0.45" d="M9 10H10V11H9ZM54 13H55V14H54ZM32 27H33V28H32Z"/>
  <path fill="#373737" opacity="0.44" d="M29 14H30V15H29ZM43 27H44V28H43ZM74 32H75V33H74Z"/>
  <path fill="#373737" opacity="0.435" d="M43 13H44V14H43ZM47 13H48V14H47ZM48 28H49V29H48Z"/>
  <path fill="#373737" opacity="0.43" d="M43 24H44V25H43Z"/>
  <path fill="#373737" opacity="0.425" d="M37 14H38V15H37ZM44 20H45V21H44ZM29 22H30V23H29ZM32 28H33V29H32ZM32 29H33V30H32ZM32 30H33V31H32ZM32 31H33V32H32Z"/>
  <path fill="#373737" opacity="0.42" d="M43 23H44V24H43ZM43 29H44V30H43ZM43 32H44V33H43ZM14 33H15V34H14ZM6 34H7V35H6Z"/>
  <path fill="#373737" opacity="0.415" d="M25 11H26V12H25Z"/>
  <path fill="#373737" opacity="0.41" d="M43 14H44V15H43ZM17 17H18V18H17ZM24 20H25V21H24ZM9 26H10V27H9ZM29 26H30V27H29ZM13 30H14V31H13ZM43 30H44V31H43ZM31 34H32V35H31Z"/>
  <path fill="#373737" opacity="0.4" d="M15 6H16V7H15ZM43 12H44V13H43ZM32 14H33V15H32ZM43 22H44V23H43ZM43 25H44V26H43Z"/>
  <path fill="#373737" opacity="0.395" d="M22 19H23V20H22Z"/>
  <path fill="#373737" opacity="0.39" d="M26 11H27V12H26ZM46 13H47V14H46Z"/>
  <path fill="#373737" opacity="0.385" d="M43 15H44V16H43ZM39 25H40V26H39ZM11 31H12V32H11Z"/>
  <path fill="#373737" opacity="0.38" d="M14 6H15V7H14ZM51 11H52V12H51ZM43 26H44V27H43Z"/>
  <path fill="#373737" opacity="0.375" d="M26 8H27V9H26ZM43 16H44V17H43ZM42 33H43V34H42Z"/>
  <path fill="#373737" opacity="0.365" d="M42 11H43V12H42ZM32 15H33V16H32ZM52 27H53V28H52ZM43 28H44V29H43ZM28 33H29V34H28Z"/>
  <path fill="#373737" opacity="0.36" d="M41 11H42V12H41ZM43 31H44V32H43ZM70 33H71V34H70ZM7 35H8V36H7Z"/>
  <path fill="#373737" opacity="0.355" d="M15 9H16V10H15Z"/>
  <path fill="#373737" opacity="0.35" d="M72 30H73V31H72ZM71 33H72V34H71Z"/>
  <path fill="#373737" opacity="0.345" d="M43 21H44V22H43Z"/>
  <path fill="#373737" opacity="0.34" d="M25 8H26V9H25ZM36 25H37V26H36Z"/>
  <path fill="#373737" opacity="0.325" d="M17 6H18V7H17ZM14 17H15V18H14Z"/>
  <path fill="#373737" opacity="0.32" d="M16 9H17V10H16ZM72 33H73V34H72Z"/>
  <path fill="#373737" opacity="0.315" d="M10 18H11V19H10Z"/>
  <path fill="#373737" opacity="0.31" d="M58 13H59V14H58ZM32 26H33V27H32Z"/>
  <path fill="#373737" opacity="0.305" d="M27 17H28V18H27ZM49 26H50V27H49ZM62 26H63V27H62Z"/>
  <path fill="#373737" opacity="0.295" d="M11 27H12V28H11Z"/>
  <path fill="#373737" opacity="0.29" d="M83 20H84V21H83Z"/>
  <path fill="#373737" opacity="0.285" d="M64 15H65V16H64ZM28 20H29V21H28ZM45 20H46V21H45ZM55 26H56V27H55ZM36 27H37V28H36ZM85 27H86V28H85ZM41 33H42V34H41ZM17 36H18V37H17Z"/>
  <path fill="#373737" opacity="0.28" d="M18 10H19V11H18ZM62 25H63V26H62ZM75 31H76V32H75ZM32 32H33V33H32Z"/>
  <path fill="#373737" opacity="0.275" d="M19 11H20V12H19Z"/>
  <path fill="#373737" opacity="0.26" d="M84 12H85V13H84Z"/>
  <path fill="#373737" opacity="0.25" d="M27 8H28V9H27ZM52 11H53V12H52ZM83 19H84V20H83ZM13 20H14V21H13ZM10 23H11V24H10ZM69 30H70V31H69ZM71 30H72V31H71Z"/>
  <path fill="#373737" opacity="0.245" d="M28 12H29V13H28ZM39 14H40V15H39ZM81 15H82V16H81ZM13 28H14V29H13ZM70 30H71V31H70Z"/>
  <path fill="#373737" opacity="0.24" d="M29 27H30V28H29ZM50 30H51V31H50Z"/>
  <path fill="#373737" opacity="0.235" d="M15 23H16V24H15ZM29 28H30V29H29ZM29 29H30V30H29ZM29 30H30V31H29ZM29 31H30V32H29Z"/>
  <path fill="#373737" opacity="0.225" d="M32 13H33V14H32ZM25 17H26V18H25Z"/>
  <path fill="#373737" opacity="0.22" d="M62 27H63V28H62ZM58 33H59V34H58Z"/>
  <path fill="#373737" opacity="0.215" d="M12 24H13V25H12ZM59 30H60V31H59ZM29 36H30V37H29Z"/>
  <path fill="#373737" opacity="0.21" d="M80 12H81V13H80ZM23 13H24V14H23Z"/>
  <path fill="#373737" opacity="0.205" d="M22 9H23V10H22ZM82 11H83V12H82ZM19 15H20V16H19ZM18 20H19V21H18ZM54 30H55V31H54Z"/>
  <path fill="#373737" opacity="0.19" d="M12 11H13V12H12ZM45 30H46V31H45Z"/>
  <path fill="#373737" opacity="0.185" d="M45 14H46V15H45ZM30 19H31V20H30ZM69 33H70V34H69Z"/>
  <path fill="#373737" opacity="0.18" d="M13 10H14V11H13ZM55 31H56V32H55Z"/>
  <path fill="#373737" opacity="0.175" d="M50 11H51V12H50ZM83 21H84V22H83ZM49 31H50V32H49ZM46 33H47V34H46ZM59 33H60V34H59Z"/>
  <path fill="#373737" opacity="0.17" d="M45 15H46V16H45ZM10 35H11V36H10Z"/>
  <path fill="#373737" opacity="0.165" d="M24 8H25V9H24ZM11 19H12V20H11ZM17 32H18V33H17ZM45 33H46V34H45Z"/>
  <path fill="#373737" opacity="0.155" d="M8 13H9V14H8ZM39 26H40V27H39Z"/>
  <path fill="#373737" opacity="0.15" d="M44 17H45V18H44Z"/>
  <path fill="#373737" opacity="0.145" d="M53 29H54V30H53Z"/>
  <path fill="#373737" opacity="0.14" d="M32 25H33V26H32Z"/>
  <path fill="#373737" opacity="0.135" d="M83 14H84V15H83ZM23 15H24V16H23ZM51 29H52V30H51ZM48 32H49V33H48Z"/>
  <path fill="#373737" opacity="0.13" d="M28 25H29V26H28ZM15 35H16V36H15Z"/>
  <path fill="#373737" opacity="0.12" d="M13 6H14V7H13ZM10 8H11V9H10ZM23 14H24V15H23ZM32 16H33V17H32ZM60 23H61V24H60ZM44 24H45V25H44ZM18 33H19V34H18ZM43 33H44V34H43Z"/>
  <path fill="#373737" opacity="0.115" d="M8 14H9V15H8ZM9 17H10V18H9ZM23 20H24V21H23ZM36 24H37V25H36Z"/>
  <path fill="#373737" opacity="0.11" d="M8 12H9V13H8ZM76 12H77V13H76ZM78 12H79V13H78ZM14 24H15V25H14ZM56 32H57V33H56Z"/>
  <path fill="#373737" opacity="0.105" d="M11 7H12V8H11ZM16 17H17V18H16ZM20 19H21V20H20ZM76 24H77V25H76Z"/>
  <path fill="#373737" opacity="0.1" d="M28 8H29V9H28ZM32 12H33V13H32ZM71 12H72V13H71ZM79 12H80V13H79ZM13 16H14V17H13ZM49 16H50V17H49ZM54 16H55V17H54ZM72 18H73V19H72ZM16 22H17V23H16ZM17 26H18V27H17ZM73 33H74V34H73Z"/>
  <path fill="#373737" opacity="0.095" d="M18 6H19V7H18ZM43 11H44V12H43ZM75 12H76V13H75ZM40 16H41V17H40ZM60 24H61V25H60ZM40 25H41V26H40ZM44 25H45V26H44ZM44 31H45V32H44ZM40 32H41V33H40ZM12 34H13V35H12Z"/>
  <path fill="#373737" opacity="0.085" d="M65 12H66V13H65ZM73 12H74V13H73ZM84 13H85V14H84ZM12 15H13V16H12ZM40 15H41V16H40ZM28 16H29V17H28ZM46 16H48V17H46ZM55 16H56V17H55ZM59 22H60V23H59ZM44 23H45V24H44ZM78 24H79V25H78ZM72 28H73V29H72ZM40 29H41V30H40ZM40 30H41V31H40ZM40 31H41V32H40Z"/>
  <path fill="#373737" opacity="0.08" d="M30 9H31V10H30ZM40 13H41V14H40ZM48 16H49V17H48ZM40 17H41V18H40ZM54 22H55V23H54ZM72 22H73V23H72ZM40 24H41V25H40ZM72 24H73V25H72ZM84 24H85V25H84ZM40 28H41V29H40ZM68 31H69V32H68Z"/>
  <path fill="#373737" opacity="0.075" d="M64 12H65V13H64ZM67 12H71V13H67ZM40 18H41V19H40ZM53 22H54V23H53ZM67 24H71V25H67ZM56 26H57V27H56ZM46 29H47V30H46Z"/>
  <path fill="#373737" opacity="0.07" d="M19 12H20V13H19ZM40 14H41V15H40ZM53 16H54V17H53ZM40 19H41V20H40ZM48 21H49V22H48ZM40 23H41V24H40ZM63 24H67V25H63ZM79 24H83V25H79ZM40 26H41V27H40ZM40 27H41V28H40Z"/>
  <path fill="#373737" opacity="0.065" d="M40 12H41V13H40ZM66 12H67V13H66ZM64 16H65V17H64ZM15 17H16V18H15ZM64 19H65V20H64ZM40 20H41V21H40ZM40 21H41V22H40ZM40 22H41V23H40ZM46 22H47V23H46ZM71 24H72V25H71ZM83 24H84V25H83Z"/>
  <path fill="#373737" opacity="0.06" d="M20 7H21V8H20ZM72 12H73V13H72ZM19 14H20V15H19ZM46 21H47V22H46ZM49 22H50V23H49ZM10 27H11V28H10ZM72 29H73V30H72ZM27 33H28V34H27Z"/>
  <path fill="#373737" opacity="0.05" d="M19 6H20V7H19ZM46 12H47V13H46ZM74 12H75V13H74ZM82 15H83V16H82ZM72 17H73V18H72ZM31 18H32V19H31ZM54 19H55V20H54ZM45 22H46V23H45ZM55 22H56V23H55ZM27 25H28V26H27ZM57 35H58V36H57ZM74 35H75V36H74Z"/>
  <path fill="#373737" opacity="0.045" d="M21 8H22V9H21ZM39 8H40V9H39ZM35 12H36V13H35ZM86 14H87V15H86ZM18 16H19V17H18ZM76 16H77V17H76ZM26 17H27V18H26ZM45 17H46V18H45ZM54 18H55V19H54ZM78 18H79V19H78ZM21 19H22V20H21ZM64 20H65V21H64ZM64 21H65V22H64ZM8 22H9V23H8ZM13 22H14V23H13ZM62 23H63V24H62ZM13 24H14V25H13ZM85 24H86V25H85ZM86 25H87V26H86ZM4 27H5V28H4ZM61 27H62V28H61ZM76 28H77V29H76ZM51 31H52V32H51ZM78 32H79V33H78ZM34 35H35V36H34ZM48 35H49V36H48Z"/>
  <path fill="#373737" opacity="0.04" d="M15 4H16V5H15ZM34 8H35V9H34ZM41 8H42V9H41ZM34 14H35V15H34ZM27 15H28V16H27ZM59 20H60V21H59ZM25 21H26V22H25ZM61 24H62V25H61ZM34 26H35V27H34ZM57 26H58V27H57ZM44 29H45V30H44ZM62 33H63V34H62ZM59 35H60V36H59Z"/>
  <path fill="#373737" opacity="0.035" d="M20 5H21V6H20ZM50 8H51V9H50ZM47 11H48V12H47ZM81 11H82V12H81ZM24 12H25V13H24ZM63 12H64V13H63ZM35 15H36V16H35ZM45 16H46V17H45ZM63 16H64V17H63ZM32 18H33V19H32ZM55 19H56V20H55ZM46 20H47V21H46ZM13 21H14V22H13ZM24 21H25V22H24ZM55 21H56V22H55ZM47 22H49V23H47ZM63 22H64V23H63ZM33 24H34V25H33ZM27 26H28V27H27ZM17 27H18V28H17ZM61 28H62V29H61ZM68 28H69V29H68ZM78 28H79V29H78ZM13 29H14V30H13ZM58 29H59V30H58ZM62 29H63V30H62ZM62 32H63V33H62ZM32 33H33V34H32ZM34 33H35V34H34ZM14 34H15V35H14ZM32 34H33V35H32ZM12 35H13V36H12ZM61 35H62V36H61ZM28 39H29V40H28Z"/>
  <path fill="#373737" opacity="0.03" d="M53 8H54V9H53ZM7 10H8V11H7ZM40 11H41V12H40ZM49 11H50V12H49ZM49 12H50V13H49ZM55 12H56V13H55ZM77 12H78V13H77ZM26 14H28V15H26ZM33 14H34V15H33ZM25 15H26V16H25ZM8 16H9V17H8ZM77 16H78V17H77ZM54 17H55V18H54ZM77 17H78V18H77ZM8 19H9V20H8ZM12 20H13V21H12ZM7 21H9V22H7ZM20 21H22V22H20ZM30 21H31V22H30ZM44 21H45V22H44ZM53 21H54V22H53ZM83 22H84V23H83ZM76 23H77V24H76ZM59 26H60V27H59ZM61 26H62V27H61ZM18 27H19V28H18ZM4 28H5V29H4ZM44 28H45V29H44ZM79 28H80V29H79ZM82 28H83V29H82ZM4 29H5V30H4ZM4 30H5V31H4ZM54 31H55V32H54ZM60 31H61V32H60ZM78 31H79V32H78ZM82 31H83V32H82ZM74 33H75V34H74ZM45 34H46V35H45ZM56 34H57V35H56ZM6 35H7V36H6ZM45 35H46V36H45ZM68 35H69V36H68ZM18 37H19V38H18ZM16 39H17V40H16Z"/>
</svg>