<svg xmlns="http://www.w3.org/2000/svg" width="92" height="72" viewBox="0 0 92 72" role="img" aria-label="image2 02 sinopec" shape-rendering="crispEdges">
  <title>image2 02 sinopec</title>
  <desc>Pixel-level vector reconstruction extracted from the supplied PNG, with white background removed.</desc>
  <path fill="#363636" d="M41 26H42V27H41ZM41 53H42V54H41ZM52 53H53V54H52Z"/>
  <path fill="#363636" opacity="0.995" d="M77 54H78V55H77ZM47 58H48V59H47Z"/>
  <path fill="#363636" opacity="0.99" d="M57 53H58V54H57ZM52 56H53V57H52ZM52 59H53V60H52Z"/>
  <path fill="#363636" opacity="0.985" d="M63 55H64V56H63ZM63 59H64V60H63ZM20 61H21V62H20Z"/>
  <path fill="#363636" opacity="0.98" d="M45 61H46V62H45ZM52 61H53V62H52ZM64 61H65V62H64Z"/>
  <path fill="#363636" opacity="0.975" d="M40 24H41V25H40ZM20 53H21V54H20ZM20 54H21V55H20ZM52 54H53V55H52ZM76 54H77V55H76ZM46 55H47V56H46ZM81 55H82V56H81ZM74 56H75V57H74ZM10 57H11V58H10ZM74 59H75V60H74ZM70 62H71V63H70Z"/>
  <path fill="#363636" opacity="0.965" d="M41 27H42V28H41ZM56 53H57V54H56ZM62 53H63V54H62ZM65 53H67V54H65ZM52 55H53V56H52ZM27 56H28V57H27ZM29 56H30V57H29ZM38 56H39V57H38ZM63 58H64V59H63ZM30 59H31V60H30ZM32 59H33V60H32ZM38 59H39V60H38ZM26 60H27V61H26ZM14 62H15V63H14Z"/>
  <path fill="#363636" opacity="0.96" d="M41 30H42V31H41ZM68 53H69V54H68ZM77 53H78V54H77ZM79 53H80V54H79ZM21 55H22V56H21ZM39 56H40V57H39ZM52 57H53V58H52ZM52 58H53V59H52ZM39 59H40V60H39ZM51 60H52V61H51ZM74 60H75V61H74ZM9 61H10V62H9ZM43 62H44V63H43ZM64 62H65V63H64Z"/>
  <path fill="#363636" opacity="0.955" d="M41 22H42V23H41ZM40 26H41V27H40ZM33 53H34V54H33ZM54 53H55V54H54ZM70 53H71V54H70ZM14 54H15V55H14ZM9 56H10V57H9ZM47 56H48V57H47ZM69 57H70V58H69ZM15 58H16V59H15ZM26 58H27V59H26ZM32 60H33V61H32ZM40 60H41V61H40ZM21 61H22V62H21ZM46 61H47V62H46ZM75 61H76V62H75ZM9 62H10V63H9ZM15 62H16V63H15ZM68 62H70V63H68Z"/>
  <path fill="#363636" opacity="0.95" d="M40 27H41V28H40ZM14 53H15V54H14ZM53 53H54V54H53ZM64 53H65V54H64ZM80 53H81V54H80ZM51 54H52V55H51ZM28 55H29V56H28ZM38 55H39V56H38ZM58 56H59V57H58ZM26 57H27V58H26ZM63 57H64V58H63ZM68 57H69V58H68ZM26 59H27V60H26ZM46 59H47V60H46ZM53 59H54V60H53ZM20 60H21V61H20ZM32 61H33V62H32ZM10 62H11V63H10ZM34 62H35V63H34ZM44 62H45V63H44ZM79 62H80V63H79Z"/>
  <path fill="#363636" opacity="0.945" d="M28 18H29V19H28ZM40 22H41V23H40ZM41 29H42V30H41ZM40 30H41V31H40ZM41 31H42V32H41ZM15 53H16V54H15ZM21 53H22V54H21ZM26 53H27V54H26ZM63 53H64V54H63ZM67 53H68V54H67ZM26 54H27V55H26ZM39 54H40V55H39ZM41 54H42V55H41ZM81 54H82V55H81ZM47 55H48V56H47ZM75 55H76V56H75ZM20 56H21V57H20ZM13 57H14V58H13ZM20 57H21V58H20ZM46 57H47V58H46ZM13 58H14V59H13ZM51 58H52V59H51ZM33 59H34V60H33ZM47 59H48V60H47ZM15 60H16V61H15ZM31 61H32V62H31ZM44 61H45V62H44ZM63 61H64V62H63ZM52 62H53V63H52ZM67 62H68V63H67Z"/>
  <path fill="#363636" opacity="0.94" d="M36 8H37V9H36ZM40 23H41V24H40ZM41 25H42V26H41ZM41 28H42V29H41ZM56 40H57V41H56ZM25 53H26V54H25ZM34 53H35V54H34ZM44 53H46V54H44ZM25 54H26V55H25ZM40 54H41V55H40ZM58 54H59V55H58ZM75 54H76V55H75ZM58 55H59V56H58ZM21 56H22V57H21ZM26 56H27V57H26ZM34 56H35V57H34ZM38 57H39V58H38ZM57 57H58V58H57ZM20 58H21V59H20ZM33 58H34V59H33ZM38 58H39V59H38ZM62 59H63V60H62ZM21 60H22V61H21ZM46 60H47V61H46ZM62 60H63V61H62ZM75 60H76V61H75ZM15 61H16V62H15ZM33 61H34V62H33ZM39 61H40V62H39ZM80 61H81V62H80ZM13 62H14V63H13ZM20 62H21V63H20ZM51 62H52V63H51ZM65 62H66V63H65ZM77 62H78V63H77Z"/>
  <path fill="#363636" opacity="0.93" d="M41 23H42V24H41ZM41 32H42V33H41ZM13 53H14V54H13ZM27 53H28V54H27ZM42 53H43V54H42ZM27 54H28V55H27ZM43 54H44V55H43ZM9 55H10V56H9ZM20 55H21V56H20ZM25 55H27V56H25ZM33 55H34V56H33ZM40 55H41V56H40ZM10 56H11V57H10ZM28 56H29V57H28ZM63 56H64V57H63ZM21 57H22V58H21ZM29 57H30V58H29ZM34 57H35V58H34ZM64 57H68V58H64ZM74 57H75V58H74ZM30 58H31V59H30ZM55 58H56V59H55ZM62 58H63V59H62ZM64 58H68V59H64ZM69 58H70V59H69ZM74 58H75V59H74ZM33 60H34V61H33ZM47 60H48V61H47ZM63 60H64V61H63ZM34 61H35V62H34ZM51 61H52V62H51ZM79 61H80V62H79ZM32 62H34V63H32ZM62 62H64V63H62ZM80 62H81V63H80Z"/>
  <path fill="#363636" opacity="0.925" d="M40 25H41V26H40ZM40 29H41V30H40ZM31 43H32V44H31ZM9 53H10V54H9ZM19 53H20V54H19ZM40 53H41V54H40ZM69 53H70V54H69ZM81 53H82V54H81ZM44 54H46V55H44ZM27 55H28V56H27ZM74 55H75V56H74ZM25 56H26V57H25ZM9 57H10V58H9ZM33 57H34V58H33ZM62 57H63V58H62ZM70 57H71V58H70ZM14 58H15V59H14ZM21 58H22V59H21ZM68 58H69V59H68ZM16 59H17V60H16ZM31 59H32V60H31ZM81 60H82V61H81ZM26 61H27V62H26ZM62 61H63V62H62ZM77 61H78V62H77ZM82 61H83V62H82ZM12 62H13V63H12ZM21 62H22V63H21ZM81 62H82V63H81ZM43 63H44V64H43Z"/>
  <path fill="#363636" opacity="0.92" d="M40 21H41V22H40ZM41 24H42V25H41ZM40 28H41V29H40ZM39 30H40V31H39ZM40 31H41V32H40ZM45 37H46V38H45ZM32 40H33V41H32ZM32 41H33V42H32ZM32 42H33V43H32ZM32 43H33V44H32ZM10 53H11V54H10ZM76 53H77V54H76ZM78 53H79V54H78ZM33 54H34V55H33ZM57 54H58V55H57ZM64 54H65V55H64ZM79 54H80V55H79ZM82 54H83V55H82ZM62 55H63V56H62ZM8 56H9V57H8ZM62 56H63V57H62ZM75 56H76V57H75ZM11 57H12V58H11ZM30 57H31V58H30ZM51 57H52V58H51ZM53 58H54V59H53ZM20 59H21V60H20ZM51 59H52V60H51ZM75 59H76V60H75ZM16 60H17V61H16ZM25 60H26V61H25ZM31 60H32V61H31ZM45 60H46V61H45ZM52 60H53V61H52ZM8 61H9V62H8ZM74 61H75V62H74ZM76 61H77V62H76ZM40 62H41V63H40ZM42 62H43V63H42ZM45 62H46V63H45ZM76 62H77V63H76Z"/>
  <path fill="#363636" opacity="0.915" d="M57 9H58V10H57ZM32 11H33V12H32ZM39 25H40V26H39ZM41 33H42V34H41ZM41 36H42V37H41ZM55 38H56V39H55ZM57 40H58V41H57ZM51 53H52V54H51ZM46 54H47V55H46ZM62 54H63V55H62ZM78 54H79V55H78ZM8 55H9V56H8ZM34 55H35V56H34ZM33 56H34V57H33ZM25 57H26V58H25ZM27 57H28V58H27ZM47 57H48V58H47ZM58 57H60V58H58ZM12 58H13V59H12ZM34 58H35V59H34ZM46 58H47V59H46ZM15 59H16V60H15ZM21 59H22V60H21ZM34 60H35V61H34ZM39 60H40V61H39ZM81 61H82V62H81ZM11 62H12V63H11ZM26 62H27V63H26ZM66 62H67V63H66ZM75 62H76V63H75Z"/>
  <path fill="#363636" opacity="0.91" d="M39 22H40V23H39ZM27 23H28V24H27ZM39 23H40V24H39ZM39 24H40V25H39ZM29 30H30V31H29ZM41 35H42V36H41ZM32 39H33V40H32ZM63 42H64V43H63ZM43 53H44V54H43ZM16 54H17V55H16ZM29 55H30V56H29ZM39 55H40V56H39ZM46 56H47V57H46ZM51 56H52V57H51ZM12 57H13V58H12ZM14 57H15V58H14ZM32 58H33V59H32ZM34 59H35V60H34ZM40 61H41V62H40ZM42 61H44V62H42ZM78 61H79V62H78ZM25 62H26V63H25Z"/>
  <path fill="#363636" opacity="0.905" d="M52 6H53V7H52ZM39 16H40V17H39ZM39 17H40V18H39ZM39 18H40V19H39ZM39 19H41V20H39ZM40 20H41V21H40ZM27 24H28V25H27ZM39 29H40V30H39ZM55 53H56V54H55ZM21 54H22V55H21ZM28 54H29V55H28ZM34 54H35V55H34ZM45 55H46V56H45ZM51 55H52V56H51ZM76 55H77V56H76ZM11 56H12V57H11ZM39 57H40V58H39ZM53 57H54V58H53ZM39 58H40V59H39ZM70 58H71V59H70Z"/>
  <path fill="#363636" opacity="0.896" d="M39 20H40V21H39ZM39 21H40V22H39ZM41 21H42V22H41ZM39 28H40V29H39ZM39 31H40V32H39ZM29 37H30V38H29ZM9 54H10V55H9ZM53 54H54V55H53ZM19 57H20V58H19ZM56 58H57V59H56ZM38 60H39V61H38ZM25 61H26V62H25ZM19 62H20V63H19ZM41 62H42V63H41ZM78 62H79V63H78Z"/>
  <path fill="#363636" opacity="0.891" d="M39 6H40V7H39ZM35 8H36V9H35ZM60 12H61V13H60ZM39 13H40V14H39ZM63 18H64V19H63ZM39 26H40V27H39ZM39 27H40V28H39ZM63 29H64V30H63ZM41 34H42V35H41ZM41 37H42V38H41ZM63 38H64V39H63ZM8 54H9V55H8ZM63 54H64V55H63ZM80 54H81V55H80ZM28 57H29V58H28ZM73 57H74V58H73ZM19 58H20V59H19ZM25 58H26V59H25ZM31 58H32V59H31ZM54 58H55V59H54ZM57 58H58V59H57ZM73 58H74V59H73ZM14 59H15V60H14ZM16 61H17V62H16ZM41 61H42V62H41Z"/>
  <path fill="#363636" opacity="0.886" d="M56 8H57V9H56ZM36 13H37V14H36ZM36 15H37V16H36ZM39 15H40V16H39ZM62 37H63V38H62ZM30 38H31V39H30ZM46 53H47V54H46ZM15 54H16V55H15ZM59 54H60V55H59ZM59 56H60V57H59ZM58 58H59V59H58ZM10 61H11V62H10ZM19 61H20V62H19ZM78 63H79V64H78Z"/>
  <path fill="#363636" opacity="0.881" d="M44 5H45V6H44ZM47 5H48V6H47ZM27 22H28V23H27ZM36 35H37V36H36ZM33 37H34V38H33ZM42 52H43V53H42ZM58 53H59V54H58ZM56 57H57V58H56ZM46 62H47V63H46Z"/>
  <path fill="#363636" opacity="0.876" d="M36 12H37V13H36ZM39 12H40V13H39ZM51 37H52V38H51ZM12 52H13V53H12ZM75 53H76V54H75ZM42 54H43V55H42ZM59 55H60V56H59ZM64 55H65V56H64ZM64 56H65V57H64ZM64 59H65V60H64ZM64 60H65V61H64Z"/>
  <path fill="#363636" opacity="0.871" d="M58 10H59V11H58ZM36 11H37V12H36ZM31 12H32V13H31ZM39 14H40V15H39ZM36 30H37V31H36ZM61 33H62V34H61ZM47 38H48V39H47ZM55 39H56V40H55ZM55 42H56V43H55ZM30 43H31V44H30ZM52 43H53V44H52ZM28 44H32V45H28ZM13 52H14V53H13ZM78 52H79V53H78ZM19 54H20V55H19ZM80 55H81V56H80ZM53 56H54V57H53ZM76 60H77V61H76ZM77 63H78V64H77Z"/>
  <path fill="#363636" opacity="0.861" d="M45 5H47V6H45ZM48 5H49V6H48ZM38 7H39V8H38ZM36 14H37V15H36ZM36 25H37V26H36ZM36 32H37V33H36ZM36 33H37V34H36ZM32 36H33V37H32ZM58 40H59V41H58ZM45 43H46V44H45ZM19 56H20V57H19ZM11 58H12V59H11ZM25 59H26V60H25Z"/>
  <path fill="#363636" opacity="0.856" d="M59 11H60V12H59ZM62 15H63V16H62ZM29 16H30V17H29ZM36 22H37V23H36ZM36 23H37V24H36ZM36 24H37V25H36ZM36 31H37V32H36ZM55 41H56V42H55ZM32 53H33V54H32ZM74 54H75V55H74ZM57 55H58V56H57ZM19 60H20V61H19Z"/>
  <path fill="#363636" opacity="0.851" d="M34 9H35V10H34ZM39 11H40V12H39ZM29 15H30V16H29ZM36 16H37V17H36ZM36 17H37V18H36ZM36 18H37V19H36ZM36 19H37V20H36ZM64 24H65V25H64ZM36 29H37V30H36ZM36 34H37V35H36ZM39 35H40V36H39ZM60 35H61V36H60ZM56 37H57V38H56ZM56 43H57V44H56ZM77 52H78V53H77ZM82 55H83V56H82ZM57 56H58V57H57ZM73 56H74V57H73ZM29 58H30V59H29ZM48 58H49V59H48ZM73 59H74V60H73ZM42 63H43V64H42Z"/>
  <path fill="#363636" opacity="0.846" d="M39 10H40V11H39ZM40 18H41V19H40ZM36 20H37V21H36ZM36 21H37V22H36ZM36 28H37V29H36ZM63 28H64V29H63ZM39 32H40V33H39ZM27 34H28V35H27ZM46 37H47V38H46ZM61 37H62V38H61ZM47 39H48V40H47ZM55 40H56V41H55ZM36 41H37V42H36ZM36 42H37V43H36ZM29 43H30V44H29ZM36 43H37V44H36ZM32 44H33V45H32ZM33 52H34V53H33ZM43 52H44V53H43ZM16 58H17V59H16ZM8 60H9V61H8ZM53 60H54V61H53ZM53 62H54V63H53ZM11 63H12V64H11Z"/>
  <path fill="#363636" opacity="0.841" d="M37 7H38V8H37ZM33 10H34V11H33ZM30 14H31V15H30ZM61 14H62V15H61ZM36 26H37V27H36ZM36 27H37V28H36ZM28 36H29V37H28ZM57 37H58V38H57ZM41 38H42V39H41ZM60 39H61V40H60ZM36 40H37V41H36ZM62 52H64V53H62ZM19 55H20V56H19ZM19 59H20V60H19ZM14 61H15V62H14Z"/>
  <path fill="#363636" opacity="0.836" d="M64 23H65V24H64ZM28 32H29V33H28ZM39 33H40V34H39ZM31 34H32V35H31ZM27 35H28V36H27ZM36 36H37V37H36ZM36 37H37V38H36ZM52 37H53V38H52ZM47 41H48V42H47ZM31 42H32V43H31ZM60 42H61V43H60ZM11 52H12V53H11ZM41 52H42V53H41ZM38 54H39V55H38ZM32 55H33V56H32ZM32 57H33V58H32ZM38 61H39V62H38ZM8 62H9V63H8ZM12 63H13V64H12Z"/>
  <path fill="#363636" opacity="0.831" d="M49 5H50V6H49ZM36 9H37V10H36ZM27 25H28V26H27ZM34 52H35V53H34ZM11 53H13V54H11ZM48 57H49V58H48ZM27 58H28V59H27ZM80 60H81V61H80ZM53 61H54V62H53ZM79 63H80V64H79Z"/>
  <path fill="#363636" opacity="0.821" d="M38 6H39V7H38ZM40 6H41V7H40ZM64 25H65V26H64ZM39 34H40V35H39ZM31 38H32V39H31ZM36 38H37V39H36ZM36 39H37V40H36ZM70 52H71V53H70ZM79 52H80V53H79ZM10 54H11V55H10ZM32 54H33V55H32ZM10 55H11V56H10ZM75 57H76V58H75ZM75 58H76V59H75ZM10 63H11V64H10ZM13 63H14V64H13ZM34 63H35V64H34Z"/>
  <path fill="#363636" opacity="0.816" d="M43 5H44V6H43ZM39 9H40V10H39ZM31 39H32V40H31ZM51 52H52V53H51ZM53 52H54V53H53ZM69 52H70V53H69ZM54 57H55V58H54ZM21 63H22V64H21ZM41 63H42V64H41Z"/>
  <path fill="#363636" opacity="0.811" d="M42 5H43V6H42ZM63 17H64V18H63ZM41 39H42V40H41ZM47 42H48V43H47ZM50 43H51V44H50ZM36 44H37V45H36ZM10 52H11V53H10ZM66 63H67V64H66Z"/>
  <path fill="#363636" opacity="0.806" d="M54 7H55V8H54ZM36 10H37V11H36ZM41 20H42V21H41ZM62 31H63V32H62ZM39 36H40V37H39ZM39 37H40V38H39ZM55 52H56V53H55ZM66 52H67V53H66ZM56 54H57V55H56ZM53 55H54V56H53ZM55 57H56V58H55ZM9 60H10V61H9ZM27 60H28V61H27ZM47 61H48V62H47ZM65 61H66V62H65ZM64 63H65V64H64Z"/>
  <path fill="#363636" opacity="0.801" d="M64 22H65V23H64ZM31 35H32V36H31ZM50 37H51V38H50ZM52 42H53V43H52ZM21 52H22V53H21ZM26 52H27V53H26ZM65 52H66V53H65ZM68 52H69V53H68ZM41 55H42V56H41ZM62 63H63V64H62Z"/>
  <path fill="#363636" opacity="0.796" d="M41 6H42V7H41ZM39 7H40V8H39ZM42 13H43V14H42ZM42 35H43V36H42ZM39 38H40V39H39ZM52 38H53V39H52ZM25 52H26V53H25ZM54 52H55V53H54ZM30 60H31V61H30ZM27 62H28V63H27ZM20 63H21V64H20Z"/>
  <path fill="#363636" opacity="0.786" d="M51 6H52V7H51ZM39 8H40V9H39ZM42 10H43V11H42ZM28 17H29V18H28ZM39 39H40V40H39ZM39 40H40V41H39ZM47 40H48V41H47ZM52 40H53V41H52ZM33 41H34V42H33ZM39 41H40V42H39ZM33 42H34V43H33ZM39 42H40V43H39ZM39 43H40V44H39ZM61 43H62V44H61ZM27 52H28V53H27ZM47 54H48V55H47ZM73 55H74V56H73ZM12 56H13V57H12ZM40 56H41V57H40ZM45 56H46V57H45ZM40 59H41V60H40ZM82 60H83V61H82ZM39 62H40V63H39ZM33 63H34V64H33ZM51 63H52V64H51ZM65 63H66V64H65ZM70 63H71V64H70Z"/>
  <path fill="#363636" opacity="0.781" d="M41 5H42V6H41ZM42 6H43V7H42ZM53 6H54V7H53ZM42 11H43V12H42ZM42 15H43V16H42ZM62 32H63V33H62ZM60 38H61V39H60ZM20 52H21V53H20ZM44 52H45V53H44ZM80 52H81V53H80ZM73 60H74V61H73ZM27 61H28V62H27ZM69 63H70V64H69Z"/>
  <path fill="#363636" opacity="0.776" d="M42 9H43V10H42ZM42 12H43V13H42ZM28 19H29V20H28ZM45 23H46V24H45ZM60 41H61V42H60ZM44 42H45V43H44ZM46 43H47V44H46ZM51 43H52V44H51ZM39 44H40V45H39ZM67 52H68V53H67ZM32 56H33V57H32ZM41 60H42V61H41Z"/>
  <path fill="#363636" opacity="0.771" d="M61 13H62V14H61ZM28 35H29V36H28ZM44 39H45V40H44ZM44 41H45V42H44ZM53 41H54V42H53ZM28 53H29V54H28ZM32 63H33V64H32ZM44 63H45V64H44ZM52 63H53V64H52Z"/>
  <path fill="#363636" opacity="0.766" d="M42 14H43V15H42ZM42 16H43V17H42ZM40 17H41V18H40ZM27 21H28V22H27ZM42 24H43V25H42ZM42 26H43V27H42ZM28 31H29V32H28ZM60 34H61V35H60ZM28 37H29V38H28ZM50 42H51V43H50ZM53 42H54V43H53ZM62 43H63V44H62ZM14 52H15V53H14ZM52 52H53V53H52ZM39 53H40V54H39ZM65 54H66V55H65ZM63 63H64V64H63Z"/>
  <path fill="#363636" opacity="0.761" d="M62 16H63V17H62ZM42 17H43V18H42ZM30 33H31V34H30ZM53 38H54V39H53ZM41 40H42V41H41ZM60 40H61V41H60ZM57 43H58V44H57ZM19 52H20V53H19ZM64 52H65V53H64ZM15 57H16V58H15ZM27 59H28V60H27ZM48 59H49V60H48ZM31 62H32V63H31Z"/>
  <path fill="#363636" opacity="0.751" d="M42 7H43V8H42ZM42 8H43V9H42ZM42 18H43V19H42ZM64 21H65V22H64ZM64 26H65V27H64ZM42 27H43V28H42ZM42 32H43V33H42ZM42 33H43V34H42ZM42 34H43V35H42ZM25 63H26V64H25Z"/>
  <path fill="#363636" opacity="0.746" d="M30 13H31V14H30ZM41 19H42V20H41ZM28 27H29V28H28ZM42 30H43V31H42ZM63 30H64V31H63ZM61 34H62V35H61ZM63 39H64V40H63ZM42 44H43V45H42ZM32 52H33V53H32ZM56 52H57V53H56ZM48 56H49V57H48ZM82 62H83V63H82ZM26 63H27V64H26ZM67 63H68V64H67Z"/>
  <path fill="#363636" opacity="0.741" d="M36 7H37V8H36ZM42 19H43V20H42ZM42 22H43V23H42ZM40 32H41V33H40ZM44 38H45V39H44ZM62 44H63V45H62ZM44 55H45V56H44Z"/>
  <path fill="#363636" opacity="0.736" d="M55 7H56V8H55ZM42 21H43V22H42ZM53 40H54V41H53ZM54 54H55V55H54ZM44 60H45V61H44ZM16 62H17V63H16Z"/>
  <path fill="#363636" opacity="0.731" d="M42 20H43V21H42ZM42 29H43V30H42ZM63 43H64V44H63ZM56 44H57V45H56ZM57 52H58V53H57ZM8 53H9V54H8ZM37 57H38V58H37ZM37 58H38V59H37ZM14 60H15V61H14Z"/>
  <path fill="#363636" opacity="0.726" d="M64 20H65V21H64ZM42 25H43V26H42ZM42 28H43V29H42ZM42 31H43V32H42ZM28 33H29V34H28ZM42 36H43V37H42ZM51 36H52V37H51ZM47 37H48V38H47ZM53 39H54V40H53ZM67 54H68V55H67ZM53 63H54V64H53ZM80 63H81V64H80Z"/>
  <path fill="#363636" opacity="0.716" d="M50 5H51V6H50ZM63 19H64V20H63ZM42 23H43V24H42ZM28 28H29V29H28ZM42 37H43V38H42ZM41 41H42V42H41ZM27 44H28V45H27Z"/>
  <path fill="#363636" opacity="0.711" d="M55 8H56V9H55ZM27 26H28V27H27ZM30 29H31V30H30ZM55 43H56V44H55ZM45 59H46V60H45ZM68 63H69V64H68Z"/>
  <path fill="#363636" opacity="0.706" d="M59 10H60V11H59ZM40 16H41V17H40ZM52 39H53V40H52ZM44 40H45V41H44ZM70 54H71V55H70Z"/>
  <path fill="#363636" opacity="0.701" d="M59 36H60V37H59ZM50 40H51V41H50ZM37 56H38V57H37ZM37 59H38V60H37ZM14 63H15V64H14Z"/>
  <path fill="#363636" opacity="0.697" d="M45 24H46V25H45ZM48 24H49V25H48ZM42 38H43V39H42ZM50 38H51V39H50ZM33 40H34V41H33ZM52 41H53V42H52ZM33 43H34V44H33ZM42 43H43V44H42ZM19 63H20V64H19ZM76 63H77V64H76Z"/>
  <path fill="#363636" opacity="0.692" d="M53 7H54V8H53ZM41 18H42V19H41ZM61 38H62V39H61ZM42 42H43V43H42ZM68 54H69V55H68ZM83 61H84V62H83Z"/>
  <path fill="#363636" opacity="0.682" d="M59 23H60V24H59ZM53 25H54V26H53ZM27 33H28V34H27ZM28 34H29V35H28ZM46 36H47V37H46ZM42 39H43V40H42ZM42 41H43V42H42ZM56 41H57V42H56ZM76 52H77V53H76ZM66 54H67V55H66ZM68 61H69V62H68ZM35 62H36V63H35Z"/>
  <path fill="#363636" opacity="0.677" d="M46 23H47V24H46ZM42 40H43V41H42ZM70 61H71V62H70Z"/>
  <path fill="#363636" opacity="0.672" d="M35 9H36V10H35ZM31 28H32V29H31ZM40 33H41V34H40ZM30 34H31V35H30ZM32 35H33V36H32ZM28 43H29V44H28ZM55 54H56V55H55ZM7 60H8V61H7ZM67 61H68V62H67ZM69 61H70V62H69ZM24 62H25V63H24Z"/>
  <path fill="#363636" opacity="0.667" d="M59 35H60V36H59ZM27 36H28V37H27ZM69 54H70V55H69Z"/>
  <path fill="#363636" opacity="0.662" d="M40 15H41V16H40ZM32 27H33V28H32ZM50 39H51V40H50ZM31 40H32V41H31ZM41 42H42V43H41ZM45 44H47V45H45ZM35 53H36V54H35ZM59 53H60V54H59ZM54 59H55V60H54ZM77 60H78V61H77Z"/>
  <path fill="#363636" opacity="0.657" d="M58 9H59V10H58ZM28 20H29V21H28ZM63 37H64V38H63ZM61 44H62V45H61ZM83 54H84V55H83ZM77 55H78V56H77Z"/>
  <path fill="#363636" opacity="0.647" d="M57 44H58V45H57ZM24 53H25V54H24ZM82 53H83V54H82ZM13 54H14V55H13ZM24 54H25V55H24ZM35 61H36V62H35ZM66 61H67V62H66ZM9 63H10V64H9ZM45 63H46V64H45Z"/>
  <path fill="#363636" opacity="0.642" d="M31 13H32V14H31ZM28 26H29V27H28ZM30 28H31V29H30ZM45 52H46V53H45ZM13 59H14V60H13ZM74 62H75V63H74Z"/>
  <path fill="#363636" opacity="0.637" d="M63 27H64V28H63ZM38 44H39V45H38ZM24 55H25V56H24ZM35 55H36V56H35ZM27 63H28V64H27Z"/>
  <path fill="#363636" opacity="0.632" d="M27 20H28V21H27ZM27 27H28V28H27ZM34 38H35V39H34ZM50 41H51V42H50Z"/>
  <path fill="#363636" opacity="0.627" d="M40 5H41V6H40ZM64 27H65V28H64ZM31 41H32V42H31ZM41 43H42V44H41ZM50 44H51V45H50ZM35 54H36V55H35ZM76 56H77V57H76Z"/>
  <path fill="#363636" opacity="0.622" d="M38 10H39V11H38ZM28 21H29V22H28ZM54 25H55V26H54ZM29 29H30V30H29ZM55 37H56V38H55ZM38 40H39V41H38ZM38 41H39V42H38ZM61 41H62V42H61ZM38 42H39V43H38ZM38 43H39V44H38ZM50 53H51V54H50ZM48 55H49V56H48ZM35 60H36V61H35ZM48 60H49V61H48ZM50 62H51V63H50Z"/>
  <path fill="#363636" opacity="0.612" d="M33 9H34V10H33ZM62 14H63V15H62ZM63 20H64V21H63ZM61 32H62V33H61ZM29 38H30V39H29ZM40 52H41V53H40ZM50 54H51V55H50ZM79 55H80V56H79ZM24 56H25V57H24ZM24 57H25V58H24ZM7 61H8V62H7ZM50 61H51V62H50Z"/>
  <path fill="#363636" opacity="0.607" d="M45 4H47V5H45ZM32 10H33V11H32ZM31 27H32V28H31ZM34 37H35V38H34ZM24 61H25V62H24Z"/>
  <path fill="#363636" opacity="0.602" d="M38 36H39V37H38ZM61 39H62V40H61ZM30 56H31V57H30ZM31 57H32V58H31ZM24 58H25V59H24ZM40 63H41V64H40Z"/>
  <path fill="#363636" opacity="0.597" d="M60 13H61V14H60ZM41 17H42V18H41ZM38 35H39V36H38ZM61 40H62V41H61Z"/>
  <path fill="#363636" opacity="0.592" d="M51 5H52V6H51ZM38 8H39V9H38ZM60 11H61V12H60ZM38 32H39V33H38ZM56 36H57V37H56ZM38 37H39V38H38ZM44 37H45V38H44ZM10 58H11V59H10ZM55 59H56V60H55ZM24 60H25V61H24ZM37 60H38V61H37Z"/>
  <path fill="#363636" opacity="0.587" d="M49 24H50V25H49ZM52 25H53V26H52ZM38 38H39V39H38ZM47 43H48V44H47ZM13 56H14V57H13ZM65 56H66V57H65ZM65 59H66V60H65ZM30 61H31V62H30ZM15 63H16V64H15Z"/>
  <path fill="#363636" opacity="0.577" d="M38 11H39V12H38ZM29 31H30V32H29ZM38 33H39V34H38ZM40 34H41V35H40ZM24 59H25V60H24ZM56 59H57V60H56Z"/>
  <path fill="#363636" opacity="0.572" d="M50 6H51V7H50ZM28 22H29V23H28ZM33 36H34V37H33ZM30 37H31V38H30ZM38 39H39V40H38ZM42 55H43V56H42ZM76 59H77V60H76Z"/>
  <path fill="#363636" opacity="0.567" d="M29 14H30V15H29ZM40 14H41V15H40ZM63 16H64V17H63ZM38 34H39V35H38ZM44 43H45V44H44ZM60 43H61V44H60ZM49 44H50V45H49ZM28 58H29V59H28ZM29 59H30V60H29ZM35 59H36V60H35ZM50 59H51V60H50ZM50 60H51V61H50Z"/>
  <path fill="#363636" opacity="0.562" d="M38 30H39V31H38ZM62 30H63V31H62ZM62 36H63V37H62ZM61 42H62V43H61ZM17 60H18V61H17ZM73 61H74V62H73ZM35 63H36V64H35Z"/>
  <path fill="#363636" opacity="0.557" d="M38 25H39V26H38ZM33 26H34V27H33ZM22 54H23V55H22ZM29 54H30V55H29ZM22 55H23V56H22ZM43 55H44V56H43ZM50 56H51V57H50ZM35 58H36V59H35ZM17 59H18V60H17ZM79 60H80V61H79Z"/>
  <path fill="#363636" opacity="0.552" d="M38 16H39V17H38ZM64 19H65V20H64ZM38 22H39V23H38ZM38 23H39V24H38ZM63 23H64V24H63ZM38 24H39V25H38ZM48 25H49V26H48ZM40 35H41V36H40ZM49 39H50V40H49ZM53 43H54V44H53ZM9 52H10V53H9ZM35 52H36V53H35ZM16 53H17V54H16ZM37 55H38V56H37ZM81 56H82V57H81ZM24 63H25V64H24Z"/>
  <path fill="#363636" opacity="0.542" d="M38 13H39V14H38ZM38 15H39V16H38ZM38 17H39V18H38ZM38 18H39V19H38ZM38 19H39V20H38ZM49 25H50V26H49ZM38 29H39V30H38ZM50 58H51V59H50ZM81 59H82V60H81Z"/>
  <path fill="#363636" opacity="0.537" d="M28 16H29V17H28ZM29 17H30V18H29ZM38 20H39V21H38ZM38 21H39V22H38ZM28 23H29V24H28ZM44 23H45V24H44ZM50 23H51V24H50ZM63 24H64V25H63ZM59 25H60V26H59ZM38 28H39V29H38ZM38 31H39V32H38ZM57 36H58V37H57ZM35 57H36V58H35ZM40 57H41V58H40ZM40 58H41V59H40Z"/>
  <path fill="#363636" opacity="0.532" d="M38 12H39V13H38ZM41 16H42V17H41ZM38 26H39V27H38ZM38 27H39V28H38ZM45 36H46V37H45ZM50 52H51V53H50ZM22 56H23V57H22ZM8 57H9V58H8Z"/>
  <path fill="#363636" opacity="0.527" d="M28 25H29V26H28ZM56 39H57V40H56ZM49 41H50V42H49ZM15 52H16V53H15ZM22 53H23V54H22ZM35 56H36V57H35ZM22 57H23V58H22ZM10 60H11V61H10ZM22 60H23V61H22ZM81 63H82V64H81Z"/>
  <path fill="#363636" opacity="0.522" d="M44 4H45V5H44ZM47 4H48V5H47ZM57 8H58V9H57ZM38 14H39V15H38ZM50 22H51V23H50ZM28 24H29V25H28ZM49 43H50V44H49ZM14 55H15V56H14ZM50 57H51V58H50ZM22 58H23V59H22Z"/>
  <path fill="#363636" opacity="0.517" d="M54 6H55V7H54ZM38 9H39V10H38ZM31 11H32V12H31ZM74 53H75V54H74ZM50 55H51V56H50ZM22 61H23V62H22Z"/>
  <path fill="#363636" opacity="0.507" d="M54 22H55V23H54ZM63 26H64V27H63ZM62 33H63V34H62ZM49 40H50V41H49ZM83 55H84V56H83ZM22 59H23V60H22ZM22 62H23V63H22ZM50 63H51V64H50Z"/>
  <path fill="#363636" opacity="0.502" d="M56 9H57V10H56ZM63 21H64V22H63ZM32 26H33V27H32ZM58 37H59V38H58ZM24 52H25V53H24ZM72 57H73V58H72ZM72 58H73V59H72Z"/>
  <path fill="#363636" opacity="0.498" d="M53 24H54V25H53ZM63 31H64V32H63ZM7 55H8V56H7Z"/>
  <path fill="#363636" opacity="0.493" d="M63 41H64V42H63ZM81 52H82V53H81Z"/>
  <path fill="#363636" opacity="0.488" d="M37 6H38V7H37ZM61 12H62V13H61ZM41 15H42V16H41ZM49 23H50V24H49ZM56 38H57V39H56ZM56 56H57V57H56ZM83 60H84V61H83Z"/>
  <path fill="#363636" opacity="0.483" d="M48 4H49V5H48ZM62 38H63V39H62ZM73 54H74V55H73ZM42 60H43V61H42Z"/>
  <path fill="#363636" opacity="0.473" d="M40 13H41V14H40ZM27 28H28V29H27ZM58 41H59V42H58ZM16 55H17V56H16ZM78 55H79V56H78ZM16 57H17V58H16Z"/>
  <path fill="#363636" opacity="0.468" d="M30 12H31V13H30ZM64 28H65V29H64ZM49 38H50V39H49ZM15 55H16V56H15ZM45 57H46V58H45ZM78 60H79V61H78ZM75 63H76V64H75Z"/>
  <path fill="#363636" opacity="0.463" d="M34 8H35V9H34ZM34 10H35V11H34ZM30 15H31V16H30ZM61 60H62V61H61Z"/>
  <path fill="#363636" opacity="0.458" d="M57 10H58V11H57ZM62 17H63V18H62ZM63 22H64V23H63ZM48 23H49V24H48ZM48 41H49V42H48ZM59 58H60V59H59ZM61 62H62V63H61ZM22 63H23V64H22Z"/>
  <path fill="#363636" opacity="0.453" d="M32 12H33V13H32ZM46 22H47V23H46ZM45 42H46V43H45ZM58 52H59V53H58ZM61 59H62V60H61ZM17 61H18V62H17Z"/>
  <path fill="#363636" opacity="0.448" d="M41 7H42V8H41ZM27 19H28V20H27ZM63 25H64V26H63ZM27 32H28V33H27ZM57 41H58V42H57Z"/>
  <path fill="#363636" opacity="0.438" d="M43 4H44V5H43ZM44 24H45V25H44ZM49 42H50V43H49Z"/>
  <path fill="#363636" opacity="0.433" d="M33 11H34V12H33ZM41 14H42V15H41ZM50 24H51V25H50ZM30 39H31V40H30ZM56 42H57V43H56ZM57 59H58V60H57ZM43 60H44V61H43ZM13 61H14V62H13ZM61 61H62V62H61Z"/>
  <path fill="#363636" opacity="0.428" d="M41 10H42V11H41ZM45 22H46V23H45ZM59 24H60V25H59ZM29 32H30V33H29ZM48 38H49V39H48ZM30 42H31V43H30ZM58 43H59V44H58ZM41 44H42V45H41ZM27 45H28V46H27ZM45 58H46V59H45Z"/>
  <path fill="#363636" opacity="0.423" d="M37 8H38V9H37ZM41 9H42V10H41ZM50 25H51V26H50ZM45 38H46V39H45ZM52 44H53V45H52ZM61 53H62V54H61ZM47 62H48V63H47Z"/>
  <path fill="#363636" opacity="0.418" d="M41 11H42V12H41ZM41 13H42V14H41ZM58 24H59V25H58ZM22 52H23V53H22ZM61 58H62V59H61Z"/>
  <path fill="#363636" opacity="0.413" d="M41 8H42V9H41ZM63 15H64V16H63ZM64 18H65V19H64ZM49 26H50V27H49ZM53 37H54V38H53ZM48 39H49V40H48ZM11 55H12V56H11ZM71 62H72V63H71Z"/>
  <path fill="#363636" opacity="0.408" d="M28 30H29V31H28ZM31 33H32V34H31ZM69 56H71V57H69ZM72 56H73V57H72ZM72 59H73V60H72ZM11 61H12V62H11Z"/>
  <path fill="#363636" opacity="0.398" d="M52 5H53V6H52ZM59 12H60V13H59ZM49 22H50V23H49ZM57 24H58V25H57ZM28 29H29V30H28ZM40 36H41V37H40ZM14 56H15V57H14Z"/>
  <path fill="#363636" opacity="0.393" d="M48 40H49V41H48ZM64 42H65V43H64ZM7 54H8V55H7ZM68 56H69V57H68ZM80 56H81V57H80Z"/>
  <path fill="#363636" opacity="0.388" d="M58 11H59V12H58ZM64 38H65V39H64ZM48 42H49V43H48ZM71 53H72V54H71ZM80 59H81V60H80Z"/>
  <path fill="#363636" opacity="0.383" d="M56 24H57V25H56ZM65 55H66V56H65ZM67 56H68V57H67ZM67 59H68V60H67ZM31 63H32V64H31ZM61 63H62V64H61Z"/>
  <path fill="#363636" opacity="0.378" d="M40 12H41V13H40ZM29 18H30V19H29ZM54 24H55V25H54ZM47 25H48V26H47ZM52 36H53V37H52ZM61 52H62V53H61ZM66 56H67V57H66ZM61 57H62V58H61ZM71 57H72V58H71ZM66 59H67V60H66Z"/>
  <path fill="#363636" opacity="0.373" d="M37 10H38V11H37ZM41 12H42V13H41ZM61 15H62V16H61ZM37 36H38V37H37ZM33 38H34V39H33ZM37 44H38V45H37ZM75 52H76V53H75ZM61 54H62V55H61ZM7 56H8V57H7ZM78 64H79V65H78Z"/>
  <path fill="#363636" opacity="0.363" d="M52 7H53V8H52ZM37 13H38V14H37ZM53 22H54V23H53ZM55 25H56V26H55ZM30 30H31V31H30ZM37 30H38V31H37ZM30 32H31V33H30ZM37 35H38V36H37ZM38 62H39V63H38Z"/>
  <path fill="#363636" opacity="0.358" d="M37 15H38V16H37ZM53 23H54V24H53ZM43 24H44V25H43ZM37 25H38V26H37ZM52 26H53V27H52ZM37 37H38V38H37ZM40 37H41V38H40ZM28 52H29V53H28ZM69 59H70V60H69ZM65 60H66V61H65Z"/>
  <path fill="#363636" opacity="0.353" d="M39 5H40V6H39ZM37 11H38V12H37ZM37 12H38V13H37ZM37 16H38V17H37ZM37 22H38V23H37ZM37 23H38V24H37ZM37 24H38V25H37ZM62 24H63V25H62ZM37 31H38V32H37ZM37 32H38V33H37ZM60 36H61V37H60ZM37 38H38V39H37ZM35 39H36V40H35ZM45 40H46V41H45ZM56 55H57V56H56ZM71 58H72V59H71ZM70 59H71V60H70ZM46 63H47V64H46Z"/>
  <path fill="#363636" opacity="0.348" d="M42 4H43V5H42ZM43 6H44V7H43ZM37 14H38V15H37ZM37 17H38V18H37ZM37 18H38V19H37ZM37 19H38V20H37ZM37 29H38V30H37ZM37 33H38V34H37ZM32 38H33V39H32ZM61 55H62V56H61ZM61 56H62V57H61ZM12 59H13V60H12ZM68 59H69V60H68Z"/>
  <path fill="#363636" opacity="0.343" d="M49 6H50V7H49ZM37 20H38V21H37ZM37 21H38V22H37ZM37 28H38V29H37ZM31 36H32V37H31ZM35 38H36V39H35ZM37 39H38V40H37ZM51 44H52V45H51ZM71 52H72V53H71ZM48 61H49V62H48ZM11 64H12V65H11Z"/>
  <path fill="#363636" opacity="0.338" d="M49 4H50V5H49ZM43 23H44V24H43ZM52 24H53V25H52ZM60 25H61V26H60ZM37 26H38V27H37ZM37 27H38V28H37ZM35 32H36V33H35ZM29 33H30V34H29ZM37 34H38V35H37ZM35 36H36V37H35ZM45 39H46V40H45Z"/>
  <path fill="#363636" opacity="0.328" d="M37 40H38V41H37ZM51 42H52V43H51ZM28 45H32V46H28ZM76 57H77V58H76ZM7 62H8V63H7Z"/>
  <path fill="#363636" opacity="0.323" d="M27 18H28V19H27ZM58 23H59V24H58ZM35 29H36V30H35ZM64 29H65V30H64ZM29 36H30V37H29ZM32 37H33V38H32ZM37 41H38V42H37ZM37 42H38V43H37ZM46 42H47V43H46ZM37 43H38V44H37ZM36 45H37V46H36ZM71 63H72V64H71ZM42 64H43V65H42Z"/>
  <path fill="#363636" opacity="0.318" d="M40 11H41V12H40ZM35 12H36V13H35ZM35 24H36V25H35ZM45 41H46V42H45ZM47 53H48V54H47ZM17 58H18V59H17Z"/>
  <path fill="#363636" opacity="0.313" d="M55 24H56V25H55ZM45 25H46V26H45ZM62 42H63V43H62ZM60 55H61V56H60ZM43 64H44V65H43Z"/>
  <path fill="#363636" opacity="0.308" d="M35 7H36V8H35ZM35 10H36V11H35ZM57 23H58V24H57ZM35 27H36V28H35ZM62 29H63V30H62ZM35 33H36V34H35ZM50 36H51V37H50ZM35 44H36V45H35ZM39 45H40V46H39ZM71 54H72V55H71Z"/>
  <path fill="#363636" opacity="0.303" d="M54 8H55V9H54ZM33 39H34V40H33ZM64 39H65V40H64ZM9 58H10V59H9ZM39 63H40V64H39ZM77 64H78V65H77Z"/>
  <path fill="#363636" opacity="0.294" d="M60 22H61V23H60ZM35 25H36V26H35ZM35 28H36V29H35ZM40 38H41V39H40ZM35 40H36V41H35ZM35 41H36V42H35ZM35 42H36V43H35ZM35 43H36V44H35ZM28 61H29V62H28ZM8 63H9V64H8ZM79 64H80V65H79Z"/>
  <path fill="#363636" opacity="0.289" d="M37 9H38V10H37ZM35 14H36V15H35ZM35 22H36V23H35ZM35 23H36V24H35ZM50 26H51V27H50ZM38 53H39V54H38ZM11 54H12V55H11ZM12 64H13V65H12Z"/>
  <path fill="#363636" opacity="0.284" d="M35 13H36V14H35ZM35 16H36V17H35ZM35 17H36V18H35ZM35 18H36V19H35ZM35 19H36V20H35ZM51 27H52V28H51ZM35 35H36V36H35ZM27 37H28V38H27ZM42 45H43V46H42Z"/>
  <path fill="#363636" opacity="0.279" d="M62 13H63V14H62ZM28 15H29V16H28ZM35 20H36V21H35ZM35 21H36V22H35ZM60 23H61V24H60ZM61 25H62V26H61ZM26 44H27V45H26ZM48 54H49V55H48ZM54 56H55V57H54ZM29 60H30V61H29Z"/>
  <path fill="#363636" opacity="0.274" d="M56 7H57V8H56ZM35 11H36V12H35ZM45 21H46V22H45ZM35 26H36V27H35ZM35 34H36V35H35ZM43 40H44V41H43ZM50 45H51V46H50ZM78 51H79V52H78ZM49 58H50V59H49Z"/>
  <path fill="#363636" opacity="0.269" d="M65 23H66V24H65ZM58 25H59V26H58ZM50 28H51V29H50ZM63 32H64V33H63ZM60 33H61V34H60ZM35 37H36V38H35ZM62 39H63V40H62ZM59 40H60V41H59ZM55 44H56V45H55ZM71 61H72V62H71ZM52 64H53V65H52Z"/>
  <path fill="#363636" opacity="0.259" d="M35 15H36V16H35ZM62 18H63V19H62ZM35 30H36V31H35ZM35 31H36V32H35ZM49 37H50V38H49ZM43 51H44V52H43ZM30 55H31V56H30ZM82 56H83V57H82ZM37 61H38V62H37Z"/>
  <path fill="#363636" opacity="0.254" d="M40 10H41V11H40ZM61 16H62V17H61ZM65 24H66V25H65ZM60 37H61V38H60ZM29 42H30V43H29ZM26 45H27V46H26ZM82 59H83V60H82ZM13 64H14V65H13Z"/>
  <path fill="#363636" opacity="0.249" d="M43 20H44V21H43ZM61 31H62V32H61ZM58 36H59V37H58ZM61 36H62V37H61ZM40 39H41V40H40ZM43 41H44V42H43ZM44 56H45V57H44ZM49 57H50V58H49ZM76 58H77V59H76ZM12 61H13V62H12ZM28 62H29V63H28ZM10 64H11V65H10ZM68 64H70V65H68Z"/>
  <path fill="#363636" opacity="0.244" d="M65 22H66V23H65ZM57 25H58V26H57ZM43 32H44V33H43ZM54 42H55V43H54ZM17 54H18V55H17Z"/>
  <path fill="#363636" opacity="0.239" d="M45 26H46V27H45ZM45 27H46V28H45ZM54 39H55V40H54ZM21 64H22V65H21ZM25 64H27V65H25ZM44 64H45V65H44Z"/>
  <path fill="#363636" opacity="0.234" d="M29 13H30V14H29ZM31 14H32V15H31ZM43 15H44V16H43ZM59 22H60V23H59ZM47 24H48V25H47ZM13 60H14V61H13ZM51 64H52V65H51ZM64 64H68V65H64Z"/>
  <path fill="#363636" opacity="0.224" d="M48 6H49V7H48ZM43 8H44V9H43ZM43 13H44V14H43ZM43 22H44V23H43ZM30 35H31V36H30ZM58 39H59V40H58ZM33 44H34V45H33ZM38 45H39V46H38ZM12 51H13V52H12ZM39 52H40V53H39ZM19 64H20V65H19ZM41 64H42V65H41Z"/>
  <path fill="#363636" opacity="0.219" d="M43 9H44V10H43ZM43 16H44V17H43ZM43 17H44V18H43ZM43 18H44V19H43ZM65 25H66V26H65ZM33 27H34V28H33ZM31 29H32V30H31ZM43 33H44V34H43ZM51 38H52V39H51ZM54 40H55V41H54ZM43 44H44V45H43ZM49 45H50V46H49ZM12 54H13V55H12ZM13 55H14V56H13ZM60 56H61V57H60ZM82 63H83V64H82Z"/>
  <path fill="#363636" opacity="0.214" d="M29 19H30V20H29ZM43 19H44V20H43ZM65 21H66V22H65ZM62 23H63V24H62ZM43 27H44V28H43ZM51 28H52V29H51ZM32 34H33V35H32ZM54 41H55V42H54ZM63 44H64V45H63ZM46 52H47V53H46ZM84 55H85V56H84ZM83 62H84V63H83ZM28 63H29V64H28Z"/>
  <path fill="#363636" opacity="0.209" d="M43 10H44V11H43ZM43 14H44V15H43ZM30 16H31V17H30ZM64 17H65V18H64ZM47 23H48V24H47ZM59 26H60V27H59ZM43 30H44V31H43ZM43 36H44V37H43ZM43 37H44V38H43ZM43 38H44V39H43ZM43 39H44V40H43ZM34 41H35V42H34ZM34 42H35V43H34ZM43 42H44V43H43ZM32 45H33V46H32ZM12 55H13V56H12ZM36 57H37V58H36ZM36 58H37V59H36ZM28 59H29V60H28ZM58 59H59V60H58ZM30 62H31V63H30ZM54 62H55V63H54ZM20 64H21V65H20Z"/>
  <path fill="#363636" opacity="0.204" d="M43 35H44V36H43ZM54 38H55V39H54ZM77 51H78V52H77ZM37 54H38V55H37ZM18 56H19V57H18ZM41 56H42V57H41ZM41 59H42V60H41ZM16 63H17V64H16ZM14 64H15V65H14ZM32 64H36V65H32Z"/>
  <path fill="#363636" opacity="0.199" d="M43 12H44V13H43ZM51 23H52V24H51ZM56 23H57V24H56ZM62 28H63V29H62ZM61 35H62V36H61ZM46 38H47V39H46ZM57 39H58V40H57ZM8 52H9V53H8ZM55 56H56V57H55ZM63 64H64V65H63Z"/>
  <path fill="#363636" opacity="0.189" d="M44 6H45V7H44ZM47 6H48V7H47ZM43 11H44V12H43ZM65 20H66V21H65ZM57 22H58V23H57ZM43 29H44V30H43ZM43 34H44V35H43ZM31 37H32V38H31ZM42 51H43V52H42ZM79 51H80V52H79ZM7 53H8V54H7ZM54 55H55V56H54ZM15 56H16V57H15ZM44 59H45V60H44ZM54 63H55V64H54ZM62 64H63V65H62Z"/>
  <path fill="#363636" opacity="0.184" d="M43 7H44V8H43ZM43 21H44V22H43ZM61 24H62V25H61ZM43 28H44V29H43ZM43 31H44V32H43ZM26 35H27V36H26ZM43 43H44V44H43ZM18 53H19V54H18ZM28 60H29V61H28ZM24 64H25V65H24ZM27 64H28V65H27Z"/>
  <path fill="#363636" opacity="0.179" d="M43 25H44V26H43ZM48 26H49V27H48ZM65 26H66V27H65ZM29 28H30V29H29ZM27 29H28V30H27ZM13 51H14V52H13ZM29 53H30V54H29ZM60 54H61V55H60ZM11 59H12V60H11ZM70 64H71V65H70Z"/>
  <path fill="#363636" opacity="0.174" d="M51 22H52V23H51ZM34 39H35V40H34ZM64 41H65V42H64ZM11 51H12V52H11ZM83 53H84V54H83ZM72 55H73V56H72ZM60 57H61V58H60ZM18 62H19V63H18ZM53 64H54V65H53Z"/>
  <path fill="#363636" opacity="0.169" d="M26 23H27V24H26ZM46 24H47V25H46ZM51 24H52V25H51ZM51 40H52V41H51ZM59 41H60V42H59ZM18 52H19V53H18ZM18 54H19V55H18ZM18 57H19V58H18ZM54 61H55V62H54ZM80 64H81V65H80Z"/>
  <path fill="#363636" opacity="0.164" d="M47 36H48V37H47ZM31 53H32V54H31ZM71 56H72V57H71ZM72 60H73V61H72ZM18 63H19V64H18Z"/>
  <path fill="#363636" opacity="0.154" d="M50 4H51V5H50ZM60 14H61V15H60ZM26 22H27V23H26ZM26 24H27V25H26ZM34 26H35V27H34ZM43 26H44V27H43ZM60 26H61V27H60ZM27 31H28V32H27ZM48 37H49V38H48ZM27 43H28V44H27ZM64 43H65V44H64ZM17 55H18V56H17Z"/>
  <path fill="#363636" opacity="0.149" d="M27 17H28V18H27ZM48 22H49V23H48ZM56 25H57V26H56ZM53 26H54V27H53ZM26 34H27V35H26ZM62 41H63V42H62ZM36 56H37V57H36ZM36 59H37V60H36ZM54 60H55V61H54ZM17 62H18V63H17Z"/>
  <path fill="#363636" opacity="0.144" d="M40 7H41V8H40ZM51 26H52V27H51ZM58 44H59V45H58ZM41 45H42V46H41ZM82 52H83V53H82ZM31 56H32V57H31ZM9 59H10V60H9ZM84 60H85V61H84ZM84 61H85V62H84Z"/>
  <path fill="#363636" opacity="0.139" d="M40 9H41V10H40ZM44 27H45V28H44ZM62 34H63V35H62ZM59 37H60V38H59ZM48 43H49V44H48ZM59 43H60V44H59ZM53 44H54V45H53ZM31 54H32V55H31ZM18 55H19V56H18Z"/>
  <path fill="#363636" opacity="0.134" d="M41 4H42V5H41ZM45 6H47V7H45ZM60 10H61V11H60ZM54 26H55V27H54ZM30 27H31V28H30ZM33 35H34V36H33ZM40 40H41V41H40ZM44 44H45V45H44ZM47 44H48V45H47ZM41 51H42V52H41ZM44 51H45V52H44ZM49 59H50V60H49ZM76 64H77V65H76Z"/>
  <path fill="#363636" opacity="0.129" d="M55 6H56V7H55ZM58 8H59V9H58ZM62 19H63V20H62ZM50 21H51V22H50ZM52 23H53V24H52ZM26 25H27V26H26ZM40 41H41V42H40ZM46 41H47V42H46ZM35 45H36V46H35ZM10 51H11V52H10ZM31 52H32V53H31ZM36 52H37V53H36ZM18 58H19V59H18ZM8 59H9V60H8ZM18 61H19V62H18ZM22 64H23V65H22ZM45 64H46V65H45Z"/>
  <path fill="#363636" opacity="0.119" d="M47 22H48V23H47ZM55 22H56V23H55ZM54 23H55V24H54ZM33 25H34V26H33ZM31 26H32V27H31ZM29 34H30V35H29ZM56 35H57V36H56ZM54 37H55V38H54ZM58 38H59V39H58ZM51 39H52V40H51ZM46 40H47V41H46ZM51 41H52V42H51ZM54 43H55V44H54ZM49 56H50V57H49ZM7 57H8V58H7ZM7 59H8V60H7ZM6 60H7V61H6ZM11 60H12V61H11ZM18 60H19V61H18ZM67 60H68V61H67ZM36 63H37V64H36ZM9 64H10V65H9Z"/>
  <path fill="#363636" opacity="0.114" d="M38 5H39V6H38ZM55 9H56V10H55ZM59 9H60V10H59ZM26 21H27V22H26ZM49 21H50V22H49ZM50 29H51V30H50ZM64 30H65V31H64ZM59 34H60V35H59ZM29 35H30V36H29ZM55 36H56V37H55ZM63 36H64V37H63ZM46 39H47V40H46ZM34 40H35V41H34ZM28 42H29V43H28ZM40 42H41V43H40ZM34 43H35V44H34ZM61 45H62V46H61ZM16 52H17V53H16ZM69 60H70V61H69Z"/>
  <path fill="#363636" opacity="0.109" d="M36 6H37V7H36ZM32 13H33V14H32ZM65 19H66V20H65ZM62 25H63V26H62ZM55 26H56V27H55ZM61 26H62V27H61ZM29 27H30V28H29ZM50 27H51V28H50ZM64 37H65V38H64ZM59 39H60V40H59ZM37 45H38V46H37ZM14 51H15V52H14ZM36 53H37V54H36ZM84 54H85V55H84ZM18 59H19V60H18ZM71 59H72V60H71ZM61 64H62V65H61Z"/>
  <path fill="#363636" opacity="0.104" d="M53 5H54V6H53ZM51 7H52V8H51ZM31 10H32V11H31ZM44 25H45V26H44ZM32 28H33V29H32ZM28 38H29V39H28ZM57 38H58V39H57ZM40 43H41V44H40ZM73 53H74V54H73ZM60 58H61V59H60ZM50 64H51V65H50Z"/>
  <path fill="#363636" opacity="0.1" d="M58 12H59V13H58ZM59 13H60V14H59ZM61 23H62V24H61ZM47 26H48V27H47ZM65 27H66V28H65ZM46 35H47V36H46ZM20 51H21V52H20ZM79 59H80V60H79ZM70 60H71V61H70ZM36 62H37V63H36Z"/>
  <path fill="#363636" opacity="0.095" d="M34 7H35V8H34ZM33 8H34V9H33ZM45 20H46V21H45ZM58 22H59V23H58ZM31 32H32V33H31ZM60 32H61V33H60ZM59 38H60V39H59ZM56 45H57V46H56ZM62 45H63V46H62ZM52 51H56V52H52ZM74 52H75V53H74ZM66 60H67V61H66ZM81 64H82V65H81Z"/>
  <path fill="#363636" opacity="0.085" d="M50 7H51V8H50ZM32 9H33V10H32ZM34 25H35V26H34ZM51 25H52V26H51ZM26 26H27V27H26ZM26 36H27V37H26ZM40 44H41V45H40ZM60 44H61V45H60ZM43 45H44V46H43ZM24 51H28V52H24ZM33 51H35V52H33ZM17 53H18V54H17ZM70 55H71V56H70ZM8 58H9V59H8ZM68 60H69V61H68ZM71 64H72V65H71Z"/>
  <path fill="#363636" opacity="0.08" d="M62 21H63V22H62ZM60 24H61V25H60ZM62 27H63V28H62ZM26 33H27V34H26ZM64 40H65V41H64ZM57 45H58V46H57ZM35 51H36V52H35ZM59 52H60V53H59ZM36 61H37V62H36ZM73 62H74V63H73Z"/>
  <path fill="#363636" opacity="0.075" d="M34 11H35V12H34ZM31 15H32V16H31ZM64 16H65V17H64ZM46 25H47V26H46ZM51 31H52V32H51ZM21 51H22V52H21ZM32 51H33V52H32ZM40 51H41V52H40ZM60 51H64V52H60ZM17 52H18V53H17ZM31 55H32V56H31ZM36 55H37V56H36ZM17 57H18V58H17ZM59 59H60V60H59ZM72 61H73V62H72Z"/>
  <path fill="#363636" opacity="0.07" d="M44 26H45V27H44ZM46 27H47V28H46ZM45 28H46V29H45ZM61 30H62V31H61ZM66 31H67V32H66ZM45 35H46V36H45ZM58 35H59V36H58ZM48 36H49V37H48ZM53 36H54V37H53ZM45 51H46V52H45ZM64 51H72V52H64ZM60 53H61V54H60ZM30 54H31V55H30ZM67 55H68V56H67ZM77 56H78V57H77ZM54 64H55V65H54Z"/>
  <path fill="#363636" opacity="0.065" d="M30 11H31V12H30ZM61 11H62V12H61ZM63 14H64V15H63ZM26 20H27V21H26ZM29 20H30V21H29ZM54 21H55V22H54ZM52 22H53V23H52ZM57 26H58V27H57ZM46 34H47V35H46ZM44 36H45V37H44ZM30 41H31V42H30ZM57 42H58V43H57ZM15 51H16V52H15ZM47 52H48V53H47ZM23 56H24V57H23ZM23 57H24V58H23ZM15 64H16V65H15ZM40 64H41V65H40Z"/>
  <path fill="#363636" opacity="0.06" d="M44 22H45V23H44ZM26 27H27V28H26ZM47 27H48V28H47ZM44 28H45V29H44ZM57 34H58V35H57ZM63 40H64V41H63ZM54 44H55V45H54ZM59 44H60V45H59ZM45 45H47V46H45ZM9 51H10V52H9ZM80 51H81V52H80ZM36 54H37V55H36ZM69 55H70V56H69ZM42 56H43V57H42ZM81 57H82V58H81ZM23 58H24V59H23ZM10 59H11V60H10ZM42 59H43V60H42ZM6 61H7V62H6ZM74 63H75V64H74ZM16 67H17V68H16Z"/>
  <path fill="#363636" opacity="0.05" d="M51 4H52V5H51ZM40 8H41V9H40ZM62 12H63V13H62ZM48 21H49V22H48ZM46 28H47V29H46ZM51 35H52V36H51ZM49 46H50V47H49ZM63 47H64V48H63ZM22 51H23V52H22ZM29 52H30V53H29ZM72 54H73V55H72ZM23 55H24V56H23ZM79 56H80V57H79ZM60 59H61V60H60ZM23 60H24V61H23ZM30 63H31V64H30ZM36 64H37V65H36Z"/>
  <path fill="#363636" opacity="0.045" d="M40 4H41V5H40ZM57 7H58V8H57ZM29 8H30V9H29ZM61 8H62V9H61ZM56 10H57V11H56ZM62 20H63V21H62ZM44 21H45V22H44ZM53 21H54V22H53ZM55 21H56V22H55ZM66 24H67V25H66ZM26 29H27V30H26ZM30 31H31V32H30ZM59 33H60V34H59ZM63 35H64V36H63ZM30 36H31V37H30ZM34 36H35V37H34ZM54 36H55V37H54ZM25 44H26V45H25ZM61 46H62V47H61ZM23 48H24V49H23ZM51 51H52V52H51ZM23 54H24V55H23ZM66 55H67V56H66ZM83 56H84V57H83ZM44 57H45V58H44ZM49 63H50V64H49ZM28 64H29V65H28ZM51 65H52V66H51Z"/>
  <path fill="#363636" opacity="0.04" d="M61 17H62V18H61ZM29 21H30V22H29ZM46 21H47V22H46ZM52 21H53V22H52ZM56 22H57V23H56ZM62 22H63V23H62ZM65 28H66V29H65ZM34 35H35V36H34ZM67 38H68V39H67ZM62 40H63V41H62ZM59 42H60V43H59ZM48 44H49V45H48ZM42 46H43V47H42ZM78 50H79V51H78ZM23 53H24V54H23ZM87 55H88V56H87ZM23 59H24V60H23ZM78 59H79V60H78ZM83 59H84V60H83ZM36 60H37V61H36ZM60 60H61V61H60ZM87 60H88V61H87Z"/>
  <path fill="#363636" opacity="0.035" d="M49 7H50V8H49ZM30 9H31V10H30ZM57 11H58V12H57ZM63 11H64V12H63ZM33 12H34V13H33ZM32 14H33V15H32ZM66 19H67V20H66ZM58 20H59V21H58ZM60 21H61V22H60ZM56 26H57V27H56ZM49 28H50V29H49ZM61 28H62V29H61ZM34 29H35V30H34ZM50 30H51V31H50ZM48 32H49V33H48ZM64 32H66V33H64ZM63 33H65V34H63ZM45 34H46V35H45ZM57 35H58V36H57ZM26 37H27V38H26ZM26 39H27V40H26ZM28 41H29V42H28ZM26 43H27V44H26ZM51 45H52V46H51ZM26 46H27V47H26ZM33 46H34V47H33ZM39 46H40V47H39ZM43 48H44V49H43ZM40 49H41V50H40ZM23 51H24V52H23ZM56 51H57V52H56ZM23 52H24V53H23ZM84 56H85V57H84ZM44 58H45V59H44ZM81 58H82V59H81ZM55 60H56V61H55ZM71 60H72V61H71ZM23 62H24V63H23ZM37 62H38V63H37ZM17 63H18V64H17ZM18 64H19V65H18ZM72 64H73V65H72ZM8 65H9V66H8ZM50 65H51V66H50ZM55 66H56V67H55ZM68 67H69V68H68Z"/>
  <path fill="#363636" opacity="0.03" d="M32 8H33V9H32ZM62 8H63V9H62ZM63 9H64V10H63ZM27 16H28V17H27ZM30 19H31V20H30ZM30 20H31V21H30ZM60 20H61V21H60ZM47 21H48V22H47ZM59 21H60V22H59ZM61 22H62V23H61ZM55 23H56V24H55ZM29 26H30V27H29ZM52 27H53V28H52ZM61 27H62V28H61ZM67 27H68V28H67ZM26 28H27V29H26ZM32 29H33V30H32ZM26 30H27V31H26ZM31 31H32V32H31ZM64 31H65V32H64ZM50 35H51V36H50ZM67 36H68V37H67ZM66 39H67V40H66ZM67 40H68V41H67ZM66 43H67V44H66ZM64 44H65V45H64ZM33 45H34V46H33ZM63 45H64V46H63ZM32 46H33V47H32ZM36 46H37V47H36ZM51 46H52V47H51ZM60 46H61V47H60ZM35 47H37V48H35ZM22 48H23V49H22ZM76 49H77V50H76ZM77 50H78V51H77ZM76 51H77V52H76ZM60 52H61V53H60ZM5 53H6V54H5ZM49 55H50V56H49ZM55 55H56V56H55ZM68 55H69V56H68ZM4 56H5V57H4ZM16 56H17V57H16ZM82 57H83V58H82ZM77 59H78V60H77ZM12 60H13V61H12ZM56 60H57V61H56ZM60 62H61V63H60ZM60 65H61V66H60ZM69 65H70V66H69ZM63 66H64V67H63ZM12 67H13V68H12ZM49 67H50V68H49Z"/>
</svg>