<svg xmlns="http://www.w3.org/2000/svg" width="112" height="32" viewBox="0 0 112 32" role="img" aria-label="image2 06 oppo" shape-rendering="crispEdges">
  <title>image2 06 oppo</title>
  <desc>Pixel-level vector reconstruction extracted from the supplied PNG, with white background removed.</desc>
  <path fill="#373737" d="M34 8H35V9H34Z"/>
  <path fill="#373737" opacity="0.99" d="M35 19H36V20H35Z"/>
  <path fill="#373737" opacity="0.985" d="M75 9H76V10H75ZM85 19H86V20H85ZM21 20H22V21H21Z"/>
  <path fill="#373737" opacity="0.98" d="M33 17H34V18H33ZM74 18H75V19H74ZM99 19H100V20H99ZM43 20H44V21H43ZM57 21H58V22H57ZM56 23H57V24H56ZM56 24H57V25H56Z"/>
  <path fill="#373737" opacity="0.97" d="M68 5H69V6H68ZM25 13H26V14H25ZM57 14H58V15H57ZM81 14H82V15H81ZM49 18H50V19H49ZM62 20H63V21H62ZM97 20H98V21H97ZM31 23H33V24H31ZM31 25H32V26H31Z"/>
  <path fill="#373737" opacity="0.965" d="M58 9H59V10H58ZM77 12H78V13H77ZM25 14H26V15H25ZM32 17H33V18H32ZM39 20H40V21H39Z"/>
  <path fill="#373737" opacity="0.96" d="M20 5H21V6H20ZM38 5H39V6H38ZM87 5H88V6H87ZM11 6H12V7H11ZM36 6H37V7H36ZM57 6H58V7H57ZM8 7H9V8H8ZM58 7H59V8H58ZM6 8H7V9H6ZM48 8H49V9H48ZM50 9H51V10H50ZM51 10H52V11H51ZM83 10H84V11H83ZM5 11H6V12H5ZM81 13H82V14H81ZM101 14H102V15H101ZM26 15H27V16H26ZM57 16H58V17H57ZM84 17H85V18H84ZM101 17H102V18H101ZM7 18H9V19H7ZM59 18H60V19H59ZM8 19H9V20H8ZM49 19H50V20H49ZM30 23H31V24H30Z"/>
  <path fill="#373737" opacity="0.955" d="M15 5H16V6H15ZM44 5H45V6H44ZM89 5H90V6H89ZM43 6H44V7H43ZM95 6H96V7H95ZM59 7H60V8H59ZM56 8H57V9H56ZM82 9H83V10H82ZM100 9H101V10H100ZM75 10H76V11H75ZM82 10H83V11H82ZM81 11H82V12H81ZM32 13H33V14H32ZM77 13H78V14H77ZM101 13H102V14H101ZM101 15H102V16H101ZM56 16H57V17H56ZM77 16H78V17H77ZM33 18H34V19H33ZM20 19H21V20H20ZM46 19H47V20H46ZM59 19H60V20H59ZM61 20H62V21H61ZM71 20H72V21H71Z"/>
  <path fill="#373737" opacity="0.95" d="M39 5H40V6H39ZM88 5H89V6H88ZM35 6H36V7H35ZM39 6H40V7H39ZM72 6H73V7H72ZM61 7H62V8H61ZM99 7H100V8H99ZM32 8H33V9H32ZM100 8H101V9H100ZM25 9H26V10H25ZM58 10H59V11H58ZM100 10H101V11H100ZM52 11H53V12H52ZM77 11H78V12H77ZM82 11H83V12H82ZM26 12H27V13H26ZM52 13H53V14H52ZM103 13H104V14H103ZM5 14H6V15H5ZM32 14H33V15H32ZM77 14H78V15H77ZM57 15H58V16H57ZM76 15H77V16H76ZM25 16H26V17H25ZM31 16H32V17H31ZM83 16H84V17H83ZM31 17H32V18H31ZM31 18H32V19H31ZM99 18H100V19H99ZM31 19H32V20H31ZM34 19H35V20H34ZM74 19H75V20H74ZM10 20H11V21H10ZM31 20H32V21H31ZM57 20H58V21H57ZM88 20H92V21H88ZM56 21H57V22H56ZM30 25H31V26H30ZM32 25H33V26H32Z"/>
  <path fill="#373737" opacity="0.945" d="M18 5H19V6H18ZM41 5H42V6H41ZM13 6H14V7H13ZM21 6H23V7H21ZM56 6H57V7H56ZM61 6H62V7H61ZM63 6H64V7H63ZM69 6H70V7H69ZM90 6H91V7H90ZM23 7H24V8H23ZM34 7H35V8H34ZM56 7H57V8H56ZM86 7H87V8H86ZM7 9H8V10H7ZM7 10H8V11H7ZM25 10H26V11H25ZM6 11H7V12H6ZM31 11H32V12H31ZM25 12H26V13H25ZM31 12H32V13H31ZM50 12H51V13H50ZM52 12H53V13H52ZM101 12H103V13H101ZM5 13H6V14H5ZM31 13H32V14H31ZM57 13H58V14H57ZM24 15H25V16H24ZM31 15H32V16H31ZM56 15H57V16H56ZM77 15H78V16H77ZM83 15H84V16H83ZM75 16H77V17H75ZM101 16H102V17H101ZM99 17H100V18H99ZM60 18H61V19H60ZM84 18H85V19H84ZM56 19H57V20H56ZM70 19H71V20H70ZM73 19H74V20H73ZM98 19H99V20H98ZM47 20H48V21H47ZM31 22H32V23H31ZM56 25H57V26H56Z"/>
  <path fill="#373737" opacity="0.935" d="M17 5H18V6H17ZM65 5H66V6H65ZM93 5H94V6H93ZM96 5H97V6H96ZM12 6H13V7H12ZM14 6H16V7H14ZM32 6H33V7H32ZM34 6H35V7H34ZM44 6H45V7H44ZM67 6H68V7H67ZM86 6H87V7H86ZM92 6H93V7H92ZM33 7H34V8H33ZM84 7H85V8H84ZM31 8H32V9H31ZM59 8H60V9H59ZM31 9H32V10H31ZM26 10H27V11H26ZM31 10H33V11H31ZM101 10H102V11H101ZM57 11H58V12H57ZM76 11H77V12H76ZM31 14H32V15H31ZM51 14H52V15H51ZM32 15H33V16H32ZM24 16H25V17H24ZM30 16H31V17H30ZM50 16H52V17H50ZM82 16H83V17H82ZM6 17H7V18H6ZM24 17H25V18H24ZM30 17H31V18H30ZM48 17H49V18H48ZM50 17H51V18H50ZM76 17H77V18H76ZM30 18H31V19H30ZM34 18H35V19H34ZM73 18H74V19H73ZM30 19H31V20H30ZM63 19H64V20H63ZM71 19H73V20H71ZM84 19H85V20H84ZM97 19H98V20H97ZM12 20H20V21H12ZM30 20H31V21H30ZM42 20H43V21H42ZM86 20H87V21H86ZM67 21H68V22H67ZM92 21H93V22H92ZM56 26H57V27H56Z"/>
  <path fill="#373737" opacity="0.93" d="M14 5H15V6H14ZM19 5H20V6H19ZM40 5H41V6H40ZM42 5H43V6H42ZM66 5H67V6H66ZM70 5H71V6H70ZM91 5H92V6H91ZM94 5H95V6H94ZM20 6H21V7H20ZM31 6H32V7H31ZM40 6H41V7H40ZM42 6H43V7H42ZM45 6H46V7H45ZM70 6H72V7H70ZM91 6H92V7H91ZM94 6H95V7H94ZM30 7H31V8H30ZM35 7H36V8H35ZM60 7H61V8H60ZM24 8H25V9H24ZM58 8H59V9H58ZM24 9H25V10H24ZM76 9H77V10H76ZM77 10H78V11H77ZM30 11H31V12H30ZM30 12H31V13H30ZM32 12H33V13H32ZM56 12H57V13H56ZM30 13H31V14H30ZM50 13H51V14H50ZM102 13H103V14H102ZM56 14H57V15H56ZM76 14H77V15H76ZM5 15H6V16H5ZM25 15H26V16H25ZM30 15H31V16H30ZM50 15H51V16H50ZM102 15H103V16H102ZM25 17H26V18H25ZM58 17H59V18H58ZM21 19H22V20H21ZM23 19H24V20H23ZM33 19H34V20H33ZM48 19H49V20H48ZM60 19H61V20H60ZM38 20H39V21H38ZM44 20H45V21H44ZM63 20H64V21H63ZM67 20H68V21H67ZM31 21H32V22H31ZM40 21H41V22H40ZM30 22H31V23H30ZM57 22H58V23H57Z"/>
  <path fill="#373737" opacity="0.925" d="M71 5H72V6H71ZM92 5H93V6H92ZM9 6H10V7H9ZM16 6H17V7H16ZM64 6H65V7H64ZM85 6H86V7H85ZM88 6H89V7H88ZM93 6H94V7H93ZM96 6H97V7H96ZM9 7H10V8H9ZM48 7H49V8H48ZM57 7H58V8H57ZM72 7H73V8H72ZM98 7H99V8H98ZM30 8H31V9H30ZM33 8H34V9H33ZM50 8H51V9H50ZM30 9H31V10H30ZM51 9H52V10H51ZM84 9H85V10H84ZM30 10H31V11H30ZM25 11H27V12H25ZM32 11H33V12H32ZM56 11H57V12H56ZM6 12H7V13H6ZM76 12H77V13H76ZM56 13H57V14H56ZM30 14H31V15H30ZM50 14H51V15H50ZM102 14H103V15H102ZM5 16H8V17H5ZM100 16H101V17H100ZM83 17H84V18H83ZM9 18H10V19H9ZM56 18H57V19H56ZM75 18H76V19H75ZM85 18H86V19H85ZM9 19H10V20H9ZM22 19H23V20H22ZM32 19H33V20H32ZM36 19H37V20H36ZM57 19H58V20H57ZM20 20H21V21H20ZM36 20H37V21H36ZM66 20H67V21H66ZM68 20H69V21H68ZM15 21H17V22H15ZM66 21H67V22H66ZM32 24H33V25H32Z"/>
  <path fill="#373737" opacity="0.92" d="M11 5H12V6H11ZM62 5H63V6H62ZM64 5H65V6H64ZM30 6H31V7H30ZM41 6H42V7H41ZM99 6H100V7H99ZM22 7H23V8H22ZM32 7H33V8H32ZM46 7H47V8H46ZM74 7H75V8H74ZM85 7H86V8H85ZM87 7H88V8H87ZM97 7H98V8H97ZM73 8H77V9H73ZM101 8H102V9H101ZM74 9H75V10H74ZM57 10H58V11H57ZM76 10H77V11H76ZM102 10H103V11H102ZM102 11H103V12H102ZM51 13H52V14H51ZM26 14H27V15H26ZM51 15H52V16H51ZM75 15H76V16H75ZM81 15H82V16H81ZM49 17H50V18H49ZM56 17H58V18H56ZM82 17H83V18H82ZM58 18H59V19H58ZM98 18H99V19H98ZM12 19H13V20H12ZM45 19H46V20H45ZM47 19H48V20H47ZM58 19H59V20H58ZM86 19H87V20H86ZM56 20H57V21H56ZM70 20H71V21H70ZM30 21H31V22H30ZM32 22H33V23H32ZM57 24H58V25H57ZM30 26H32V27H30Z"/>
  <path fill="#373737" opacity="0.915" d="M12 5H13V6H12ZM37 5H38V6H37ZM69 5H70V6H69ZM90 5H91V6H90ZM10 6H11V7H10ZM60 6H61V7H60ZM66 6H67V7H66ZM36 7H37V8H36ZM73 7H74V8H73ZM100 7H101V8H100ZM26 9H27V10H26ZM24 10H25V11H24ZM5 12H6V13H5ZM26 13H27V14H26ZM76 13H77V14H76ZM82 13H83V14H82ZM6 15H7V16H6ZM26 16H27V17H26ZM7 17H8V18H7ZM74 17H75V18H74ZM32 18H33V19H32ZM10 19H12V20H10ZM61 19H62V20H61ZM87 19H88V20H87ZM95 19H96V20H95ZM37 20H38V21H37ZM41 20H42V21H41ZM46 20H47V21H46ZM65 20H66V21H65ZM68 21H69V22H68ZM57 23H58V24H57Z"/>
  <path fill="#373737" opacity="0.91" d="M13 5H14V6H13ZM16 5H17V6H16ZM67 5H68V6H67ZM95 5H96V6H95ZM19 6H20V7H19ZM65 6H66V7H65ZM87 6H88V7H87ZM89 6H90V7H89ZM97 6H98V7H97ZM23 8H24V9H23ZM85 8H86V9H85ZM99 8H100V9H99ZM6 9H7V10H6ZM32 9H34V10H32ZM49 9H50V10H49ZM101 9H103V10H101ZM50 10H51V11H50ZM81 10H82V11H81ZM82 12H83V13H82ZM55 13H56V14H55ZM82 14H83V15H82ZM32 16H33V17H32ZM58 16H59V17H58ZM102 16H103V17H102ZM59 17H60V18H59ZM22 18H23V19H22ZM35 18H36V19H35ZM48 18H49V19H48ZM19 19H20V20H19ZM44 19H45V20H44ZM62 19H63V20H62ZM11 20H12V21H11ZM32 20H33V21H32ZM45 20H46V21H45ZM69 20H70V21H69ZM72 20H73V21H72ZM87 20H88V21H87ZM32 21H33V22H32ZM41 21H42V22H41ZM65 21H66V22H65ZM30 24H32V25H30ZM57 26H58V27H57Z"/>
  <path fill="#373737" opacity="0.9" d="M43 5H44V6H43ZM45 5H46V6H45ZM63 5H64V6H63ZM17 6H18V7H17ZM37 6H38V7H37ZM62 6H63V7H62ZM7 7H8V8H7ZM7 8H8V9H7ZM83 8H85V9H83ZM56 9H57V10H56ZM83 9H84V10H83ZM5 10H6V11H5ZM101 11H102V12H101ZM81 12H82V13H81ZM6 13H7V14H6ZM49 16H50V17H49ZM75 17H76V18H75ZM100 17H101V18H100ZM47 18H48V19H47ZM55 18H56V19H55ZM57 18H58V19H57ZM100 18H101V19H100ZM40 20H41V21H40ZM64 20H65V21H64ZM92 20H96V21H92ZM91 21H92V22H91ZM93 21H94V22H93ZM55 22H56V23H55ZM55 23H56V24H55Z"/>
  <path fill="#373737" opacity="0.895" d="M73 6H75V7H73ZM10 7H11V8H10ZM21 7H22V8H21ZM31 7H32V8H31ZM47 7H48V8H47ZM49 7H50V8H49ZM49 8H50V9H49ZM57 8H58V9H57ZM51 11H52V12H51ZM6 14H7V15H6ZM52 14H53V15H52ZM55 14H56V15H55ZM83 14H84V15H83ZM103 14H104V15H103ZM82 15H83V16H82ZM37 19H38V20H37ZM88 19H90V20H88ZM64 21H65V22H64ZM57 25H58V26H57ZM32 26H33V27H32Z"/>
  <path fill="#373737" opacity="0.89" d="M18 6H19V7H18ZM38 6H39V7H38ZM47 6H48V7H47ZM98 6H99V7H98ZM83 7H84V8H83ZM57 9H58V10H57ZM24 11H25V12H24ZM23 17H24V18H23ZM83 18H84V19H83ZM86 18H87V19H86ZM38 19H39V20H38ZM96 19H97V20H96ZM96 20H97V21H96ZM14 21H15V22H14ZM17 21H18V22H17Z"/>
  <path fill="#373737" opacity="0.885" d="M46 5H47V6H46ZM46 6H47V7H46ZM68 6H69V7H68ZM5 9H6V10H5ZM55 9H56V10H55ZM56 10H57V11H56ZM57 12H58V13H57ZM58 15H59V16H58ZM8 17H9V18H8ZM23 18H24V19H23ZM55 19H56V20H55ZM100 19H101V20H100ZM42 21H44V22H42ZM69 21H70V22H69ZM56 22H57V23H56Z"/>
  <path fill="#373737" opacity="0.88" d="M24 7H25V8H24ZM98 8H99V9H98ZM6 10H7V11H6ZM49 10H50V11H49ZM50 11H51V12H50ZM55 12H56V13H55ZM51 17H52V18H51ZM24 18H25V19H24ZM55 21H56V22H55Z"/>
  <path fill="#373737" opacity="0.875" d="M32 5H33V6H32ZM56 5H57V6H56ZM48 6H49V7H48ZM55 8H56V9H55ZM23 9H24V10H23ZM55 10H56V11H55ZM83 12H84V13H83ZM35 20H36V21H35ZM55 20H56V21H55ZM39 21H40V22H39Z"/>
  <path fill="#373737" opacity="0.865" d="M36 5H37V6H36ZM55 6H56V7H55ZM8 8H9V9H8ZM25 8H26V9H25ZM51 12H52V13H51ZM103 12H104V13H103ZM83 13H84V14H83ZM6 18H7V19H6ZM98 20H99V21H98ZM90 21H91V22H90Z"/>
  <path fill="#373737" opacity="0.86" d="M8 6H9V7H8ZM9 8H10V9H9ZM22 8H23V9H22ZM8 9H9V10H8ZM83 11H84V12H83ZM55 15H56V16H55ZM9 20H10V21H9ZM55 24H56V25H55Z"/>
  <path fill="#373737" opacity="0.855" d="M30 5H31V6H30ZM57 5H58V6H57ZM20 7H21V8H20ZM71 7H72V8H71ZM82 8H83V9H82ZM50 18H51V19H50ZM64 19H65V20H64ZM69 19H70V20H69Z"/>
  <path fill="#373737" opacity="0.85" d="M75 7H76V8H75ZM60 8H61V9H60ZM55 11H56V12H55ZM55 16H56V17H55ZM94 21H95V22H94Z"/>
  <path fill="#373737" opacity="0.845" d="M55 7H56V8H55ZM33 16H34V17H33ZM55 17H56V18H55ZM13 21H14V22H13ZM55 25H56V26H55Z"/>
  <path fill="#373737" opacity="0.84" d="M31 5H32V6H31ZM75 11H76V12H75ZM34 17H35V18H34ZM72 18H73V19H72ZM101 18H102V19H101ZM13 19H14V20H13ZM18 19H19V20H18ZM18 21H19V22H18ZM30 27H31V28H30Z"/>
  <path fill="#373737" opacity="0.835" d="M23 6H24V7H23ZM7 15H8V16H7ZM81 16H82V17H81ZM94 19H95V20H94ZM38 21H39V22H38Z"/>
  <path fill="#373737" opacity="0.825" d="M59 6H60V7H59ZM62 7H63V8H62ZM7 11H8V12H7ZM52 15H53V16H52ZM21 18H22V19H21ZM44 21H45V22H44ZM56 27H57V28H56Z"/>
  <path fill="#373737" opacity="0.82" d="M11 7H12V8H11ZM85 17H86V18H85ZM89 21H90V22H89ZM32 27H33V28H32Z"/>
  <path fill="#373737" opacity="0.815" d="M10 5H11V6H10ZM97 5H98V6H97ZM33 6H34V7H33ZM103 11H104V12H103ZM75 12H76V13H75ZM85 20H86V21H85ZM95 21H96V22H95ZM55 26H56V27H55Z"/>
  <path fill="#373737" opacity="0.81" d="M75 14H76V15H75ZM100 15H101V16H100ZM7 19H8V20H7ZM12 21H13V22H12ZM57 27H58V28H57Z"/>
  <path fill="#373737" opacity="0.805" d="M59 9H60V10H59ZM77 9H78V10H77ZM24 14H25V15H24ZM22 20H23V21H22ZM73 20H74V21H73ZM19 21H20V22H19ZM31 27H32V28H31Z"/>
  <path fill="#373737" opacity="0.8" d="M43 19H44V20H43ZM90 19H91V20H90ZM55 27H56V28H55Z"/>
  <path fill="#373737" opacity="0.79" d="M84 6H85V7H84ZM58 11H59V12H58ZM102 17H103V18H102Z"/>
  <path fill="#373737" opacity="0.785" d="M84 16H85V17H84ZM88 21H89V22H88Z"/>
  <path fill="#373737" opacity="0.78" d="M99 9H100V10H99Z"/>
  <path fill="#373737" opacity="0.775" d="M35 8H36V9H35Z"/>
  <path fill="#373737" opacity="0.77" d="M96 7H97V8H96ZM4 13H5V14H4ZM61 18H62V19H61ZM24 19H25V20H24Z"/>
  <path fill="#373737" opacity="0.765" d="M72 5H73V6H72ZM47 8H48V9H47ZM33 10H34V11H33ZM75 13H76V14H75ZM75 19H76V20H75Z"/>
  <path fill="#373737" opacity="0.755" d="M55 5H56V6H55ZM50 7H51V8H50ZM51 8H52V9H51ZM24 12H25V13H24ZM22 17H23V18H22ZM39 19H40V20H39ZM63 21H64V22H63ZM70 21H71V22H70Z"/>
  <path fill="#373737" opacity="0.75" d="M23 16H24V17H23Z"/>
  <path fill="#373737" opacity="0.745" d="M86 5H87V6H86ZM103 15H104V16H103Z"/>
  <path fill="#373737" opacity="0.74" d="M92 4H93V5H92ZM21 5H22V6H21ZM4 14H5V15H4ZM10 18H11V19H10ZM25 18H26V19H25ZM17 19H18V20H17ZM65 19H66V20H65ZM45 21H46V22H45Z"/>
  <path fill="#373737" opacity="0.735" d="M91 4H92V5H91ZM52 10H53V11H52ZM100 11H101V12H100ZM60 20H61V21H60Z"/>
  <path fill="#373737" opacity="0.73" d="M16 4H17V5H16ZM61 5H62V6H61ZM45 7H46V8H45ZM4 11H5V12H4ZM4 12H5V13H4ZM24 13H25V14H24ZM78 13H79V14H78ZM74 16H75V17H74ZM73 17H74V18H73ZM14 19H15V20H14Z"/>
  <path fill="#373737" opacity="0.72" d="M15 4H16V5H15ZM66 4H67V5H66ZM93 4H94V5H93ZM58 6H59V7H58ZM68 19H69V20H68ZM83 19H84V20H83ZM93 19H94V20H93Z"/>
  <path fill="#373737" opacity="0.715" d="M67 4H68V5H67Z"/>
  <path fill="#373737" opacity="0.71" d="M49 15H50V16H49ZM46 18H47V19H46ZM76 18H77V19H76Z"/>
  <path fill="#373737" opacity="0.705" d="M41 4H42V5H41Z"/>
  <path fill="#373737" opacity="0.7" d="M42 19H43V20H42Z"/>
  <path fill="#373737" opacity="0.695" d="M27 13H28V14H27Z"/>
  <path fill="#373737" opacity="0.685" d="M17 4H18V5H17ZM78 12H79V13H78ZM97 18H98V19H97ZM37 21H38V22H37Z"/>
  <path fill="#373737" opacity="0.68" d="M7 14H8V15H7Z"/>
  <path fill="#373737" opacity="0.675" d="M40 4H41V5H40ZM42 4H43V5H42ZM81 9H82V10H81ZM8 16H9V17H8ZM5 17H6V18H5Z"/>
  <path fill="#373737" opacity="0.67" d="M58 14H59V15H58ZM16 19H17V20H16ZM96 21H97V22H96Z"/>
  <path fill="#373737" opacity="0.665" d="M27 12H28V13H27ZM80 13H81V14H80ZM9 17H10V18H9ZM40 19H41V20H40Z"/>
  <path fill="#373737" opacity="0.66" d="M14 4H15V5H14ZM65 4H66V5H65ZM37 7H38V8H37ZM80 12H81V13H80ZM4 15H5V16H4ZM59 16H60V17H59ZM66 19H68V20H66ZM91 19H92V20H91Z"/>
  <path fill="#373737" opacity="0.645" d="M15 19H16V20H15ZM41 19H42V20H41Z"/>
  <path fill="#373737" opacity="0.64" d="M92 19H93V20H92Z"/>
  <path fill="#373737" opacity="0.635" d="M90 4H91V5H90ZM49 6H50V7H49ZM88 7H89V8H88ZM48 9H49V10H48ZM78 14H79V15H78Z"/>
  <path fill="#373737" opacity="0.63" d="M94 4H95V5H94ZM86 8H87V9H86ZM52 16H53V17H52ZM87 21H88V22H87Z"/>
  <path fill="#373737" opacity="0.625" d="M60 17H61V18H60ZM77 17H78V18H77ZM82 18H83V19H82Z"/>
  <path fill="#373737" opacity="0.615" d="M68 4H69V5H68ZM27 14H28V15H27ZM36 18H37V19H36ZM34 20H35V21H34ZM48 20H49V21H48Z"/>
  <path fill="#373737" opacity="0.61" d="M43 4H44V5H43ZM103 10H104V11H103ZM26 17H27V18H26ZM62 21H63V22H62Z"/>
  <path fill="#373737" opacity="0.605" d="M101 7H102V8H101ZM11 21H12V22H11ZM71 21H72V22H71Z"/>
  <path fill="#373737" opacity="0.6" d="M58 12H59V13H58ZM100 14H101V15H100Z"/>
  <path fill="#373737" opacity="0.595" d="M47 5H48V6H47Z"/>
  <path fill="#373737" opacity="0.59" d="M39 4H40V5H39Z"/>
  <path fill="#373737" opacity="0.58" d="M70 7H71V8H70Z"/>
  <path fill="#373737" opacity="0.575" d="M21 8H22V9H21Z"/>
  <path fill="#373737" opacity="0.57" d="M35 5H36V6H35ZM27 11H28V12H27Z"/>
  <path fill="#373737" opacity="0.565" d="M64 4H65V5H64ZM20 21H21V22H20Z"/>
  <path fill="#373737" opacity="0.56" d="M19 7H20V8H19ZM102 8H103V9H102ZM7 13H8V14H7ZM58 13H59V14H58ZM33 15H34V16H33ZM58 26H59V27H58Z"/>
  <path fill="#373737" opacity="0.555" d="M18 4H19V5H18ZM84 10H85V11H84Z"/>
  <path fill="#373737" opacity="0.545" d="M89 4H90V5H89ZM98 17H99V18H98ZM58 20H59V21H58Z"/>
  <path fill="#373737" opacity="0.54" d="M44 4H45V5H44ZM69 4H70V5H69Z"/>
  <path fill="#373737" opacity="0.535" d="M13 4H14V5H13ZM38 4H39V5H38ZM78 11H79V12H78ZM80 14H81V15H80ZM97 21H98V22H97ZM58 24H59V25H58Z"/>
  <path fill="#373737" opacity="0.53" d="M74 10H75V11H74ZM7 12H8V13H7ZM99 20H100V21H99ZM36 21H37V22H36ZM46 21H47V22H46Z"/>
  <path fill="#373737" opacity="0.525" d="M72 8H73V9H72ZM4 10H5V11H4ZM99 16H100V17H99ZM58 25H59V26H58Z"/>
  <path fill="#373737" opacity="0.52" d="M12 7H13V8H12ZM58 22H59V23H58Z"/>
  <path fill="#373737" opacity="0.51" d="M12 4H13V5H12ZM95 4H96V5H95ZM34 9H35V10H34ZM58 23H59V24H58Z"/>
  <path fill="#373737" opacity="0.505" d="M49 11H50V12H49ZM87 18H88V19H87ZM29 23H30V24H29Z"/>
  <path fill="#373737" opacity="0.5" d="M100 12H101V13H100Z"/>
  <path fill="#373737" opacity="0.495" d="M29 7H30V8H29ZM58 21H59V22H58Z"/>
  <path fill="#373737" opacity="0.49" d="M58 5H59V6H58ZM29 6H30V7H29ZM6 7H7V8H6ZM29 25H30V26H29Z"/>
  <path fill="#373737" opacity="0.485" d="M98 5H99V6H98ZM100 6H101V7H100ZM63 7H64V8H63ZM23 10H24V11H23ZM29 17H30V18H29ZM20 18H21V19H20ZM29 18H30V19H29ZM29 19H30V20H29ZM29 20H30V21H29Z"/>
  <path fill="#373737" opacity="0.475" d="M27 15H28V16H27ZM29 16H30V17H29ZM29 22H30V23H29ZM29 26H30V27H29ZM58 27H59V28H58Z"/>
  <path fill="#373737" opacity="0.47" d="M63 4H64V5H63ZM95 7H96V8H95ZM10 8H11V9H10ZM61 8H62V9H61ZM8 10H9V11H8ZM100 13H101V14H100ZM103 16H104V17H103ZM29 24H30V25H29Z"/>
  <path fill="#373737" opacity="0.465" d="M44 7H45V8H44ZM29 15H30V16H29ZM71 18H72V19H71ZM29 21H30V22H29Z"/>
  <path fill="#373737" opacity="0.46" d="M70 4H71V5H70ZM85 9H86V10H85ZM29 11H30V12H29ZM80 11H81V12H80ZM29 12H30V13H29ZM29 13H30V14H29ZM81 17H82V18H81Z"/>
  <path fill="#373737" opacity="0.455" d="M29 8H30V9H29ZM29 9H30V10H29ZM29 10H30V11H29ZM29 14H30V15H29ZM29 27H30V28H29Z"/>
  <path fill="#373737" opacity="0.45" d="M29 5H30V6H29ZM78 15H79V16H78Z"/>
  <path fill="#373737" opacity="0.44" d="M62 18H63V19H62ZM8 20H9V21H8Z"/>
  <path fill="#373737" opacity="0.435" d="M50 19H51V20H50Z"/>
  <path fill="#373737" opacity="0.43" d="M25 7H26V8H25ZM49 14H50V15H49ZM11 18H12V19H11ZM96 18H97V19H96Z"/>
  <path fill="#373737" opacity="0.425" d="M9 5H10V6H9ZM69 7H70V8H69ZM59 10H60V11H59Z"/>
  <path fill="#373737" opacity="0.42" d="M88 4H89V5H88ZM7 6H8V7H7ZM18 7H19V8H18ZM76 7H77V8H76ZM51 18H52V19H51Z"/>
  <path fill="#373737" opacity="0.415" d="M19 4H20V5H19ZM13 7H14V8H13ZM38 7H39V8H38ZM89 7H90V8H89ZM47 17H48V18H47ZM21 21H22V22H21Z"/>
  <path fill="#373737" opacity="0.4" d="M10 21H11V22H10Z"/>
  <path fill="#373737" opacity="0.39" d="M64 7H65V8H64ZM74 20H75V21H74ZM72 21H73V22H72Z"/>
  <path fill="#373737" opacity="0.385" d="M61 21H62V22H61Z"/>
  <path fill="#373737" opacity="0.38" d="M22 5H23V6H22ZM5 8H6V9H5ZM4 16H5V17H4Z"/>
  <path fill="#373737" opacity="0.375" d="M73 5H74V6H73ZM97 8H98V9H97ZM84 15H85V16H84ZM23 20H24V21H23Z"/>
  <path fill="#373737" opacity="0.365" d="M60 5H61V6H60Z"/>
  <path fill="#373737" opacity="0.36" d="M94 7H95V8H94Z"/>
  <path fill="#373737" opacity="0.355" d="M33 11H34V12H33ZM80 15H81V16H80ZM86 21H87V22H86Z"/>
  <path fill="#373737" opacity="0.35" d="M49 12H50V13H49Z"/>
  <path fill="#373737" opacity="0.345" d="M37 4H38V5H37ZM22 9H23V10H22Z"/>
  <path fill="#373737" opacity="0.34" d="M45 4H46V5H45ZM75 6H76V7H75ZM43 7H44V8H43ZM52 9H53V10H52Z"/>
  <path fill="#373737" opacity="0.33" d="M90 7H91V8H90ZM78 10H79V11H78ZM59 20H60V21H59Z"/>
  <path fill="#373737" opacity="0.325" d="M39 7H40V8H39ZM45 18H46V19H45ZM47 21H48V22H47Z"/>
  <path fill="#373737" opacity="0.32" d="M53 12H54V13H53ZM37 18H38V19H37Z"/>
  <path fill="#373737" opacity="0.315" d="M85 5H86V6H85ZM33 14H34V15H33ZM35 17H36V18H35Z"/>
  <path fill="#373737" opacity="0.31" d="M53 13H54V14H53Z"/>
  <path fill="#373737" opacity="0.305" d="M14 7H15V8H14Z"/>
  <path fill="#373737" opacity="0.295" d="M65 7H66V8H65Z"/>
  <path fill="#373737" opacity="0.29" d="M96 4H97V5H96ZM17 7H18V8H17Z"/>
  <path fill="#373737" opacity="0.285" d="M68 7H69V8H68ZM26 8H27V9H26ZM77 8H78V9H77ZM27 10H28V11H27ZM88 18H89V19H88ZM33 20H34V21H33Z"/>
  <path fill="#373737" opacity="0.28" d="M73 9H74V10H73ZM49 13H50V14H49ZM84 20H85V21H84Z"/>
  <path fill="#373737" opacity="0.275" d="M24 6H25V7H24ZM40 7H41V8H40ZM42 7H43V8H42Z"/>
  <path fill="#373737" opacity="0.27" d="M93 7H94V8H93ZM48 16H49V17H48Z"/>
  <path fill="#373737" opacity="0.26" d="M82 7H83V8H82ZM99 10H100V11H99Z"/>
  <path fill="#373737" opacity="0.255" d="M15 7H16V8H15ZM91 7H92V8H91ZM33 12H34V13H33ZM35 21H36V22H35ZM67 22H68V23H67Z"/>
  <path fill="#373737" opacity="0.25" d="M92 7H93V8H92ZM102 18H103V19H102Z"/>
  <path fill="#373737" opacity="0.245" d="M71 4H72V5H71ZM16 7H17V8H16ZM41 7H42V8H41ZM101 19H102V20H101Z"/>
  <path fill="#373737" opacity="0.24" d="M103 9H104V10H103ZM53 11H54V12H53ZM23 15H24V16H23Z"/>
  <path fill="#373737" opacity="0.235" d="M62 4H63V5H62ZM87 4H88V5H87ZM66 7H68V8H66ZM53 14H54V15H53ZM98 21H99V22H98Z"/>
  <path fill="#373737" opacity="0.225" d="M11 4H12V5H11ZM20 4H21V5H20ZM83 6H84V7H83ZM46 8H47V9H46ZM70 18H71V19H70Z"/>
  <path fill="#373737" opacity="0.22" d="M104 13H105V14H104ZM74 15H75V16H74ZM63 18H64V19H63Z"/>
  <path fill="#373737" opacity="0.215" d="M48 5H49V6H48ZM104 12H105V13H104Z"/>
  <path fill="#373737" opacity="0.21" d="M34 16H35V17H34Z"/>
  <path fill="#373737" opacity="0.205" d="M36 8H37V9H36ZM19 18H20V19H19ZM66 22H67V23H66Z"/>
  <path fill="#373737" opacity="0.2" d="M78 16H79V17H78ZM92 22H93V23H92ZM33 23H34V24H33Z"/>
  <path fill="#373737" opacity="0.19" d="M80 10H81V11H80ZM84 11H85V12H84ZM33 13H34V14H33ZM40 22H41V23H40Z"/>
  <path fill="#373737" opacity="0.185" d="M33 5H34V6H33ZM33 22H34V23H33ZM33 24H34V25H33Z"/>
  <path fill="#373737" opacity="0.18" d="M59 15H60V16H59ZM33 21H34V22H33ZM33 27H34V28H33Z"/>
  <path fill="#373737" opacity="0.175" d="M34 5H35V6H34ZM60 9H61V10H60Z"/>
  <path fill="#373737" opacity="0.17" d="M84 14H85V15H84ZM27 16H28V17H27ZM21 17H22V18H21ZM9 21H10V22H9ZM15 22H16V23H15ZM41 22H42V23H41Z"/>
  <path fill="#373737" opacity="0.165" d="M81 8H82V9H81ZM12 18H13V19H12ZM16 22H17V23H16ZM68 22H69V23H68ZM93 22H94V23H93ZM33 25H34V26H33Z"/>
  <path fill="#373737" opacity="0.155" d="M86 17H87V18H86ZM33 26H34V27H33Z"/>
  <path fill="#373737" opacity="0.15" d="M104 14H105V15H104ZM5 18H6V19H5ZM95 18H96V19H95Z"/>
  <path fill="#373737" opacity="0.145" d="M99 5H100V6H99ZM53 15H54V16H53ZM22 21H23V22H22ZM42 22H44V23H42Z"/>
  <path fill="#373737" opacity="0.14" d="M9 9H10V10H9ZM48 10H49V11H48ZM8 15H9V16H8Z"/>
  <path fill="#373737" opacity="0.135" d="M46 4H47V5H46ZM84 12H85V13H84ZM76 19H77V20H76ZM73 21H74V22H73ZM14 22H15V23H14ZM91 22H92V23H91Z"/>
  <path fill="#373737" opacity="0.13" d="M36 4H37V5H36ZM18 18H19V19H18ZM17 22H18V23H17Z"/>
  <path fill="#373737" opacity="0.12" d="M8 5H9V6H8ZM10 17H11V18H10ZM72 17H73V18H72ZM65 22H66V23H65Z"/>
  <path fill="#373737" opacity="0.115" d="M49 20H50V21H49Z"/>
  <path fill="#373737" opacity="0.11" d="M97 4H98V5H97ZM51 7H52V8H51ZM4 9H5V10H4ZM47 9H48V10H47ZM98 9H99V10H98ZM80 16H81V17H80ZM13 18H14V19H13ZM6 19H7V20H6ZM39 22H40V23H39ZM94 22H95V23H94Z"/>
  <path fill="#373737" opacity="0.105" d="M44 18H45V19H44ZM89 18H90V19H89Z"/>
  <path fill="#373737" opacity="0.1" d="M50 6H51V7H50ZM26 18H27V19H26ZM94 18H95V19H94ZM90 22H91V23H90Z"/>
  <path fill="#373737" opacity="0.095" d="M85 16H86V17H85ZM77 18H78V19H77ZM81 18H82V19H81Z"/>
  <path fill="#373737" opacity="0.085" d="M74 11H75V12H74ZM103 17H104V18H103ZM25 19H26V20H25Z"/>
  <path fill="#373737" opacity="0.08" d="M59 5H60V6H59ZM74 5H75V6H74ZM87 8H88V9H87ZM27 9H28V10H27ZM34 12H35V13H34ZM48 15H49V16H48ZM38 18H39V19H38ZM13 22H14V23H13ZM18 22H19V23H18Z"/>
  <path fill="#373737" opacity="0.075" d="M59 12H60V13H59ZM84 13H85V14H84ZM73 16H74V17H73ZM63 22H64V23H63ZM95 22H96V23H95Z"/>
  <path fill="#373737" opacity="0.07" d="M30 4H31V5H30ZM20 8H21V9H20ZM37 8H38V9H37ZM46 11H47V12H46ZM59 14H60V15H59ZM22 16H23V17H22ZM43 18H44V19H43ZM50 21H51V22H50ZM60 21H61V22H60Z"/>
  <path fill="#373737" opacity="0.065" d="M53 10H54V11H53ZM60 16H61V17H60ZM64 18H65V19H64ZM100 20H101V21H100ZM64 22H65V23H64Z"/>
  <path fill="#373737" opacity="0.06" d="M26 5H27V6H26ZM77 6H78V7H77ZM78 9H79V10H78ZM73 10H74V11H73ZM74 12H75V13H74ZM79 12H80V13H79ZM61 17H62V18H61ZM7 20H8V21H7ZM47 22H48V23H47ZM69 22H70V23H69Z"/>
  <path fill="#373737" opacity="0.05" d="M57 4H58V5H57ZM61 4H62V5H61ZM101 6H102V7H101ZM35 9H36V10H35ZM87 9H88V10H87ZM91 11H92V12H91ZM104 15H105V16H104ZM52 17H53V18H52ZM39 18H40V19H39ZM82 19H83V20H82ZM59 26H60V27H59Z"/>
  <path fill="#373737" opacity="0.045" d="M54 6H55V7H54ZM79 8H80V9H79ZM10 10H11V11H10ZM39 11H40V12H39ZM23 12H24V13H23ZM74 14H75V15H74ZM20 15H21V16H20ZM106 15H107V16H106ZM65 16H66V17H65ZM97 17H98V18H97ZM4 19H5V20H4ZM27 20H28V21H27ZM48 21H49V22H48ZM12 22H13V23H12ZM19 22H20V23H19ZM89 22H90V23H89Z"/>
  <path fill="#373737" opacity="0.04" d="M60 4H61V5H60ZM102 7H103V8H102ZM54 9H55V10H54ZM34 10H35V11H34ZM98 10H99V11H98ZM107 12H108V13H107ZM86 14H87V15H86ZM87 15H88V16H87ZM9 16H10V17H9ZM4 18H5V19H4ZM69 18H70V19H69ZM5 19H6V20H5ZM103 20H104V21H103ZM85 21H86V22H85ZM48 22H49V23H48ZM87 22H88V23H87ZM34 23H35V24H34Z"/>
  <path fill="#373737" opacity="0.035" d="M21 4H22V5H21ZM54 4H55V5H54ZM56 4H57V5H56ZM74 4H75V5H74ZM84 5H85V6H84ZM28 6H29V7H28ZM53 7H54V8H53ZM96 8H97V9H96ZM11 9H12V10H11ZM86 9H87V10H86ZM54 10H55V11H54ZM60 10H61V11H60ZM9 11H10V12H9ZM86 11H87V12H86ZM90 11H91V12H90ZM23 14H24V15H23ZM9 15H10V16H9ZM22 15H23V16H22ZM87 16H88V17H87ZM12 17H13V18H12ZM78 17H79V18H78ZM80 17H81V18H80ZM14 18H15V19H14ZM65 18H66V19H65ZM67 18H68V19H67ZM6 20H7V21H6ZM24 20H25V21H24ZM24 22H25V23H24ZM54 22H55V23H54ZM8 23H9V24H8ZM54 23H55V24H54ZM64 23H65V24H64ZM35 25H36V26H35Z"/>
  <path fill="#373737" opacity="0.03" d="M53 4H54V5H53ZM85 4H86V5H85ZM24 5H25V6H24ZM76 6H77V7H76ZM77 7H78V8H77ZM72 10H73V11H72ZM38 11H39V12H38ZM62 11H63V12H62ZM11 13H12V14H11ZM88 15H89V16H88ZM61 16H62V17H61ZM66 16H67V17H66ZM70 16H71V17H70ZM53 17H54V18H53ZM95 17H96V18H95ZM78 19H79V20H78ZM59 21H60V22H59ZM11 22H12V23H11ZM25 22H26V23H25ZM44 22H45V23H44ZM51 22H52V23H51ZM74 22H75V23H74ZM97 22H98V23H97ZM28 23H29V24H28ZM51 23H52V24H51ZM65 23H66V24H65ZM54 24H55V25H54Z"/>
</svg>