<svg xmlns="http://www.w3.org/2000/svg" width="164" height="71" viewBox="0 0 164 71" role="img" aria-label="image2 04 baccarat" shape-rendering="crispEdges">
  <title>image2 04 baccarat</title>
  <desc>Pixel-level vector reconstruction extracted from the supplied PNG, with white background removed.</desc>
  <path fill="#383838" d="M120 27H121V28H120ZM87 42H88V43H87Z"/>
  <path fill="#383838" opacity="0.995" d="M36 27H37V28H36ZM71 35H72V36H71ZM78 35H79V36H78Z"/>
  <path fill="#383838" opacity="0.99" d="M56 19H57V20H56ZM109 33H110V34H109ZM68 37H69V38H68ZM123 40H124V41H123ZM96 41H97V42H96ZM19 51H20V52H19Z"/>
  <path fill="#383838" opacity="0.985" d="M53 12H54V13H53ZM55 13H56V14H55ZM48 15H49V16H48ZM155 27H156V28H155ZM149 29H150V30H149ZM137 34H138V35H137ZM59 39H60V40H59Z"/>
  <path fill="#383838" opacity="0.975" d="M23 8H24V9H23ZM52 10H53V11H52ZM45 18H46V19H45ZM56 18H57V19H56ZM56 29H57V30H56ZM57 33H58V34H57ZM70 33H71V34H70ZM104 33H105V34H104ZM132 33H133V34H132ZM64 34H65V35H64ZM88 37H89V38H88ZM135 38H136V39H135ZM58 41H59V42H58ZM69 42H70V43H69Z"/>
  <path fill="#383838" opacity="0.97" d="M56 28H57V29H56ZM109 34H110V35H109ZM128 35H129V36H128ZM100 36H101V37H100ZM143 37H144V38H143ZM75 39H76V40H75ZM96 39H97V40H96ZM149 39H150V40H149ZM67 42H68V43H67ZM144 42H145V43H144ZM23 47H24V48H23Z"/>
  <path fill="#383838" opacity="0.965" d="M55 18H56V19H55ZM45 24H46V25H45ZM153 24H154V25H153ZM55 26H56V27H55ZM150 27H151V28H150ZM36 28H38V29H36ZM148 31H149V32H148ZM73 33H74V34H73ZM121 33H122V34H121ZM79 34H80V35H79ZM31 35H32V36H31ZM116 35H117V36H116ZM143 36H144V37H143ZM69 37H70V38H69ZM28 38H29V39H28ZM139 40H140V41H139ZM61 42H62V43H61ZM107 42H109V43H107Z"/>
  <path fill="#383838" opacity="0.96" d="M31 5H32V6H31ZM56 15H57V16H56ZM55 20H56V21H55ZM55 21H56V22H55ZM154 23H155V24H154ZM40 24H41V25H40ZM152 26H153V27H152ZM153 27H154V28H153ZM156 27H157V28H156ZM149 28H150V29H149ZM117 30H118V31H117ZM56 31H57V32H56ZM67 32H68V33H67ZM146 33H147V34H146ZM32 34H33V35H32ZM63 35H64V36H63ZM83 35H84V36H83ZM109 35H110V36H109ZM128 36H129V37H128ZM29 37H30V38H29ZM118 37H119V38H118ZM126 37H127V38H126ZM59 38H60V39H59ZM69 38H70V39H69ZM85 38H86V39H85ZM113 38H114V39H113ZM67 39H68V40H67ZM57 40H58V41H57ZM103 40H104V41H103ZM106 40H107V41H106ZM105 41H106V42H105ZM124 41H125V42H124ZM50 42H51V43H50ZM59 42H60V43H59ZM68 42H69V43H68ZM89 42H90V43H89Z"/>
  <path fill="#383838" opacity="0.955" d="M46 7H47V8H46ZM52 12H53V13H52ZM49 23H50V24H49ZM39 25H40V26H39ZM48 25H49V26H48ZM152 25H153V26H152ZM146 27H147V28H146ZM152 27H153V28H152ZM36 29H37V30H36ZM57 30H58V31H57ZM147 31H148V32H147ZM147 32H148V33H147ZM31 34H32V35H31ZM57 34H58V35H57ZM122 34H123V35H122ZM136 35H137V36H136ZM61 36H63V37H61ZM60 37H61V38H60ZM98 38H99V39H98ZM142 39H143V40H142ZM52 40H53V41H52ZM55 40H56V41H55ZM58 40H59V41H58ZM117 41H118V42H117ZM76 42H77V43H76ZM17 53H18V54H17Z"/>
  <path fill="#383838" opacity="0.95" d="M39 5H40V6H39ZM49 8H50V9H49ZM50 9H52V10H50ZM20 10H21V11H20ZM41 23H42V24H41ZM153 25H154V26H153ZM56 27H57V28H56ZM55 28H56V29H55ZM120 29H121V30H120ZM34 31H36V32H34ZM119 31H120V32H119ZM106 32H107V33H106ZM95 33H96V34H95ZM122 33H123V34H122ZM63 34H64V35H63ZM146 34H147V35H146ZM121 35H122V36H121ZM60 36H61V37H60ZM98 36H100V37H98ZM55 37H56V38H55ZM59 37H60V38H59ZM107 37H108V38H107ZM86 38H87V39H86ZM143 38H144V39H143ZM105 39H106V40H105ZM118 39H119V40H118ZM59 40H60V41H59ZM65 40H66V41H65ZM133 40H134V41H133ZM46 41H47V42H46ZM43 42H44V43H43ZM26 43H27V44H26Z"/>
  <path fill="#383838" opacity="0.94" d="M30 5H31V6H30ZM47 7H48V8H47ZM14 16H15V17H14ZM47 16H48V17H47ZM55 17H57V18H55ZM55 19H56V20H55ZM43 20H44V21H43ZM155 22H156V23H155ZM53 23H54V24H53ZM47 25H48V26H47ZM53 25H54V26H53ZM151 26H152V27H151ZM157 27H158V28H157ZM120 28H121V29H120ZM150 29H151V30H150ZM148 30H149V31H148ZM105 32H106V33H105ZM133 32H134V33H133ZM66 33H67V34H66ZM120 33H121V34H120ZM130 33H131V34H130ZM129 35H130V36H129ZM70 36H71V37H70ZM87 36H88V37H87ZM115 36H116V37H115ZM119 36H120V37H119ZM61 37H62V38H61ZM135 37H136V38H135ZM74 38H75V39H74ZM29 39H30V40H29ZM74 39H75V40H74ZM106 39H107V40H106ZM27 40H28V41H27ZM67 40H68V41H67ZM93 40H94V41H93ZM105 40H106V41H105ZM147 40H148V41H147ZM51 41H52V42H51ZM141 41H142V42H141ZM77 42H78V43H77ZM134 42H135V43H134ZM143 42H144V43H143ZM25 43H26V44H25ZM43 43H44V44H43ZM46 43H47V44H46ZM25 44H26V45H25ZM23 46H24V47H23Z"/>
  <path fill="#383838" opacity="0.935" d="M24 7H25V8H24ZM54 14H55V15H54ZM54 21H55V22H54ZM41 22H42V23H41ZM154 22H155V23H154ZM47 23H48V24H47ZM155 23H156V24H155ZM52 24H53V25H52ZM38 26H39V27H38ZM54 26H55V27H54ZM37 27H38V28H37ZM35 28H36V29H35ZM121 28H122V29H121ZM57 29H58V30H57ZM34 32H35V33H34ZM68 32H69V33H68ZM135 32H136V33H135ZM138 32H139V33H138ZM64 33H65V34H64ZM72 34H73V35H72ZM110 34H111V35H110ZM145 34H146V35H145ZM56 35H57V36H56ZM120 35H121V36H120ZM55 36H56V37H55ZM120 36H121V37H120ZM75 37H76V38H75ZM119 37H120V38H119ZM60 38H61V39H60ZM97 38H98V39H97ZM107 38H108V39H107ZM118 38H119V39H118ZM142 38H143V39H142ZM28 39H29V40H28ZM66 39H67V40H66ZM85 39H86V40H85ZM28 40H29V41H28ZM56 40H57V41H56ZM74 40H75V41H74ZM85 40H86V41H85ZM97 40H98V41H97ZM117 40H118V41H117ZM124 40H125V41H124ZM141 40H142V41H141ZM67 41H68V42H67ZM74 41H75V42H74ZM125 41H126V42H125ZM146 41H147V42H146ZM116 42H117V43H116Z"/>
  <path fill="#383838" opacity="0.93" d="M41 5H42V6H41ZM43 6H44V7H43ZM48 8H49V9H48ZM52 11H55V12H52ZM51 13H52V14H51ZM46 17H47V18H46ZM43 21H44V22H43ZM39 24H40V25H39ZM54 25H55V26H54ZM153 26H154V27H153ZM149 27H150V28H149ZM149 30H150V31H149ZM74 32H75V33H74ZM134 32H135V33H134ZM56 33H57V34H56ZM91 33H92V34H91ZM56 34H57V35H56ZM71 34H72V35H71ZM78 34H79V35H78ZM83 34H84V35H83ZM101 34H102V35H101ZM108 34H109V35H108ZM70 35H71V36H70ZM82 35H83V36H82ZM137 35H138V36H137ZM127 36H128V37H127ZM87 37H88V38H87ZM98 37H99V38H98ZM114 37H115V38H114ZM54 38H55V39H54ZM134 38H135V39H134ZM98 39H99V40H98ZM134 39H135V40H134ZM53 40H54V41H53ZM86 40H87V41H86ZM59 41H60V42H59ZM85 41H87V42H85ZM97 41H98V42H97ZM51 42H52V43H51ZM70 42H71V43H70ZM97 42H99V43H97ZM13 57H14V58H13ZM6 62H7V63H6Z"/>
  <path fill="#383838" opacity="0.925" d="M21 9H22V10H21ZM51 10H52V11H51ZM17 12H18V13H17ZM50 14H51V15H50ZM155 21H156V22H155ZM54 22H55V23H54ZM154 27H155V28H154ZM118 28H119V29H118ZM56 32H57V33H56ZM73 32H74V33H73ZM118 32H119V33H118ZM32 33H34V34H32ZM92 33H93V34H92ZM102 33H103V34H102ZM65 34H66V35H65ZM103 34H104V35H103ZM130 34H131V35H130ZM138 34H139V35H138ZM61 35H63V36H61ZM89 35H90V36H89ZM145 35H146V36H145ZM86 37H87V38H86ZM108 37H109V38H108ZM142 37H143V38H142ZM29 38H30V39H29ZM55 38H56V39H55ZM87 38H88V39H87ZM125 38H127V39H125ZM68 39H69V40H68ZM86 39H87V40H86ZM141 39H142V40H141ZM125 40H126V41H125ZM129 41H130V42H129ZM133 41H134V42H133ZM26 42H27V43H26ZM117 42H118V43H117ZM142 42H143V43H142ZM24 45H25V46H24ZM22 47H23V48H22ZM21 48H22V49H21ZM12 58H13V59H12Z"/>
  <path fill="#383838" opacity="0.92" d="M40 5H41V6H40ZM54 15H56V16H54ZM46 23H47V24H46ZM153 23H154V24H153ZM46 24H47V25H46ZM51 24H52V25H51ZM154 24H155V25H154ZM151 28H152V29H151ZM35 29H36V30H35ZM57 31H58V32H57ZM94 32H95V33H94ZM119 32H120V33H119ZM67 33H68V34H67ZM108 33H109V34H108ZM110 33H111V34H110ZM133 33H134V34H133ZM138 33H139V34H138ZM147 33H148V34H147ZM30 35H31V36H30ZM94 35H95V36H94ZM31 36H32V37H31ZM88 36H89V37H88ZM136 36H137V37H136ZM120 37H121V38H120ZM127 37H128V38H127ZM68 38H69V39H68ZM119 38H120V39H119ZM73 39H74V40H73ZM117 39H118V40H117ZM96 40H97V41H96ZM50 41H51V42H50ZM63 41H64V42H63ZM88 42H89V43H88ZM125 42H126V43H125ZM136 42H137V43H136ZM24 44H25V45H24ZM21 49H22V50H21ZM8 61H9V62H8Z"/>
  <path fill="#383838" opacity="0.915" d="M29 5H30V6H29ZM44 6H45V7H44ZM54 12H55V13H54ZM54 13H55V14H54ZM49 15H50V16H49ZM44 19H45V20H44ZM44 20H45V21H44ZM41 21H43V22H41ZM156 21H157V22H156ZM40 22H41V23H40ZM53 24H54V25H53ZM37 26H38V27H37ZM147 27H149V28H147ZM56 30H57V31H56ZM33 31H34V32H33ZM33 32H34V33H33ZM69 32H70V33H69ZM83 32H84V33H83ZM139 32H140V33H139ZM148 32H149V33H148ZM81 33H82V34H81ZM139 33H140V34H139ZM70 34H71V35H70ZM102 34H103V35H102ZM101 35H102V36H101ZM135 36H136V37H135ZM30 37H31V38H30ZM76 37H77V38H76ZM67 38H68V39H67ZM60 39H61V40H60ZM132 39H133V40H132ZM80 41H81V42H80ZM91 41H92V42H91ZM121 41H122V42H121ZM27 42H28V43H27ZM75 42H76V43H75ZM99 42H100V43H99ZM127 42H128V43H127ZM133 42H134V43H133ZM135 42H136V43H135ZM48 43H49V44H48ZM22 48H23V49H22ZM15 55H16V56H15ZM5 63H6V64H5Z"/>
  <path fill="#383838" opacity="0.905" d="M38 5H39V6H38ZM27 6H28V7H27ZM48 23H49V24H48ZM50 24H51V25H50ZM38 25H39V26H38ZM55 27H56V28H55ZM35 30H36V31H35ZM107 32H108V33H107ZM112 32H113V33H112ZM140 32H141V33H140ZM103 33H104V34H103ZM131 33H132V34H131ZM55 35H56V36H55ZM108 35H109V36H108ZM56 36H57V37H56ZM69 36H70V37H69ZM76 36H77V37H76ZM108 36H109V37H108ZM56 37H57V38H56ZM97 37H98V38H97ZM125 37H126V38H125ZM134 37H135V38H134ZM144 37H145V38H144ZM75 38H76V39H75ZM54 39H55V40H54ZM84 39H85V40H84ZM112 39H113V40H112ZM125 39H126V40H125ZM54 40H55V41H54ZM27 41H28V42H27ZM52 41H53V42H52ZM47 43H48V44H47ZM24 46H25V47H24ZM14 56H15V57H14Z"/>
  <path fill="#383838" opacity="0.899" d="M26 6H27V7H26ZM45 6H46V7H45ZM22 8H23V9H22ZM56 16H57V17H56ZM44 18H45V19H44ZM42 20H43V21H42ZM39 23H40V24H39ZM49 25H50V26H49ZM38 27H39V28H38ZM151 27H152V28H151ZM119 28H120V29H119ZM34 30H35V31H34ZM117 31H118V32H117ZM149 31H150V32H149ZM57 32H58V33H57ZM105 33H106V34H105ZM33 34H34V35H33ZM89 34H90V35H89ZM121 34H122V35H121ZM136 34H137V35H136ZM99 35H100V36H99ZM82 36H83V37H82ZM74 37H75V38H74ZM99 37H100V38H99ZM30 38H31V39H30ZM133 38H134V39H133ZM124 39H125V40H124ZM68 40H69V41H68ZM82 40H83V41H82ZM142 40H143V41H142ZM116 41H117V42H116ZM74 42H75V43H74ZM126 42H127V43H126ZM20 50H21V51H20ZM16 54H17V55H16ZM9 60H10V61H9Z"/>
  <path fill="#383838" opacity="0.894" d="M32 5H33V6H32ZM42 5H43V6H42ZM50 23H51V24H50ZM150 28H151V29H150ZM111 32H112V33H111ZM146 32H147V33H146ZM65 33H66V34H65ZM72 33H73V34H72ZM129 34H130V35H129ZM131 34H132V35H131ZM32 35H33V36H32ZM76 35H77V36H76ZM88 35H89V36H88ZM100 35H101V36H100ZM77 36H78V37H77ZM97 39H98V40H97ZM133 39H134V40H133ZM73 40H74V41H73ZM109 41H110V42H109ZM60 42H61V43H60ZM86 42H87V43H86ZM106 42H107V43H106ZM20 49H21V50H20ZM18 52H19V53H18Z"/>
  <path fill="#383838" opacity="0.889" d="M50 8H51V9H50ZM55 14H56V15H55ZM47 17H48V18H47ZM40 23H41V24H40ZM117 32H118V33H117ZM71 33H72V34H71ZM136 33H138V34H136ZM77 35H78V36H77ZM144 35H145V36H144ZM30 36H31V37H30ZM89 36H90V37H89ZM107 36H108V37H107ZM106 38H107V39H106ZM58 39H59V40H58ZM104 39H105V40H104ZM26 41H27V42H26ZM71 41H72V42H71ZM44 43H45V44H44Z"/>
  <path fill="#383838" opacity="0.884" d="M15 15H16V16H15ZM55 16H56V17H55ZM158 27H159V28H158ZM32 32H33V33H32ZM111 33H112V34H111ZM91 34H92V35H91ZM90 35H91V36H90ZM127 35H128V36H127ZM126 36H127V37H126ZM145 36H146V37H145ZM141 38H142V39H141ZM95 39H96V40H95ZM101 41H102V42H101ZM25 42H26V43H25ZM120 42H121V43H120Z"/>
  <path fill="#383838" opacity="0.879" d="M36 5H38V6H36ZM53 13H54V14H53ZM46 18H47V19H46ZM42 22H43V23H42ZM152 24H153V25H152ZM121 27H122V28H121ZM90 34H91V35H90ZM128 34H129V35H128ZM121 36H122V37H121ZM144 36H145V37H144ZM140 39H141V40H140ZM122 40H123V41H122ZM137 41H138V42H137ZM100 42H101V43H100ZM119 42H120V43H119Z"/>
  <path fill="#383838" opacity="0.869" d="M56 10H57V11H56ZM18 11H19V12H18ZM48 16H49V17H48ZM56 20H57V21H56ZM55 29H56V30H55ZM80 33H81V34H80ZM62 34H63V35H62ZM116 34H117V35H116ZM51 40H52V41H51ZM81 40H82V41H81ZM23 45H24V46H23ZM11 59H12V60H11Z"/>
  <path fill="#383838" opacity="0.864" d="M35 4H36V5H35ZM33 5H34V6H33ZM49 14H50V15H49ZM34 29H35V30H34ZM95 32H96V33H95ZM132 32H133V33H132ZM70 37H71V38H70ZM106 37H107V38H106ZM105 38H106V39H105ZM47 41H48V42H47ZM18 51H19V52H18ZM10 59H11V60H10Z"/>
  <path fill="#383838" opacity="0.859" d="M55 10H56V11H55ZM19 11H20V12H19ZM46 25H47V26H46ZM72 32H73V33H72ZM117 33H118V34H117ZM95 34H96V35H95ZM117 34H118V35H117ZM71 36H72V37H71ZM151 38H152V39H151ZM53 39H54V40H53ZM131 40H132V41H131ZM134 40H135V41H134ZM106 41H107V42H106ZM49 42H50V43H49ZM62 42H63V43H62ZM42 43H43V44H42ZM45 43H46V44H45Z"/>
  <path fill="#383838" opacity="0.854" d="M25 7H26V8H25ZM43 19H44V20H43ZM57 28H58V29H57ZM83 33H84V34H83ZM93 33H94V34H93ZM77 34H78V35H77ZM95 35H96V36H95ZM83 39H84V40H83ZM94 40H95V41H94ZM45 41H46V42H45ZM72 41H73V42H72ZM105 42H106V43H105ZM25 45H26V46H25ZM7 62H8V63H7Z"/>
  <path fill="#383838" opacity="0.849" d="M48 7H49V8H48ZM56 14H57V15H56ZM45 19H46V20H45ZM36 30H37V31H36ZM79 33H80V34H79ZM57 35H58V36H57ZM75 36H76V37H75ZM87 39H88V40H87ZM148 40H149V41H148ZM68 41H69V42H68ZM124 42H125V43H124ZM141 42H142V43H141ZM20 51H21V52H20ZM17 54H18V55H17Z"/>
  <path fill="#383838" opacity="0.844" d="M46 6H47V7H46ZM16 14H17V15H16ZM39 26H40V27H39ZM117 29H118V30H117ZM82 32H83V33H82ZM104 32H105V33H104ZM118 33H119V34H118ZM145 33H146V34H145ZM136 37H137V38H136ZM126 39H127V40H126ZM44 42H45V43H44ZM145 42H146V43H145ZM18 53H19V54H18Z"/>
  <path fill="#383838" opacity="0.839" d="M43 5H44V6H43ZM53 10H54V11H53ZM120 30H121V31H120ZM102 35H103V36H102ZM124 38H125V39H124ZM78 42H79V43H78ZM12 57H13V58H12Z"/>
  <path fill="#383838" opacity="0.829" d="M34 5H35V6H34ZM28 6H29V7H28ZM16 13H17V14H16ZM45 17H46V18H45ZM38 24H39V25H38ZM118 29H119V30H118ZM66 32H67V33H66ZM110 32H111V33H110ZM28 41H29V42H28ZM49 41H50V42H49ZM79 41H80V42H79ZM102 41H103V42H102ZM118 42H119V43H118Z"/>
  <path fill="#383838" opacity="0.824" d="M34 4H35V5H34ZM37 4H38V5H37ZM13 17H14V18H13ZM55 22H56V23H55ZM156 22H157V23H156ZM34 33H35V34H34ZM55 34H56V35H55ZM122 35H123V36H122ZM94 36H95V37H94ZM92 41H93V42H92Z"/>
  <path fill="#383838" opacity="0.819" d="M19 10H20V11H19ZM15 14H16V15H15ZM80 34H81V35H80ZM94 34H95V35H94ZM100 34H101V35H100ZM109 36H110V37H109ZM31 37H32V38H31ZM128 42H129V43H128ZM7 61H8V62H7Z"/>
  <path fill="#383838" opacity="0.814" d="M49 24H50V25H49ZM150 30H151V31H150ZM146 35H147V36H146ZM29 36H30V37H29ZM123 39H124V40H123ZM66 40H67V41H66ZM111 40H112V41H111ZM73 41H74V42H73Z"/>
  <path fill="#383838" opacity="0.809" d="M35 5H36V6H35ZM157 21H158V22H157ZM37 25H38V26H37ZM144 34H145V35H144ZM79 35H80V36H79ZM110 40H111V41H110Z"/>
  <path fill="#383838" opacity="0.804" d="M42 6H43V7H42ZM17 13H18V14H17ZM154 26H155V27H154ZM120 32H121V33H120ZM77 37H78V38H77ZM100 37H101V38H100ZM27 39H28V40H27ZM48 41H49V42H48ZM90 42H91V43H90ZM10 60H11V61H10Z"/>
  <path fill="#383838" opacity="0.794" d="M18 12H19V13H18ZM53 22H54V23H53ZM93 32H94V33H93ZM84 33H85V34H84ZM101 36H102V37H101ZM137 36H138V37H137ZM76 38H77V39H76ZM50 40H51V41H50ZM104 40H105V41H104ZM138 40H139V41H138ZM138 41H139V42H138ZM145 41H146V42H145ZM49 43H50V44H49Z"/>
  <path fill="#383838" opacity="0.789" d="M120 34H121V35H120ZM99 38H100V39H99ZM116 40H117V41H116ZM58 42H59V43H58ZM19 50H20V51H19ZM19 52H20V53H19Z"/>
  <path fill="#383838" opacity="0.784" d="M36 4H37V5H36ZM22 9H23V10H22ZM54 20H55V21H54ZM52 23H53V24H52ZM148 29H149V30H148ZM64 35H65V36H64ZM110 35H111V36H110ZM130 40H131V41H130ZM142 41H143V42H142Z"/>
  <path fill="#383838" opacity="0.779" d="M40 25H41V26H40ZM154 25H155V26H154ZM150 38H151V39H150ZM111 39H112V40H111ZM134 41H135V42H134ZM11 58H12V59H11Z"/>
  <path fill="#383838" opacity="0.774" d="M20 9H21V10H20ZM48 24H49V25H48ZM113 37H114V38H113ZM15 56H16V57H15Z"/>
  <path fill="#383838" opacity="0.769" d="M33 4H34V5H33ZM49 9H50V10H49ZM47 24H48V25H47ZM119 27H120V28H119ZM72 40H73V41H72ZM16 55H17V56H16Z"/>
  <path fill="#383838" opacity="0.759" d="M81 32H82V33H81ZM31 33H32V34H31ZM63 36H64V37H63ZM140 40H141V41H140ZM64 41H65V42H64Z"/>
  <path fill="#383838" opacity="0.754" d="M38 4H39V5H38ZM28 5H29V6H28ZM52 13H53V14H52ZM151 25H152V26H151ZM54 27H55V28H54ZM96 38H97V39H96ZM102 40H103V41H102ZM120 41H121V42H120Z"/>
  <path fill="#383838" opacity="0.749" d="M46 16H47V17H46ZM54 16H55V17H54ZM84 34H85V35H84ZM78 36H79V37H78ZM54 37H55V38H54ZM64 40H65V41H64Z"/>
  <path fill="#383838" opacity="0.744" d="M45 7H46V8H45ZM54 23H55V24H54ZM147 30H148V31H147ZM106 33H107V34H106ZM132 40H133V41H132Z"/>
  <path fill="#383838" opacity="0.739" d="M47 8H48V9H47ZM50 25H51V26H50ZM121 29H122V30H121ZM130 35H131V36H130ZM143 39H144V40H143Z"/>
  <path fill="#383838" opacity="0.734" d="M117 38H118V39H117Z"/>
  <path fill="#383838" opacity="0.724" d="M32 4H33V5H32ZM25 6H26V7H25ZM55 11H56V12H55ZM119 33H120V34H119ZM49 40H50V41H49ZM118 40H119V41H118ZM22 46H23V47H22Z"/>
  <path fill="#383838" opacity="0.719" d="M50 10H51V11H50ZM111 34H112V35H111ZM115 35H116V36H115ZM114 36H115V37H114ZM62 37H63V38H62ZM150 39H151V40H150ZM90 41H91V42H90ZM110 41H111V42H110ZM17 52H18V53H17Z"/>
  <path fill="#383838" opacity="0.714" d="M55 33H56V34H55ZM107 33H108V34H107ZM61 38H62V39H61ZM21 50H22V51H21Z"/>
  <path fill="#383838" opacity="0.709" d="M94 33H95V34H94Z"/>
  <path fill="#383838" opacity="0.704" d="M58 38H59V39H58ZM85 42H86V43H85Z"/>
  <path fill="#383838" opacity="0.698" d="M14 15H15V16H14ZM150 26H151V27H150ZM63 33H64V34H63ZM69 33H70V34H69ZM123 33H124V34H123ZM129 36H130V37H129Z"/>
  <path fill="#383838" opacity="0.688" d="M51 11H52V12H51ZM55 30H56V31H55ZM147 34H148V35H147ZM75 40H76V41H75ZM14 57H15V58H14Z"/>
  <path fill="#383838" opacity="0.683" d="M119 30H120V31H119ZM135 33H136V34H135ZM26 40H27V41H26ZM62 41H63V42H62ZM96 42H97V43H96ZM26 44H27V45H26Z"/>
  <path fill="#383838" opacity="0.678" d="M50 13H51V14H50ZM51 23H52V24H51ZM33 30H34V31H33ZM87 35H88V36H87ZM55 39H56V40H55ZM107 39H108V40H107ZM92 40H93V41H92ZM78 41H79V42H78ZM24 43H25V44H24ZM45 44H46V45H45Z"/>
  <path fill="#383838" opacity="0.673" d="M131 32H132V33H131Z"/>
  <path fill="#383838" opacity="0.668" d="M23 7H24V8H23ZM147 41H148V42H147Z"/>
  <path fill="#383838" opacity="0.663" d="M55 31H56V32H55ZM72 35H73V36H72ZM148 39H149V40H148Z"/>
  <path fill="#383838" opacity="0.653" d="M55 12H56V13H55ZM73 34H74V35H73ZM92 34H93V35H92ZM130 41H131V42H130ZM117 43H118V44H117ZM13 56H14V57H13Z"/>
  <path fill="#383838" opacity="0.648" d="M52 9H53V10H52ZM65 32H66V33H65ZM119 35H120V36H119ZM83 36H84V37H83ZM5 62H6V63H5Z"/>
  <path fill="#383838" opacity="0.643" d="M155 24H156V25H155ZM112 33H113V34H112ZM123 34H124V35H123ZM95 40H96V41H95ZM75 41H76V42H75ZM118 43H119V44H118ZM22 49H23V50H22Z"/>
  <path fill="#383838" opacity="0.638" d="M154 21H155V22H154ZM155 26H156V27H155ZM121 32H122V33H121ZM44 41H45V42H44ZM14 55H15V56H14Z"/>
  <path fill="#383838" opacity="0.633" d="M55 32H56V33H55ZM32 36H33V37H32ZM29 40H30V41H29ZM128 41H129V42H128ZM136 41H137V42H136Z"/>
  <path fill="#383838" opacity="0.628" d="M56 21H57V22H56ZM118 31H119V32H118ZM90 33H91V34H90ZM129 33H130V34H129ZM82 34H83V35H82ZM138 35H139V36H138ZM73 38H74V39H73ZM127 38H128V39H127ZM70 41H71V42H70ZM9 61H10V62H9Z"/>
  <path fill="#383838" opacity="0.618" d="M39 4H40V5H39ZM45 23H46V24H45ZM37 29H38V30H37ZM103 32H104V33H103ZM122 41H123V42H122ZM44 44H45V45H44Z"/>
  <path fill="#383838" opacity="0.613" d="M14 17H15V18H14ZM52 25H53V26H52ZM94 39H95V40H94ZM48 40H49V41H48ZM98 40H99V41H98ZM53 41H54V42H53ZM4 63H5V64H4Z"/>
  <path fill="#383838" opacity="0.608" d="M69 35H70V36H69ZM28 37H29V38H28ZM128 37H129V38H128ZM46 44H47V45H46Z"/>
  <path fill="#383838" opacity="0.603" d="M47 15H48V16H47ZM8 60H9V61H8Z"/>
  <path fill="#383838" opacity="0.598" d="M58 31H59V32H58ZM74 33H75V34H74Z"/>
  <path fill="#383838" opacity="0.593" d="M134 33H135V34H134ZM86 36H87V37H86ZM112 38H113V39H112ZM43 44H44V45H43ZM13 58H14V59H13Z"/>
  <path fill="#383838" opacity="0.583" d="M36 26H37V27H36ZM82 33H83V34H82ZM98 41H99V42H98Z"/>
  <path fill="#383838" opacity="0.578" d="M47 6H48V7H47ZM49 7H50V8H49ZM54 19H55V20H54ZM68 33H69V34H68ZM108 41H109V42H108Z"/>
  <path fill="#383838" opacity="0.573" d="M24 8H25V9H24ZM45 25H46V26H45ZM149 26H150V27H149ZM151 29H152V30H151ZM135 35H136V36H135ZM83 40H84V41H83ZM81 41H82V42H81ZM100 41H101V42H100Z"/>
  <path fill="#383838" opacity="0.568" d="M51 12H52V13H51ZM54 17H55V18H54ZM30 34H31V35H30ZM84 40H85V41H84ZM123 41H124V42H123ZM109 42H110V43H109Z"/>
  <path fill="#383838" opacity="0.563" d="M41 6H42V7H41ZM148 26H149V27H148ZM148 33H149V34H148ZM139 39H140V40H139Z"/>
  <path fill="#383838" opacity="0.558" d="M29 6H30V7H29ZM53 26H54V27H53ZM92 32H93V33H92ZM108 32H109V33H108Z"/>
  <path fill="#383838" opacity="0.548" d="M44 5H45V6H44ZM156 26H157V27H156ZM152 28H153V29H152ZM58 32H59V33H58ZM88 38H89V39H88ZM119 39H120V40H119ZM15 54H16V55H15Z"/>
  <path fill="#383838" opacity="0.543" d="M56 9H57V10H56ZM32 31H33V32H32ZM116 31H117V32H116ZM122 32H123V33H122ZM96 33H97V34H96ZM104 34H105V35H104ZM65 39H66V40H65ZM69 39H70V40H69ZM135 39H136V40H135ZM80 40H81V41H80ZM45 42H46V43H45Z"/>
  <path fill="#383838" opacity="0.538" d="M26 7H27V8H26ZM57 17H58V18H57ZM41 24H42V25H41ZM134 43H135V44H134Z"/>
  <path fill="#383838" opacity="0.533" d="M143 35H144V36H143ZM66 41H67V42H66ZM71 42H72V43H71Z"/>
  <path fill="#383838" opacity="0.528" d="M132 34H133V35H132ZM93 41H94V42H93ZM48 42H49V43H48ZM79 42H80V43H79Z"/>
  <path fill="#383838" opacity="0.523" d="M116 30H117V31H116ZM144 38H145V39H144ZM101 42H102V43H101ZM137 42H138V43H137ZM16 53H17V54H16ZM6 63H7V64H6Z"/>
  <path fill="#383838" opacity="0.513" d="M58 33H59V34H58ZM101 33H102V34H101ZM146 40H147V41H146ZM68 43H69V44H68Z"/>
  <path fill="#383838" opacity="0.508" d="M31 4H32V5H31ZM42 23H43V24H42ZM58 30H59V31H58ZM57 36H58V37H57ZM85 37H86V38H85Z"/>
  <path fill="#383838" opacity="0.503" d="M84 32H85V33H84ZM126 35H127V36H126ZM21 47H22V48H21Z"/>
  <path fill="#383838" opacity="0.497" d="M54 18H55V19H54ZM148 28H149V29H148ZM35 32H36V33H35ZM151 37H152V38H151ZM42 42H43V43H42Z"/>
  <path fill="#383838" opacity="0.492" d="M55 25H56V26H55ZM147 26H148V27H147ZM131 39H132V40H131ZM121 40H122V41H121Z"/>
  <path fill="#383838" opacity="0.487" d="M40 4H41V5H40ZM21 10H22V11H21ZM54 10H55V11H54ZM50 15H51V16H50ZM119 29H120V30H119ZM146 31H147V32H146ZM136 32H137V33H136ZM66 34H67V35H66ZM60 40H61V41H60ZM132 41H133V42H132Z"/>
  <path fill="#383838" opacity="0.477" d="M51 14H52V15H51ZM57 16H58V17H57ZM57 18H58V19H57ZM51 25H52V26H51ZM157 26H158V27H157ZM30 39H31V40H30ZM57 41H58V42H57ZM23 48H24V49H23Z"/>
  <path fill="#383838" opacity="0.472" d="M15 16H16V17H15ZM120 31H121V32H120ZM84 35H85V36H84ZM103 39H104V40H103ZM126 40H127V41H126ZM107 43H108V44H107ZM135 43H136V44H135ZM142 43H143V44H142Z"/>
  <path fill="#383838" opacity="0.467" d="M153 22H154V23H153ZM113 32H114V33H113ZM78 33H79V34H78ZM139 34H140V35H139ZM108 38H109V39H108ZM50 43H51V44H50Z"/>
  <path fill="#383838" opacity="0.462" d="M21 8H22V9H21ZM35 27H36V28H35ZM38 28H39V29H38ZM70 32H71V33H70ZM80 32H81V33H80ZM140 33H141V34H140ZM132 38H133V39H132ZM27 43H28V44H27ZM106 43H107V44H106Z"/>
  <path fill="#383838" opacity="0.457" d="M27 5H28V6H27ZM90 36H91V37H90ZM76 43H77V44H76Z"/>
  <path fill="#383838" opacity="0.452" d="M56 26H57V27H56ZM145 27H146V28H145ZM115 37H116V38H115Z"/>
  <path fill="#383838" opacity="0.442" d="M49 16H50V17H49ZM60 35H61V36H60ZM91 35H92V36H91ZM87 43H88V44H87Z"/>
  <path fill="#383838" opacity="0.437" d="M71 32H72V33H71Z"/>
  <path fill="#383838" opacity="0.432" d="M56 13H57V14H56ZM117 28H118V29H117ZM114 38H115V39H114ZM82 39H83V40H82Z"/>
  <path fill="#383838" opacity="0.427" d="M125 36H126V37H125ZM89 37H90V38H89ZM120 38H121V39H120ZM143 43H144V44H143Z"/>
  <path fill="#383838" opacity="0.422" d="M30 4H31V5H30ZM137 32H138V33H137ZM107 35H108V36H107ZM134 36H135V37H134ZM47 40H48V41H47ZM24 47H25V48H24ZM20 48H21V49H20Z"/>
  <path fill="#383838" opacity="0.417" d="M56 38H57V39H56ZM84 38H85V39H84ZM23 44H24V45H23ZM47 44H48V45H47Z"/>
  <path fill="#383838" opacity="0.412" d="M53 14H54V15H53ZM54 24H55V25H54ZM149 32H150V33H149ZM33 35H34V36H33ZM113 39H114V40H113ZM60 41H61V42H60ZM75 43H76V44H75Z"/>
  <path fill="#383838" opacity="0.402" d="M44 7H45V8H44ZM88 34H89V35H88ZM116 36H117V37H116ZM119 43H120V44H119Z"/>
  <path fill="#383838" opacity="0.397" d="M43 22H44V23H43ZM158 26H159V27H158ZM75 32H76V33H75ZM127 34H128V35H127ZM63 42H64V43H63ZM60 43H61V44H60ZM88 43H89V44H88Z"/>
  <path fill="#383838" opacity="0.392" d="M156 23H157V24H156ZM145 37H146V38H145ZM89 41H90V42H89Z"/>
  <path fill="#383838" opacity="0.387" d="M118 30H119V31H118ZM142 36H143V37H142Z"/>
  <path fill="#383838" opacity="0.382" d="M13 16H14V17H13ZM139 41H140V42H139ZM46 42H47V43H46ZM129 42H130V43H129ZM8 62H9V63H8Z"/>
  <path fill="#383838" opacity="0.377" d="M57 10H58V11H57ZM57 39H58V40H57ZM9 59H10V60H9ZM12 59H13V60H12Z"/>
  <path fill="#383838" opacity="0.367" d="M51 8H52V9H51ZM93 35H94V36H93ZM98 35H99V36H98ZM95 36H96V37H95ZM149 40H150V41H149ZM103 41H104V42H103ZM69 43H70V44H69Z"/>
  <path fill="#383838" opacity="0.362" d="M48 14H49V15H48ZM66 38H67V39H66ZM70 38H71V39H70ZM126 41H127V42H126ZM47 42H48V43H47ZM126 43H127V44H126Z"/>
  <path fill="#383838" opacity="0.357" d="M54 36H55V37H54ZM116 39H117V40H116ZM54 41H55V42H54ZM140 41H141V42H140ZM146 42H147V43H146Z"/>
  <path fill="#383838" opacity="0.352" d="M40 6H41V7H40ZM52 42H53V43H52Z"/>
  <path fill="#383838" opacity="0.347" d="M146 26H147V27H146ZM53 38H54V39H53ZM98 43H99V44H98Z"/>
  <path fill="#383838" opacity="0.342" d="M57 19H58V20H57ZM58 34H59V35H58ZM117 35H118V36H117ZM74 36H75V37H74Z"/>
  <path fill="#383838" opacity="0.332" d="M96 32H97V33H96ZM130 32H131V33H130ZM118 36H119V37H118ZM149 38H150V39H149ZM133 43H134V44H133Z"/>
  <path fill="#383838" opacity="0.327" d="M41 4H42V5H41ZM29 35H30V36H29ZM59 36H60V37H59ZM27 38H28V39H27ZM109 40H110V41H109ZM69 41H70V42H69ZM87 41H88V42H87ZM73 42H74V43H73Z"/>
  <path fill="#383838" opacity="0.322" d="M30 6H31V7H30ZM145 32H146V33H145ZM68 36H69V37H68ZM25 41H26V42H25ZM121 42H122V43H121ZM99 43H100V44H99Z"/>
  <path fill="#383838" opacity="0.317" d="M41 20H42V21H41ZM121 37H122V38H121ZM144 41H145V42H144Z"/>
  <path fill="#383838" opacity="0.312" d="M57 15H58V16H57ZM39 27H40V28H39ZM140 38H141V39H140ZM77 41H78V42H77ZM132 42H133V43H132Z"/>
  <path fill="#383838" opacity="0.307" d="M24 6H25V7H24ZM152 23H153V24H152ZM75 35H76V36H75ZM63 40H64V41H63ZM84 41H85V42H84ZM59 43H60V44H59Z"/>
  <path fill="#383838" opacity="0.296" d="M61 34H62V35H61ZM93 36H94V37H93ZM133 37H134V38H133ZM55 41H56V42H55ZM61 41H62V42H61ZM97 43H98V44H97ZM116 43H117V44H116ZM144 43H145V44H144Z"/>
  <path fill="#383838" opacity="0.291" d="M87 40H88V41H87Z"/>
  <path fill="#383838" opacity="0.286" d="M36 31H37V32H36ZM123 32H124V33H123ZM97 36H98V37H97ZM91 40H92V41H91ZM129 40H130V41H129ZM127 41H128V42H127ZM61 43H62V44H61Z"/>
  <path fill="#383838" opacity="0.281" d="M45 5H46V6H45ZM27 7H28V8H27ZM16 15H17V16H16ZM40 21H41V22H40ZM58 29H59V30H58ZM109 32H110V33H109ZM103 35H104V36H103ZM109 37H110V38H109ZM91 42H92V43H91ZM6 61H7V62H6Z"/>
  <path fill="#383838" opacity="0.276" d="M46 8H47V9H46ZM122 28H123V29H122ZM135 34H136V35H135ZM117 37H118V38H117ZM65 41H66V42H65ZM119 41H120V42H119ZM86 43H87V44H86Z"/>
  <path fill="#383838" opacity="0.271" d="M57 9H58V10H57Z"/>
  <path fill="#383838" opacity="0.261" d="M57 27H58V28H57ZM118 27H119V28H118ZM143 40H144V41H143ZM28 42H29V43H28ZM125 43H126V44H125ZM11 60H12V61H11Z"/>
  <path fill="#383838" opacity="0.256" d="M54 28H55V29H54ZM102 32H103V33H102ZM141 32H142V33H141ZM81 34H82V35H81ZM104 38H105V39H104Z"/>
  <path fill="#383838" opacity="0.251" d="M48 9H49V10H48ZM43 18H44V19H43ZM44 21H45V22H44ZM47 22H48V23H47ZM91 32H92V33H91ZM106 36H107V37H106ZM104 41H105V42H104ZM118 41H119V42H118Z"/>
  <path fill="#383838" opacity="0.246" d="M48 17H49V18H48ZM48 22H49V23H48ZM47 26H48V27H47ZM135 41H136V42H135ZM66 42H67V43H66ZM67 43H68V44H67ZM77 43H78V44H77ZM42 44H43V45H42Z"/>
  <path fill="#383838" opacity="0.241" d="M20 11H21V12H20ZM16 12H17V13H16ZM120 26H121V27H120ZM146 36H147V37H146Z"/>
  <path fill="#383838" opacity="0.236" d="M26 5H27V6H26ZM155 20H156V21H155ZM121 30H122V31H121ZM122 36H123V37H122ZM43 41H44V42H43ZM56 41H57V42H56ZM74 43H75V44H74Z"/>
  <path fill="#383838" opacity="0.226" d="M13 18H14V19H13ZM38 23H39V24H38ZM34 28H35V29H34ZM69 34H70V35H69ZM124 37H125V38H124ZM112 40H113V41H112ZM143 41H144V42H143Z"/>
  <path fill="#383838" opacity="0.221" d="M121 26H122V27H121ZM154 28H155V29H154ZM137 40H138V41H137Z"/>
  <path fill="#383838" opacity="0.216" d="M22 7H23V8H22ZM42 19H43V20H42ZM46 19H47V20H46ZM157 22H158V23H157ZM96 34H97V35H96ZM99 34H100V35H99ZM67 37H68V38H67Z"/>
  <path fill="#383838" opacity="0.211" d="M29 4H30V5H29ZM18 10H19V11H18ZM56 11H57V12H56ZM118 34H119V35H118ZM31 38H32V39H31ZM88 41H89V42H88Z"/>
  <path fill="#383838" opacity="0.206" d="M48 26H49V27H48ZM133 31H135V32H133ZM64 32H65V33H64ZM131 41H132V42H131ZM25 46H26V47H25ZM19 49H20V50H19Z"/>
  <path fill="#383838" opacity="0.201" d="M44 17H45V18H44ZM106 31H108V32H106ZM76 34H77V35H76ZM99 39H100V40H99ZM127 43H128V44H127ZM48 44H49V45H48Z"/>
  <path fill="#383838" opacity="0.191" d="M47 18H48V19H47ZM45 20H46V21H45ZM150 31H151V32H150ZM100 38H101V39H100ZM52 39H53V40H52ZM76 39H77V40H76ZM46 40H47V41H46ZM71 40H72V41H71ZM5 64H6V65H5Z"/>
  <path fill="#383838" opacity="0.186" d="M153 28H154V29H153ZM155 28H156V29H155ZM116 33H117V34H116ZM110 36H111V37H110ZM73 37H74V38H73ZM19 53H20V54H19Z"/>
  <path fill="#383838" opacity="0.181" d="M17 11H18V12H17ZM45 16H46V17H45ZM156 20H157V21H156ZM53 21H54V22H53ZM159 26H160V27H159ZM31 32H32V33H31ZM81 35H82V36H81ZM141 37H142V38H141ZM136 38H137V39H136ZM56 39H57V40H56ZM122 39H123V40H122ZM101 40H102V41H101ZM82 41H83V42H82ZM107 41H108V42H107ZM105 43H106V44H105Z"/>
  <path fill="#383838" opacity="0.176" d="M49 13H50V14H49ZM157 20H158V21H157ZM144 33H145V34H144ZM58 37H59V38H58ZM105 37H106V38H105ZM95 38H96V39H95ZM24 42H25V43H24Z"/>
  <path fill="#383838" opacity="0.171" d="M48 6H49V7H48ZM15 13H16V14H15ZM147 28H148V29H147ZM67 31H68V32H67ZM112 31H113V32H112ZM89 33H90V34H89ZM34 34H35V35H34ZM80 35H81V36H80Z"/>
  <path fill="#383838" opacity="0.166" d="M42 4H43V5H42ZM52 22H53V23H52ZM159 27H160V28H159ZM68 31H69V32H68ZM95 41H96V42H95ZM123 42H124V43H123ZM89 43H90V44H89ZM22 45H23V46H22Z"/>
  <path fill="#383838" opacity="0.156" d="M39 6H40V7H39ZM39 22H40V23H39ZM49 22H50V23H49ZM139 31H140V32H139ZM79 32H80V33H79ZM93 34H94V35H93ZM65 35H66V36H65ZM10 58H11V59H10Z"/>
  <path fill="#383838" opacity="0.151" d="M50 7H51V8H50ZM147 29H148V30H147ZM152 37H153V38H152ZM152 38H153V39H152ZM61 39H62V40H61ZM151 39H152V40H151ZM107 40H108V41H107ZM99 41H100V42H99Z"/>
  <path fill="#383838" opacity="0.146" d="M55 9H56V10H55ZM49 10H50V11H49ZM122 27H123V28H122Z"/>
  <path fill="#383838" opacity="0.141" d="M151 24H152V25H151ZM116 32H117V33H116ZM123 35H124V36H123ZM131 35H132V36H131ZM123 38H124V39H123ZM79 40H80V41H79ZM94 41H95V42H94ZM111 41H112V42H111ZM16 56H17V57H16Z"/>
  <path fill="#383838" opacity="0.136" d="M18 13H19V14H18ZM73 31H75V32H73ZM96 35H97V36H96ZM79 36H80V37H79ZM147 39H148V40H147ZM80 42H81V43H80ZM4 64H5V65H4Z"/>
  <path fill="#383838" opacity="0.131" d="M19 12H20V13H19ZM33 29H34V30H33ZM75 31H76V32H75ZM111 35H112V36H111ZM21 46H22V47H21Z"/>
  <path fill="#383838" opacity="0.121" d="M53 15H54V16H53ZM57 20H58V21H57ZM46 22H47V23H46ZM55 23H56V24H55ZM44 24H45V25H44ZM72 31H73V32H72ZM107 34H108V35H107ZM58 35H59V36H58ZM45 40H46V41H45ZM141 43H142V44H141Z"/>
  <path fill="#383838" opacity="0.116" d="M156 28H157V29H156ZM105 31H106V32H105ZM93 39H94V40H93ZM104 42H105V43H104ZM17 55H18V56H17ZM15 57H16V58H15Z"/>
  <path fill="#383838" opacity="0.111" d="M43 7H44V8H43ZM19 9H20V10H19ZM17 14H18V15H17ZM66 31H67V32H66ZM113 31H114V32H113ZM140 31H141V32H140ZM62 33H63V34H62ZM128 33H129V34H128ZM71 37H72V38H71ZM112 37H113V38H112ZM150 37H151V38H150ZM77 38H78V39H77ZM72 39H73V40H72ZM127 39H128V40H127ZM115 41H116V42H115ZM148 41H149V42H148ZM18 50H19V51H18ZM21 51H22V52H21Z"/>
  <path fill="#383838" opacity="0.106" d="M46 5H47V6H46ZM23 9H24V10H23ZM40 26H41V27H40ZM116 29H117V30H116ZM72 36H73V37H72ZM137 37H138V38H137ZM110 39H111V40H110ZM120 43H121V44H120ZM4 62H5V63H4Z"/>
  <path fill="#383838" opacity="0.101" d="M56 22H57V23H56ZM49 26H50V27H49ZM146 28H147V29H146ZM151 30H152V31H151ZM138 31H139V32H138ZM115 34H116V35H115ZM62 38H63V39H62ZM76 41H77V42H76ZM140 42H141V43H140ZM49 44H50V45H49ZM18 54H19V55H18Z"/>
  <path fill="#383838" opacity="0.095" d="M50 22H51V23H50ZM69 31H70V32H69ZM147 35H148V36H147ZM128 38H129V39H128ZM7 63H8V64H7Z"/>
  <path fill="#383838" opacity="0.085" d="M43 4H44V5H43ZM25 8H26V9H25ZM81 36H82V37H81ZM78 37H79V38H78ZM111 38H112V39H111ZM29 41H30V42H29ZM108 43H109V44H108ZM26 45H27V46H26ZM11 57H12V58H11ZM7 60H8V61H7Z"/>
  <path fill="#383838" opacity="0.08" d="M114 35H115V36H114ZM57 37H58V38H57ZM83 38H84V39H83ZM115 42H116V43H115ZM20 52H21V53H20Z"/>
  <path fill="#383838" opacity="0.075" d="M31 6H32V7H31ZM37 24H38V25H37ZM46 26H47V27H46ZM92 35H93V36H92ZM103 38H104V39H103ZM26 39H27V40H26ZM88 39H89V40H88ZM144 39H145V40H144ZM57 42H58V43H57ZM64 42H65V43H64Z"/>
  <path fill="#383838" opacity="0.07" d="M22 10H23V11H22ZM14 14H15V15H14ZM46 15H47V16H46ZM16 16H17V17H16ZM41 25H42V26H41ZM58 28H59V29H58ZM69 40H70V41H69Z"/>
  <path fill="#383838" opacity="0.065" d="M38 6H39V7H38ZM42 26H43V27H42ZM157 28H158V29H157ZM37 30H38V31H37ZM141 31H142V32H141ZM90 32H91V33H90ZM141 33H142V34H141ZM105 34H106V35H105ZM64 36H65V37H64ZM96 37H97V38H96ZM145 38H146V39H145ZM91 39H92V40H91ZM149 41H150V42H149ZM100 43H101V44H100ZM16 52H17V53H16Z"/>
  <path fill="#383838" opacity="0.06" d="M20 12H21V13H20ZM50 12H51V13H50ZM56 12H57V13H56ZM12 17H13V18H12ZM58 22H59V23H58ZM56 25H57V26H56ZM119 34H120V35H119ZM86 35H87V36H86ZM113 36H114V37H113ZM52 37H53V38H52ZM101 37H102V38H101ZM65 42H66V43H65ZM103 42H104V43H103ZM139 42H140V43H139ZM55 43H56V44H55ZM85 43H86V44H85ZM91 43H92V44H91ZM27 44H28V45H27ZM40 46H41V47H40ZM5 60H6V61H5Z"/>
  <path fill="#383838" opacity="0.05" d="M20 7H21V8H20ZM24 9H25V10H24ZM53 9H54V10H53ZM14 18H15V19H14ZM49 18H50V19H49ZM36 25H37V26H36ZM158 25H159V26H158ZM145 26H146V27H145ZM132 31H133V32H132ZM135 31H136V32H135ZM36 32H37V33H36ZM53 32H54V33H53ZM63 32H64V33H63ZM125 35H126V36H125ZM102 36H103V37H102ZM138 36H139V37H138ZM63 37H64V38H63ZM89 38H90V39H89ZM81 42H82V43H81ZM22 50H23V51H22ZM12 54H13V55H12Z"/>
  <path fill="#383838" opacity="0.045" d="M58 8H59V9H58ZM16 11H17V12H16ZM39 20H40V21H39ZM50 20H51V21H50ZM50 26H51V27H50ZM59 28H60V29H59ZM146 30H147V31H146ZM152 30H153V31H152ZM92 31H93V32H92ZM29 34H30V35H29ZM97 34H98V35H97ZM54 35H55V36H54ZM67 36H68V37H67ZM84 36H85V37H84ZM138 37H139V38H138ZM151 41H152V42H151ZM102 42H103V43H102ZM51 43H52V44H51ZM92 43H93V44H92ZM44 46H45V47H44ZM27 47H28V48H27ZM42 47H43V48H42ZM8 57H9V58H8ZM10 61H11V62H10Z"/>
  <path fill="#383838" opacity="0.04" d="M42 7H43V8H42ZM13 13H14V14H13ZM13 15H14V16H13ZM58 19H59V20H58ZM51 21H52V22H51ZM59 22H60V23H59ZM157 25H158V26H157ZM41 26H42V27H41ZM44 26H45V27H44ZM154 29H155V30H154ZM145 30H146V31H145ZM93 31H94V32H93ZM153 31H154V32H153ZM35 33H36V34H35ZM100 33H101V34H100ZM67 34H68V35H67ZM140 34H141V35H140ZM104 35H105V36H104ZM124 35H125V36H124ZM104 36H105V37H104ZM151 36H152V37H151ZM32 37H33V38H32ZM34 37H35V38H34ZM119 40H120V41H119ZM127 40H128V41H127ZM145 40H146V41H145ZM92 42H93V43H92ZM138 42H139V43H138ZM90 43H91V44H90ZM122 43H123V44H122ZM130 43H131V44H130ZM136 43H137V44H136ZM147 43H148V44H147ZM24 48H25V49H24ZM12 56H13V57H12ZM9 63H10V64H9Z"/>
  <path fill="#383838" opacity="0.035" d="M28 4H29V5H28ZM28 7H29V8H28ZM59 11H60V12H59ZM15 12H16V13H15ZM51 15H52V16H51ZM50 16H51V17H50ZM41 18H42V19H41ZM158 21H159V22H158ZM157 24H158V25H157ZM58 25H59V26H58ZM47 27H48V28H47ZM107 28H108V29H107ZM32 30H33V31H32ZM94 31H95V32H94ZM73 35H74V36H73ZM97 35H98V36H97ZM25 37H26V38H25ZM25 38H26V39H25ZM129 38H130V39H129ZM147 38H148V39H147ZM101 39H102V40H101ZM70 40H71V41H70ZM99 40H100V41H99ZM42 41H43V42H42ZM55 42H56V43H55ZM95 42H96V43H95ZM110 42H112V43H110ZM130 42H131V43H130ZM70 43H71V44H70ZM95 43H96V44H95ZM115 43H116V44H115ZM18 58H19V59H18ZM4 66H5V67H4Z"/>
  <path fill="#383838" opacity="0.03" d="M36 6H37V7H36ZM32 7H33V8H32ZM55 8H56V9H55ZM47 9H48V10H47ZM58 10H59V11H58ZM14 13H15V14H14ZM59 13H60V14H59ZM52 14H53V15H52ZM12 15H13V16H12ZM36 21H37V22H36ZM57 21H58V22H57ZM119 24H120V25H119ZM148 24H149V25H148ZM35 26H36V27H35ZM67 28H68V29H67ZM144 28H145V29H144ZM38 29H39V30H38ZM104 29H105V30H104ZM106 30H107V31H106ZM65 31H66V32H65ZM95 31H96V32H95ZM114 31H115V32H114ZM123 31H124V32H123ZM115 32H116V33H115ZM30 33H31V34H30ZM53 33H54V34H53ZM77 33H78V34H77ZM142 33H143V34H142ZM54 34H55V35H54ZM86 34H87V35H86ZM112 34H113V35H112ZM133 34H134V35H133ZM67 35H68V36H67ZM130 36H131V37H130ZM52 38H53V39H52ZM89 40H90V41H89ZM108 40H109V41H108ZM150 40H151V41H150ZM54 42H55V43H54ZM31 43H32V44H31ZM58 43H59V44H58ZM82 43H83V44H82ZM103 43H104V44H103ZM121 43H122V44H121ZM46 45H47V46H46ZM42 46H43V47H42ZM19 48H20V49H19ZM23 55H24V56H23ZM14 60H15V61H14ZM4 61H5V62H4ZM12 62H13V63H12Z"/>
</svg>