<svg xmlns="http://www.w3.org/2000/svg" width="152" height="28" viewBox="0 0 152 28" role="img" aria-label="image2 01 anton-andong" shape-rendering="crispEdges">
  <title>image2 01 anton-andong</title>
  <desc>Pixel-level vector reconstruction extracted from the supplied PNG, with white background removed.</desc>
  <path fill="#393939" d="M72 15H73V16H72Z"/>
  <path fill="#393939" opacity="0.995" d="M133 8H134V9H133ZM135 8H136V9H135ZM135 9H136V10H135ZM138 10H139V11H138ZM106 13H107V14H106ZM77 15H78V16H77ZM130 16H131V17H130ZM72 17H73V18H72Z"/>
  <path fill="#393939" opacity="0.99" d="M110 6H111V7H110ZM67 7H68V8H67ZM133 7H134V8H133ZM69 10H70V11H69ZM69 12H70V13H69ZM79 12H80V13H79ZM115 15H116V16H115ZM82 16H84V17H82ZM114 18H115V19H114ZM133 18H134V19H133ZM112 19H113V20H112ZM47 20H48V21H47ZM49 21H50V22H49Z"/>
  <path fill="#393939" opacity="0.98" d="M127 7H128V8H127ZM103 9H104V10H103ZM126 10H127V11H126ZM48 11H49V12H48ZM141 11H142V12H141ZM17 14H18V15H17ZM127 14H128V15H127ZM32 16H33V17H32ZM58 17H59V18H58ZM71 17H72V18H71ZM11 18H12V19H11ZM70 20H71V21H70ZM126 21H127V22H126Z"/>
  <path fill="#393939" opacity="0.975" d="M131 10H132V11H131ZM71 13H72V14H71ZM110 13H111V14H110ZM141 16H142V17H141ZM59 19H60V20H59ZM33 20H34V21H33ZM76 20H77V21H76ZM6 21H7V22H6ZM142 21H143V22H142ZM86 22H87V23H86Z"/>
  <path fill="#393939" opacity="0.97" d="M112 6H113V7H112ZM35 7H36V8H35ZM69 8H70V9H69ZM10 10H11V11H10ZM71 10H72V11H71ZM72 12H73V13H72ZM81 12H82V13H81ZM82 13H83V14H82ZM77 14H78V15H77ZM126 14H127V15H126ZM60 15H61V16H60ZM114 16H115V17H114ZM32 17H33V18H32ZM36 17H37V18H36ZM47 17H48V18H47ZM61 17H62V18H61ZM59 18H60V19H59ZM71 19H72V20H71ZM35 20H36V21H35ZM64 20H65V21H64ZM68 20H69V21H68ZM142 20H143V21H142ZM47 21H48V22H47ZM68 21H69V22H68ZM37 22H38V23H37ZM65 22H66V23H65Z"/>
  <path fill="#393939" opacity="0.965" d="M89 7H90V8H89ZM136 7H137V8H136ZM42 8H43V9H42ZM51 8H52V9H51ZM14 9H16V10H14ZM60 9H61V10H60ZM14 10H15V11H14ZM68 10H69V11H68ZM139 10H140V11H139ZM69 11H70V12H69ZM72 11H73V12H72ZM89 11H90V12H89ZM133 11H134V12H133ZM135 11H136V12H135ZM11 12H12V13H11ZM89 12H90V13H89ZM104 12H105V13H104ZM108 13H109V14H108ZM115 13H116V14H115ZM133 13H134V14H133ZM136 13H137V14H136ZM32 14H33V15H32ZM35 15H36V16H35ZM33 16H34V17H33ZM133 16H134V17H133ZM8 17H9V18H8ZM10 17H11V18H10ZM37 17H38V18H37ZM113 17H114V18H113ZM131 18H132V19H131ZM62 20H63V21H62ZM19 21H20V22H19ZM50 21H51V22H50ZM87 21H88V22H87ZM104 21H105V22H104ZM107 21H108V22H107ZM118 21H119V22H118ZM135 21H136V22H135ZM35 22H36V23H35Z"/>
  <path fill="#393939" opacity="0.96" d="M63 7H64V8H63ZM66 7H67V8H66ZM45 8H46V9H45ZM60 8H62V9H60ZM118 8H119V9H118ZM10 9H11V10H10ZM64 9H65V10H64ZM67 9H68V10H67ZM104 9H105V10H104ZM29 10H30V11H29ZM47 10H48V11H47ZM128 10H129V11H128ZM132 10H133V11H132ZM49 11H50V12H49ZM78 12H79V13H78ZM87 12H88V13H87ZM109 12H110V13H109ZM115 12H116V13H115ZM117 12H118V13H117ZM142 12H143V13H142ZM29 13H30V14H29ZM58 13H59V14H58ZM102 13H103V14H102ZM142 13H143V14H142ZM71 14H72V15H71ZM142 14H143V15H142ZM30 15H31V16H30ZM89 15H90V16H89ZM106 15H108V16H106ZM142 15H143V16H142ZM86 16H87V17H86ZM89 16H90V17H89ZM115 16H116V17H115ZM132 16H133V17H132ZM135 16H136V17H135ZM142 16H143V17H142ZM50 17H51V18H50ZM59 17H60V18H59ZM76 17H77V18H76ZM86 17H87V18H86ZM89 17H90V18H89ZM114 17H115V18H114ZM130 17H131V18H130ZM132 17H133V18H132ZM136 17H138V18H136ZM86 18H87V19H86ZM89 18H90V19H89ZM8 19H9V20H8ZM10 19H11V20H10ZM60 19H61V20H60ZM86 19H87V20H86ZM89 19H90V20H89ZM133 19H134V20H133ZM69 20H70V21H69ZM77 20H78V21H77ZM107 20H108V21H107ZM109 20H110V21H109ZM7 21H9V22H7ZM38 21H39V22H38ZM48 21H49V22H48ZM67 21H68V22H67ZM69 21H70V22H69ZM119 21H120V22H119ZM66 22H67V23H66Z"/>
  <path fill="#393939" opacity="0.955" d="M111 6H112V7H111ZM11 7H12V8H11ZM24 7H28V8H24ZM36 7H37V8H36ZM44 7H56V8H44ZM88 7H89V8H88ZM103 7H104V8H103ZM12 8H13V9H12ZM44 8H45V9H44ZM52 8H56V9H52ZM44 9H45V10H44ZM50 9H51V10H50ZM68 9H69V10H68ZM11 10H12V11H11ZM80 10H81V11H80ZM89 10H90V11H89ZM110 10H111V11H110ZM14 11H16V12H14ZM30 11H31V12H30ZM70 11H71V12H70ZM80 11H81V12H80ZM88 11H89V12H88ZM142 11H143V12H142ZM14 12H15V13H14ZM80 12H81V13H80ZM88 12H89V13H88ZM103 12H104V13H103ZM11 13H12V14H11ZM14 13H15V14H14ZM17 13H18V14H17ZM36 13H37V14H36ZM50 13H51V14H50ZM69 13H70V14H69ZM80 13H81V14H80ZM89 13H90V14H89ZM111 13H113V14H111ZM114 13H115V14H114ZM116 13H117V14H116ZM119 13H120V14H119ZM70 14H71V15H70ZM82 14H83V15H82ZM89 14H90V15H89ZM17 15H18V16H17ZM69 15H70V16H69ZM75 15H76V16H75ZM87 15H88V16H87ZM135 15H136V16H135ZM35 16H36V17H35ZM59 16H60V17H59ZM87 16H88V17H87ZM7 17H8V18H7ZM48 17H49V18H48ZM69 17H70V18H69ZM87 17H88V18H87ZM107 17H109V18H107ZM8 18H9V19H8ZM87 18H88V19H87ZM109 18H110V19H109ZM111 18H113V19H111ZM62 19H63V20H62ZM87 19H88V20H87ZM8 20H9V21H8ZM16 20H18V21H16ZM63 20H64V21H63ZM129 20H130V21H129ZM34 21H35V22H34ZM62 21H63V22H62ZM86 21H87V22H86ZM105 21H107V22H105ZM5 22H6V23H5ZM8 22H9V23H8ZM17 22H18V23H17ZM24 22H28V23H24ZM62 22H63V23H62ZM64 22H65V23H64ZM76 22H77V23H76ZM87 22H88V23H87ZM133 22H134V23H133Z"/>
  <path fill="#393939" opacity="0.944" d="M133 6H135V7H133ZM10 7H11V8H10ZM37 7H38V8H37ZM107 7H109V8H107ZM132 7H133V8H132ZM24 8H28V9H24ZM36 8H37V9H36ZM43 8H44V9H43ZM89 8H90V9H89ZM36 9H37V10H36ZM62 9H63V10H62ZM80 9H81V10H80ZM13 10H14V11H13ZM36 10H37V11H36ZM48 10H50V11H48ZM61 10H62V11H61ZM130 10H131V11H130ZM137 10H138V11H137ZM36 11H37V12H36ZM47 11H48V12H47ZM59 11H60V12H59ZM78 11H79V12H78ZM87 11H88V12H87ZM110 11H111V12H110ZM134 11H135V12H134ZM24 12H26V13H24ZM61 12H62V13H61ZM75 12H78V13H75ZM111 12H113V13H111ZM116 12H117V13H116ZM10 13H11V14H10ZM24 13H28V14H24ZM31 13H32V14H31ZM37 13H38V14H37ZM47 13H49V14H47ZM76 13H79V14H76ZM87 13H88V14H87ZM127 13H128V14H127ZM135 13H136V14H135ZM30 14H32V15H30ZM87 14H88V15H87ZM8 15H9V16H8ZM33 15H34V16H33ZM83 15H85V16H83ZM88 15H89V16H88ZM31 16H32V17H31ZM70 16H71V17H70ZM75 16H76V17H75ZM88 16H89V17H88ZM139 16H140V17H139ZM24 17H28V18H24ZM33 17H34V18H33ZM38 17H39V18H38ZM49 17H50V18H49ZM88 17H89V18H88ZM135 17H136V18H135ZM9 18H10V19H9ZM24 18H28V19H24ZM32 18H33V19H32ZM34 18H35V19H34ZM58 18H59V19H58ZM76 18H77V19H76ZM88 18H89V19H88ZM137 18H138V19H137ZM14 19H15V20H14ZM35 19H36V20H35ZM88 19H89V20H88ZM135 19H136V20H135ZM6 20H7V21H6ZM38 20H39V21H38ZM50 20H51V21H50ZM78 20H79V21H78ZM87 20H88V21H87ZM118 20H119V21H118ZM128 20H129V21H128ZM133 20H134V21H133ZM17 21H18V22H17ZM89 21H90V22H89ZM18 22H20V23H18ZM36 22H37V23H36ZM50 22H51V23H50ZM63 22H64V23H63Z"/>
  <path fill="#393939" opacity="0.939" d="M42 7H43V8H42ZM87 7H88V8H87ZM104 7H107V8H104ZM109 7H110V8H109ZM134 7H135V8H134ZM13 8H14V9H13ZM15 8H16V9H15ZM37 8H38V9H37ZM76 8H80V9H76ZM103 8H104V9H103ZM13 9H14V10H13ZM37 9H38V10H37ZM59 9H60V10H59ZM61 9H62V10H61ZM76 9H80V10H76ZM89 9H90V10H89ZM118 9H119V10H118ZM37 10H38V11H37ZM76 10H80V11H76ZM88 10H89V11H88ZM129 10H130V11H129ZM133 10H135V11H133ZM24 11H26V12H24ZM29 11H30V12H29ZM37 11H38V12H37ZM76 11H78V12H76ZM79 11H80V12H79ZM26 12H27V13H26ZM35 12H36V13H35ZM127 12H128V13H127ZM135 12H136V13H135ZM30 13H31V14H30ZM49 13H50V14H49ZM59 13H60V14H59ZM75 13H76V14H75ZM88 13H89V14H88ZM103 13H105V14H103ZM120 13H121V14H120ZM137 13H138V14H137ZM8 14H9V15H8ZM10 14H11V15H10ZM60 14H61V15H60ZM69 14H70V15H69ZM75 14H77V15H75ZM88 14H89V15H88ZM15 15H16V16H15ZM36 15H37V16H36ZM50 15H51V16H50ZM61 15H62V16H61ZM127 15H128V16H127ZM10 16H11V17H10ZM17 16H19V17H17ZM24 16H28V17H24ZM36 16H37V17H36ZM47 16H48V17H47ZM60 16H61V17H60ZM76 16H77V17H76ZM107 16H108V17H107ZM127 16H129V17H127ZM136 16H137V17H136ZM17 17H19V18H17ZM35 17H36V18H35ZM77 17H78V18H77ZM109 17H110V18H109ZM12 18H13V19H12ZM18 18H20V19H18ZM36 18H37V19H36ZM47 18H48V19H47ZM69 18H71V19H69ZM13 19H14V20H13ZM18 19H20V20H18ZM75 19H77V20H75ZM128 19H129V20H128ZM19 20H20V21H19ZM34 20H35V21H34ZM36 20H37V21H36ZM48 20H50V21H48ZM89 20H90V21H89ZM5 21H6V22H5ZM35 21H36V22H35ZM60 21H61V22H60ZM88 21H89V22H88ZM125 21H126V22H125ZM143 21H144V22H143ZM7 22H8V23H7ZM48 22H50V23H48ZM89 22H90V23H89ZM103 22H104V23H103Z"/>
  <path fill="#393939" opacity="0.934" d="M135 6H136V7H135ZM62 7H63V8H62ZM68 7H69V8H68ZM125 7H126V8H125ZM128 7H132V8H128ZM137 7H138V8H137ZM140 7H144V8H140ZM10 8H12V9H10ZM14 8H15V9H14ZM48 8H50V9H48ZM62 8H63V9H62ZM80 8H81V9H80ZM88 8H89V9H88ZM117 8H118V9H117ZM24 9H28V10H24ZM46 9H47V10H46ZM49 9H50V10H49ZM9 10H10V11H9ZM28 10H29V11H28ZM60 10H61V11H60ZM127 10H128V11H127ZM140 10H141V11H140ZM9 11H10V12H9ZM11 11H12V12H11ZM26 11H28V12H26ZM58 11H59V12H58ZM81 11H82V12H81ZM109 11H110V12H109ZM10 12H11V13H10ZM27 12H28V13H27ZM30 12H31V13H30ZM58 12H59V13H58ZM60 12H61V13H60ZM82 12H83V13H82ZM107 12H109V13H107ZM110 12H111V13H110ZM134 12H135V13H134ZM35 13H36V14H35ZM70 13H71V14H70ZM105 13H106V14H105ZM107 13H108V14H107ZM109 13H110V14H109ZM113 13H114V14H113ZM126 13H127V14H126ZM138 13H139V14H138ZM36 14H37V15H36ZM50 14H51V15H50ZM83 14H84V15H83ZM108 14H109V15H108ZM128 14H129V15H128ZM16 15H17V16H16ZM24 15H28V16H24ZM31 15H32V16H31ZM37 15H38V16H37ZM47 15H49V16H47ZM59 15H60V16H59ZM70 15H71V16H70ZM133 15H134V16H133ZM16 16H17V17H16ZM37 16H38V17H37ZM69 16H70V17H69ZM85 16H86V17H85ZM131 16H132V17H131ZM16 17H17V18H16ZM70 17H71V18H70ZM85 17H86V18H85ZM115 17H116V18H115ZM10 18H11V19H10ZM13 18H14V19H13ZM17 18H18V19H17ZM37 18H38V19H37ZM83 18H84V19H83ZM85 18H86V19H85ZM134 18H135V19H134ZM11 19H12V20H11ZM17 19H18V20H17ZM34 19H35V20H34ZM36 19H37V20H36ZM47 19H48V20H47ZM69 19H70V20H69ZM85 19H86V20H85ZM114 19H115V20H114ZM114 20H115V21H114ZM139 20H141V21H139ZM24 21H28V22H24ZM64 21H65V22H64ZM75 21H77V22H75ZM85 21H86V22H85ZM141 21H142V22H141ZM34 22H35V23H34ZM68 22H69V23H68ZM77 22H78V23H77Z"/>
  <path fill="#393939" opacity="0.929" d="M12 7H16V8H12ZM38 7H39V8H38ZM76 7H80V8H76ZM135 7H136V8H135ZM50 8H51V9H50ZM63 8H64V9H63ZM65 8H67V9H65ZM11 9H12V10H11ZM28 9H29V10H28ZM42 9H44V10H42ZM45 9H46V10H45ZM52 9H56V10H52ZM75 9H76V10H75ZM88 9H89V10H88ZM133 9H134V10H133ZM50 10H51V11H50ZM87 10H88V11H87ZM10 11H11V12H10ZM60 11H61V12H60ZM128 11H129V12H128ZM140 11H141V12H140ZM31 12H32V13H31ZM71 12H72V13H71ZM114 12H115V13H114ZM118 12H121V13H118ZM126 12H127V13H126ZM38 13H39V14H38ZM60 13H61V14H60ZM79 13H80V14H79ZM83 13H84V14H83ZM139 13H140V14H139ZM15 14H17V15H15ZM24 14H28V15H24ZM37 14H38V15H37ZM47 14H49V15H47ZM59 14H60V15H59ZM72 14H73V15H72ZM115 14H116V15H115ZM117 14H118V15H117ZM133 14H135V15H133ZM18 15H19V16H18ZM32 15H33V16H32ZM49 15H50V16H49ZM76 15H77V16H76ZM126 15H127V16H126ZM7 16H8V17H7ZM50 16H51V17H50ZM58 16H59V17H58ZM61 16H62V17H61ZM71 16H72V17H71ZM77 16H78V17H77ZM84 16H85V17H84ZM138 16H139V17H138ZM34 17H35V18H34ZM78 17H79V18H78ZM84 17H85V18H84ZM110 17H111V18H110ZM134 17H135V18H134ZM138 17H139V18H138ZM14 18H17V19H14ZM50 18H51V19H50ZM77 18H78V19H77ZM84 18H85V19H84ZM110 18H111V19H110ZM132 18H133V19H132ZM6 19H7V20H6ZM24 19H28V20H24ZM37 19H38V20H37ZM84 19H85V20H84ZM111 19H112V20H111ZM18 20H19V21H18ZM24 20H28V21H24ZM67 20H68V21H67ZM111 20H112V21H111ZM115 20H116V21H115ZM37 21H38V22H37ZM61 21H62V22H61ZM63 21H64V22H63ZM66 21H67V22H66ZM70 21H71V22H70ZM117 21H118V22H117ZM6 22H7V23H6ZM125 22H126V23H125ZM134 22H135V23H134Z"/>
  <path fill="#393939" opacity="0.924" d="M61 7H62V8H61ZM65 7H66V8H65ZM112 7H114V8H112ZM28 8H29V9H28ZM38 8H39V9H38ZM64 8H65V9H64ZM68 8H69V9H68ZM70 8H71V9H70ZM87 8H88V9H87ZM105 8H106V9H105ZM119 8H120V9H119ZM134 8H135V9H134ZM9 9H10V10H9ZM38 9H39V10H38ZM65 9H67V10H65ZM69 9H70V10H69ZM71 9H72V10H71ZM119 9H120V10H119ZM24 10H28V11H24ZM38 10H39V11H38ZM70 10H71V11H70ZM16 11H17V12H16ZM28 11H29V12H28ZM38 11H39V12H38ZM68 11H69V12H68ZM86 11H87V12H86ZM9 12H10V13H9ZM28 12H29V13H28ZM86 12H87V13H86ZM133 12H134V13H133ZM141 12H142V13H141ZM15 13H17V14H15ZM28 13H29V14H28ZM72 13H73V14H72ZM129 13H130V14H129ZM132 13H133V14H132ZM141 13H142V14H141ZM49 14H50V15H49ZM58 14H59V15H58ZM78 14H79V15H78ZM81 14H82V15H81ZM106 14H108V15H106ZM141 14H142V15H141ZM78 15H79V16H78ZM86 15H87V16H86ZM128 15H129V16H128ZM134 15H135V16H134ZM141 15H142V16H141ZM9 16H10V17H9ZM15 16H16V17H15ZM48 16H49V17H48ZM78 16H79V17H78ZM105 16H106V17H105ZM134 16H135V17H134ZM137 16H138V17H137ZM140 16H141V17H140ZM6 18H7V19H6ZM33 18H34V19H33ZM48 18H49V19H48ZM61 18H62V19H61ZM71 18H72V19H71ZM135 18H137V19H135ZM9 19H10V20H9ZM50 19H51V20H50ZM77 19H78V20H77ZM129 19H130V20H129ZM75 20H76V21H75ZM86 20H87V21H86ZM117 20H118V21H117ZM135 20H136V21H135ZM141 20H142V21H141ZM109 21H110V22H109ZM67 22H68V23H67ZM75 22H76V23H75ZM78 22H79V23H78ZM88 22H89V23H88ZM104 22H105V23H104ZM135 22H136V23H135Z"/>
  <path fill="#393939" opacity="0.919" d="M43 7H44V8H43ZM110 7H112V8H110ZM117 7H120V8H117ZM35 8H36V9H35ZM67 8H68V9H67ZM75 8H76V9H75ZM86 8H87V9H86ZM29 9H30V10H29ZM35 9H36V10H35ZM47 9H48V10H47ZM51 9H52V10H51ZM87 9H88V10H87ZM105 9H106V10H105ZM15 10H16V11H15ZM35 10H36V11H35ZM59 10H60V11H59ZM62 10H63V11H62ZM75 10H76V11H75ZM86 10H87V11H86ZM141 10H142V11H141ZM35 11H36V12H35ZM71 11H72V12H71ZM126 11H127V12H126ZM15 12H16V13H15ZM29 12H30V13H29ZM36 12H37V13H36ZM50 12H51V13H50ZM140 12H141V13H140ZM8 13H9V14H8ZM61 13H62V14H61ZM118 13H119V14H118ZM128 13H129V14H128ZM130 13H132V14H130ZM140 13H141V14H140ZM9 14H10V15H9ZM35 14H36V15H35ZM61 14H62V15H61ZM140 14H141V15H140ZM38 15H39V16H38ZM58 15H59V16H58ZM81 15H82V16H81ZM140 15H141V16H140ZM38 16H39V17H38ZM49 16H50V17H49ZM72 16H73V17H72ZM106 16H107V17H106ZM9 17H10V18H9ZM83 17H84V18H83ZM38 18H39V19H38ZM49 18H50V19H49ZM78 18H79V19H78ZM16 19H17V20H16ZM48 19H49V20H48ZM61 19H62V20H61ZM70 19H71V20H70ZM113 19H114V20H113ZM115 19H116V20H115ZM7 20H8V21H7ZM60 20H62V21H60ZM84 20H86V21H84ZM88 20H89V21H88ZM20 21H21V22H20ZM65 21H66V22H65ZM77 21H78V22H77ZM47 22H48V23H47Z"/>
  <path fill="#393939" opacity="0.909" d="M116 7H117V8H116ZM126 7H127V8H126ZM139 7H140V8H139ZM46 8H47V9H46ZM48 9H49V10H48ZM86 9H87V10H86ZM134 9H135V10H134ZM81 10H82V11H81ZM127 11H128V12H127ZM16 12H17V13H16ZM37 12H38V13H37ZM47 12H49V13H47ZM106 12H107V13H106ZM81 13H82V14H81ZM117 13H118V14H117ZM38 14H39V15H38ZM10 15H11V16H10ZM82 15H83V16H82ZM117 15H118V16H117ZM129 16H130V17H129ZM13 17H15V18H13ZM75 17H76V18H75ZM106 17H107V18H106ZM35 18H36V19H35ZM130 18H131V19H130ZM33 19H34V20H33ZM38 19H39V20H38ZM49 19H50V20H49ZM78 19H79V20H78ZM110 19H111V20H110ZM134 19H135V20H134ZM108 20H109V21H108ZM127 20H128V21H127ZM103 21H104V22H103ZM108 21H109V22H108ZM133 21H135V22H133ZM38 22H39V23H38Z"/>
  <path fill="#393939" opacity="0.904" d="M115 7H116V8H115ZM12 9H13V10H12ZM117 9H118V10H117ZM58 10H59V11H58ZM135 10H136V11H135ZM142 10H143V11H142ZM17 12H18V13H17ZM49 12H50V13H49ZM105 12H106V13H105ZM29 14H30V15H29ZM135 14H136V15H135ZM7 15H8V16H7ZM9 15H10V16H9ZM11 17H12V18H11ZM15 17H16V18H15ZM131 17H132V18H131ZM72 18H73V19H72ZM15 19H16V20H15ZM59 20H60V21H59ZM65 20H66V21H65ZM110 20H111V21H110ZM134 20H135V21H134ZM78 21H79V22H78ZM127 21H128V22H127Z"/>
  <path fill="#393939" opacity="0.899" d="M114 7H115V8H114ZM47 8H48V9H47ZM104 8H105V9H104ZM63 9H64V10H63ZM16 10H17V11H16ZM111 10H112V11H111ZM50 11H51V12H50ZM61 11H62V12H61ZM8 12H9V13H8ZM59 12H60V13H59ZM70 12H71V13H70ZM102 12H103V13H102ZM128 12H129V13H128ZM9 13H10V14H9ZM134 13H135V14H134ZM86 14H87V15H86ZM116 15H117V16H116ZM8 16H9V17H8ZM12 17H13V18H12ZM60 17H61V18H60ZM129 17H130V18H129ZM7 18H8V19H7ZM60 18H61V19H60ZM75 18H76V19H75ZM113 18H114V19H113ZM7 19H8V20H7ZM109 19H110V20H109ZM130 19H131V20H130ZM138 19H139V20H138ZM140 19H141V20H140ZM37 20H38V21H37Z"/>
  <path fill="#393939" opacity="0.894" d="M64 7H65V8H64ZM75 11H76V12H75ZM38 12H39V13H38ZM113 12H114V13H113ZM57 15H58V16H57ZM108 15H109V16H108ZM34 16H35V17H34ZM126 16H127V17H126ZM68 18H69V19H68ZM20 20H21V21H20ZM66 20H67V21H66ZM71 20H72V21H71ZM116 20H117V21H116ZM20 22H21V23H20ZM105 22H106V23H105Z"/>
  <path fill="#393939" opacity="0.889" d="M75 7H76V8H75ZM70 9H71V10H70ZM136 10H137V11H136ZM111 11H112V12H111ZM116 14H117V15H116ZM71 15H72V16H71ZM30 16H31V17H30ZM116 16H117V17H116ZM31 17H32V18H31ZM133 17H134V18H133ZM139 17H140V18H139ZM12 19H13V20H12ZM116 19H117V20H116ZM9 20H10V21H9ZM36 21H37V22H36ZM143 22H144V23H143Z"/>
  <path fill="#393939" opacity="0.884" d="M28 7H29V8H28ZM86 13H87V14H86ZM32 19H33V20H32Z"/>
  <path fill="#393939" opacity="0.874" d="M138 7H139V8H138ZM12 10H13V11H12ZM109 10H110V11H109ZM138 18H139V19H138ZM126 20H127V21H126ZM18 21H19V22H18Z"/>
  <path fill="#393939" opacity="0.869" d="M109 6H110V7H109ZM30 10H31V11H30ZM84 14H85V15H84ZM68 19H69V20H68Z"/>
  <path fill="#393939" opacity="0.864" d="M16 9H17V10H16ZM41 9H42V10H41ZM82 11H83V12H82ZM67 19H68V20H67ZM139 19H140V20H139ZM16 21H17V22H16Z"/>
  <path fill="#393939" opacity="0.859" d="M86 7H87V8H86ZM115 18H116V19H115ZM5 20H6V21H5ZM33 21H34V22H33Z"/>
  <path fill="#393939" opacity="0.848" d="M132 6H133V7H132ZM90 7H91V8H90ZM41 8H42V9H41ZM90 11H91V12H90ZM90 12H91V13H90ZM57 14H58V15H57ZM57 16H58V17H57ZM126 17H127V18H126ZM141 17H142V18H141ZM58 19H59V20H58ZM128 21H129V22H128Z"/>
  <path fill="#393939" opacity="0.843" d="M120 9H121V10H120ZM112 10H113V11H112ZM121 12H122V13H121ZM90 15H91V16H90ZM90 16H91V17H90ZM108 16H109V17H108ZM90 17H91V18H90ZM140 17H141V18H140ZM90 18H91V19H90ZM90 19H91V20H90Z"/>
  <path fill="#393939" opacity="0.833" d="M81 9H82V10H81ZM90 10H91V11H90ZM90 13H91V14H90ZM79 14H80V15H79ZM90 14H91V15H90ZM85 15H86V16H85ZM82 17H83V18H82ZM128 17H129V18H128ZM142 17H143V18H142ZM90 20H91V21H90ZM90 22H91V23H90Z"/>
  <path fill="#393939" opacity="0.828" d="M90 8H91V9H90ZM14 14H15V15H14ZM131 19H132V20H131ZM61 22H62V23H61Z"/>
  <path fill="#393939" opacity="0.823" d="M69 7H70V8H69ZM90 9H91V10H90ZM13 11H14V12H13ZM106 20H107V21H106Z"/>
  <path fill="#393939" opacity="0.818" d="M90 21H91V22H90Z"/>
  <path fill="#393939" opacity="0.813" d="M127 17H128V18H127ZM120 21H121V22H120ZM120 22H121V23H120Z"/>
  <path fill="#393939" opacity="0.808" d="M120 7H121V8H120ZM57 13H58V14H57ZM121 13H122V14H121ZM137 19H138V20H137Z"/>
  <path fill="#393939" opacity="0.798" d="M32 13H33V14H32ZM31 18H32V19H31Z"/>
  <path fill="#393939" opacity="0.793" d="M41 7H42V8H41ZM29 15H30V16H29ZM79 20H80V21H79ZM140 21H141V22H140ZM119 22H120V23H119Z"/>
  <path fill="#393939" opacity="0.788" d="M120 8H121V9H120ZM109 14H110V15H109ZM108 18H109V19H108Z"/>
  <path fill="#393939" opacity="0.783" d="M113 6H114V7H113Z"/>
  <path fill="#393939" opacity="0.778" d="M111 5H112V6H111ZM37 6H38V7H37ZM136 6H137V7H136ZM11 14H12V15H11ZM79 17H80V18H79Z"/>
  <path fill="#393939" opacity="0.773" d="M67 10H68V11H67ZM105 15H106V16H105ZM63 19H64V20H63ZM79 22H80V23H79Z"/>
  <path fill="#393939" opacity="0.763" d="M135 5H136V6H135ZM38 6H39V7H38ZM118 10H119V11H118ZM79 15H80V16H79ZM79 16H80V17H79ZM79 18H80V19H79ZM112 20H113V21H112Z"/>
  <path fill="#393939" opacity="0.758" d="M112 5H113V6H112ZM43 6H44V7H43ZM64 6H65V7H64ZM87 6H88V7H87ZM83 12H84V13H83ZM18 14H19V15H18ZM6 17H7V18H6ZM111 17H112V18H111ZM62 18H63V19H62ZM139 18H140V19H139ZM79 19H80V20H79Z"/>
  <path fill="#393939" opacity="0.753" d="M133 5H134V6H133ZM42 6H43V7H42ZM79 21H80V22H79Z"/>
  <path fill="#393939" opacity="0.747" d="M134 5H135V6H134ZM44 6H56V7H44ZM75 6H76V7H75ZM72 10H73V11H72ZM34 15H35V16H34ZM119 20H120V21H119ZM116 21H117V22H116Z"/>
  <path fill="#393939" opacity="0.742" d="M24 6H28V7H24ZM76 6H80V7H76ZM114 6H115V7H114ZM127 6H128V7H127ZM137 6H138V7H137ZM56 7H57V8H56ZM56 8H57V9H56ZM80 14H81V15H80ZM143 20H144V21H143Z"/>
  <path fill="#393939" opacity="0.737" d="M11 6H12V7H11ZM89 6H90V7H89ZM104 6H108V7H104ZM116 6H120V7H116ZM117 10H118V11H117Z"/>
  <path fill="#393939" opacity="0.727" d="M110 5H111V6H110ZM139 6H140V7H139ZM105 10H106V11H105ZM8 11H9V12H8ZM57 12H58V13H57ZM132 14H133V15H132ZM19 17H20V18H19ZM106 22H107V23H106Z"/>
  <path fill="#393939" opacity="0.722" d="M12 6H16V7H12ZM132 11H133V12H132ZM139 11H140V12H139ZM105 17H106V18H105Z"/>
  <path fill="#393939" opacity="0.717" d="M35 6H37V7H35ZM65 6H66V7H65ZM86 6H87V7H86ZM115 6H116V7H115ZM59 8H60V9H59ZM136 8H137V9H136ZM51 10H52V11H51ZM104 10H105V11H104ZM136 14H137V15H136ZM57 17H58V18H57ZM129 18H130V19H129ZM72 19H73V20H72ZM125 20H126V21H125Z"/>
  <path fill="#393939" opacity="0.712" d="M88 6H89V7H88ZM103 6H104V7H103ZM128 6H132V7H128ZM56 9H57V10H56ZM73 14H74V15H73ZM129 14H130V15H129ZM69 22H70V23H69Z"/>
  <path fill="#393939" opacity="0.707" d="M140 6H144V7H140ZM132 8H133V9H132ZM136 9H137V10H136Z"/>
  <path fill="#393939" opacity="0.702" d="M108 6H109V7H108ZM125 6H126V7H125ZM138 6H139V7H138ZM144 7H145V8H144ZM103 10H104V11H103ZM136 11H137V12H136ZM14 20H16V21H14Z"/>
  <path fill="#393939" opacity="0.692" d="M41 6H42V7H41ZM126 6H127V7H126ZM46 10H47V11H46ZM120 10H121V11H120ZM129 11H130V12H129ZM73 15H74V16H73ZM11 20H12V21H11ZM13 20H14V21H13Z"/>
  <path fill="#393939" opacity="0.687" d="M10 6H11V7H10ZM9 21H10V22H9Z"/>
  <path fill="#393939" opacity="0.682" d="M119 10H120V11H119ZM108 11H109V12H108ZM7 14H8V15H7ZM139 14H140V15H139ZM68 17H69V18H68ZM12 20H13V21H12Z"/>
  <path fill="#393939" opacity="0.677" d="M90 6H91V7H90ZM110 21H111V22H110Z"/>
  <path fill="#393939" opacity="0.672" d="M102 9H103V10H102ZM117 19H118V20H117ZM141 19H142V20H141ZM85 22H86V23H85ZM126 22H127V23H126Z"/>
  <path fill="#393939" opacity="0.667" d="M14 15H15V16H14ZM144 21H145V22H144Z"/>
  <path fill="#393939" opacity="0.657" d="M66 6H67V7H66ZM9 8H10V9H9ZM29 8H30V9H29ZM132 9H133V10H132ZM105 20H106V21H105ZM102 22H103V23H102ZM124 22H125V23H124Z"/>
  <path fill="#393939" opacity="0.652" d="M124 7H125V8H124ZM106 8H107V9H106ZM63 10H64V11H63ZM62 11H63V12H62ZM112 17H113V18H112ZM102 21H103V22H102Z"/>
  <path fill="#393939" opacity="0.646" d="M102 8H103V9H102ZM17 11H18V12H17ZM113 20H114V21H113ZM130 20H131V21H130ZM144 22H145V23H144Z"/>
  <path fill="#393939" opacity="0.641" d="M102 7H103V8H102ZM12 11H13V12H12ZM116 17H117V18H116ZM10 20H11V21H10Z"/>
  <path fill="#393939" opacity="0.636" d="M80 7H81V8H80ZM136 19H137V20H136ZM124 21H125V22H124Z"/>
  <path fill="#393939" opacity="0.631" d="M28 14H29V15H28ZM34 14H35V15H34Z"/>
  <path fill="#393939" opacity="0.621" d="M131 11H132V12H131ZM138 20H139V21H138ZM4 22H5V23H4Z"/>
  <path fill="#393939" opacity="0.616" d="M63 6H64V7H63ZM67 6H68V7H67ZM101 13H102V14H101ZM23 16H24V17H23ZM113 16H114V17H113Z"/>
  <path fill="#393939" opacity="0.611" d="M34 7H35V8H34ZM127 19H128V20H127ZM142 22H143V23H142ZM75 23H76V24H75Z"/>
  <path fill="#393939" opacity="0.606" d="M120 6H121V7H120ZM138 11H139V12H138Z"/>
  <path fill="#393939" opacity="0.601" d="M56 6H57V7H56ZM16 8H17V9H16ZM116 8H117V9H116ZM131 8H132V9H131ZM104 16H105V17H104ZM83 19H84V20H83ZM18 23H19V24H18Z"/>
  <path fill="#393939" opacity="0.596" d="M34 8H35V9H34ZM34 9H35V10H34ZM34 10H35V11H34ZM34 11H35V12H34ZM23 13H24V14H23ZM46 17H47V18H46ZM23 19H24V20H23ZM7 23H8V24H7ZM76 23H77V24H76Z"/>
  <path fill="#393939" opacity="0.586" d="M139 8H140V9H139ZM137 11H138V12H137ZM23 12H24V13H23Z"/>
  <path fill="#393939" opacity="0.581" d="M31 11H32V12H31ZM46 13H47V14H46ZM73 13H74V14H73ZM23 17H24V18H23ZM108 19H109V20H108ZM37 23H39V24H37ZM48 23H49V24H48ZM50 23H51V24H50ZM86 23H87V24H86ZM89 23H90V24H89Z"/>
  <path fill="#393939" opacity="0.576" d="M23 8H24V9H23ZM137 8H138V9H137ZM137 14H138V15H137ZM23 18H24V19H23ZM23 22H24V23H23ZM5 23H6V24H5ZM17 23H18V24H17ZM36 23H37V24H36ZM77 23H78V24H77Z"/>
  <path fill="#393939" opacity="0.571" d="M23 11H24V12H23ZM68 12H69V13H68ZM34 13H35V14H34ZM23 14H24V15H23ZM138 14H139V15H138ZM23 15H24V16H23ZM46 15H47V16H46ZM23 20H24V21H23ZM16 22H17V23H16ZM46 22H47V23H46ZM6 23H7V24H6ZM8 23H9V24H8ZM19 23H20V24H19Z"/>
  <path fill="#393939" opacity="0.566" d="M112 8H113V9H112ZM143 8H144V9H143ZM23 9H24V10H23ZM137 9H138V10H137ZM130 11H131V12H130ZM34 12H35V13H34ZM46 14H47V15H46ZM46 16H47V17H46ZM46 18H47V19H46ZM23 21H24V22H23ZM46 21H47V22H46ZM65 23H66V24H65ZM78 23H79V24H78ZM87 23H88V24H87Z"/>
  <path fill="#393939" opacity="0.561" d="M111 8H112V9H111ZM125 8H126V9H125ZM57 11H58V12H57ZM84 13H85V14H84ZM33 14H34V15H33ZM131 14H132V15H131ZM46 19H47V20H46ZM46 20H47V21H46ZM104 20H105V21H104ZM59 21H60V22H59ZM24 23H28V24H24ZM35 23H36V24H35ZM64 23H65V24H64Z"/>
  <path fill="#393939" opacity="0.551" d="M107 8H108V9H107ZM109 8H110V9H109ZM23 10H24V11H23ZM101 12H102V13H101ZM118 14H119V15H118ZM130 14H131V15H130ZM20 23H22V24H20Z"/>
  <path fill="#393939" opacity="0.545" d="M114 8H115V9H114ZM130 8H131V9H130ZM46 11H47V12H46ZM46 12H47V13H46ZM11 15H12V16H11ZM21 22H22V23H21ZM118 22H119V23H118ZM47 23H48V24H47Z"/>
  <path fill="#393939" opacity="0.54" d="M141 8H142V9H141ZM127 9H128V10H127ZM140 9H141V10H140ZM82 10H83V11H82ZM81 16H82V17H81ZM30 17H31V18H30Z"/>
  <path fill="#393939" opacity="0.535" d="M23 7H24V8H23ZM128 8H129V9H128ZM139 9H140V10H139Z"/>
  <path fill="#393939" opacity="0.53" d="M126 8H128V9H126ZM126 9H127V10H126ZM129 9H130V10H129ZM90 23H91V24H90Z"/>
  <path fill="#393939" opacity="0.525" d="M144 6H145V7H144ZM60 7H61V8H60ZM108 8H109V9H108ZM110 8H111V9H110ZM113 8H114V9H113ZM115 8H116V9H115ZM129 8H130V9H129ZM138 8H139V9H138ZM130 9H131V10H130ZM5 19H6V20H5ZM107 22H108V23H107ZM49 23H50V24H49Z"/>
  <path fill="#393939" opacity="0.515" d="M113 5H114V6H113ZM71 8H72V9H71ZM140 8H141V9H140ZM142 8H143V9H142ZM129 15H130V16H129ZM6 16H7V17H6ZM19 16H20V17H19ZM73 16H74V17H73ZM88 23H89V24H88Z"/>
  <path fill="#393939" opacity="0.51" d="M58 9H59V10H58ZM128 9H129V10H128ZM51 11H52V12H51ZM114 15H115V16H114ZM136 15H137V16H136ZM51 17H52V18H51ZM32 20H33V21H32Z"/>
  <path fill="#393939" opacity="0.505" d="M141 9H142V10H141ZM51 13H52V14H51ZM107 18H108V19H107Z"/>
  <path fill="#393939" opacity="0.5" d="M131 9H132V10H131ZM138 9H139V10H138ZM142 9H143V10H142ZM132 19H133V20H132Z"/>
  <path fill="#393939" opacity="0.495" d="M124 6H125V7H124ZM112 11H113V12H112ZM51 15H52V16H51ZM14 16H15V17H14ZM66 23H67V24H66Z"/>
  <path fill="#393939" opacity="0.49" d="M51 14H52V15H51ZM66 19H67V20H66ZM103 20H104V21H103ZM9 22H10V23H9Z"/>
  <path fill="#393939" opacity="0.48" d="M102 10H103V11H102ZM136 12H137V13H136ZM132 15H133V16H132ZM51 16H52V17H51ZM51 18H52V19H51ZM51 20H52V21H51Z"/>
  <path fill="#393939" opacity="0.475" d="M102 6H103V7H102ZM105 14H106V15H105ZM51 19H52V20H51ZM51 22H52V23H51Z"/>
  <path fill="#393939" opacity="0.47" d="M51 12H52V13H51ZM139 15H140V16H139Z"/>
  <path fill="#393939" opacity="0.465" d="M34 6H35V7H34Z"/>
  <path fill="#393939" opacity="0.46" d="M109 16H110V17H109ZM117 16H118V17H117Z"/>
  <path fill="#393939" opacity="0.455" d="M110 9H111V10H110ZM64 19H65V20H64Z"/>
  <path fill="#393939" opacity="0.444" d="M13 12H14V13H13ZM129 12H130V13H129ZM139 12H140V13H139ZM68 13H69V14H68ZM136 20H137V21H136ZM34 23H35V24H34Z"/>
  <path fill="#393939" opacity="0.439" d="M20 19H21V20H20ZM136 22H137V23H136Z"/>
  <path fill="#393939" opacity="0.434" d="M62 6H63V7H62ZM68 16H69V17H68ZM104 17H105V18H104ZM51 21H52V22H51Z"/>
  <path fill="#393939" opacity="0.429" d="M43 10H44V11H43Z"/>
  <path fill="#393939" opacity="0.424" d="M23 6H24V7H23ZM144 8H145V9H144ZM7 13H8V14H7ZM120 20H121V21H120ZM135 23H136V24H135Z"/>
  <path fill="#393939" opacity="0.419" d="M57 18H58V19H57ZM4 23H5V24H4Z"/>
  <path fill="#393939" opacity="0.414" d="M44 10H45V11H44ZM18 13H19V14H18ZM114 14H115V15H114ZM58 20H59V21H58ZM79 23H80V24H79Z"/>
  <path fill="#393939" opacity="0.404" d="M12 12H13V13H12ZM63 23H64V24H63ZM133 23H134V24H133Z"/>
  <path fill="#393939" opacity="0.399" d="M52 10H56V11H52ZM132 12H133V13H132ZM136 21H137V22H136Z"/>
  <path fill="#393939" opacity="0.394" d="M109 5H110V6H109ZM70 7H71V8H70ZM67 23H68V24H67ZM134 23H135V24H134Z"/>
  <path fill="#393939" opacity="0.389" d="M124 20H125V21H124Z"/>
  <path fill="#393939" opacity="0.384" d="M41 10H43V11H41Z"/>
  <path fill="#393939" opacity="0.369" d="M68 15H69V16H68ZM144 20H145V21H144Z"/>
  <path fill="#393939" opacity="0.364" d="M136 5H137V6H136ZM73 12H74V13H73ZM68 14H69V15H68Z"/>
  <path fill="#393939" opacity="0.359" d="M124 8H125V9H124ZM8 10H9V11H8Z"/>
  <path fill="#393939" opacity="0.354" d="M45 10H46V11H45Z"/>
  <path fill="#393939" opacity="0.348" d="M72 9H73V10H72ZM115 21H116V22H115Z"/>
  <path fill="#393939" opacity="0.343" d="M46 23H47V24H46Z"/>
  <path fill="#393939" opacity="0.333" d="M81 8H82V9H81ZM119 14H120V15H119ZM4 21H5V22H4ZM108 22H109V23H108Z"/>
  <path fill="#393939" opacity="0.328" d="M104 14H105V15H104ZM82 18H83V19H82Z"/>
  <path fill="#393939" opacity="0.323" d="M17 10H18V11H17ZM11 16H12V17H11ZM62 17H63V18H62ZM21 21H22V22H21ZM23 23H24V24H23Z"/>
  <path fill="#393939" opacity="0.318" d="M68 6H69V7H68ZM32 12H33V13H32ZM65 19H66V20H65ZM107 19H108V20H107ZM60 22H61V23H60Z"/>
  <path fill="#393939" opacity="0.313" d="M30 9H31V10H30ZM85 14H86V15H85ZM111 14H112V15H111ZM73 17H74V18H73ZM141 22H142V23H141Z"/>
  <path fill="#393939" opacity="0.308" d="M121 14H122V15H121Z"/>
  <path fill="#393939" opacity="0.298" d="M119 11H120V12H119ZM110 14H111V15H110ZM71 21H72V22H71ZM127 22H128V23H127Z"/>
  <path fill="#393939" opacity="0.293" d="M28 6H29V7H28ZM103 14H104V15H103ZM113 14H114V15H113ZM80 15H81V16H80ZM118 19H119V20H118ZM132 20H133V21H132Z"/>
  <path fill="#393939" opacity="0.288" d="M102 14H103V15H102Z"/>
  <path fill="#393939" opacity="0.283" d="M132 21H133V22H132ZM103 23H104V24H103Z"/>
  <path fill="#393939" opacity="0.278" d="M39 17H40V18H39ZM102 20H103V21H102ZM132 22H133V23H132Z"/>
  <path fill="#393939" opacity="0.273" d="M106 9H107V10H106ZM66 10H67V11H66ZM115 11H116V12H115ZM112 14H113V15H112ZM137 15H138V16H137ZM31 19H32V20H31ZM33 22H34V23H33ZM120 23H121V24H120Z"/>
  <path fill="#393939" opacity="0.263" d="M132 5H133V6H132ZM9 7H10V8H9ZM83 11H84V12H83ZM118 11H119V12H118ZM110 16H111V17H110ZM84 21H85V22H84Z"/>
  <path fill="#393939" opacity="0.258" d="M39 7H40V8H39ZM111 9H112V10H111ZM117 11H118V12H117ZM39 13H40V14H39ZM138 15H139V16H138ZM62 23H63V24H62Z"/>
  <path fill="#393939" opacity="0.253" d="M39 6H40V7H39ZM39 8H40V9H39ZM39 9H40V10H39ZM39 10H40V11H39ZM39 11H40V12H39ZM103 11H104V12H103ZM62 12H63V13H62ZM131 15H132V16H131ZM51 23H52V24H51Z"/>
  <path fill="#393939" opacity="0.247" d="M131 12H132V13H131ZM39 15H40V16H39ZM39 16H40V17H39ZM39 18H40V19H39Z"/>
  <path fill="#393939" opacity="0.242" d="M105 11H106V12H105ZM107 11H108V12H107ZM114 11H115V12H114ZM39 14H40V15H39ZM120 14H121V15H120ZM39 19H40V20H39ZM28 21H29V22H28Z"/>
  <path fill="#393939" opacity="0.237" d="M130 15H131V16H130ZM29 16H30V17H29Z"/>
  <path fill="#393939" opacity="0.227" d="M106 10H107V11H106ZM101 14H102V15H101ZM39 22H40V23H39Z"/>
  <path fill="#393939" opacity="0.222" d="M73 11H74V12H73ZM120 11H121V12H120ZM39 12H40V13H39ZM39 20H40V21H39ZM16 23H17V24H16Z"/>
  <path fill="#393939" opacity="0.217" d="M109 9H110V10H109ZM56 10H57V11H56ZM116 11H117V12H116ZM13 13H14V14H13ZM5 18H6V19H5ZM39 21H40V22H39ZM111 21H112V22H111ZM139 21H140V22H139Z"/>
  <path fill="#393939" opacity="0.212" d="M104 11H105V12H104ZM106 11H107V12H106ZM28 15H29V16H28ZM28 16H29V17H28ZM140 18H141V19H140ZM104 23H105V24H104ZM144 23H145V24H144Z"/>
  <path fill="#393939" opacity="0.207" d="M57 10H58V11H57ZM102 11H103V12H102ZM6 15H7V16H6ZM28 18H29V19H28ZM70 22H71V23H70ZM124 23H125V24H124Z"/>
  <path fill="#393939" opacity="0.202" d="M16 7H17V8H16ZM113 11H114V12H113ZM116 18H117V19H116Z"/>
  <path fill="#393939" opacity="0.192" d="M137 12H138V13H137ZM28 17H29V18H28ZM20 18H21V19H20ZM129 21H130V22H129ZM68 23H69V24H68Z"/>
  <path fill="#393939" opacity="0.187" d="M138 12H139V13H138ZM126 19H127V20H126ZM28 22H29V23H28Z"/>
  <path fill="#393939" opacity="0.182" d="M142 19H143V20H142ZM28 20H29V21H28ZM117 22H118V23H117ZM136 23H137V24H136Z"/>
  <path fill="#393939" opacity="0.177" d="M64 10H65V11H64ZM130 12H131V13H130ZM13 16H14V17H13ZM128 18H129V19H128Z"/>
  <path fill="#393939" opacity="0.172" d="M28 19H29V20H28ZM72 20H73V21H72ZM9 23H10V24H9Z"/>
  <path fill="#393939" opacity="0.167" d="M121 11H122V12H121Z"/>
  <path fill="#393939" opacity="0.157" d="M67 18H68V19H67ZM102 23H103V24H102Z"/>
  <path fill="#393939" opacity="0.152" d="M116 9H117V10H116ZM101 11H102V12H101ZM125 23H126V24H125Z"/>
  <path fill="#393939" opacity="0.146" d="M29 7H30V8H29ZM12 16H13V17H12Z"/>
  <path fill="#393939" opacity="0.141" d="M12 13H13V14H12ZM125 14H126V15H125ZM109 15H110V16H109ZM118 15H119V16H118ZM131 20H132V21H131ZM85 23H86V24H85Z"/>
  <path fill="#393939" opacity="0.136" d="M125 16H126V17H125ZM106 18H107V19H106ZM57 19H58V20H57ZM137 20H138V21H137ZM28 23H29V24H28Z"/>
  <path fill="#393939" opacity="0.131" d="M112 9H113V10H112ZM108 10H109V11H108ZM39 23H40V24H39Z"/>
  <path fill="#393939" opacity="0.121" d="M125 17H126V18H125ZM73 18H74V19H73ZM143 23H144V24H143Z"/>
  <path fill="#393939" opacity="0.111" d="M116 10H117V11H116ZM85 11H86V12H85ZM125 11H126V12H125ZM32 21H33V22H32Z"/>
  <path fill="#393939" opacity="0.106" d="M85 10H86V11H85ZM125 13H126V14H125ZM19 15H20V16H19Z"/>
  <path fill="#393939" opacity="0.101" d="M80 6H81V7H80ZM85 8H86V9H85ZM125 10H126V11H125ZM74 12H75V13H74ZM125 12H126V13H125ZM125 15H126V16H125ZM62 16H63V17H62ZM119 23H120V24H119Z"/>
  <path fill="#393939" opacity="0.096" d="M85 7H86V8H85ZM85 9H86V10H85ZM67 11H68V12H67ZM18 12H19V13H18ZM105 23H106V24H105Z"/>
  <path fill="#393939" opacity="0.086" d="M61 6H62V7H61ZM69 6H70V7H69ZM113 10H114V11H113ZM85 13H86V14H85ZM132 23H133V24H132Z"/>
  <path fill="#393939" opacity="0.081" d="M74 13H75V14H74ZM74 21H75V22H74Z"/>
  <path fill="#393939" opacity="0.076" d="M74 7H75V8H74ZM17 9H18V10H17ZM56 15H57V16H56ZM81 17H82V18H81ZM73 19H74V20H73Z"/>
  <path fill="#393939" opacity="0.071" d="M31 10H32V11H31ZM143 11H144V12H143ZM7 12H8V13H7ZM62 13H63V14H62ZM117 17H118V18H117ZM63 18H64V19H63ZM105 18H106V19H105ZM74 19H75V20H74ZM74 22H75V23H74Z"/>
  <path fill="#393939" opacity="0.066" d="M38 5H39V6H38ZM58 8H59V9H58ZM85 12H86V13H85ZM74 16H75V17H74ZM74 17H75V18H74ZM112 21H113V22H112ZM114 21H115V22H114ZM109 22H110V23H109ZM61 23H62V24H61ZM70 23H71V24H70Z"/>
  <path fill="#393939" opacity="0.061" d="M42 5H43V6H42ZM85 6H86V7H85ZM82 9H83V10H82ZM143 12H144V13H143ZM143 13H144V14H143ZM74 14H75V15H74ZM143 14H144V15H143ZM62 15H63V16H62ZM143 15H144V16H143ZM74 18H75V19H74ZM119 19H120V20H119ZM74 20H75V21H74ZM83 20H84V21H83ZM145 23H146V24H145Z"/>
  <path fill="#393939" opacity="0.051" d="M72 5H73V6H72ZM9 6H10V7H9ZM122 7H123V8H122ZM125 9H126V10H125ZM143 10H144V11H143ZM66 11H67V12H66ZM74 15H75V16H74ZM40 17H41V18H40ZM124 17H125V18H124ZM106 19H107V20H106ZM58 21H59V22H58Z"/>
  <path fill="#393939" opacity="0.045" d="M59 4H60V5H59ZM30 5H31V6H30ZM70 5H71V6H70ZM127 5H128V6H127ZM138 5H140V6H138ZM8 8H9V9H8ZM31 9H32V10H31ZM74 9H75V10H74ZM73 10H75V11H73ZM124 10H125V11H124ZM21 13H22V14H21ZM56 14H57V15H56ZM111 15H112V16H111Z"/>
  <path fill="#393939" opacity="0.04" d="M43 4H44V5H43ZM71 4H72V5H71ZM111 4H112V5H111ZM89 5H90V6H89ZM128 5H132V6H128ZM20 6H21V7H20ZM107 10H108V11H107ZM21 12H22V13H21ZM123 14H124V15H123ZM12 15H13V16H12ZM104 15H105V16H104ZM64 16H65V17H64ZM143 17H144V18H143ZM30 18H31V19H30ZM57 21H58V22H57ZM10 22H11V23H10ZM117 23H118V24H117Z"/>
  <path fill="#393939" opacity="0.035" d="M10 4H11V5H10ZM12 5H13V6H12ZM21 5H22V6H21ZM24 5H28V6H24ZM32 5H33V6H32ZM34 5H35V6H34ZM56 5H57V6H56ZM103 5H104V6H103ZM122 5H123V6H122ZM30 6H31V7H30ZM74 6H75V7H74ZM40 9H41V10H40ZM123 9H124V10H123ZM83 10H84V11H83ZM101 10H102V11H101ZM45 11H46V12H45ZM5 12H6V13H5ZM40 13H41V14H40ZM44 13H45V14H44ZM122 14H123V15H122ZM124 14H125V15H124ZM143 16H144V17H143ZM42 17H43V18H42ZM147 20H148V21H147ZM81 21H82V22H81ZM123 21H124V22H123ZM73 22H74V23H73ZM84 22H85V23H84ZM74 23H75V24H74ZM108 23H109V24H108ZM137 23H138V24H137Z"/>
  <path fill="#393939" opacity="0.03" d="M56 4H57V5H56ZM82 4H83V5H82ZM145 4H146V5H145ZM8 5H9V6H8ZM13 5H14V6H13ZM35 5H37V6H35ZM82 5H83V6H82ZM90 5H91V6H90ZM100 5H101V6H100ZM102 5H103V6H102ZM116 5H120V6H116ZM146 5H147V6H146ZM146 6H147V7H146ZM17 8H18V9H17ZM40 8H41V9H40ZM74 8H75V9H74ZM122 9H123V10H122ZM143 9H144V10H143ZM19 10H20V11H19ZM115 10H116V11H115ZM74 11H75V12H74ZM19 13H20V14H19ZM56 13H57V14H56ZM6 14H7V15H6ZM13 14H14V15H13ZM100 14H101V15H100ZM101 15H102V16H101ZM103 15H104V16H103ZM121 15H122V16H121ZM4 16H5V17H4ZM118 17H119V18H118ZM125 18H126V19H125ZM104 19H105V20H104ZM29 20H30V21H29ZM73 21H74V22H73ZM121 21H122V22H121ZM130 21H131V22H130ZM145 21H146V22H145ZM83 22H84V23H83ZM116 22H117V23H116ZM123 22H124V23H123ZM131 22H132V23H131ZM115 23H116V24H115ZM127 23H128V24H127Z"/>
</svg>