<svg xmlns="http://www.w3.org/2000/svg" width="81" height="44" viewBox="0 0 81 44" role="img" aria-label="image2 09 xiaohongshu" shape-rendering="crispEdges">
  <title>image2 09 xiaohongshu</title>
  <desc>Pixel-level vector reconstruction extracted from the supplied PNG, with white background removed.</desc>
  <path fill="#383838" d="M14 9H15V10H14Z"/>
  <path fill="#383838" opacity="0.995" d="M60 25H61V26H60ZM17 31H18V32H17Z"/>
  <path fill="#383838" opacity="0.99" d="M73 14H74V15H73ZM61 24H62V25H61ZM21 25H22V26H21Z"/>
  <path fill="#383838" opacity="0.985" d="M62 7H63V8H62ZM9 14H10V15H9ZM50 25H51V26H50ZM29 31H30V32H29ZM15 34H16V35H15Z"/>
  <path fill="#383838" opacity="0.975" d="M61 7H62V8H61ZM43 12H44V13H43ZM64 12H65V13H64ZM61 13H62V14H61ZM63 13H64V14H63ZM67 19H68V20H67ZM67 21H68V22H67ZM21 26H22V27H21ZM58 29H59V30H58ZM12 32H13V33H12Z"/>
  <path fill="#383838" opacity="0.97" d="M61 6H62V7H61ZM20 12H21V13H20ZM20 15H21V16H20ZM50 18H51V19H50ZM72 24H73V25H72ZM61 26H62V27H61ZM32 27H33V28H32ZM27 30H28V31H27ZM66 31H67V32H66ZM68 32H70V33H68ZM60 37H61V38H60Z"/>
  <path fill="#383838" opacity="0.965" d="M51 12H52V13H51ZM62 12H63V13H62ZM10 15H11V16H10ZM42 18H43V19H42ZM48 18H50V19H48ZM58 18H59V19H58ZM41 19H42V20H41ZM49 21H50V22H49ZM66 21H67V22H66ZM49 22H50V23H49ZM27 23H28V24H27ZM33 23H34V24H33ZM52 24H53V25H52ZM58 26H59V27H58ZM73 27H74V28H73ZM10 28H11V29H10ZM30 29H31V30H30ZM52 29H53V30H52ZM65 30H66V31H65ZM37 31H38V32H37ZM55 31H56V32H55Z"/>
  <path fill="#383838" opacity="0.96" d="M60 6H61V7H60ZM63 7H64V8H63ZM33 12H34V13H33ZM42 12H43V13H42ZM44 12H49V13H44ZM72 12H73V13H72ZM27 13H28V14H27ZM34 13H35V14H34ZM40 13H41V14H40ZM72 13H73V14H72ZM20 14H21V15H20ZM73 17H74V18H73ZM16 18H17V19H16ZM66 18H67V19H66ZM52 19H53V20H52ZM41 20H42V21H41ZM49 20H50V21H49ZM21 22H22V23H21ZM27 22H28V23H27ZM21 23H22V24H21ZM59 24H60V25H59ZM61 25H62V26H61ZM67 26H68V27H67ZM20 30H21V31H20ZM72 30H73V31H72ZM24 31H25V32H24ZM56 31H57V32H56ZM63 31H64V32H63ZM19 36H20V37H19ZM64 36H65V37H64Z"/>
  <path fill="#383838" opacity="0.955" d="M20 6H21V7H20ZM62 6H63V7H62ZM60 7H61V8H60ZM69 9H70V10H69ZM11 11H12V12H11ZM33 11H34V12H33ZM61 12H62V13H61ZM65 12H66V13H65ZM50 13H51V14H50ZM62 14H63V15H62ZM72 15H73V16H72ZM73 16H74V17H73ZM27 17H28V18H27ZM21 18H22V19H21ZM67 18H68V19H67ZM73 18H75V19H73ZM27 19H28V20H27ZM74 19H75V20H74ZM67 20H68V21H67ZM42 22H43V23H42ZM48 23H49V24H48ZM21 24H22V25H21ZM27 24H28V25H27ZM41 24H43V25H41ZM40 26H41V27H40ZM60 26H61V27H60ZM27 27H28V28H27ZM11 28H12V29H11ZM27 28H28V29H27ZM11 29H12V30H11ZM29 29H30V30H29ZM67 29H68V30H67ZM73 29H74V30H73ZM67 31H68V32H67ZM63 36H64V37H63Z"/>
  <path fill="#383838" opacity="0.95" d="M64 6H65V7H64ZM23 7H25V8H23ZM65 7H66V8H65ZM68 9H69V10H68ZM68 11H69V12H68ZM34 12H35V13H34ZM40 12H41V13H40ZM58 12H59V13H58ZM11 13H12V14H11ZM62 13H63V14H62ZM66 13H67V14H66ZM27 14H28V15H27ZM32 14H33V15H32ZM21 15H22V16H21ZM50 15H51V16H50ZM9 16H11V17H9ZM16 16H17V17H16ZM21 16H22V17H21ZM28 16H29V17H28ZM9 17H10V18H9ZM41 17H42V18H41ZM9 18H10V19H9ZM27 18H28V19H27ZM52 18H53V19H52ZM50 19H51V20H50ZM73 19H74V20H73ZM22 20H23V21H22ZM27 20H28V21H27ZM21 21H22V22H21ZM27 21H28V22H27ZM34 22H35V23H34ZM67 22H68V23H67ZM73 24H74V25H73ZM42 25H43V26H42ZM52 26H53V27H52ZM73 26H74V27H73ZM72 27H73V28H72ZM9 28H10V29H9ZM52 28H53V29H52ZM9 29H10V30H9ZM20 29H21V30H20ZM27 29H29V30H27ZM51 29H52V30H51ZM57 30H59V31H57ZM66 30H67V31H66ZM20 31H21V32H20ZM50 31H51V32H50ZM60 31H61V32H60ZM14 34H15V35H14ZM20 36H22V37H20ZM22 37H23V38H22Z"/>
  <path fill="#383838" opacity="0.94" d="M19 6H20V7H19ZM24 6H46V7H24ZM18 7H20V8H18ZM22 7H23V8H22ZM25 7H46V8H25ZM66 7H67V8H66ZM18 8H19V9H18ZM64 8H68V9H64ZM15 9H16V10H15ZM17 9H18V10H17ZM19 10H21V11H19ZM70 10H71V11H70ZM18 11H21V12H18ZM34 11H35V12H34ZM40 11H41V12H40ZM10 12H11V13H10ZM12 12H16V13H12ZM18 12H20V13H18ZM28 12H32V13H28ZM67 12H71V13H67ZM12 13H16V14H12ZM18 13H20V14H18ZM28 13H32V14H28ZM71 13H72V14H71ZM12 14H20V15H12ZM28 14H32V15H28ZM67 14H68V15H67ZM12 15H20V16H12ZM27 15H32V16H27ZM12 16H16V17H12ZM17 16H18V17H17ZM33 16H34V17H33ZM50 16H51V17H50ZM69 16H72V17H69ZM10 17H16V18H10ZM68 17H72V18H68ZM8 18H9V19H8ZM11 18H16V19H11ZM7 19H16V20H7ZM22 19H23V20H22ZM8 20H9V21H8ZM16 20H17V21H16ZM21 20H22V21H21ZM73 20H74V21H73ZM8 21H9V22H8ZM42 21H43V22H42ZM48 21H49V22H48ZM41 23H42V24H41ZM67 23H68V24H67ZM73 23H74V24H73ZM33 24H34V25H33ZM50 24H52V25H50ZM59 25H60V26H59ZM62 25H63V26H62ZM73 25H74V26H73ZM27 26H28V27H27ZM51 26H52V27H51ZM16 27H17V28H16ZM52 27H53V28H52ZM29 28H30V29H29ZM72 28H73V29H72ZM15 29H17V30H15ZM31 29H32V30H31ZM26 30H27V31H26ZM59 30H60V31H59ZM21 31H22V32H21ZM23 31H24V32H23ZM30 31H31V32H30ZM32 31H33V32H32ZM34 31H35V32H34ZM38 31H39V32H38ZM44 31H46V32H44ZM54 31H55V32H54ZM64 31H65V32H64ZM51 32H52V33H51ZM13 33H14V34H13ZM22 36H24V37H22Z"/>
  <path fill="#383838" opacity="0.935" d="M46 6H48V7H46ZM46 7H48V8H46ZM14 8H15V9H14ZM17 8H18V9H17ZM19 8H64V9H19ZM16 9H17V10H16ZM20 9H68V10H20ZM16 10H18V11H16ZM21 10H68V11H21ZM12 11H13V12H12ZM16 11H18V12H16ZM21 11H27V12H21ZM28 11H32V12H28ZM35 11H40V12H35ZM41 11H68V12H41ZM71 11H72V12H71ZM16 12H18V13H16ZM27 12H28V13H27ZM35 12H36V13H35ZM49 12H50V13H49ZM66 12H67V13H66ZM16 13H18V14H16ZM21 13H22V14H21ZM32 13H34V14H32ZM67 13H71V14H67ZM22 14H23V15H22ZM68 14H72V15H68ZM9 15H10V16H9ZM11 15H12V16H11ZM32 15H33V16H32ZM68 15H72V16H68ZM11 16H12V17H11ZM27 16H28V17H27ZM40 16H41V17H40ZM68 16H69V17H68ZM50 17H51V18H50ZM66 17H68V18H66ZM74 17H75V18H74ZM10 18H11V19H10ZM64 18H65V19H64ZM68 18H72V19H68ZM64 19H65V20H64ZM66 19H67V20H66ZM68 19H72V20H68ZM9 20H16V21H9ZM66 20H67V21H66ZM68 20H72V21H68ZM74 20H75V21H74ZM9 21H16V22H9ZM22 21H23V22H22ZM68 21H72V22H68ZM73 21H74V22H73ZM8 22H16V23H8ZM8 23H16V24H8ZM9 24H16V25H9ZM43 24H44V25H43ZM68 24H72V25H68ZM9 25H16V26H9ZM41 25H42V26H41ZM68 25H72V26H68ZM74 25H75V26H74ZM9 26H16V27H9ZM28 26H29V27H28ZM36 26H37V27H36ZM68 26H72V27H68ZM9 27H16V28H9ZM28 27H29V28H28ZM68 27H72V28H68ZM12 28H18V29H12ZM68 28H72V29H68ZM12 29H15V30H12ZM68 29H73V30H68ZM12 30H15V31H12ZM19 30H20V31H19ZM28 30H29V31H28ZM52 30H53V31H52ZM68 30H72V31H68ZM12 31H16V32H12ZM18 31H19V32H18ZM22 31H23V32H22ZM35 31H36V32H35ZM42 31H44V32H42ZM46 31H48V32H46ZM51 31H53V32H51ZM57 31H58V32H57ZM68 31H72V32H68ZM16 32H40V33H16ZM44 32H51V33H44ZM56 32H68V33H56ZM16 33H40V34H16ZM44 33H52V34H44ZM56 33H69V34H56ZM16 34H40V35H16ZM44 34H52V35H44ZM56 34H68V35H56ZM16 35H40V36H16ZM44 35H52V36H44ZM56 35H68V36H56ZM18 36H19V37H18ZM24 36H26V37H24Z"/>
  <path fill="#383838" opacity="0.93" d="M21 6H22V7H21ZM48 6H50V7H48ZM20 7H22V8H20ZM48 7H50V8H48ZM18 9H20V10H18ZM18 10H19V11H18ZM27 11H28V12H27ZM69 11H70V12H69ZM22 12H23V13H22ZM60 12H61V13H60ZM71 12H72V13H71ZM10 14H11V15H10ZM34 14H35V15H34ZM40 14H41V15H40ZM67 16H68V17H67ZM8 17H9V18H8ZM16 17H17V18H16ZM21 17H23V18H21ZM42 19H43V20H42ZM49 19H50V20H49ZM65 19H66V20H65ZM65 20H66V21H65ZM72 20H73V21H72ZM75 20H76V21H75ZM16 21H17V22H16ZM40 21H41V22H40ZM72 21H73V22H72ZM74 21H76V22H74ZM68 22H76V23H68ZM68 23H73V24H68ZM75 23H76V24H75ZM8 24H9V25H8ZM58 24H59V25H58ZM67 24H68V25H67ZM8 25H9V26H8ZM27 25H28V26H27ZM33 25H34V26H33ZM40 25H41V26H40ZM67 25H68V26H67ZM8 26H9V27H8ZM20 26H21V27H20ZM74 26H75V27H74ZM8 27H9V28H8ZM67 27H68V28H67ZM51 28H52V29H51ZM73 28H74V29H73ZM17 29H19V30H17ZM15 30H16V31H15ZM31 30H32V31H31ZM67 30H68V31H67ZM11 31H12V32H11ZM16 31H17V32H16ZM26 31H27V32H26ZM48 31H50V32H48ZM58 31H60V32H58ZM61 31H62V32H61ZM40 32H44V33H40ZM52 32H56V33H52ZM40 33H44V34H40ZM52 33H56V34H52ZM40 34H44V35H40ZM52 34H56V35H52ZM40 35H44V36H40ZM52 35H56V36H52ZM26 36H40V37H26ZM44 36H52V37H44ZM56 36H61V37H56ZM23 37H40V38H23ZM44 37H52V38H44ZM56 37H60V38H56Z"/>
  <path fill="#383838" opacity="0.925" d="M50 6H60V7H50ZM16 7H17V8H16ZM50 7H60V8H50ZM16 8H17V9H16ZM14 10H15V11H14ZM72 14H73V15H72ZM33 15H34V16H33ZM41 15H42V16H41ZM67 15H68V16H67ZM72 16H73V17H72ZM49 17H50V18H49ZM72 17H73V18H72ZM51 18H52V19H51ZM72 18H73V19H72ZM72 19H73V20H72ZM7 20H8V21H7ZM33 20H34V21H33ZM48 20H49V21H48ZM7 21H8V22H7ZM33 21H35V22H33ZM7 22H8V23H7ZM33 22H34V23H33ZM7 23H8V24H7ZM42 23H43V24H42ZM74 23H75V24H74ZM16 26H17V27H16ZM22 26H23V27H22ZM20 28H21V29H20ZM67 28H68V29H67ZM66 29H67V30H66ZM29 30H30V31H29ZM51 30H52V31H51ZM27 31H28V32H27ZM31 31H32V32H31ZM39 31H40V32H39ZM62 31H63V32H62ZM15 32H16V33H15ZM40 36H44V37H40ZM52 36H56V37H52ZM62 36H63V37H62ZM40 37H44V38H40ZM52 37H56V38H52Z"/>
  <path fill="#383838" opacity="0.92" d="M17 7H18V8H17ZM68 8H69V9H68ZM12 10H14V11H12ZM15 10H16V11H15ZM68 10H69V11H68ZM13 11H14V12H13ZM15 11H16V12H15ZM32 11H33V12H32ZM21 12H22V13H21ZM52 12H53V13H52ZM59 12H60V13H59ZM10 13H11V14H10ZM50 14H51V15H50ZM40 15H41V16H40ZM73 15H74V16H73ZM31 16H33V17H31ZM21 19H22V20H21ZM58 19H59V20H58ZM41 21H42V22H41ZM22 22H23V23H22ZM49 23H50V24H49ZM49 24H50V25H49ZM74 24H75V25H74ZM28 25H29V26H28ZM43 25H44V26H43ZM51 25H52V26H51ZM49 26H50V27H49ZM32 28H33V29H32ZM18 30H19V31H18ZM25 31H26V32H25ZM41 31H42V32H41ZM14 33H15V34H14ZM65 36H66V37H65Z"/>
  <path fill="#383838" opacity="0.915" d="M18 6H19V7H18ZM63 6H64V7H63ZM13 9H14V10H13ZM32 12H33V13H32ZM63 12H64V13H63ZM22 13H23V14H22ZM41 13H42V14H41ZM21 14H22V15H21ZM33 14H34V15H33ZM8 16H9V17H8ZM18 16H19V17H18ZM22 16H23V17H22ZM30 16H31V17H30ZM74 16H75V17H74ZM65 17H66V18H65ZM41 18H42V19H41ZM65 18H66V19H65ZM41 22H42V23H41ZM43 22H44V23H43ZM43 23H44V24H43ZM62 24H63V25H62ZM52 25H53V26H52ZM58 25H59V26H58ZM72 25H73V26H72ZM33 26H34V27H33ZM41 26H42V27H41ZM50 26H51V27H50ZM19 28H20V29H19ZM16 30H18V31H16ZM30 30H31V31H30ZM19 31H20V32H19ZM33 31H34V32H33ZM36 31H37V32H36ZM40 31H41V32H40ZM70 32H71V33H70ZM15 33H16V34H15ZM69 33H70V34H69ZM17 36H18V37H17ZM61 36H62V37H61ZM61 37H62V38H61Z"/>
  <path fill="#383838" opacity="0.905" d="M22 6H23V7H22ZM64 7H65V8H64ZM69 10H70V11H69ZM14 11H15V12H14ZM70 11H71V12H70ZM11 12H12V13H11ZM41 12H42V13H41ZM20 13H21V14H20ZM60 13H61V14H60ZM65 13H66V14H65ZM11 14H12V15H11ZM16 19H17V20H16ZM48 19H49V20H48ZM63 19H64V20H63ZM42 20H43V21H42ZM16 22H17V23H16ZM48 22H49V23H48ZM60 24H61V25H60ZM39 26H40V27H39ZM59 26H60V27H59ZM72 26H73V27H72ZM74 27H75V28H74ZM39 28H40V29H39ZM58 28H59V29H58ZM10 29H11V30H10ZM19 29H20V30H19ZM59 29H60V30H59ZM25 30H26V31H25Z"/>
  <path fill="#383838" opacity="0.899" d="M22 15H23V16H22ZM22 18H23V19H22ZM63 18H64V19H63ZM75 19H76V20H75ZM40 20H41V21H40ZM43 21H44V22H43ZM22 23H23V24H22ZM28 23H29V24H28ZM22 25H23V26H22ZM49 25H50V26H49ZM51 27H52V28H51ZM26 29H27V30H26ZM11 30H12V31H11ZM28 31H29V32H28ZM13 32H14V33H13ZM70 33H71V34H70Z"/>
  <path fill="#383838" opacity="0.894" d="M15 8H16V9H15ZM50 12H51V13H50ZM73 13H74V14H73ZM8 15H9V16H8ZM39 15H40V16H39ZM19 16H21V17H19ZM41 16H42V17H41ZM16 23H17V24H16ZM48 24H49V25H48ZM48 25H49V26H48ZM28 28H29V29H28ZM68 34H69V35H68ZM15 35H16V36H15Z"/>
  <path fill="#383838" opacity="0.889" d="M34 15H35V16H34ZM39 16H40V17H39ZM32 17H34V18H32ZM28 24H29V25H28ZM10 30H11V31H10ZM65 31H66V32H65ZM14 32H15V33H14Z"/>
  <path fill="#383838" opacity="0.884" d="M17 6H18V7H17ZM23 6H24V7H23ZM57 12H58V13H57ZM51 19H52V20H51ZM43 20H44V21H43ZM22 24H23V25H22ZM75 24H76V25H75ZM48 26H49V27H48ZM57 28H58V29H57ZM38 30H39V31H38Z"/>
  <path fill="#383838" opacity="0.879" d="M9 13H10V14H9ZM74 15H75V16H74ZM29 16H30V17H29ZM38 16H39V17H38ZM75 18H76V19H75ZM40 19H41V20H40ZM57 24H58V25H57ZM16 25H17V26H16ZM35 26H36V27H35ZM62 26H63V27H62ZM58 27H59V28H58ZM53 31H54V32H53Z"/>
  <path fill="#383838" opacity="0.869" d="M67 7H68V8H67ZM43 18H44V19H43ZM38 26H39V27H38Z"/>
  <path fill="#383838" opacity="0.864" d="M15 7H16V8H15ZM49 13H50V14H49ZM51 13H52V14H51ZM39 21H40V22H39ZM21 30H22V31H21ZM21 37H22V38H21Z"/>
  <path fill="#383838" opacity="0.859" d="M39 14H40V15H39ZM41 14H42V15H41ZM66 16H67V17H66ZM37 26H38V27H37ZM57 29H58V30H57ZM71 32H72V33H71ZM12 33H13V34H12Z"/>
  <path fill="#383838" opacity="0.854" d="M61 5H62V6H61ZM66 14H67V15H66ZM51 17H52V18H51ZM43 19H44V20H43ZM28 22H29V23H28ZM42 26H43V27H42ZM29 27H30V28H29Z"/>
  <path fill="#383838" opacity="0.849" d="M59 13H60V14H59ZM32 18H33V19H32ZM32 19H33V20H32ZM57 25H58V26H57Z"/>
  <path fill="#383838" opacity="0.844" d="M42 13H43V14H42ZM57 18H58V19H57ZM43 26H44V27H43Z"/>
  <path fill="#383838" opacity="0.839" d="M71 10H72V11H71ZM35 13H36V14H35ZM57 19H58V20H57ZM33 27H34V28H33ZM39 29H40V30H39Z"/>
  <path fill="#383838" opacity="0.829" d="M24 5H46V6H24ZM60 5H61V6H60ZM57 26H58V27H57ZM57 27H58V28H57Z"/>
  <path fill="#383838" opacity="0.824" d="M46 5H48V6H46ZM53 12H54V13H53ZM48 13H49V14H48ZM16 24H17V25H16ZM32 30H33V31H32Z"/>
  <path fill="#383838" opacity="0.819" d="M23 5H24V6H23ZM48 5H50V6H48ZM65 6H66V7H65ZM48 17H49V18H48ZM33 18H34V19H33ZM32 26H33V27H32Z"/>
  <path fill="#383838" opacity="0.814" d="M50 5H60V6H50ZM43 13H44V14H43ZM52 17H53V18H52Z"/>
  <path fill="#383838" opacity="0.809" d="M34 20H35V21H34ZM72 31H73V32H72Z"/>
  <path fill="#383838" opacity="0.804" d="M22 5H23V6H22ZM26 12H27V13H26ZM62 15H63V16H62ZM63 17H65V18H63ZM7 24H8V25H7ZM20 25H21V26H20ZM11 32H12V33H11Z"/>
  <path fill="#383838" opacity="0.794" d="M44 13H48V14H44ZM52 13H53V14H52ZM39 30H40V31H39Z"/>
  <path fill="#383838" opacity="0.789" d="M58 13H59V14H58ZM7 18H8V19H7ZM35 20H36V21H35ZM28 21H29V22H28ZM66 28H67V29H66Z"/>
  <path fill="#383838" opacity="0.784" d="M58 17H59V18H58ZM34 23H35V24H34ZM34 26H35V27H34ZM20 27H21V28H20ZM69 34H70V35H69Z"/>
  <path fill="#383838" opacity="0.779" d="M11 10H12V11H11ZM42 17H43V18H42ZM66 22H67V23H66ZM31 28H32V29H31ZM53 30H54V31H53ZM13 34H14V35H13Z"/>
  <path fill="#383838" opacity="0.774" d="M21 5H22V6H21ZM12 9H13V10H12ZM64 13H65V14H64Z"/>
  <path fill="#383838" opacity="0.769" d="M70 9H71V10H70ZM10 31H11V32H10Z"/>
  <path fill="#383838" opacity="0.759" d="M40 27H41V28H40ZM32 29H33V30H32ZM62 37H63V38H62Z"/>
  <path fill="#383838" opacity="0.754" d="M20 5H21V6H20ZM43 17H44V18H43ZM57 17H58V18H57ZM39 27H40V28H39Z"/>
  <path fill="#383838" opacity="0.749" d="M40 24H41V25H40Z"/>
  <path fill="#383838" opacity="0.739" d="M28 20H29V21H28Z"/>
  <path fill="#383838" opacity="0.734" d="M61 14H62V15H61ZM20 37H21V38H20Z"/>
  <path fill="#383838" opacity="0.724" d="M69 8H70V9H69ZM32 20H33V21H32ZM34 25H35V26H34ZM38 29H39V30H38Z"/>
  <path fill="#383838" opacity="0.719" d="M57 13H58V14H57ZM40 22H41V23H40ZM17 27H18V28H17Z"/>
  <path fill="#383838" opacity="0.714" d="M23 12H24V13H23ZM39 12H40V13H39Z"/>
  <path fill="#383838" opacity="0.709" d="M62 5H63V6H62ZM33 19H34V20H33ZM32 21H33V22H32ZM75 25H76V26H75Z"/>
  <path fill="#383838" opacity="0.704" d="M10 11H11V12H10ZM72 11H73V12H72ZM74 28H75V29H74Z"/>
  <path fill="#383838" opacity="0.688" d="M39 22H40V23H39Z"/>
  <path fill="#383838" opacity="0.683" d="M36 12H37V13H36ZM38 12H39V13H38ZM35 21H36V22H35ZM66 36H67V37H66Z"/>
  <path fill="#383838" opacity="0.678" d="M24 12H25V13H24ZM56 12H57V13H56ZM32 22H33V23H32Z"/>
  <path fill="#383838" opacity="0.673" d="M16 36H17V37H16Z"/>
  <path fill="#383838" opacity="0.668" d="M34 16H35V17H34ZM75 17H76V18H75ZM26 28H27V29H26Z"/>
  <path fill="#383838" opacity="0.663" d="M73 30H74V31H73Z"/>
  <path fill="#383838" opacity="0.653" d="M53 25H54V26H53ZM53 27H54V28H53Z"/>
  <path fill="#383838" opacity="0.648" d="M13 8H14V9H13ZM8 28H9V29H8ZM60 30H61V31H60ZM64 30H65V31H64Z"/>
  <path fill="#383838" opacity="0.643" d="M20 24H21V25H20ZM53 29H54V30H53Z"/>
  <path fill="#383838" opacity="0.638" d="M37 12H38V13H37ZM55 12H56V13H55ZM53 19H54V20H53ZM53 28H54V29H53Z"/>
  <path fill="#383838" opacity="0.633" d="M25 12H26V13H25ZM19 37H20V38H19Z"/>
  <path fill="#383838" opacity="0.628" d="M66 23H67V24H66ZM53 26H54V27H53ZM24 30H25V31H24ZM50 30H51V31H50Z"/>
  <path fill="#383838" opacity="0.618" d="M28 19H29V20H28ZM29 26H30V27H29Z"/>
  <path fill="#383838" opacity="0.613" d="M53 18H54V19H53ZM53 24H54V25H53Z"/>
  <path fill="#383838" opacity="0.608" d="M39 13H40V14H39ZM66 15H67V16H66ZM50 23H51V24H50ZM19 27H20V28H19ZM63 37H64V38H63Z"/>
  <path fill="#383838" opacity="0.603" d="M54 12H55V13H54ZM66 26H67V27H66Z"/>
  <path fill="#383838" opacity="0.598" d="M74 14H75V15H74Z"/>
  <path fill="#383838" opacity="0.593" d="M32 23H33V24H32ZM68 35H69V36H68Z"/>
  <path fill="#383838" opacity="0.578" d="M28 18H29V19H28ZM66 27H67V28H66Z"/>
  <path fill="#383838" opacity="0.573" d="M8 14H9V15H8ZM62 16H63V17H62ZM40 18H41V19H40ZM66 24H67V25H66ZM66 25H67V26H66ZM59 27H60V28H59Z"/>
  <path fill="#383838" opacity="0.568" d="M53 13H54V14H53ZM28 17H29V18H28ZM26 23H27V24H26Z"/>
  <path fill="#383838" opacity="0.563" d="M26 17H27V18H26ZM26 22H27V23H26ZM14 35H15V36H14Z"/>
  <path fill="#383838" opacity="0.558" d="M26 18H27V19H26ZM26 19H27V20H26ZM26 24H27V25H26ZM26 27H27V28H26ZM30 28H31V29H30Z"/>
  <path fill="#383838" opacity="0.548" d="M16 6H17V7H16ZM26 21H27V22H26Z"/>
  <path fill="#383838" opacity="0.543" d="M66 6H67V7H66ZM26 20H27V21H26ZM26 26H27V27H26Z"/>
  <path fill="#383838" opacity="0.538" d="M62 18H63V19H62ZM64 20H65V21H64ZM33 30H34V31H33Z"/>
  <path fill="#383838" opacity="0.533" d="M26 14H27V15H26ZM26 16H27V17H26ZM7 17H8V18H7ZM62 17H63V18H62ZM26 25H27V26H26ZM65 29H66V30H65ZM56 30H57V31H56Z"/>
  <path fill="#383838" opacity="0.528" d="M60 23H61V24H60Z"/>
  <path fill="#383838" opacity="0.523" d="M26 13H27V14H26ZM59 23H60V24H59ZM7 25H8V26H7ZM59 28H60V29H59ZM9 30H10V31H9ZM48 30H49V31H48Z"/>
  <path fill="#383838" opacity="0.513" d="M53 17H54V18H53ZM47 18H48V19H47ZM47 22H48V23H47ZM20 23H21V24H20ZM47 23H48V24H47ZM18 28H19V29H18ZM25 29H26V30H25Z"/>
  <path fill="#383838" opacity="0.508" d="M26 15H27V16H26ZM38 15H39V16H38ZM47 24H48V25H47Z"/>
  <path fill="#383838" opacity="0.503" d="M47 21H48V22H47Z"/>
  <path fill="#383838" opacity="0.497" d="M47 25H48V26H47ZM47 26H48V27H47ZM21 29H22V30H21ZM22 30H23V31H22ZM61 30H62V31H61Z"/>
  <path fill="#383838" opacity="0.492" d="M49 14H50V15H49ZM37 30H38V31H37ZM54 30H55V31H54Z"/>
  <path fill="#383838" opacity="0.487" d="M51 15H52V16H51ZM47 20H48V21H47ZM34 30H35V31H34ZM63 30H64V31H63Z"/>
  <path fill="#383838" opacity="0.477" d="M17 17H18V18H17ZM39 20H40V21H39ZM40 30H42V31H40Z"/>
  <path fill="#383838" opacity="0.472" d="M63 5H64V6H63ZM35 14H36V15H35ZM49 15H50V16H49ZM34 24H35V25H34ZM35 30H36V31H35Z"/>
  <path fill="#383838" opacity="0.467" d="M9 12H10V13H9ZM62 19H63V20H62ZM61 23H62V24H61ZM23 30H24V31H23ZM49 30H50V31H49ZM62 30H63V31H62Z"/>
  <path fill="#383838" opacity="0.462" d="M68 7H69V8H68ZM63 14H64V15H63ZM47 19H48V20H47ZM20 22H21V23H20ZM57 23H58V24H57ZM61 27H62V28H61ZM42 30H44V31H42Z"/>
  <path fill="#383838" opacity="0.457" d="M73 12H74V13H73ZM49 16H50V17H49ZM44 30H48V31H44Z"/>
  <path fill="#383838" opacity="0.452" d="M19 5H20V6H19ZM75 16H76V17H75Z"/>
  <path fill="#383838" opacity="0.442" d="M32 25H33V26H32ZM22 27H23V28H22ZM55 30H56V31H55Z"/>
  <path fill="#383838" opacity="0.437" d="M51 16H52V17H51ZM50 20H51V21H50ZM52 23H53V24H52ZM58 23H59V24H58ZM60 27H61V28H60Z"/>
  <path fill="#383838" opacity="0.427" d="M14 7H15V8H14ZM32 24H33V25H32Z"/>
  <path fill="#383838" opacity="0.422" d="M47 17H48V18H47ZM51 23H52V24H51ZM21 27H22V28H21ZM36 30H37V31H36Z"/>
  <path fill="#383838" opacity="0.417" d="M51 14H52V15H51ZM64 37H65V38H64Z"/>
  <path fill="#383838" opacity="0.402" d="M18 37H19V38H18Z"/>
  <path fill="#383838" opacity="0.397" d="M40 23H41V24H40ZM50 29H51V30H50Z"/>
  <path fill="#383838" opacity="0.392" d="M20 21H21V22H20ZM65 21H66V22H65Z"/>
  <path fill="#383838" opacity="0.387" d="M35 22H36V23H35ZM75 26H76V27H75ZM62 27H63V28H62Z"/>
  <path fill="#383838" opacity="0.382" d="M40 28H41V29H40Z"/>
  <path fill="#383838" opacity="0.377" d="M50 27H51V28H50ZM50 28H51V29H50Z"/>
  <path fill="#383838" opacity="0.362" d="M40 17H41V18H40ZM50 22H51V23H50Z"/>
  <path fill="#383838" opacity="0.347" d="M17 18H18V19H17ZM50 21H51V22H50Z"/>
  <path fill="#383838" opacity="0.342" d="M17 19H18V20H17ZM33 28H34V29H33Z"/>
  <path fill="#383838" opacity="0.332" d="M20 20H21V21H20ZM39 25H40V26H39Z"/>
  <path fill="#383838" opacity="0.327" d="M53 23H54V24H53Z"/>
  <path fill="#383838" opacity="0.322" d="M17 26H18V27H17ZM31 27H32V28H31Z"/>
  <path fill="#383838" opacity="0.317" d="M29 25H30V26H29Z"/>
  <path fill="#383838" opacity="0.312" d="M20 19H21V20H20Z"/>
  <path fill="#383838" opacity="0.291" d="M7 16H8V17H7Z"/>
  <path fill="#383838" opacity="0.286" d="M20 17H21V18H20ZM24 38H40V39H24ZM44 38H52V39H44ZM56 38H60V39H56Z"/>
  <path fill="#383838" opacity="0.281" d="M40 38H44V39H40ZM52 38H56V39H52Z"/>
  <path fill="#383838" opacity="0.276" d="M74 29H75V30H74Z"/>
  <path fill="#383838" opacity="0.271" d="M31 17H32V18H31ZM20 18H21V19H20ZM7 26H8V27H7Z"/>
  <path fill="#383838" opacity="0.261" d="M17 20H18V21H17ZM62 23H63V24H62ZM60 38H61V39H60Z"/>
  <path fill="#383838" opacity="0.256" d="M63 20H64V21H63ZM71 33H72V34H71Z"/>
  <path fill="#383838" opacity="0.251" d="M34 17H35V18H34Z"/>
  <path fill="#383838" opacity="0.241" d="M38 28H39V29H38ZM11 33H12V34H11Z"/>
  <path fill="#383838" opacity="0.236" d="M64 5H65V6H64ZM71 9H72V10H71ZM19 26H20V27H19ZM22 38H23V39H22Z"/>
  <path fill="#383838" opacity="0.216" d="M23 38H24V39H23Z"/>
  <path fill="#383838" opacity="0.211" d="M36 25H38V26H36ZM67 36H68V37H67Z"/>
  <path fill="#383838" opacity="0.206" d="M18 5H19V6H18Z"/>
  <path fill="#383838" opacity="0.201" d="M17 21H18V22H17Z"/>
  <path fill="#383838" opacity="0.186" d="M65 14H66V15H65ZM42 27H43V28H42Z"/>
  <path fill="#383838" opacity="0.181" d="M74 13H75V14H74ZM59 19H60V20H59ZM38 22H39V23H38ZM15 36H16V37H15Z"/>
  <path fill="#383838" opacity="0.176" d="M59 18H60V19H59ZM57 20H58V21H57ZM38 25H39V26H38Z"/>
  <path fill="#383838" opacity="0.171" d="M52 20H53V21H52Z"/>
  <path fill="#383838" opacity="0.166" d="M39 17H40V18H39ZM8 29H9V30H8Z"/>
  <path fill="#383838" opacity="0.156" d="M60 29H61V30H60Z"/>
  <path fill="#383838" opacity="0.151" d="M18 17H19V18H18ZM51 20H52V21H51ZM58 20H59V21H58ZM76 20H77V21H76ZM76 21H77V22H76ZM76 22H77V23H76ZM76 23H77V24H76ZM72 32H73V33H72ZM70 34H71V35H70ZM21 38H22V39H21Z"/>
  <path fill="#383838" opacity="0.146" d="M29 17H30V18H29ZM36 20H37V21H36ZM35 25H36V26H35ZM17 37H18V38H17ZM61 38H62V39H61Z"/>
  <path fill="#383838" opacity="0.141" d="M56 25H57V26H56Z"/>
  <path fill="#383838" opacity="0.136" d="M38 14H39V15H38ZM65 16H66V17H65ZM59 17H60V18H59ZM35 27H36V28H35ZM49 27H50V28H49ZM12 34H13V35H12Z"/>
  <path fill="#383838" opacity="0.131" d="M67 6H68V7H67ZM60 14H61V15H60ZM23 15H24V16H23ZM31 26H32V27H31ZM37 27H38V28H37ZM40 29H41V30H40Z"/>
  <path fill="#383838" opacity="0.121" d="M30 17H31V18H30ZM23 23H24V24H23ZM29 24H30V25H29Z"/>
  <path fill="#383838" opacity="0.116" d="M10 10H11V11H10ZM19 17H20V18H19ZM38 17H39V18H38ZM23 19H24V20H23ZM23 22H24V23H23ZM29 23H30V24H29ZM30 27H31V28H30ZM21 28H22V29H21Z"/>
  <path fill="#383838" opacity="0.111" d="M8 13H9V14H8ZM23 16H24V17H23ZM56 26H57V27H56ZM38 27H39V28H38ZM43 27H44V28H43ZM56 27H57V28H56ZM75 27H76V28H75Z"/>
  <path fill="#383838" opacity="0.106" d="M15 6H16V7H15ZM11 9H12V10H11ZM23 13H24V14H23ZM42 15H43V16H42ZM23 18H24V19H23ZM56 18H57V19H56ZM23 21H24V22H23ZM17 22H18V23H17ZM23 26H24V27H23ZM7 27H8V28H7ZM65 37H66V38H65Z"/>
  <path fill="#383838" opacity="0.101" d="M56 19H57V20H56ZM41 27H42V28H41ZM48 27H49V28H48ZM10 32H11V33H10Z"/>
  <path fill="#383838" opacity="0.095" d="M23 14H24V15H23ZM23 20H24V21H23ZM62 20H63V21H62ZM69 35H70V36H69Z"/>
  <path fill="#383838" opacity="0.085" d="M29 22H30V23H29ZM23 24H24V25H23Z"/>
  <path fill="#383838" opacity="0.08" d="M36 13H37V14H36ZM36 27H37V28H36ZM73 31H74V32H73ZM13 35H14V36H13Z"/>
  <path fill="#383838" opacity="0.075" d="M69 7H70V8H69ZM70 8H71V9H70ZM39 19H40V20H39ZM64 29H65V30H64Z"/>
  <path fill="#383838" opacity="0.07" d="M12 8H13V9H12ZM72 10H73V11H72ZM73 11H74V12H73ZM35 15H36V16H35ZM29 18H30V19H29ZM31 19H32V20H31ZM56 28H57V29H56Z"/>
  <path fill="#383838" opacity="0.065" d="M75 15H76V16H75ZM56 24H57V25H56Z"/>
  <path fill="#383838" opacity="0.06" d="M74 9H75V10H74ZM56 13H57V14H56ZM31 18H32V19H31ZM53 20H54V21H53ZM23 25H24V26H23ZM56 29H57V30H56Z"/>
  <path fill="#383838" opacity="0.05" d="M65 5H66V6H65ZM42 16H43V17H42ZM23 17H24V18H23ZM30 23H31V24H30Z"/>
  <path fill="#383838" opacity="0.045" d="M57 14H58V15H57ZM52 15H53V16H52ZM61 17H62V18H61ZM76 19H77V20H76ZM55 25H56V26H55ZM63 28H64V29H63ZM71 36H72V37H71ZM62 38H63V39H62Z"/>
  <path fill="#383838" opacity="0.04" d="M60 4H61V5H60ZM56 15H57V16H56ZM55 16H56V17H55ZM56 17H57V18H56ZM55 18H56V19H55ZM29 21H30V22H29ZM30 22H31V23H30ZM35 23H36V24H35ZM48 29H49V30H48ZM9 31H10V32H9ZM68 36H69V37H68ZM19 38H20V39H19ZM64 38H65V39H64ZM66 38H67V39H66ZM61 39H62V40H61Z"/>
  <path fill="#383838" opacity="0.035" d="M65 4H66V5H65ZM10 8H11V9H10ZM9 10H10V11H9ZM75 12H76V13H75ZM36 14H37V15H36ZM42 14H43V15H42ZM37 16H38V17H37ZM48 16H49V17H48ZM61 16H62V17H61ZM4 17H5V18H4ZM30 18H31V19H30ZM39 18H40V19H39ZM54 19H55V20H54ZM6 20H7V21H6ZM6 21H7V22H6ZM53 21H54V22H53ZM6 22H7V23H6ZM46 22H47V23H46ZM53 22H54V23H53ZM63 22H64V23H63ZM6 23H7V24H6ZM17 23H18V24H17ZM46 23H47V24H46ZM63 23H64V24H63ZM4 27H5V28H4ZM37 28H38V29H37ZM41 28H42V29H41ZM43 28H44V29H43ZM33 29H34V30H33ZM43 29H44V30H43ZM11 35H12V36H11ZM14 36H15V37H14Z"/>
  <path fill="#383838" opacity="0.03" d="M63 4H64V5H63ZM10 9H11V10H10ZM72 9H73V10H72ZM74 11H75V12H74ZM43 14H44V15H43ZM52 14H53V15H52ZM55 14H56V15H55ZM43 16H44V17H43ZM18 18H19V19H18ZM45 18H46V19H45ZM76 18H77V19H76ZM37 23H38V24H37ZM65 23H66V24H65ZM5 24H6V25H5ZM35 24H36V25H35ZM46 24H47V25H46ZM76 24H77V25H76ZM17 25H18V26H17ZM44 27H48V28H44ZM65 28H66V29H65ZM74 31H75V32H74ZM63 38H64V39H63ZM68 38H69V39H68ZM62 39H63V40H62Z"/>
</svg>