<svg xmlns="http://www.w3.org/2000/svg" width="96" height="36" viewBox="0 0 96 36" role="img" aria-label="image2 07 vivo" shape-rendering="crispEdges">
  <title>image2 07 vivo</title>
  <desc>Pixel-level vector reconstruction extracted from the supplied PNG, with white background removed.</desc>
  <path fill="#383838" d="M49 28H50V29H49Z"/>
  <path fill="#383838" opacity="0.995" d="M65 17H66V18H65Z"/>
  <path fill="#383838" opacity="0.99" d="M64 21H65V22H64ZM64 24H65V25H64Z"/>
  <path fill="#383838" opacity="0.985" d="M33 8H34V9H33ZM57 19H58V20H57ZM21 22H22V23H21Z"/>
  <path fill="#383838" opacity="0.975" d="M34 14H35V15H34ZM23 22H24V23H23Z"/>
  <path fill="#383838" opacity="0.97" d="M66 16H67V17H66ZM26 17H27V18H26ZM8 18H9V19H8ZM42 18H43V19H42ZM57 18H58V19H57ZM9 19H10V20H9ZM23 20H24V21H23ZM64 20H65V21H64ZM22 21H23V22H22ZM86 21H87V22H86ZM46 24H47V25H46ZM17 26H18V27H17ZM53 27H54V28H53ZM83 27H84V28H83ZM16 28H17V29H16ZM51 28H52V29H51Z"/>
  <path fill="#383838" opacity="0.965" d="M6 16H7V17H6ZM24 17H25V18H24ZM59 17H60V18H59ZM11 22H12V23H11ZM32 23H33V24H32ZM34 23H35V24H34ZM13 24H14V25H13ZM53 24H54V25H53ZM47 26H48V27H47ZM49 26H50V27H49ZM65 26H66V27H65ZM51 27H52V28H51ZM69 28H70V29H69Z"/>
  <path fill="#383838" opacity="0.96" d="M28 13H29V14H28ZM32 13H33V14H32ZM60 13H61V14H60ZM27 14H28V15H27ZM68 14H69V15H68ZM39 15H40V16H39ZM59 18H60V19H59ZM65 19H66V20H65ZM32 20H33V21H32ZM34 20H35V21H34ZM63 20H64V21H63ZM64 22H65V23H64ZM65 23H66V24H65ZM14 26H15V27H14ZM52 26H53V27H52ZM66 26H67V27H66ZM19 27H20V28H19ZM81 28H82V29H81Z"/>
  <path fill="#383838" opacity="0.955" d="M27 13H28V14H27ZM61 13H62V14H61ZM69 13H70V14H69ZM79 14H80V15H79ZM84 15H85V16H84ZM85 16H86V17H85ZM32 18H33V19H32ZM34 18H35V19H34ZM25 19H26V20H25ZM32 19H33V20H32ZM34 19H35V20H34ZM64 19H65V20H64ZM44 20H45V21H44ZM10 21H11V22H10ZM23 21H24V22H23ZM32 21H33V22H32ZM34 21H35V22H34ZM43 22H44V23H43ZM45 22H46V23H45ZM55 22H56V23H55ZM11 23H13V24H11ZM87 23H88V24H87ZM21 24H22V25H21ZM46 25H47V26H46ZM13 26H14V27H13ZM67 26H68V27H67ZM83 26H84V27H83ZM32 27H33V28H32ZM34 27H35V28H34ZM69 27H70V28H69ZM78 27H80V28H78Z"/>
  <path fill="#383838" opacity="0.95" d="M33 9H34V10H33ZM33 13H35V14H33ZM32 14H33V15H32ZM71 14H72V15H71ZM77 14H79V15H77ZM80 14H81V15H80ZM83 14H84V15H83ZM5 15H6V16H5ZM7 16H8V17H7ZM41 16H42V17H41ZM65 16H66V17H65ZM84 16H85V17H84ZM24 18H25V19H24ZM43 20H44V21H43ZM86 20H88V21H86ZM11 21H12V22H11ZM55 21H56V22H55ZM22 22H23V23H22ZM56 22H57V23H56ZM86 22H87V23H86ZM20 23H21V24H20ZM33 23H34V24H33ZM45 24H46V25H45ZM54 24H55V25H54ZM14 25H15V26H14ZM47 25H48V26H47ZM68 27H69V28H68ZM77 27H78V28H77ZM17 28H18V29H17ZM34 28H35V29H34Z"/>
  <path fill="#383838" opacity="0.94" d="M34 8H35V9H34ZM68 13H69V14H68ZM77 13H79V14H77ZM81 13H83V14H81ZM69 14H71V15H69ZM76 14H77V15H76ZM40 15H41V16H40ZM67 15H68V16H67ZM32 16H33V17H32ZM34 16H35V17H34ZM39 16H40V17H39ZM58 16H59V17H58ZM42 17H43V18H42ZM86 17H87V18H86ZM7 18H8V19H7ZM25 18H27V19H25ZM58 18H59V19H58ZM87 18H88V19H87ZM24 19H25V20H24ZM43 19H44V20H43ZM58 19H59V20H58ZM33 20H34V21H33ZM43 21H44V22H43ZM56 21H58V22H56ZM32 24H33V25H32ZM34 24H35V25H34ZM55 24H56V25H55ZM85 24H86V25H85ZM69 26H70V27H69ZM18 27H19V28H18ZM48 27H49V28H48ZM76 27H77V28H76ZM80 27H81V28H80Z"/>
  <path fill="#383838" opacity="0.935" d="M76 13H77V14H76ZM79 13H80V14H79ZM7 14H8V15H7ZM26 14H27V15H26ZM38 14H39V15H38ZM72 14H73V15H72ZM75 14H76V15H75ZM7 15H8V16H7ZM26 15H27V16H26ZM32 15H33V16H32ZM34 15H35V16H34ZM65 15H67V16H65ZM40 17H41V18H40ZM66 17H67V18H66ZM9 18H10V19H9ZM33 18H34V19H33ZM41 18H42V19H41ZM64 18H65V19H64ZM85 18H87V19H85ZM10 19H11V20H10ZM23 19H24V20H23ZM33 19H34V20H33ZM11 20H12V21H11ZM22 20H23V21H22ZM33 21H34V22H33ZM65 22H66V23H65ZM21 23H22V24H21ZM45 23H46V24H45ZM55 23H56V24H55ZM32 25H33V26H32ZM34 25H35V26H34ZM66 25H67V26H66ZM84 25H85V26H84ZM18 26H19V27H18ZM48 26H49V27H48ZM14 27H15V28H14ZM16 27H18V28H16ZM33 27H34V28H33ZM50 27H51V28H50ZM75 27H76V28H75Z"/>
  <path fill="#383838" opacity="0.93" d="M33 7H34V8H33ZM34 9H35V10H34ZM6 13H7V14H6ZM70 13H71V14H70ZM75 13H76V14H75ZM80 13H81V14H80ZM61 14H62V15H61ZM73 14H75V15H73ZM81 14H83V15H81ZM61 15H62V16H61ZM68 15H69V16H68ZM25 16H26V17H25ZM40 16H41V17H40ZM7 17H8V18H7ZM32 17H33V18H32ZM34 17H35V18H34ZM64 17H65V18H64ZM85 17H86V18H85ZM65 18H66V19H65ZM8 19H9V20H8ZM41 19H42V20H41ZM63 19H64V20H63ZM9 20H11V21H9ZM44 21H45V22H44ZM87 21H88V22H87ZM12 22H13V23H12ZM32 22H33V23H32ZM34 22H35V23H34ZM13 23H14V24H13ZM46 23H47V24H46ZM86 23H87V24H86ZM66 24H67V25H66ZM86 24H87V25H86ZM12 25H13V26H12ZM45 25H46V26H45ZM19 26H20V27H19ZM52 27H53V28H52ZM70 27H71V28H70ZM74 27H75V28H74ZM84 27H85V28H84ZM33 28H34V29H33ZM48 28H49V29H48ZM50 28H51V29H50ZM72 28H76V29H72Z"/>
  <path fill="#383838" opacity="0.925" d="M38 13H40V14H38ZM72 13H75V14H72ZM83 13H84V14H83ZM6 14H7V15H6ZM39 14H40V15H39ZM66 14H67V15H66ZM41 15H42V16H41ZM59 15H60V16H59ZM8 16H9V17H8ZM33 16H34V17H33ZM9 17H10V18H9ZM23 18H24V19H23ZM44 19H45V20H44ZM87 19H88V20H87ZM56 20H58V21H56ZM10 22H11V23H10ZM44 22H45V23H44ZM54 23H55V24H54ZM22 24H23V25H22ZM33 24H34V25H33ZM53 25H54V26H53ZM46 26H47V27H46ZM66 27H67V28H66ZM72 27H74V28H72ZM18 28H19V29H18ZM76 28H81V29H76Z"/>
  <path fill="#383838" opacity="0.92" d="M32 9H33V10H32ZM40 13H41V14H40ZM28 14H29V15H28ZM33 14H34V15H33ZM6 15H7V16H6ZM33 15H34V16H33ZM85 15H86V16H85ZM43 18H44V19H43ZM42 19H43V20H42ZM56 19H57V20H56ZM42 20H43V21H42ZM63 21H64V22H63ZM44 23H45V24H44ZM12 24H13V25H12ZM19 25H20V26H19ZM33 25H34V26H33ZM52 25H53V26H52ZM67 25H68V26H67ZM85 25H86V26H85ZM32 26H33V27H32ZM34 26H35V27H34ZM53 26H54V27H53ZM47 27H48V28H47ZM81 27H82V28H81ZM82 28H83V29H82Z"/>
  <path fill="#383838" opacity="0.915" d="M40 14H41V15H40ZM60 15H61V16H60ZM26 16H27V17H26ZM59 16H60V17H59ZM86 16H87V17H86ZM33 17H34V18H33ZM58 17H59V18H58ZM33 22H34V23H33ZM87 22H88V23H87ZM20 24H21V25H20ZM20 26H21V27H20ZM15 27H16V28H15ZM67 27H68V28H67ZM15 28H16V29H15Z"/>
  <path fill="#383838" opacity="0.905" d="M33 10H34V11H33ZM5 13H6V14H5ZM60 14H61V15H60ZM84 14H85V15H84ZM27 15H29V16H27ZM41 17H42V18H41ZM87 17H88V18H87ZM45 21H46V22H45ZM65 21H66V22H65ZM54 22H55V23H54ZM64 23H65V24H64ZM13 25H14V26H13ZM51 26H52V27H51ZM82 26H83V27H82ZM13 27H14V28H13Z"/>
  <path fill="#383838" opacity="0.899" d="M35 8H36V9H35ZM71 13H72V14H71ZM5 14H6V15H5ZM67 14H68V15H67ZM25 15H26V16H25ZM8 17H9V18H8ZM65 20H66V21H65ZM46 22H47V23H46ZM22 23H23V24H22ZM65 24H66V25H65ZM65 25H66V26H65ZM15 26H16V27H15ZM33 26H34V27H33ZM84 26H86V27H84ZM49 27H50V28H49ZM68 28H69V29H68Z"/>
  <path fill="#383838" opacity="0.894" d="M32 8H33V9H32ZM77 12H80V13H77ZM67 13H68V14H67ZM27 16H28V17H27ZM25 17H26V18H25ZM57 17H58V18H57ZM24 20H25V21H24ZM9 21H10V22H9ZM68 26H69V27H68ZM71 27H72V28H71ZM82 27H83V28H82ZM32 28H33V29H32ZM52 28H53V29H52ZM70 28H72V29H70Z"/>
  <path fill="#383838" opacity="0.889" d="M32 7H33V8H32ZM34 7H35V8H34ZM71 12H72V13H71ZM76 12H77V13H76ZM12 21H13V22H12ZM24 21H25V22H24ZM85 22H86V23H85ZM85 23H86V24H85ZM44 24H45V25H44ZM47 24H48V25H47ZM54 25H55V26H54Z"/>
  <path fill="#383838" opacity="0.884" d="M75 12H76V13H75ZM59 14H60V15H59ZM85 14H86V15H85ZM83 15H84V16H83ZM60 16H61V17H60ZM86 19H87V20H86ZM21 21H22V22H21ZM20 25H21V26H20Z"/>
  <path fill="#383838" opacity="0.879" d="M72 12H75V13H72ZM19 24H20V25H19ZM21 25H22V26H21Z"/>
  <path fill="#383838" opacity="0.869" d="M62 14H63V15H62ZM11 24H12V25H11ZM86 25H87V26H86ZM16 26H17V27H16Z"/>
  <path fill="#383838" opacity="0.859" d="M8 15H9V16H8ZM38 15H39V16H38ZM60 17H61V18H60ZM63 22H64V23H63ZM54 26H55V27H54Z"/>
  <path fill="#383838" opacity="0.854" d="M33 6H34V7H33ZM80 12H81V13H80ZM62 13H63V14H62ZM67 16H68V17H67ZM63 18H64V19H63ZM48 25H49V26H48ZM12 26H13V27H12Z"/>
  <path fill="#383838" opacity="0.849" d="M85 19H86V20H85ZM55 20H56V21H55ZM53 23H54V24H53ZM50 26H51V27H50ZM20 27H21V28H20Z"/>
  <path fill="#383838" opacity="0.844" d="M64 16H65V17H64Z"/>
  <path fill="#383838" opacity="0.839" d="M10 18H11V19H10ZM46 27H47V28H46Z"/>
  <path fill="#383838" opacity="0.829" d="M70 12H71V13H70Z"/>
  <path fill="#383838" opacity="0.824" d="M82 15H83V16H82ZM87 24H88V25H87ZM81 26H82V27H81ZM83 28H84V29H83Z"/>
  <path fill="#383838" opacity="0.819" d="M31 8H32V9H31ZM63 23H64V24H63Z"/>
  <path fill="#383838" opacity="0.814" d="M40 18H41V19H40ZM56 23H57V24H56ZM14 28H15V29H14Z"/>
  <path fill="#383838" opacity="0.809" d="M42 16H43V17H42ZM58 20H59V21H58ZM20 22H21V23H20ZM70 26H71V27H70Z"/>
  <path fill="#383838" opacity="0.804" d="M6 17H7V18H6ZM54 21H55V22H54ZM14 24H15V25H14ZM52 24H53V25H52Z"/>
  <path fill="#383838" opacity="0.789" d="M26 13H27V14H26ZM88 21H89V22H88Z"/>
  <path fill="#383838" opacity="0.784" d="M42 21H43V22H42Z"/>
  <path fill="#383838" opacity="0.779" d="M21 26H22V27H21Z"/>
  <path fill="#383838" opacity="0.774" d="M10 23H11V24H10ZM83 25H84V26H83Z"/>
  <path fill="#383838" opacity="0.769" d="M86 15H87V16H86ZM88 20H89V21H88ZM66 23H67V24H66Z"/>
  <path fill="#383838" opacity="0.759" d="M8 20H9V21H8ZM19 28H20V29H19Z"/>
  <path fill="#383838" opacity="0.754" d="M25 20H26V21H25ZM64 25H65V26H64Z"/>
  <path fill="#383838" opacity="0.749" d="M81 12H82V13H81ZM4 13H5V14H4ZM84 13H85V14H84ZM47 28H48V29H47Z"/>
  <path fill="#383838" opacity="0.744" d="M57 22H58V23H57ZM84 24H85V25H84ZM18 25H19V26H18Z"/>
  <path fill="#383838" opacity="0.734" d="M4 14H5V15H4ZM15 25H16V26H15Z"/>
  <path fill="#383838" opacity="0.724" d="M58 15H59V16H58ZM56 18H57V19H56ZM71 26H72V27H71Z"/>
  <path fill="#383838" opacity="0.719" d="M85 20H86V21H85Z"/>
  <path fill="#383838" opacity="0.714" d="M61 16H62V17H61ZM88 19H89V20H88Z"/>
  <path fill="#383838" opacity="0.709" d="M29 14H30V15H29ZM72 26H76V27H72Z"/>
  <path fill="#383838" opacity="0.683" d="M24 16H25V17H24ZM85 21H86V22H85ZM86 26H87V27H86ZM85 27H86V28H85Z"/>
  <path fill="#383838" opacity="0.678" d="M11 19H12V20H11ZM55 25H56V26H55ZM45 26H46V27H45Z"/>
  <path fill="#383838" opacity="0.673" d="M43 17H44V18H43Z"/>
  <path fill="#383838" opacity="0.668" d="M22 19H23V20H22ZM13 22H14V23H13ZM80 26H81V27H80Z"/>
  <path fill="#383838" opacity="0.663" d="M47 23H48V24H47Z"/>
  <path fill="#383838" opacity="0.648" d="M29 13H30V14H29ZM23 23H24V24H23ZM76 26H80V27H76Z"/>
  <path fill="#383838" opacity="0.643" d="M7 13H8V14H7ZM27 17H28V18H27ZM41 20H42V21H41Z"/>
  <path fill="#383838" opacity="0.638" d="M69 15H70V16H69Z"/>
  <path fill="#383838" opacity="0.633" d="M5 16H6V17H5ZM59 19H60V20H59ZM71 29H72V30H71Z"/>
  <path fill="#383838" opacity="0.628" d="M69 12H70V13H69ZM82 12H83V13H82ZM9 16H10V17H9ZM50 29H51V30H50Z"/>
  <path fill="#383838" opacity="0.618" d="M84 17H85V18H84ZM45 20H46V21H45ZM43 23H44V24H43ZM72 29H76V30H72ZM80 29H81V30H80Z"/>
  <path fill="#383838" opacity="0.613" d="M17 29H18V30H17ZM76 29H80V30H76Z"/>
  <path fill="#383838" opacity="0.608" d="M9 22H10V23H9Z"/>
  <path fill="#383838" opacity="0.603" d="M68 25H69V26H68Z"/>
  <path fill="#383838" opacity="0.598" d="M66 18H67V19H66ZM49 29H50V30H49Z"/>
  <path fill="#383838" opacity="0.593" d="M87 16H88V17H87ZM88 22H89V23H88Z"/>
  <path fill="#383838" opacity="0.583" d="M39 12H40V13H39Z"/>
  <path fill="#383838" opacity="0.578" d="M67 28H68V29H67ZM70 29H71V30H70ZM81 29H82V30H81Z"/>
  <path fill="#383838" opacity="0.573" d="M33 12H34V13H33ZM7 19H8V20H7ZM16 29H17V30H16ZM33 29H34V30H33Z"/>
  <path fill="#383838" opacity="0.568" d="M51 29H52V30H51Z"/>
  <path fill="#383838" opacity="0.563" d="M83 16H84V17H83Z"/>
  <path fill="#383838" opacity="0.558" d="M53 22H54V23H53Z"/>
  <path fill="#383838" opacity="0.548" d="M61 12H62V13H61ZM63 17H64V18H63Z"/>
  <path fill="#383838" opacity="0.543" d="M5 12H6V13H5ZM28 12H29V13H28ZM11 25H12V26H11Z"/>
  <path fill="#383838" opacity="0.533" d="M39 17H40V18H39ZM55 19H56V20H55Z"/>
  <path fill="#383838" opacity="0.528" d="M38 12H39V13H38ZM19 23H20V24H19Z"/>
  <path fill="#383838" opacity="0.523" d="M65 14H66V15H65Z"/>
  <path fill="#383838" opacity="0.508" d="M27 12H28V13H27ZM41 14H42V15H41Z"/>
  <path fill="#383838" opacity="0.503" d="M37 13H38V14H37ZM59 13H60V14H59ZM81 15H82V16H81ZM15 29H16V30H15Z"/>
  <path fill="#383838" opacity="0.497" d="M6 12H7V13H6Z"/>
  <path fill="#383838" opacity="0.492" d="M18 29H19V30H18Z"/>
  <path fill="#383838" opacity="0.477" d="M34 10H35V11H34ZM28 16H29V17H28Z"/>
  <path fill="#383838" opacity="0.472" d="M37 14H38V15H37ZM23 17H24V18H23Z"/>
  <path fill="#383838" opacity="0.467" d="M63 24H64V25H63Z"/>
  <path fill="#383838" opacity="0.457" d="M68 12H69V13H68Z"/>
  <path fill="#383838" opacity="0.452" d="M34 6H35V7H34ZM88 18H89V19H88Z"/>
  <path fill="#383838" opacity="0.442" d="M57 16H58V17H57ZM56 24H57V25H56ZM51 25H52V26H51ZM87 25H88V26H87ZM48 29H49V30H48ZM69 29H70V30H69Z"/>
  <path fill="#383838" opacity="0.432" d="M44 25H45V26H44ZM34 29H35V30H34Z"/>
  <path fill="#383838" opacity="0.422" d="M22 25H23V26H22Z"/>
  <path fill="#383838" opacity="0.417" d="M21 20H22V21H21ZM84 28H85V29H84ZM32 29H33V30H32Z"/>
  <path fill="#383838" opacity="0.412" d="M35 9H36V10H35ZM70 15H71V16H70ZM26 19H27V20H26ZM67 24H68V25H67Z"/>
  <path fill="#383838" opacity="0.402" d="M25 14H26V15H25ZM64 15H65V16H64ZM24 22H25V23H24ZM66 22H67V23H66Z"/>
  <path fill="#383838" opacity="0.397" d="M77 15H80V16H77ZM53 28H54V29H53Z"/>
  <path fill="#383838" opacity="0.392" d="M62 15H63V16H62ZM76 15H77V16H76ZM60 18H61V19H60ZM14 23H15V24H14Z"/>
  <path fill="#383838" opacity="0.387" d="M60 12H61V13H60ZM75 15H76V16H75ZM80 15H81V16H80ZM58 21H59V22H58Z"/>
  <path fill="#383838" opacity="0.382" d="M32 10H33V11H32ZM34 12H35V13H34ZM72 15H75V16H72Z"/>
  <path fill="#383838" opacity="0.377" d="M82 29H83V30H82Z"/>
  <path fill="#383838" opacity="0.367" d="M4 15H5V16H4ZM71 15H72V16H71ZM13 28H14V29H13Z"/>
  <path fill="#383838" opacity="0.362" d="M31 9H32V10H31ZM12 20H13V21H12Z"/>
  <path fill="#383838" opacity="0.357" d="M42 15H43V16H42ZM10 17H11V18H10Z"/>
  <path fill="#383838" opacity="0.352" d="M35 7H36V8H35ZM32 12H33V13H32ZM66 13H67V14H66ZM88 23H89V24H88Z"/>
  <path fill="#383838" opacity="0.347" d="M10 24H11V25H10Z"/>
  <path fill="#383838" opacity="0.342" d="M38 16H39V17H38ZM8 21H9V22H8Z"/>
  <path fill="#383838" opacity="0.332" d="M44 18H45V19H44Z"/>
  <path fill="#383838" opacity="0.327" d="M32 6H33V7H32Z"/>
  <path fill="#383838" opacity="0.322" d="M8 14H9V15H8Z"/>
  <path fill="#383838" opacity="0.317" d="M65 27H66V28H65Z"/>
  <path fill="#383838" opacity="0.307" d="M31 7H32V8H31ZM42 22H43V23H42ZM54 27H55V28H54Z"/>
  <path fill="#383838" opacity="0.296" d="M46 21H47V22H46Z"/>
  <path fill="#383838" opacity="0.291" d="M56 17H57V18H56Z"/>
  <path fill="#383838" opacity="0.286" d="M4 12H5V13H4ZM68 16H69V17H68Z"/>
  <path fill="#383838" opacity="0.281" d="M58 14H59V15H58ZM54 20H55V21H54ZM35 23H36V24H35Z"/>
  <path fill="#383838" opacity="0.276" d="M83 12H84V13H83ZM35 20H36V21H35Z"/>
  <path fill="#383838" opacity="0.271" d="M35 14H36V15H35ZM35 18H36V19H35ZM35 19H36V20H35ZM35 21H36V22H35ZM35 27H36V28H35ZM46 28H47V29H46Z"/>
  <path fill="#383838" opacity="0.256" d="M35 16H36V17H35ZM6 18H7V19H6ZM35 24H36V25H35ZM48 24H49V25H48Z"/>
  <path fill="#383838" opacity="0.251" d="M35 15H36V16H35ZM40 19H41V20H40ZM66 19H67V20H66ZM35 25H36V26H35ZM64 26H65V27H64Z"/>
  <path fill="#383838" opacity="0.246" d="M31 14H32V15H31ZM35 17H36V18H35ZM35 22H36V23H35ZM52 23H53V24H52ZM31 27H32V28H31ZM20 28H21V29H20Z"/>
  <path fill="#383838" opacity="0.236" d="M59 20H60V21H59ZM31 24H32V25H31ZM35 26H36V27H35ZM12 27H13V28H12Z"/>
  <path fill="#383838" opacity="0.226" d="M27 18H28V19H27ZM84 23H85V24H84ZM31 25H32V26H31Z"/>
  <path fill="#383838" opacity="0.221" d="M40 12H41V13H40ZM31 23H32V24H31ZM68 29H69V30H68Z"/>
  <path fill="#383838" opacity="0.216" d="M62 12H63V13H62ZM31 20H32V21H31Z"/>
  <path fill="#383838" opacity="0.211" d="M29 15H30V16H29ZM31 18H32V19H31ZM31 19H32V20H31ZM31 21H32V22H31ZM31 26H32V27H31Z"/>
  <path fill="#383838" opacity="0.201" d="M31 16H32V17H31ZM66 28H67V29H66Z"/>
  <path fill="#383838" opacity="0.191" d="M31 15H32V16H31Z"/>
  <path fill="#383838" opacity="0.186" d="M67 12H68V13H67ZM87 15H88V16H87ZM31 17H32V18H31ZM25 21H26V22H25ZM31 22H32V23H31Z"/>
  <path fill="#383838" opacity="0.181" d="M86 14H87V15H86Z"/>
  <path fill="#383838" opacity="0.176" d="M5 17H6V18H5ZM67 17H68V18H67Z"/>
  <path fill="#383838" opacity="0.166" d="M24 15H25V16H24ZM11 18H12V19H11ZM23 24H24V25H23ZM82 25H83V26H82Z"/>
  <path fill="#383838" opacity="0.151" d="M22 18H23V19H22ZM49 25H50V26H49Z"/>
  <path fill="#383838" opacity="0.146" d="M45 19H46V20H45ZM20 21H21V22H20ZM21 27H22V28H21ZM45 27H46V28H45ZM52 29H53V30H52Z"/>
  <path fill="#383838" opacity="0.141" d="M9 15H10V16H9Z"/>
  <path fill="#383838" opacity="0.136" d="M36 8H37V9H36ZM84 18H85V19H84ZM41 21H42V22H41ZM66 21H67V22H66ZM19 22H20V23H19ZM55 26H56V27H55Z"/>
  <path fill="#383838" opacity="0.131" d="M57 23H58V24H57ZM18 24H19V25H18Z"/>
  <path fill="#383838" opacity="0.121" d="M83 29H84V30H83Z"/>
  <path fill="#383838" opacity="0.116" d="M62 20H63V21H62ZM66 20H67V21H66Z"/>
  <path fill="#383838" opacity="0.111" d="M31 13H32V14H31ZM85 13H86V14H85ZM19 29H20V30H19Z"/>
  <path fill="#383838" opacity="0.106" d="M29 12H30V13H29ZM37 15H38V16H37ZM61 17H62V18H61ZM86 27H87V28H86Z"/>
  <path fill="#383838" opacity="0.101" d="M13 21H14V22H13Z"/>
  <path fill="#383838" opacity="0.095" d="M7 12H8V13H7ZM88 17H89V18H88ZM62 21H63V22H62ZM69 25H70V26H69Z"/>
  <path fill="#383838" opacity="0.085" d="M63 16H64V17H63ZM17 25H18V26H17ZM11 26H12V27H11ZM35 28H36V29H35ZM14 29H15V30H14Z"/>
  <path fill="#383838" opacity="0.08" d="M33 11H34V12H33ZM47 22H48V23H47ZM15 24H16V25H15ZM88 24H89V25H88Z"/>
  <path fill="#383838" opacity="0.075" d="M41 13H42V14H41ZM43 16H44V17H43ZM50 25H51V26H50Z"/>
  <path fill="#383838" opacity="0.07" d="M37 12H38V13H37ZM69 16H70V17H69ZM39 18H40V19H39ZM18 30H19V31H18Z"/>
  <path fill="#383838" opacity="0.065" d="M35 13H36V14H35ZM9 23H10V24H9Z"/>
  <path fill="#383838" opacity="0.06" d="M63 14H64V15H63ZM54 17H55V18H54ZM28 19H29V20H28ZM62 19H63V20H62ZM71 19H72V20H71ZM67 23H68V24H67ZM63 25H64V26H63ZM87 26H88V27H87ZM27 27H28V28H27ZM47 29H48V30H47ZM33 30H34V31H33Z"/>
  <path fill="#383838" opacity="0.05" d="M30 8H31V9H30ZM28 17H29V18H28ZM53 19H54V20H53ZM69 19H70V20H69ZM47 21H48V22H47ZM62 22H63V23H62ZM59 25H60V26H59Z"/>
  <path fill="#383838" opacity="0.045" d="M32 5H33V6H32ZM64 12H65V13H64ZM25 13H26V14H25ZM68 17H69V18H68ZM84 19H85V20H84ZM22 26H23V27H22ZM54 28H55V29H54ZM55 30H56V31H55Z"/>
  <path fill="#383838" opacity="0.04" d="M30 16H31V17H30ZM38 17H39V18H38ZM53 17H54V18H53ZM55 18H56V19H55ZM90 18H91V19H90ZM52 19H53V20H52ZM52 20H53V21H52ZM8 23H9V24H8ZM16 25H17V26H16ZM61 25H62V26H61ZM63 26H64V27H63ZM44 28H45V29H44ZM54 29H55V30H54ZM67 31H68V32H67Z"/>
  <path fill="#383838" opacity="0.035" d="M37 8H38V9H37ZM36 9H37V10H36ZM35 11H36V12H35ZM26 12H27V13H26ZM64 14H65V15H64ZM10 16H11V17H10ZM82 16H83V17H82ZM83 17H84V18H83ZM83 19H84V20H83ZM91 19H92V20H91ZM15 20H16V21H15ZM89 21H90V22H89ZM91 21H92V22H91ZM14 22H15V23H14ZM40 23H41V24H40ZM62 24H63V25H62ZM80 24H81V25H80ZM60 26H61V27H60ZM49 30H50V31H49ZM80 30H81V31H80ZM83 30H84V31H83ZM85 30H86V31H85Z"/>
  <path fill="#383838" opacity="0.03" d="M28 4H29V5H28ZM28 5H29V6H28ZM35 12H36V13H35ZM42 12H43V13H42ZM58 12H59V13H58ZM66 12H67V13H66ZM63 15H64V16H63ZM23 16H24V17H23ZM80 16H81V17H80ZM88 16H89V17H88ZM28 18H29V19H28ZM52 18H54V19H52ZM29 19H30V20H29ZM67 19H68V20H67ZM52 21H53V22H52ZM91 22H92V23H91ZM15 23H16V24H15ZM62 23H63V24H62ZM17 24H18V25H17ZM81 25H82V26H81ZM11 27H12V28H11ZM30 27H31V28H30ZM39 27H40V28H39ZM87 28H88V29H87ZM45 29H46V30H45ZM52 30H53V31H52ZM15 31H16V32H15ZM20 31H21V32H20ZM34 31H35V32H34ZM50 31H51V32H50ZM66 31H67V32H66Z"/>
</svg>