<svg xmlns="http://www.w3.org/2000/svg" width="156" height="28" viewBox="0 0 156 28" role="img" aria-label="image2 05 john-lobb" shape-rendering="crispEdges">
  <title>image2 05 john-lobb</title>
  <desc>Pixel-level vector reconstruction extracted from the supplied PNG, with white background removed.</desc>
  <path fill="#393939" d="M114 16H115V17H114Z"/>
  <path fill="#393939" opacity="0.995" d="M102 16H103V17H102Z"/>
  <path fill="#393939" opacity="0.99" d="M146 6H147V7H146ZM101 11H102V12H101ZM95 21H96V22H95Z"/>
  <path fill="#393939" opacity="0.98" d="M34 11H35V12H34ZM46 13H47V14H46ZM127 13H128V14H127ZM147 13H148V14H147ZM33 17H34V18H33ZM87 17H88V18H87ZM131 20H132V21H131ZM108 21H109V22H108Z"/>
  <path fill="#393939" opacity="0.975" d="M131 9H132V10H131ZM102 12H103V13H102ZM49 13H50V14H49ZM65 13H66V14H65ZM102 15H103V16H102ZM130 17H131V18H130ZM51 20H52V21H51ZM25 21H26V22H25Z"/>
  <path fill="#393939" opacity="0.97" d="M145 6H146V7H145ZM31 7H32V8H31ZM106 7H107V8H106ZM113 9H114V10H113ZM130 9H131V10H130ZM131 10H132V11H131ZM102 11H103V12H102ZM123 13H124V14H123ZM130 15H131V16H130ZM149 16H150V17H149ZM70 17H71V18H70ZM132 17H133V18H132ZM139 19H140V20H139ZM122 20H123V21H122ZM8 21H9V22H8ZM26 21H27V22H26Z"/>
  <path fill="#393939" opacity="0.965" d="M28 5H29V6H28ZM13 7H14V8H13ZM104 7H105V8H104ZM128 7H129V8H128ZM33 8H34V9H33ZM63 9H64V10H63ZM23 10H24V11H23ZM140 12H141V13H140ZM143 12H144V13H143ZM146 12H147V13H146ZM33 13H34V14H33ZM50 13H51V14H50ZM33 14H34V15H33ZM129 14H130V15H129ZM22 16H23V17H22ZM112 17H113V18H112ZM32 18H33V19H32ZM51 19H53V20H51ZM111 19H112V20H111ZM105 20H106V21H105ZM60 21H61V22H60ZM143 21H144V22H143ZM10 22H11V23H10Z"/>
  <path fill="#393939" opacity="0.96" d="M26 6H27V7H26ZM14 7H15V8H14ZM42 7H43V8H42ZM102 8H103V9H102ZM147 8H148V9H147ZM22 9H23V10H22ZM111 9H112V10H111ZM139 9H140V10H139ZM63 10H64V11H63ZM70 10H71V11H70ZM22 11H23V12H22ZM70 11H71V12H70ZM112 11H113V12H112ZM130 11H131V12H130ZM148 11H149V12H148ZM34 12H35V13H34ZM66 13H67V14H66ZM100 13H101V14H100ZM100 14H101V15H100ZM139 14H140V15H139ZM13 15H14V16H13ZM34 15H35V16H34ZM14 17H15V18H14ZM149 17H150V18H149ZM32 19H33V20H32ZM41 19H43V20H41ZM69 19H70V20H69ZM149 19H150V20H149ZM60 20H61V21H60ZM71 20H72V21H71ZM104 20H105V21H104ZM9 21H10V22H9ZM27 21H28V22H27ZM30 21H31V22H30ZM52 21H53V22H52ZM70 21H71V22H70ZM110 21H111V22H110ZM144 21H145V22H144ZM107 22H108V23H107Z"/>
  <path fill="#393939" opacity="0.955" d="M41 6H42V7H41ZM86 6H87V7H86ZM108 6H109V7H108ZM26 7H27V8H26ZM30 7H31V8H30ZM146 7H147V8H146ZM60 8H61V9H60ZM63 8H64V9H63ZM104 8H105V9H104ZM129 8H130V9H129ZM60 9H61V10H60ZM70 9H71V10H70ZM34 10H35V11H34ZM41 10H43V11H41ZM60 10H61V11H60ZM112 10H113V11H112ZM139 10H140V11H139ZM60 11H61V12H60ZM71 11H72V12H71ZM61 12H62V13H61ZM65 12H66V13H65ZM114 12H115V13H114ZM144 12H146V13H144ZM147 12H148V13H147ZM22 13H23V14H22ZM61 13H62V14H61ZM114 13H115V14H114ZM61 14H62V15H61ZM66 14H67V15H66ZM70 14H71V15H70ZM114 14H115V15H114ZM14 15H15V16H14ZM61 15H62V16H61ZM70 15H71V16H70ZM114 15H115V16H114ZM121 15H122V16H121ZM21 16H22V17H21ZM61 16H62V17H61ZM101 16H102V17H101ZM121 16H122V17H121ZM51 17H53V18H51ZM61 17H62V18H61ZM5 18H6V19H5ZM61 18H62V19H61ZM68 18H69V19H68ZM130 18H131V19H130ZM149 18H150V19H149ZM61 19H62V20H61ZM130 19H131V20H130ZM13 20H14V21H13ZM70 20H71V21H70ZM10 21H11V22H10ZM12 21H13V22H12ZM51 21H52V22H51ZM128 21H129V22H128Z"/>
  <path fill="#393939" opacity="0.944" d="M25 6H26V7H25ZM31 6H32V7H31ZM51 6H52V7H51ZM62 6H63V7H62ZM109 6H110V7H109ZM128 6H129V7H128ZM144 6H145V7H144ZM25 7H26V8H25ZM103 7H104V8H103ZM144 7H146V8H144ZM13 8H14V9H13ZM24 8H25V9H24ZM61 8H62V9H61ZM121 8H122V9H121ZM139 8H140V9H139ZM13 9H14V10H13ZM61 9H62V10H61ZM102 9H103V10H102ZM121 9H122V10H121ZM13 10H14V11H13ZM21 10H22V11H21ZM61 10H62V11H61ZM71 10H72V11H71ZM121 10H122V11H121ZM148 10H149V11H148ZM13 11H14V12H13ZM33 11H34V12H33ZM61 11H62V12H61ZM121 11H122V12H121ZM13 12H14V13H13ZM45 12H46V13H45ZM51 12H53V13H51ZM60 12H61V13H60ZM71 12H72V13H71ZM121 12H122V13H121ZM129 12H130V13H129ZM139 12H140V13H139ZM13 13H14V14H13ZM41 13H43V14H41ZM45 13H46V14H45ZM47 13H48V14H47ZM51 13H53V14H51ZM60 13H61V14H60ZM121 13H122V14H121ZM124 13H125V14H124ZM126 13H127V14H126ZM128 13H129V14H128ZM144 13H146V14H144ZM41 14H43V15H41ZM51 14H53V15H51ZM60 14H61V15H60ZM71 14H72V15H71ZM121 14H122V15H121ZM148 14H149V15H148ZM51 15H53V16H51ZM60 15H61V16H60ZM139 15H140V16H139ZM149 15H150V16H149ZM34 16H35V17H34ZM60 16H61V17H60ZM70 16H71V17H70ZM139 16H140V17H139ZM21 17H22V18H21ZM41 17H43V18H41ZM60 17H61V18H60ZM139 17H140V18H139ZM14 18H15V19H14ZM60 18H61V19H60ZM112 18H113V19H112ZM60 19H61V20H60ZM70 19H71V20H70ZM87 19H88V20H87ZM131 19H132V20H131ZM11 20H12V21H11ZM14 20H15V21H14ZM30 20H31V21H30ZM52 20H53V21H52ZM61 20H62V21H61ZM69 20H70V21H69ZM103 20H104V21H103ZM149 20H150V21H149ZM7 21H8V22H7ZM24 21H25V22H24ZM107 21H108V22H107ZM123 21H127V22H123ZM145 21H146V22H145ZM27 22H28V23H27Z"/>
  <path fill="#393939" opacity="0.939" d="M13 6H14V7H13ZM27 6H29V7H27ZM127 6H128V7H127ZM51 7H53V8H51ZM139 7H144V8H139ZM147 7H149V8H147ZM14 8H15V9H14ZM51 8H53V9H51ZM14 9H15V10H14ZM32 9H33V10H32ZM41 9H43V10H41ZM71 9H72V10H71ZM14 10H15V11H14ZM33 10H34V11H33ZM14 11H15V12H14ZM41 11H43V12H41ZM51 11H53V12H51ZM63 11H64V12H63ZM139 11H140V12H139ZM14 12H15V13H14ZM46 12H48V13H46ZM86 12H87V13H86ZM101 12H102V13H101ZM113 12H114V13H113ZM125 12H126V13H125ZM14 13H15V14H14ZM21 13H22V14H21ZM43 13H44V14H43ZM86 13H87V14H86ZM113 13H114V14H113ZM139 13H141V14H139ZM22 14H23V15H22ZM86 14H87V15H86ZM113 14H114V15H113ZM147 14H148V15H147ZM66 15H67V16H66ZM71 15H72V16H71ZM86 15H87V16H86ZM101 15H102V16H101ZM113 15H114V16H113ZM131 15H132V16H131ZM13 16H14V17H13ZM71 16H72V17H71ZM86 16H88V17H86ZM112 16H114V17H112ZM5 17H6V18H5ZM32 17H33V18H32ZM86 17H87V18H86ZM121 17H122V18H121ZM86 18H87V19H86ZM102 18H103V19H102ZM13 19H14V20H13ZM86 19H87V20H86ZM112 19H113V20H112ZM8 20H9V21H8ZM86 20H87V21H86ZM121 20H122V21H121ZM139 20H140V21H139ZM61 21H62V22H61ZM86 21H87V22H86ZM139 21H140V22H139ZM146 21H148V22H146ZM105 22H106V23H105ZM108 22H109V23H108Z"/>
  <path fill="#393939" opacity="0.934" d="M29 6H30V7H29ZM61 6H62V7H61ZM139 6H142V7H139ZM143 6H144V7H143ZM86 7H87V8H86ZM109 7H112V8H109ZM121 7H123V8H121ZM41 8H43V9H41ZM86 8H87V9H86ZM86 9H87V10H86ZM86 10H87V11H86ZM86 11H87V12H86ZM113 11H114V12H113ZM41 12H43V13H41ZM49 12H50V13H49ZM100 12H101V13H100ZM124 12H125V13H124ZM126 12H128V13H126ZM34 13H35V14H34ZM44 13H45V14H44ZM125 13H126V14H125ZM13 14H14V15H13ZM34 14H35V15H34ZM100 15H101V16H100ZM51 16H53V17H51ZM66 16H67V17H66ZM68 17H70V18H68ZM71 17H72V18H71ZM13 18H14V19H13ZM51 18H53V19H51ZM148 18H149V19H148ZM33 19H34V20H33ZM68 19H69V20H68ZM121 19H122V20H121ZM7 20H8V21H7ZM23 20H24V21H23ZM42 20H43V21H42ZM87 20H95V21H87ZM129 20H130V21H129ZM29 21H30V22H29ZM121 21H122V22H121ZM129 21H130V22H129ZM140 21H141V22H140ZM28 22H29V23H28ZM109 22H110V23H109Z"/>
  <path fill="#393939" opacity="0.929" d="M30 6H31V7H30ZM42 6H43V7H42ZM52 6H53V7H52ZM104 6H108V7H104ZM123 6H127V7H123ZM142 6H143V7H142ZM71 7H72V8H71ZM105 7H106V8H105ZM123 7H127V8H123ZM31 8H32V9H31ZM70 8H71V9H70ZM87 8H88V9H87ZM111 8H112V9H111ZM33 9H34V10H33ZM87 9H88V10H87ZM113 10H114V11H113ZM130 10H131V11H130ZM147 11H148V12H147ZM64 12H65V13H64ZM64 13H65V14H64ZM71 13H72V14H71ZM14 14H15V15H14ZM21 14H22V15H21ZM14 16H15V17H14ZM41 16H43V17H41ZM67 16H68V17H67ZM130 16H131V17H130ZM6 17H7V18H6ZM34 17H35V18H34ZM131 17H132V18H131ZM148 17H149V18H148ZM33 18H34V19H33ZM41 18H43V19H41ZM67 18H68V19H67ZM71 18H72V19H71ZM87 18H88V19H87ZM101 18H102V19H101ZM103 18H104V19H103ZM121 18H122V19H121ZM5 19H6V20H5ZM22 19H24V20H22ZM71 19H72V20H71ZM148 19H149V20H148ZM6 20H7V21H6ZM95 20H96V21H95ZM146 20H147V21H146ZM148 20H149V21H148ZM28 21H29V22H28ZM42 21H43V22H42ZM87 21H95V22H87ZM105 21H106V22H105ZM127 21H128V22H127ZM9 22H10V23H9ZM26 22H27V23H26Z"/>
  <path fill="#393939" opacity="0.924" d="M14 6H15V7H14ZM23 7H25V8H23ZM32 7H33V8H32ZM127 7H128V8H127ZM129 7H130V8H129ZM103 8H104V9H103ZM130 8H131V9H130ZM23 9H24V10H23ZM51 9H53V10H51ZM103 9H104V10H103ZM87 10H88V11H87ZM140 10H141V11H140ZM64 11H65V12H64ZM87 11H88V12H87ZM129 11H130V12H129ZM43 12H44V13H43ZM70 12H71V13H70ZM87 12H88V13H87ZM87 13H88V14H87ZM65 14H66V15H65ZM131 14H132V15H131ZM22 15H23V16H22ZM41 15H43V16H41ZM67 15H68V16H67ZM33 16H34V17H33ZM131 16H132V17H131ZM22 17H23V18H22ZM67 17H68V18H67ZM113 17H114V18H113ZM6 18H7V19H6ZM69 18H70V19H69ZM113 18H114V19H113ZM139 18H140V19H139ZM14 19H15V20H14ZM31 19H32V20H31ZM109 20H110V21H109ZM130 20H131V21H130ZM147 20H148V21H147ZM41 21H42V22H41ZM71 21H72V22H71ZM122 21H123V22H122Z"/>
  <path fill="#393939" opacity="0.919" d="M106 5H107V6H106ZM108 5H109V6H108ZM110 6H111V7H110ZM121 6H122V7H121ZM41 7H42V8H41ZM60 7H61V8H60ZM62 7H63V8H62ZM71 8H72V9H71ZM140 9H141V10H140ZM147 9H150V10H147ZM51 10H53V11H51ZM64 10H65V11H64ZM129 10H130V11H129ZM114 11H115V12H114ZM123 12H124V13H123ZM101 13H103V14H101ZM129 13H130V14H129ZM87 14H88V15H87ZM101 14H103V15H101ZM87 15H88V16H87ZM122 15H123V16H122ZM6 16H7V17H6ZM122 16H123V17H122ZM101 17H102V18H101ZM22 18H23V19H22ZM7 19H8V20H7ZM24 19H25V20H24ZM32 20H33V21H32ZM111 20H112V21H111ZM128 20H129V21H128ZM140 20H141V21H140ZM106 21H107V22H106ZM141 21H142V22H141ZM11 22H12V23H11Z"/>
  <path fill="#393939" opacity="0.909" d="M147 6H148V7H147ZM27 7H28V8H27ZM29 7H30V8H29ZM61 7H62V8H61ZM87 7H88V8H87ZM22 8H23V9H22ZM62 8H63V9H62ZM122 8H123V9H122ZM62 9H63V10H62ZM122 9H123V10H122ZM62 10H63V11H62ZM102 10H103V11H102ZM122 10H123V11H122ZM62 11H63V12H62ZM122 11H123V12H122ZM22 12H23V13H22ZM44 12H45V13H44ZM48 12H49V13H48ZM50 12H51V13H50ZM112 12H113V13H112ZM122 12H123V13H122ZM142 12H143V13H142ZM70 13H71V14H70ZM112 13H113V14H112ZM122 13H123V14H122ZM142 13H144V14H142ZM146 13H147V14H146ZM112 14H113V15H112ZM122 14H123V15H122ZM130 14H131V15H130ZM112 15H113V16H112ZM148 15H149V16H148ZM100 16H101V17H100ZM132 16H133V17H132ZM148 16H149V17H148ZM70 18H71V19H70ZM31 20H32V21H31ZM69 21H70V22H69ZM142 21H143V22H142ZM106 22H107V23H106Z"/>
  <path fill="#393939" opacity="0.904" d="M107 5H108V6H107ZM60 6H61V7H60ZM70 6H71V7H70ZM70 7H71V8H70ZM108 7H109V8H108ZM130 7H131V8H130ZM138 7H139V8H138ZM23 8H24V9H23ZM32 8H33V9H32ZM112 8H113V9H112ZM131 8H132V9H131ZM22 10H23V11H22ZM147 10H148V11H147ZM140 11H141V12H140ZM33 12H34V13H33ZM48 13H49V14H48ZM21 15H22V16H21ZM33 15H34V16H33ZM5 16H6V17H5ZM122 17H123V18H122ZM150 17H151V18H150ZM23 18H24V19H23ZM103 19H104V20H103ZM140 19H141V20H140ZM104 21H105V22H104ZM148 21H149V22H148Z"/>
  <path fill="#393939" opacity="0.899" d="M26 5H27V6H26ZM24 6H25V7H24ZM28 7H29V8H28ZM112 9H113V10H112ZM21 11H22V12H21ZM43 14H44V15H43ZM131 18H133V19H131ZM6 19H7V20H6ZM102 19H103V20H102ZM122 19H123V20H122ZM138 19H139V20H138ZM12 20H13V21H12ZM24 20H25V21H24ZM26 20H27V21H26ZM110 20H111V21H110ZM11 21H12V22H11ZM96 21H97V22H96Z"/>
  <path fill="#393939" opacity="0.894" d="M71 6H72V7H71ZM122 6H123V7H122ZM148 8H149V9H148ZM32 10H33V11H32ZM101 10H102V11H101ZM138 10H139V11H138ZM21 12H22V13H21ZM138 13H139V14H138ZM128 14H129V15H128ZM138 14H139V15H138ZM138 15H139V16H138ZM102 17H103V18H102ZM122 18H123V19H122ZM150 18H151V19H150ZM12 19H13V20H12ZM145 20H146V21H145ZM13 21H14V22H13ZM31 21H32V22H31ZM109 21H110V22H109ZM130 21H131V22H130ZM138 21H139V22H138Z"/>
  <path fill="#393939" opacity="0.889" d="M87 6H88V7H87ZM140 8H141V9H140ZM149 10H150V11H149ZM141 13H142V14H141ZM103 21H104V22H103ZM8 22H9V23H8Z"/>
  <path fill="#393939" opacity="0.884" d="M29 5H30V6H29ZM101 9H102V10H101ZM65 11H66V12H65ZM128 12H129V13H128ZM140 15H141V16H140ZM140 16H141V17H140ZM23 17H24V18H23ZM140 17H141V18H140ZM25 20H26V21H25ZM41 20H42V21H41ZM112 20H113V21H112ZM127 20H128V21H127ZM141 20H142V21H141ZM29 22H30V23H29Z"/>
  <path fill="#393939" opacity="0.874" d="M138 6H139V7H138ZM129 9H130V10H129ZM138 9H139V10H138ZM43 11H44V12H43ZM138 12H139V13H138ZM141 12H142V13H141ZM68 16H69V17H68ZM138 16H139V17H138ZM13 17H14V18H13ZM138 17H139V18H138ZM68 20H69V21H68Z"/>
  <path fill="#393939" opacity="0.869" d="M27 5H28V6H27ZM129 6H130V7H129ZM110 8H111V9H110ZM100 11H101V12H100ZM138 11H139V12H138ZM140 14H141V15H140ZM146 14H147V15H146ZM65 15H66V16H65ZM111 18H112V19H111Z"/>
  <path fill="#393939" opacity="0.864" d="M43 7H44V8H43ZM112 7H113V8H112ZM146 11H147V12H146ZM149 14H150V15H149ZM150 16H151V17H150ZM123 20H127V21H123ZM142 20H143V21H142Z"/>
  <path fill="#393939" opacity="0.859" d="M120 6H121V7H120ZM107 7H108V8H107ZM138 8H139V9H138ZM131 11H132V12H131ZM140 18H141V19H140ZM147 19H148V20H147ZM120 21H121V22H120ZM25 22H26V23H25ZM95 22H96V23H95Z"/>
  <path fill="#393939" opacity="0.854" d="M111 6H112V7H111ZM6 15H7V16H6ZM120 15H121V16H120ZM120 16H121V17H120ZM66 17H67V18H66ZM138 18H139V19H138ZM96 20H97V21H96Z"/>
  <path fill="#393939" opacity="0.848" d="M120 8H121V9H120ZM64 9H65V10H64ZM120 9H121V10H120ZM120 10H121V11H120ZM120 11H121V12H120ZM120 12H121V13H120ZM120 13H121V14H120ZM120 14H121V15H120ZM101 19H102V20H101ZM144 20H145V21H144Z"/>
  <path fill="#393939" opacity="0.843" d="M43 6H44V7H43ZM43 15H44V16H43ZM120 17H121V18H120ZM43 19H44V20H43ZM113 19H114V20H113ZM150 19H151V20H150ZM102 20H103V21H102ZM138 20H139V21H138ZM6 21H7V22H6ZM111 21H112V22H111Z"/>
  <path fill="#393939" opacity="0.833" d="M120 7H121V8H120ZM34 9H35V10H34ZM120 19H121V20H120ZM51 22H52V23H51ZM122 22H123V23H122Z"/>
  <path fill="#393939" opacity="0.828" d="M43 17H44V18H43ZM120 18H121V19H120ZM120 20H121V21H120Z"/>
  <path fill="#393939" opacity="0.823" d="M43 9H44V10H43ZM34 18H35V19H34ZM29 20H30V21H29ZM43 20H44V21H43ZM30 22H31V23H30ZM86 22H95V23H86Z"/>
  <path fill="#393939" opacity="0.818" d="M23 16H24V17H23ZM132 19H133V20H132ZM143 20H144V21H143Z"/>
  <path fill="#393939" opacity="0.813" d="M23 11H24V12H23ZM130 12H131V13H130ZM50 14H51V15H50ZM69 15H70V16H69ZM43 16H44V17H43ZM43 18H44V19H43ZM110 19H111V20H110ZM129 19H130V20H129ZM43 21H44V22H43ZM71 22H72V23H71ZM123 22H127V23H123ZM142 22H144V23H142Z"/>
  <path fill="#393939" opacity="0.808" d="M69 11H70V12H69ZM69 14H70V15H69ZM69 16H70V17H69ZM114 17H115V18H114ZM104 19H105V20H104ZM106 20H107V21H106ZM70 22H71V23H70Z"/>
  <path fill="#393939" opacity="0.798" d="M69 7H70V8H69ZM102 7H103V8H102ZM43 8H44V9H43ZM69 9H70V10H69ZM69 10H70V11H69ZM69 12H70V13H69ZM141 22H142V23H141Z"/>
  <path fill="#393939" opacity="0.793" d="M69 6H70V7H69ZM43 10H44V11H43ZM128 11H129V12H128ZM108 20H109V21H108ZM41 22H42V23H41ZM69 22H70V23H69Z"/>
  <path fill="#393939" opacity="0.788" d="M149 8H150V9H149ZM69 13H70V14H69ZM130 13H131V14H130ZM10 20H11V21H10ZM52 22H53V23H52ZM140 22H141V23H140ZM144 22H145V23H144Z"/>
  <path fill="#393939" opacity="0.783" d="M105 5H106V6H105ZM67 14H68V15H67ZM147 15H148V16H147ZM9 20H10V21H9ZM61 22H62V23H61ZM139 22H140V23H139Z"/>
  <path fill="#393939" opacity="0.778" d="M69 8H70V9H69ZM85 12H86V13H85ZM85 13H86V14H85ZM85 14H86V15H85ZM85 15H86V16H85ZM85 16H86V17H85ZM85 17H86V18H85ZM21 18H22V19H21ZM85 18H86V19H85ZM85 19H86V20H85ZM42 22H43V23H42ZM121 22H122V23H121ZM127 22H128V23H127Z"/>
  <path fill="#393939" opacity="0.773" d="M25 8H26V9H25ZM85 8H86V9H85ZM113 8H114V9H113ZM85 9H86V10H85ZM85 10H86V11H85ZM114 10H115V11H114ZM85 11H86V12H85ZM43 22H44V23H43Z"/>
  <path fill="#393939" opacity="0.758" d="M109 5H110V6H109ZM85 6H86V7H85ZM132 15H133V16H132ZM67 19H68V20H67ZM12 22H13V23H12ZM60 22H61V23H60ZM128 22H129V23H128ZM138 22H139V23H138ZM145 22H146V23H145Z"/>
  <path fill="#393939" opacity="0.753" d="M63 12H64V13H63ZM85 21H86V22H85Z"/>
  <path fill="#393939" opacity="0.747" d="M35 13H36V14H35ZM35 14H36V15H35Z"/>
  <path fill="#393939" opacity="0.742" d="M103 6H104V7H103Z"/>
  <path fill="#393939" opacity="0.737" d="M24 9H25V10H24ZM31 9H32V10H31ZM148 12H149V13H148ZM28 20H29V21H28ZM146 22H147V23H146Z"/>
  <path fill="#393939" opacity="0.727" d="M103 10H104V11H103ZM35 12H36V13H35ZM35 15H36V16H35ZM100 17H101V18H100ZM27 20H28V21H27ZM120 22H121V23H120Z"/>
  <path fill="#393939" opacity="0.722" d="M32 11H33V12H32ZM149 11H150V12H149ZM148 13H149V14H148ZM5 20H6V21H5ZM85 20H86V21H85ZM32 21H33V22H32Z"/>
  <path fill="#393939" opacity="0.717" d="M30 8H31V9H30Z"/>
  <path fill="#393939" opacity="0.712" d="M63 7H64V8H63Z"/>
  <path fill="#393939" opacity="0.707" d="M129 15H130V16H129ZM33 20H34V21H33ZM110 22H111V23H110Z"/>
  <path fill="#393939" opacity="0.702" d="M96 22H97V23H96Z"/>
  <path fill="#393939" opacity="0.692" d="M85 7H86V8H85ZM21 9H22V10H21ZM150 15H151V16H150Z"/>
  <path fill="#393939" opacity="0.687" d="M50 11H51V12H50ZM103 17H104V18H103Z"/>
  <path fill="#393939" opacity="0.682" d="M30 5H31V6H30ZM101 8H102V9H101ZM146 8H147V9H146ZM100 10H101V11H100ZM107 20H108V21H107ZM7 22H8V23H7ZM85 22H86V23H85Z"/>
  <path fill="#393939" opacity="0.677" d="M14 5H15V6H14ZM66 12H67V13H66Z"/>
  <path fill="#393939" opacity="0.667" d="M104 22H105V23H104Z"/>
  <path fill="#393939" opacity="0.657" d="M15 15H16V16H15ZM15 16H16V17H15ZM24 18H25V19H24Z"/>
  <path fill="#393939" opacity="0.652" d="M111 10H112V11H111ZM12 18H13V19H12ZM15 19H16V20H15Z"/>
  <path fill="#393939" opacity="0.646" d="M32 6H33V7H32ZM59 6H60V7H59ZM15 8H16V9H15ZM15 9H16V10H15ZM15 10H16V11H15ZM15 11H16V12H15ZM15 12H16V13H15ZM15 13H16V14H15ZM32 16H33V17H32Z"/>
  <path fill="#393939" opacity="0.641" d="M13 5H14V6H13ZM128 8H129V9H128ZM4 16H5V17H4ZM4 17H5V18H4ZM15 17H16V18H15Z"/>
  <path fill="#393939" opacity="0.636" d="M15 6H16V7H15ZM15 14H16V15H15ZM23 15H24V16H23ZM22 20H23V21H22Z"/>
  <path fill="#393939" opacity="0.631" d="M50 9H51V10H50ZM15 18H16V19H15Z"/>
  <path fill="#393939" opacity="0.621" d="M50 6H51V7H50ZM23 12H24V13H23ZM53 19H54V20H53ZM53 20H54V21H53Z"/>
  <path fill="#393939" opacity="0.616" d="M41 5H42V6H41ZM87 5H88V6H87ZM53 7H54V8H53ZM59 7H60V8H59ZM131 7H132V8H131ZM53 8H54V9H53ZM59 12H60V13H59ZM59 13H60V14H59ZM59 14H60V15H59ZM64 14H65V15H64ZM145 14H146V15H145ZM59 15H60V16H59ZM59 16H60V17H59ZM59 17H60V18H59ZM31 18H32V19H31ZM59 18H60V19H59ZM59 19H60V20H59Z"/>
  <path fill="#393939" opacity="0.611" d="M71 5H72V6H71ZM59 8H60V9H59ZM59 9H60V10H59ZM59 10H60V11H59ZM53 11H54V12H53ZM59 11H60V12H59ZM53 12H54V13H53ZM20 13H21V14H20ZM53 17H54V18H53ZM50 19H51V20H50Z"/>
  <path fill="#393939" opacity="0.606" d="M51 5H52V6H51ZM53 13H54V14H53ZM53 14H54V15H53ZM53 15H54V16H53Z"/>
  <path fill="#393939" opacity="0.601" d="M60 5H61V6H60ZM50 7H51V8H50ZM53 9H54V10H53ZM20 14H21V15H20ZM50 17H51V18H50ZM23 21H24V22H23ZM59 21H60V22H59ZM131 21H132V22H131Z"/>
  <path fill="#393939" opacity="0.596" d="M61 5H62V6H61ZM53 6H54V7H53ZM53 10H54V11H53ZM53 16H54V17H53ZM53 18H54V19H53Z"/>
  <path fill="#393939" opacity="0.586" d="M42 5H43V6H42ZM53 21H54V22H53Z"/>
  <path fill="#393939" opacity="0.581" d="M25 5H26V6H25ZM143 5H144V6H143ZM127 14H128V15H127ZM20 15H21V16H20ZM50 16H51V17H50ZM7 18H8V19H7ZM50 18H51V19H50ZM59 20H60V21H59ZM50 21H51V22H50Z"/>
  <path fill="#393939" opacity="0.576" d="M52 5H53V6H52ZM70 5H71V6H70ZM130 6H131V7H130ZM15 7H16V8H15ZM45 14H46V15H45ZM50 15H51V16H50ZM35 16H36V17H35ZM25 19H26V20H25ZM50 20H51V21H50Z"/>
  <path fill="#393939" opacity="0.571" d="M86 5H87V6H86ZM20 12H21V13H20ZM46 14H47V15H46Z"/>
  <path fill="#393939" opacity="0.566" d="M50 10H51V11H50ZM44 14H45V15H44Z"/>
  <path fill="#393939" opacity="0.561" d="M33 7H34V8H33ZM23 13H24V14H23ZM49 14H50V15H49Z"/>
  <path fill="#393939" opacity="0.551" d="M35 11H36V12H35Z"/>
  <path fill="#393939" opacity="0.545" d="M139 5H143V6H139ZM50 8H51V9H50ZM105 8H106V9H105ZM23 14H24V15H23ZM30 19H31V20H30Z"/>
  <path fill="#393939" opacity="0.54" d="M123 5H127V6H123ZM147 18H148V19H147ZM50 22H51V23H50Z"/>
  <path fill="#393939" opacity="0.535" d="M121 5H122V6H121ZM111 17H112V18H111Z"/>
  <path fill="#393939" opacity="0.53" d="M148 6H149V7H148ZM47 14H48V15H47ZM62 20H63V21H62ZM59 22H60V23H59Z"/>
  <path fill="#393939" opacity="0.525" d="M69 5H70V6H69ZM68 21H69V22H68ZM129 22H130V23H129ZM147 22H148V23H147Z"/>
  <path fill="#393939" opacity="0.515" d="M43 5H44V6H43ZM110 5H111V6H110Z"/>
  <path fill="#393939" opacity="0.51" d="M22 7H23V8H22ZM65 10H66V11H65ZM53 22H54V23H53Z"/>
  <path fill="#393939" opacity="0.505" d="M122 5H123V6H122ZM138 5H139V6H138ZM144 5H145V6H144ZM62 12H63V13H62ZM62 13H63V14H62ZM48 14H49V15H48ZM62 14H63V15H62ZM62 15H63V16H62ZM62 16H63V17H62ZM62 17H63V18H62ZM62 18H63V19H62ZM34 19H35V20H34ZM62 19H63V20H62Z"/>
  <path fill="#393939" opacity="0.5" d="M120 5H121V6H120ZM114 18H115V19H114Z"/>
  <path fill="#393939" opacity="0.495" d="M62 21H63V22H62Z"/>
  <path fill="#393939" opacity="0.49" d="M23 6H24V7H23ZM132 20H133V21H132Z"/>
  <path fill="#393939" opacity="0.48" d="M12 6H13V7H12ZM32 12H33V13H32ZM32 15H33V16H32ZM149 21H150V22H149Z"/>
  <path fill="#393939" opacity="0.475" d="M123 14H124V15H123Z"/>
  <path fill="#393939" opacity="0.47" d="M85 5H86V6H85Z"/>
  <path fill="#393939" opacity="0.465" d="M109 8H110V9H109ZM5 15H6V16H5ZM68 15H69V16H68ZM12 17H13V18H12ZM4 18H5V19H4ZM129 18H130V19H129ZM14 21H15V22H14Z"/>
  <path fill="#393939" opacity="0.46" d="M15 5H16V6H15ZM114 9H115V10H114ZM12 16H13V17H12ZM65 16H66V17H65Z"/>
  <path fill="#393939" opacity="0.444" d="M12 7H13V8H12Z"/>
  <path fill="#393939" opacity="0.439" d="M127 5H128V6H127ZM12 15H13V16H12ZM147 16H148V17H147ZM62 22H63V23H62Z"/>
  <path fill="#393939" opacity="0.434" d="M62 5H63V6H62ZM141 14H142V15H141Z"/>
  <path fill="#393939" opacity="0.429" d="M12 8H13V9H12ZM12 9H13V10H12ZM12 10H13V11H12ZM12 11H13V12H12ZM12 12H13V13H12ZM12 13H13V14H12Z"/>
  <path fill="#393939" opacity="0.424" d="M32 13H33V14H32ZM32 14H33V15H32ZM31 22H32V23H31Z"/>
  <path fill="#393939" opacity="0.419" d="M12 14H13V15H12ZM24 22H25V23H24Z"/>
  <path fill="#393939" opacity="0.414" d="M144 14H145V15H144ZM146 19H147V20H146Z"/>
  <path fill="#393939" opacity="0.404" d="M20 11H21V12H20ZM145 11H146V12H145ZM20 16H21V17H20Z"/>
  <path fill="#393939" opacity="0.399" d="M59 5H60V6H59ZM145 5H146V6H145ZM126 14H127V15H126Z"/>
  <path fill="#393939" opacity="0.394" d="M124 14H125V15H124ZM150 20H151V21H150Z"/>
  <path fill="#393939" opacity="0.389" d="M53 5H54V6H53ZM149 7H150V8H149ZM72 11H73V12H72ZM123 11H124V12H123Z"/>
  <path fill="#393939" opacity="0.384" d="M40 7H41V8H40ZM72 10H73V11H72ZM72 12H73V13H72ZM72 14H73V15H72ZM72 21H73V22H72Z"/>
  <path fill="#393939" opacity="0.379" d="M72 9H73V10H72ZM142 14H143V15H142ZM72 15H73V16H72ZM72 16H73V17H72ZM72 20H73V21H72ZM112 21H113V22H112Z"/>
  <path fill="#393939" opacity="0.369" d="M72 6H73V7H72ZM127 11H128V12H127ZM143 14H144V15H143ZM72 17H73V18H72Z"/>
  <path fill="#393939" opacity="0.364" d="M72 7H73V8H72ZM72 13H73V14H72ZM125 14H126V15H125ZM147 17H148V18H147ZM72 18H73V19H72ZM40 19H41V20H40ZM72 19H73V20H72Z"/>
  <path fill="#393939" opacity="0.359" d="M50 5H51V6H50ZM104 9H105V10H104ZM40 10H41V11H40ZM40 22H41V23H40Z"/>
  <path fill="#393939" opacity="0.354" d="M128 5H129V6H128ZM40 6H41V7H40ZM34 8H35V9H34ZM72 8H73V9H72ZM103 11H104V12H103ZM40 13H41V14H40ZM40 14H41V15H40ZM40 17H41V18H40ZM15 20H16V21H15Z"/>
  <path fill="#393939" opacity="0.348" d="M64 8H65V9H64ZM40 9H41V10H40ZM40 11H41V12H40ZM11 19H12V20H11ZM96 19H97V20H96ZM40 21H41V22H40Z"/>
  <path fill="#393939" opacity="0.343" d="M12 5H13V6H12ZM104 5H105V6H104ZM40 8H41V9H40ZM45 11H46V12H45ZM40 12H41V13H40ZM21 19H22V20H21ZM40 20H41V21H40Z"/>
  <path fill="#393939" opacity="0.333" d="M40 16H41V17H40ZM40 18H41V19H40ZM88 19H89V20H88Z"/>
  <path fill="#393939" opacity="0.328" d="M141 11H142V12H141ZM40 15H41V16H40ZM72 22H73V23H72Z"/>
  <path fill="#393939" opacity="0.323" d="M146 5H147V6H146ZM48 11H49V12H48Z"/>
  <path fill="#393939" opacity="0.318" d="M100 18H101V19H100ZM113 20H114V21H113Z"/>
  <path fill="#393939" opacity="0.313" d="M67 13H68V14H67ZM88 17H89V18H88Z"/>
  <path fill="#393939" opacity="0.308" d="M131 12H132V13H131ZM132 14H133V15H132ZM102 21H103V22H102Z"/>
  <path fill="#393939" opacity="0.298" d="M131 13H132V14H131ZM129 16H130V17H129Z"/>
  <path fill="#393939" opacity="0.293" d="M35 17H36V18H35Z"/>
  <path fill="#393939" opacity="0.288" d="M44 11H45V12H44ZM49 11H50V12H49ZM88 16H89V17H88ZM13 22H14V23H13Z"/>
  <path fill="#393939" opacity="0.283" d="M88 8H89V9H88ZM88 9H89V10H88ZM111 11H112V12H111Z"/>
  <path fill="#393939" opacity="0.278" d="M110 9H111V10H110ZM88 10H89V11H88ZM46 11H48V12H46ZM88 11H89V12H88ZM143 11H145V12H143ZM88 12H89V13H88ZM88 13H89V14H88ZM66 18H67V19H66ZM88 18H89V19H88Z"/>
  <path fill="#393939" opacity="0.273" d="M72 5H73V6H72ZM24 10H25V11H24ZM88 14H89V15H88ZM88 15H89V16H88ZM133 17H134V18H133Z"/>
  <path fill="#393939" opacity="0.263" d="M88 7H89V8H88ZM126 11H127V12H126ZM105 19H106V20H105ZM101 20H102V21H101Z"/>
  <path fill="#393939" opacity="0.258" d="M113 7H114V8H113ZM103 16H104V17H103ZM8 19H9V20H8Z"/>
  <path fill="#393939" opacity="0.253" d="M31 5H32V6H31ZM40 5H41V6H40ZM88 6H89V7H88ZM141 8H142V9H141ZM35 10H36V11H35ZM125 11H126V12H125ZM128 19H129V20H128Z"/>
  <path fill="#393939" opacity="0.247" d="M100 9H101V10H100ZM124 11H125V12H124Z"/>
  <path fill="#393939" opacity="0.242" d="M31 10H32V11H31ZM115 12H116V13H115ZM115 13H116V14H115ZM149 13H150V14H149ZM115 14H116V15H115ZM150 14H151V15H150ZM115 15H116V16H115ZM104 18H105V19H104Z"/>
  <path fill="#393939" opacity="0.237" d="M63 13H64V14H63Z"/>
  <path fill="#393939" opacity="0.227" d="M132 9H133V10H132Z"/>
  <path fill="#393939" opacity="0.222" d="M145 8H146V9H145ZM132 10H133V11H132ZM109 19H110V20H109ZM10 23H11V24H10Z"/>
  <path fill="#393939" opacity="0.217" d="M63 6H64V7H63ZM123 8H124V9H123ZM142 11H143V12H142ZM133 16H134V17H133ZM4 19H5V20H4Z"/>
  <path fill="#393939" opacity="0.212" d="M112 6H113V7H112ZM24 17H25V18H24ZM130 22H131V23H130Z"/>
  <path fill="#393939" opacity="0.207" d="M146 10H147V11H146ZM20 17H21V18H20ZM111 22H112V23H111ZM107 23H108V24H107Z"/>
  <path fill="#393939" opacity="0.202" d="M127 8H128V9H127ZM111 16H112V17H111ZM133 18H134V19H133ZM9 23H10V24H9Z"/>
  <path fill="#393939" opacity="0.192" d="M88 5H89V6H88ZM106 23H107V24H106Z"/>
  <path fill="#393939" opacity="0.187" d="M21 8H22V9H21ZM149 12H150V13H149Z"/>
  <path fill="#393939" opacity="0.182" d="M24 5H25V6H24ZM26 8H27V9H26ZM108 23H109V24H108Z"/>
  <path fill="#393939" opacity="0.177" d="M102 6H103V7H102ZM20 10H21V11H20ZM7 14H8V15H7ZM64 15H65V16H64ZM67 20H68V21H67Z"/>
  <path fill="#393939" opacity="0.172" d="M110 18H111V19H110ZM95 19H96V20H95ZM148 22H149V23H148Z"/>
  <path fill="#393939" opacity="0.167" d="M123 16H124V17H123ZM7 17H8V18H7ZM129 17H130V18H129ZM103 22H104V23H103ZM28 23H29V24H28Z"/>
  <path fill="#393939" opacity="0.157" d="M101 7H102V8H101ZM146 9H147V10H146ZM123 10H124V11H123ZM99 13H100V14H99ZM99 14H100V15H99ZM5 21H6V22H5Z"/>
  <path fill="#393939" opacity="0.152" d="M29 8H30V9H29ZM7 15H8V16H7ZM123 17H124V18H123Z"/>
  <path fill="#393939" opacity="0.146" d="M123 9H124V10H123ZM123 15H124V16H123ZM123 19H124V20H123Z"/>
  <path fill="#393939" opacity="0.141" d="M147 5H148V6H147ZM66 11H67V12H66ZM7 16H8V17H7ZM35 18H36V19H35ZM123 18H124V19H123Z"/>
  <path fill="#393939" opacity="0.136" d="M90 19H91V20H90ZM11 23H12V24H11ZM27 23H28V24H27Z"/>
  <path fill="#393939" opacity="0.131" d="M22 21H23V22H22Z"/>
  <path fill="#393939" opacity="0.121" d="M103 12H104V13H103ZM137 19H138V20H137ZM6 22H7V23H6ZM29 23H30V24H29Z"/>
  <path fill="#393939" opacity="0.116" d="M137 10H138V11H137ZM137 13H138V14H137ZM137 14H138V15H137ZM137 15H138V16H137ZM91 19H95V20H91ZM133 19H134V20H133Z"/>
  <path fill="#393939" opacity="0.111" d="M132 8H133V9H132ZM146 15H147V16H146ZM31 17H32V18H31ZM132 21H133V22H132ZM68 22H69V23H68Z"/>
  <path fill="#393939" opacity="0.106" d="M141 10H142V11H141ZM115 16H116V17H115ZM89 19H90V20H89Z"/>
  <path fill="#393939" opacity="0.101" d="M129 5H130V6H129ZM126 8H127V9H126ZM137 9H138V10H137ZM99 12H100V13H99ZM137 12H138V13H137ZM99 15H100V16H99ZM137 16H138V17H137ZM137 17H138V18H137ZM26 19H27V20H26ZM26 23H27V24H26Z"/>
  <path fill="#393939" opacity="0.096" d="M143 8H145V9H143ZM25 9H26V10H25ZM137 11H138V12H137ZM4 15H5V16H4ZM128 15H129V16H128ZM137 20H138V21H137ZM8 23H9V24H8Z"/>
  <path fill="#393939" opacity="0.086" d="M137 6H138V7H137ZM64 7H65V8H64ZM125 8H126V9H125ZM142 8H143V9H142ZM33 21H34V22H33Z"/>
  <path fill="#393939" opacity="0.081" d="M137 7H138V8H137ZM137 8H138V9H137ZM6 14H7V15H6ZM137 21H138V22H137Z"/>
  <path fill="#393939" opacity="0.076" d="M111 5H112V6H111ZM124 8H125V9H124ZM141 9H142V10H141ZM137 18H138V19H137ZM141 19H142V20H141Z"/>
  <path fill="#393939" opacity="0.071" d="M107 4H108V5H107ZM128 10H129V11H128ZM103 15H104V16H103ZM34 20H35V21H34Z"/>
  <path fill="#393939" opacity="0.066" d="M114 7H115V8H114ZM128 9H129V10H128ZM110 10H111V11H110ZM132 11H133V12H132ZM99 16H100V17H99ZM20 18H21V19H20ZM130 23H131V24H130Z"/>
  <path fill="#393939" opacity="0.061" d="M39 5H40V6H39ZM106 8H107V9H106ZM106 9H107V10H106ZM104 11H105V12H104ZM103 14H104V15H103ZM127 16H128V17H127ZM151 16H152V17H151ZM151 17H152V18H151ZM25 18H26V19H25ZM151 18H152V19H151ZM114 19H115V20H114ZM151 19H152V20H151ZM18 22H19V23H18ZM147 23H148V24H147Z"/>
  <path fill="#393939" opacity="0.051" d="M73 4H74V5H73ZM102 4H103V5H102ZM46 5H47V6H46ZM137 5H138V6H137ZM132 6H133V7H132ZM34 7H35V8H34ZM144 10H145V11H144ZM150 10H151V11H150ZM68 14H69V15H68ZM141 15H142V16H141ZM24 16H25V17H24ZM141 16H142V17H141ZM19 17H20V18H19ZM65 17H66V18H65ZM141 17H142V18H141ZM145 19H146V20H145ZM99 20H100V21H99ZM23 22H24V23H23ZM137 22H138V23H137ZM15 23H16V24H15ZM18 23H19V24H18ZM109 23H110V24H109Z"/>
  <path fill="#393939" opacity="0.045" d="M33 6H34V7H33ZM44 7H45V8H44ZM119 7H120V8H119ZM133 8H134V9H133ZM111 12H112V13H111ZM132 12H133V13H132ZM103 13H104V14H103ZM111 13H112V14H111ZM111 14H112V15H111ZM45 15H46V16H45ZM111 15H112V16H111ZM128 16H129V17H128ZM28 18H29V19H28ZM144 18H145V19H144ZM98 20H99V21H98ZM135 20H136V21H135Z"/>
  <path fill="#393939" opacity="0.04" d="M12 4H13V5H12ZM34 5H35V6H34ZM89 6H90V7H89ZM44 8H45V9H44ZM46 8H47V9H46ZM119 8H120V9H119ZM150 9H151V10H150ZM109 11H110V12H109ZM36 13H37V14H36ZM5 14H6V15H5ZM36 14H37V15H36ZM133 14H134V15H133ZM104 15H105V16H104ZM127 15H128V16H127ZM38 17H39V18H38ZM106 17H107V18H106ZM30 18H31V19H30ZM47 20H48V21H47ZM4 21H5V22H4ZM47 22H48V23H47ZM131 22H132V23H131ZM105 23H106V24H105ZM138 23H139V24H138Z"/>
  <path fill="#393939" opacity="0.035" d="M13 4H14V5H13ZM19 4H20V5H19ZM28 4H29V5H28ZM63 4H65V5H63ZM130 4H131V5H130ZM103 5H104V6H103ZM108 9H109V10H108ZM107 10H108V11H107ZM126 10H127V11H126ZM19 13H20V14H19ZM26 13H27V14H26ZM134 13H135V14H134ZM8 14H9V15H8ZM24 15H25V16H24ZM119 15H120V16H119ZM28 16H29V17H28ZM119 16H120V17H119ZM95 17H96V18H95ZM98 17H99V18H98ZM107 17H108V18H107ZM32 22H34V23H32ZM14 23H15V24H14ZM30 23H31V24H30ZM51 23H52V24H51ZM53 23H55V24H53ZM73 23H74V24H73ZM95 23H96V24H95ZM100 23H101V24H100ZM142 23H143V24H142Z"/>
  <path fill="#393939" opacity="0.03" d="M14 4H15V5H14ZM23 4H24V5H23ZM25 4H26V5H25ZM65 4H66V5H65ZM11 6H12V7H11ZM119 6H120V7H119ZM131 6H132V7H131ZM136 6H137V7H136ZM67 7H68V8H67ZM132 7H133V8H132ZM45 8H46V9H45ZM114 8H115V9H114ZM119 9H120V10H119ZM44 10H45V11H44ZM46 10H47V11H46ZM119 10H120V11H119ZM24 11H25V12H24ZM36 11H37V12H36ZM73 11H74V12H73ZM119 11H120V12H119ZM150 11H151V12H150ZM104 12H105V13H104ZM119 12H120V13H119ZM150 12H151V13H150ZM119 13H120V14H119ZM132 13H133V14H132ZM10 14H11V15H10ZM119 14H120V15H119ZM9 15H10V16H9ZM126 15H127V16H126ZM63 16H64V17H63ZM107 16H108V17H107ZM146 16H147V17H146ZM64 17H65V18H64ZM115 17H116V18H115ZM128 17H129V18H128ZM65 18H66V19H65ZM107 18H108V19H107ZM127 18H128V19H127ZM141 18H142V19H141ZM19 19H20V20H19ZM44 19H45V20H44ZM46 19H47V20H46ZM116 19H117V20H116ZM142 19H143V20H142ZM18 20H19V21H18ZM151 20H152V21H151ZM39 21H40V22H39ZM47 21H48V22H47ZM54 21H55V22H54ZM73 21H74V22H73ZM14 22H15V23H14ZM66 22H68V23H66ZM119 22H120V23H119ZM23 23H24V24H23ZM62 23H63V24H62ZM85 23H86V24H85ZM104 23H105V24H104ZM136 23H137V24H136Z"/>
</svg>