<svg xmlns="http://www.w3.org/2000/svg" width="136" height="32" viewBox="0 0 136 32" role="img" aria-label="image2 11 tencent-ads" shape-rendering="crispEdges">
  <title>image2 11 tencent-ads</title>
  <desc>Pixel-level vector reconstruction extracted from the supplied PNG, with white background removed.</desc>
  <path fill="#373737" d="M33 9H34V10H33ZM125 19H126V20H125Z"/>
  <path fill="#373737" opacity="0.995" d="M24 16H25V17H24Z"/>
  <path fill="#373737" opacity="0.99" d="M18 9H19V10H18ZM23 17H24V18H23ZM42 20H43V21H42ZM27 23H28V24H27Z"/>
  <path fill="#373737" opacity="0.985" d="M117 10H118V11H117ZM119 10H120V11H119ZM66 11H67V12H66ZM63 15H64V16H63ZM118 15H119V16H118ZM69 16H70V17H69ZM58 23H59V24H58Z"/>
  <path fill="#373737" opacity="0.98" d="M29 8H30V9H29ZM18 12H19V13H18ZM82 12H83V13H82ZM16 14H17V15H16ZM31 20H32V21H31ZM11 22H12V23H11Z"/>
  <path fill="#373737" opacity="0.97" d="M28 10H29V11H28ZM58 14H59V15H58ZM83 15H84V16H83ZM31 22H32V23H31ZM6 24H7V25H6ZM27 24H28V25H27Z"/>
  <path fill="#373737" opacity="0.965" d="M28 9H29V10H28ZM17 10H18V11H17ZM20 12H21V13H20ZM36 14H37V15H36ZM38 14H39V15H38ZM67 14H68V15H67ZM24 15H25V16H24ZM112 15H113V16H112ZM114 15H115V16H114ZM14 16H15V17H14ZM36 16H37V17H36ZM36 17H37V18H36ZM10 22H11V23H10ZM6 23H7V24H6ZM19 24H20V25H19ZM18 26H19V27H18Z"/>
  <path fill="#373737" opacity="0.96" d="M20 6H21V7H20ZM32 8H33V9H32ZM68 10H69V11H68ZM122 10H123V11H122ZM20 11H21V12H20ZM68 11H69V12H68ZM19 12H20V13H19ZM17 13H18V14H17ZM18 14H19V15H18ZM16 15H17V16H16ZM80 15H81V16H80ZM25 16H26V17H25ZM62 16H64V17H62ZM76 16H77V17H76ZM22 19H23V20H22ZM24 19H25V20H24ZM36 19H37V20H36ZM117 19H118V20H117ZM32 20H33V21H32ZM62 22H63V23H62ZM65 22H66V23H65ZM11 23H12V24H11ZM28 23H29V24H28ZM41 24H42V25H41ZM38 25H39V26H38Z"/>
  <path fill="#373737" opacity="0.955" d="M22 8H23V9H22ZM31 9H32V10H31ZM18 10H20V11H18ZM88 10H89V11H88ZM99 10H100V11H99ZM17 11H18V12H17ZM61 11H62V12H61ZM58 12H59V13H58ZM37 13H38V14H37ZM82 15H83V16H82ZM122 15H123V16H122ZM22 17H23V18H22ZM25 18H27V19H25ZM41 20H42V21H41ZM10 21H11V22H10ZM43 21H44V22H43ZM18 22H19V23H18ZM40 22H41V23H40ZM58 22H59V23H58ZM7 24H8V25H7ZM9 24H10V25H9ZM42 24H43V25H42ZM19 25H20V26H19Z"/>
  <path fill="#373737" opacity="0.95" d="M21 6H22V7H21ZM19 7H20V8H19ZM22 9H23V10H22ZM16 10H17V11H16ZM55 10H56V11H55ZM62 10H63V11H62ZM18 11H19V12H18ZM21 11H22V12H21ZM15 13H16V14H15ZM28 14H29V15H28ZM17 16H18V17H17ZM38 16H39V17H38ZM82 16H83V17H82ZM118 19H120V20H118ZM121 19H122V20H121ZM22 20H24V21H22ZM21 21H25V22H21ZM33 21H34V22H33ZM9 22H10V23H9ZM21 22H23V23H21ZM41 22H42V23H41ZM7 23H8V24H7ZM10 23H11V24H10ZM20 23H23V24H20ZM17 24H18V25H17ZM6 25H7V26H6ZM29 26H31V27H29Z"/>
  <path fill="#373737" opacity="0.945" d="M33 7H34V8H33ZM65 8H66V9H65ZM30 9H31V10H30ZM120 9H121V10H120ZM29 10H30V11H29ZM114 10H115V11H114ZM120 10H121V11H120ZM125 10H126V11H125ZM95 11H96V12H95ZM16 12H17V13H16ZM30 12H31V13H30ZM113 12H114V13H113ZM14 13H15V14H14ZM14 14H15V15H14ZM25 15H26V16H25ZM28 15H29V16H28ZM37 15H39V16H37ZM84 15H85V16H84ZM16 17H17V18H16ZM24 17H25V18H24ZM76 18H77V19H76ZM68 19H69V20H68ZM120 19H121V20H120ZM122 19H123V20H122ZM10 20H11V21H10ZM21 20H22V21H21ZM9 21H10V22H9ZM7 22H8V23H7ZM19 22H21V23H19ZM32 22H33V23H32ZM44 22H45V23H44ZM29 23H31V24H29ZM76 23H77V24H76ZM11 24H12V25H11ZM16 24H17V25H16ZM29 24H30V25H29ZM94 24H95V25H94ZM126 24H127V25H126ZM9 25H10V26H9ZM39 25H40V26H39ZM19 26H21V27H19Z"/>
  <path fill="#373737" opacity="0.935" d="M102 9H103V10H102ZM31 10H32V11H31ZM104 10H109V11H104ZM16 11H17V12H16ZM62 11H63V12H62ZM65 11H66V12H65ZM67 11H68V12H67ZM82 11H83V12H82ZM120 11H121V12H120ZM88 12H89V13H88ZM27 13H28V14H27ZM88 13H89V14H88ZM19 14H20V15H19ZM24 14H25V15H24ZM37 14H38V15H37ZM120 14H121V15H120ZM18 15H19V16H18ZM117 15H118V16H117ZM25 17H26V18H25ZM35 17H36V18H35ZM58 17H59V18H58ZM23 19H24V20H23ZM63 19H64V20H63ZM82 19H83V20H82ZM43 20H44V21H43ZM82 20H83V21H82ZM114 20H115V21H114ZM18 21H21V22H18ZM42 21H43V22H42ZM82 21H83V22H82ZM114 21H115V22H114ZM30 22H31V23H30ZM42 22H43V23H42ZM61 22H62V23H61ZM82 22H83V23H82ZM94 22H95V23H94ZM114 22H115V23H114ZM78 23H79V24H78ZM82 23H83V24H82ZM114 23H115V24H114ZM31 24H32V25H31ZM8 25H9V26H8ZM28 25H29V26H28ZM40 25H41V26H40Z"/>
  <path fill="#373737" opacity="0.93" d="M31 6H32V7H31ZM20 7H21V8H20ZM30 8H31V9H30ZM102 8H103V9H102ZM20 9H21V10H20ZM29 9H30V10H29ZM58 9H59V10H58ZM114 9H115V10H114ZM22 10H23V11H22ZM96 10H97V11H96ZM101 10H103V11H101ZM58 11H59V12H58ZM88 11H89V12H88ZM113 11H114V12H113ZM55 12H56V13H55ZM55 13H56V14H55ZM58 13H59V14H58ZM55 14H56V15H55ZM88 14H89V15H88ZM36 15H37V16H36ZM55 15H56V16H55ZM76 15H77V16H76ZM88 15H89V16H88ZM27 16H28V17H27ZM34 16H35V17H34ZM37 16H38V17H37ZM55 16H56V17H55ZM55 17H56V18H55ZM82 17H83V18H82ZM22 18H23V19H22ZM82 18H83V19H82ZM21 19H22V20H21ZM25 19H26V20H25ZM116 19H117V20H116ZM124 19H125V20H124ZM8 22H9V23H8ZM29 22H30V23H29ZM33 22H34V23H33ZM43 22H44V23H43ZM17 23H18V24H17ZM32 23H34V24H32ZM39 23H40V24H39ZM69 23H70V24H69ZM55 24H56V25H55ZM10 25H11V26H10ZM20 25H21V26H20ZM27 25H28V26H27ZM30 25H31V26H30ZM7 26H8V27H7ZM40 26H41V27H40Z"/>
  <path fill="#373737" opacity="0.925" d="M19 8H20V9H19ZM21 8H22V9H21ZM21 9H22V10H21ZM62 9H63V10H62ZM75 9H76V10H75ZM20 10H21V11H20ZM98 10H99V11H98ZM69 11H70V12H69ZM15 12H16V13H15ZM17 12H18V13H17ZM16 13H17V14H16ZM18 13H19V14H18ZM26 13H27V14H26ZM76 13H77V14H76ZM17 14H18V15H17ZM25 14H28V15H25ZM63 14H64V15H63ZM85 15H86V16H85ZM33 16H34V17H33ZM68 16H69V17H68ZM88 16H89V17H88ZM15 17H16V18H15ZM34 17H35V18H34ZM76 17H77V18H76ZM23 18H24V19H23ZM55 18H57V19H55ZM55 19H56V20H55ZM67 19H68V20H67ZM76 19H77V20H76ZM12 20H13V21H12ZM20 20H21V21H20ZM126 20H127V21H126ZM39 21H40V22H39ZM126 21H127V22H126ZM28 22H29V23H28ZM126 22H127V23H126ZM9 23H10V24H9ZM19 23H20V24H19ZM40 23H42V24H40ZM126 23H127V24H126ZM20 24H22V25H20ZM32 24H33V25H32ZM58 24H59V25H58ZM17 25H18V26H17ZM38 26H39V27H38Z"/>
  <path fill="#373737" opacity="0.92" d="M21 7H22V8H21ZM33 8H34V9H33ZM75 8H76V9H75ZM88 9H89V10H88ZM27 10H28V11H27ZM58 10H59V11H58ZM95 10H96V11H95ZM115 10H117V11H115ZM124 10H125V11H124ZM64 11H65V12H64ZM95 12H96V13H95ZM35 13H36V14H35ZM64 13H65V14H64ZM95 13H96V14H95ZM34 14H35V15H34ZM76 14H77V15H76ZM13 15H15V16H13ZM35 15H36V16H35ZM68 15H69V16H68ZM87 15H88V16H87ZM23 16H24V17H23ZM26 16H27V17H26ZM14 17H15V18H14ZM33 17H34V18H33ZM37 17H38V18H37ZM88 17H89V18H88ZM57 18H59V19H57ZM20 19H21V20H20ZM114 19H115V20H114ZM123 19H124V20H123ZM55 20H56V21H55ZM11 21H12V22H11ZM41 21H42V22H41ZM44 21H45V22H44ZM55 21H56V22H55ZM58 21H59V22H58ZM66 22H67V23H66ZM42 23H44V24H42ZM94 23H95V24H94ZM18 24H19V25H18ZM82 24H83V25H82ZM8 26H9V27H8ZM28 26H29V27H28ZM41 26H42V27H41Z"/>
  <path fill="#373737" opacity="0.915" d="M32 6H33V7H32ZM30 7H31V8H30ZM31 8H32V9H31ZM120 8H121V9H120ZM19 9H20V10H19ZM65 9H66V10H65ZM68 9H69V10H68ZM21 10H22V11H21ZM76 10H77V11H76ZM97 10H98V11H97ZM121 10H122V11H121ZM29 11H30V12H29ZM36 13H37V14H36ZM95 14H96V15H95ZM26 15H27V16H26ZM67 15H68V16H67ZM95 15H96V16H95ZM119 15H120V16H119ZM125 15H127V16H125ZM16 16H17V17H16ZM88 18H89V19H88ZM88 19H89V20H88ZM76 20H77V21H76ZM29 21H30V22H29ZM40 21H41V22H40ZM39 22H40V23H39ZM55 22H56V23H55ZM63 22H65V23H63ZM31 23H32V24H31ZM38 23H39V24H38ZM55 23H56V24H55ZM28 24H29V25H28ZM114 24H115V25H114ZM7 25H8V26H7ZM31 25H32V26H31ZM39 26H40V27H39Z"/>
  <path fill="#373737" opacity="0.91" d="M118 10H119V11H118ZM31 11H32V12H31ZM63 11H64V12H63ZM19 13H20V14H19ZM120 13H121V14H120ZM15 15H16V16H15ZM17 15H18V16H17ZM34 15H35V16H34ZM58 15H59V16H58ZM81 15H82V16H81ZM86 15H87V16H86ZM116 15H117V16H116ZM123 15H124V16H123ZM127 15H128V16H127ZM28 16H29V17H28ZM58 16H59V17H58ZM95 16H96V17H95ZM27 17H28V18H27ZM95 17H96V18H95ZM21 18H22V19H21ZM24 18H25V19H24ZM11 20H12V21H11ZM24 20H25V21H24ZM88 20H89V21H88ZM8 21H9V22H8ZM76 21H77V22H76ZM88 21H89V22H88ZM88 22H89V23H88ZM8 23H9V24H8ZM88 23H89V24H88ZM10 24H11V25H10ZM30 24H31V25H30ZM38 24H39V25H38ZM88 24H89V25H88ZM16 25H17V26H16ZM18 25H19V26H18ZM29 25H30V26H29ZM17 26H18V27H17Z"/>
  <path fill="#373737" opacity="0.9" d="M22 7H23V8H22ZM32 7H33V8H32ZM18 8H19V9H18ZM20 8H21V9H20ZM100 10H101V11H100ZM103 10H104V11H103ZM109 10H110V11H109ZM64 12H65V13H64ZM65 13H66V14H65ZM15 14H16V15H15ZM64 14H65V15H64ZM23 15H24V16H23ZM15 16H16V17H15ZM36 18H37V19H36ZM95 18H96V19H95ZM95 19H96V20H95ZM9 20H10V21H9ZM30 21H31V22H30ZM77 23H78V24H77ZM8 24H9V25H8ZM39 24H40V25H39ZM9 26H10V27H9ZM27 26H28V27H27Z"/>
  <path fill="#373737" opacity="0.895" d="M31 7H32V8H31ZM19 11H20V12H19ZM82 13H83V14H82ZM82 14H83V15H82ZM27 15H28V16H27ZM124 15H125V16H124ZM58 19H59V20H58ZM126 19H127V20H126ZM19 20H20V21H19ZM40 20H41V21H40ZM12 21H13V22H12ZM31 21H32V22H31ZM94 21H95V22H94ZM12 22H13V23H12ZM76 22H77V23H76ZM40 24H41V25H40ZM37 25H38V26H37ZM41 25H42V26H41Z"/>
  <path fill="#373737" opacity="0.89" d="M55 9H56V10H55ZM123 10H124V11H123ZM30 11H31V12H30ZM31 12H32V13H31ZM38 13H39V14H38ZM113 15H114V16H113ZM35 16H36V17H35ZM42 19H43V20H42ZM30 20H31V21H30ZM58 20H59V21H58ZM63 20H64V21H63ZM69 20H70V21H69ZM32 21H33V22H32ZM23 22H24V23H23ZM18 23H19V24H18ZM69 24H70V25H69ZM76 24H77V25H76Z"/>
  <path fill="#373737" opacity="0.885" d="M30 6H31V7H30ZM32 9H33V10H32ZM30 10H31V11H30ZM32 10H33V11H32ZM55 11H56V12H55ZM66 13H67V14H66ZM13 14H14V15H13ZM115 15H116V16H115ZM120 15H121V16H120ZM69 21H70V22H69Z"/>
  <path fill="#373737" opacity="0.88" d="M22 6H23V7H22ZM28 8H29V9H28ZM87 9H88V10H87ZM65 10H66V11H65ZM70 11H71V12H70ZM120 12H121V13H120ZM35 14H36V15H35ZM68 14H69V15H68ZM33 15H34V16H33ZM121 15H122V16H121ZM61 16H62V17H61ZM68 18H69V19H68ZM33 20H34V21H33Z"/>
  <path fill="#373737" opacity="0.875" d="M29 7H30V8H29ZM126 10H127V11H126ZM25 13H26V14H25ZM74 13H76V14H74ZM79 15H80V16H79ZM22 16H23V17H22ZM67 16H68V17H67ZM67 17H69V18H67ZM10 19H11V20H10ZM31 19H32V20H31ZM115 19H116V20H115ZM12 23H13V24H12ZM37 24H38V25H37ZM8 27H9V28H8Z"/>
  <path fill="#373737" opacity="0.865" d="M13 16H14V17H13ZM67 20H68V21H67ZM95 20H96V21H95Z"/>
  <path fill="#373737" opacity="0.86" d="M62 8H63V9H62ZM63 10H64V11H63ZM21 17H22V18H21ZM26 17H27V18H26ZM35 18H36V19H35ZM62 20H63V21H62ZM69 22H70V23H69ZM21 25H22V26H21Z"/>
  <path fill="#373737" opacity="0.855" d="M62 19H63V20H62ZM64 20H65V21H64ZM125 24H126V25H125ZM42 25H43V26H42ZM18 27H19V28H18Z"/>
  <path fill="#373737" opacity="0.85" d="M69 8H70V9H69ZM76 11H77V12H76ZM56 13H57V14H56ZM66 20H67V21H66ZM68 20H69V21H68Z"/>
  <path fill="#373737" opacity="0.845" d="M17 9H18V10H17ZM70 20H71V21H70ZM19 27H20V28H19Z"/>
  <path fill="#373737" opacity="0.84" d="M61 13H62V14H61ZM29 27H30V28H29ZM39 27H40V28H39Z"/>
  <path fill="#373737" opacity="0.835" d="M23 8H24V9H23ZM32 11H33V12H32ZM65 12H66V13H65ZM24 13H25V14H24ZM62 15H63V16H62ZM67 18H68V19H67ZM65 20H66V21H65ZM38 22H39V23H38ZM68 24H69V25H68ZM6 26H7V27H6Z"/>
  <path fill="#373737" opacity="0.825" d="M25 20H26V21H25ZM89 24H90V25H89ZM31 26H32V27H31Z"/>
  <path fill="#373737" opacity="0.82" d="M114 8H115V9H114ZM23 9H24V10H23ZM101 9H102V10H101ZM57 13H58V14H57ZM34 18H35V19H34ZM37 18H38V19H37ZM11 19H12V20H11ZM41 19H42V20H41Z"/>
  <path fill="#373737" opacity="0.815" d="M63 13H64V14H63ZM39 15H40V16H39ZM20 18H21V19H20ZM94 20H95V21H94ZM40 27H41V28H40Z"/>
  <path fill="#373737" opacity="0.81" d="M103 9H104V10H103ZM69 13H70V14H69ZM32 17H33V18H32ZM59 18H60V19H59ZM8 20H9V21H8Z"/>
  <path fill="#373737" opacity="0.805" d="M19 6H20V7H19ZM101 8H102V9H101ZM76 9H77V10H76ZM67 13H68V14H67ZM35 19H36V20H35ZM95 21H96V22H95ZM17 22H18V23H17Z"/>
  <path fill="#373737" opacity="0.8" d="M23 7H24V8H23ZM33 10H34V11H33ZM61 17H62V18H61Z"/>
  <path fill="#373737" opacity="0.79" d="M62 13H63V14H62ZM70 21H71V22H70Z"/>
  <path fill="#373737" opacity="0.785" d="M69 9H70V10H69ZM66 14H67V15H66ZM64 16H65V17H64ZM43 24H44V25H43ZM59 24H60V25H59Z"/>
  <path fill="#373737" opacity="0.78" d="M58 8H59V9H58ZM85 8H86V9H85ZM15 11H16V12H15ZM114 11H115V12H114ZM20 13H21V14H20Z"/>
  <path fill="#373737" opacity="0.775" d="M113 10H114V11H113ZM67 22H68V23H67ZM28 27H29V28H28Z"/>
  <path fill="#373737" opacity="0.77" d="M56 8H57V9H56ZM27 9H28V10H27ZM30 13H31V14H30ZM70 13H71V14H70Z"/>
  <path fill="#373737" opacity="0.765" d="M81 8H82V9H81ZM59 9H60V10H59Z"/>
  <path fill="#373737" opacity="0.755" d="M68 8H69V9H68ZM68 13H69V14H68ZM62 14H63V15H62ZM30 19H31V20H30ZM10 26H11V27H10ZM7 27H8V28H7Z"/>
  <path fill="#373737" opacity="0.75" d="M55 8H56V9H55ZM56 9H57V10H56ZM127 10H128V11H127ZM59 11H60V12H59ZM83 16H84V17H83ZM32 19H33V20H32ZM115 24H116V25H115ZM121 24H122V25H121ZM124 24H125V25H124Z"/>
  <path fill="#373737" opacity="0.745" d="M86 8H88V9H86ZM26 19H27V20H26ZM70 22H71V23H70ZM95 22H96V23H95ZM22 24H23V25H22ZM77 24H78V25H77ZM90 24H91V25H90ZM122 24H123V25H122Z"/>
  <path fill="#373737" opacity="0.74" d="M79 8H80V9H79ZM59 15H60V16H59ZM128 15H129V16H128ZM66 16H67V17H66ZM59 19H60V20H59ZM29 20H30V21H29ZM16 23H17V24H16ZM59 23H60V24H59Z"/>
  <path fill="#373737" opacity="0.735" d="M84 8H85V9H84ZM66 10H67V11H66ZM59 13H60V14H59ZM32 16H33V17H32ZM38 17H39V18H38ZM59 22H60V23H59ZM120 24H121V25H120Z"/>
  <path fill="#373737" opacity="0.73" d="M80 8H81V9H80ZM21 12H22V13H21ZM59 14H60V15H59ZM75 14H76V15H75ZM59 21H60V22H59ZM95 23H96V24H95ZM116 24H120V25H116Z"/>
  <path fill="#373737" opacity="0.72" d="M61 8H62V9H61ZM82 8H83V9H82ZM67 10H68V11H67ZM28 13H29V14H28ZM39 14H40V15H39ZM59 20H60V21H59ZM37 23H38V24H37ZM123 24H124V25H123Z"/>
  <path fill="#373737" opacity="0.715" d="M88 8H89V9H88ZM57 9H58V10H57ZM59 12H60V13H59ZM73 13H74V14H73ZM65 16H66V17H65ZM94 16H95V17H94ZM94 17H95V18H94ZM94 18H95V19H94ZM94 19H95V20H94ZM44 23H45V24H44Z"/>
  <path fill="#373737" opacity="0.71" d="M59 17H60V18H59ZM67 24H68V25H67ZM121 25H122V26H121Z"/>
  <path fill="#373737" opacity="0.705" d="M57 8H58V9H57ZM59 10H60V11H59ZM69 10H70V11H69ZM70 16H71V17H70ZM58 25H59V26H58ZM122 25H123V26H122ZM16 26H17V27H16Z"/>
  <path fill="#373737" opacity="0.7" d="M18 7H19V8H18ZM83 8H84V9H83ZM59 16H60V17H59ZM17 17H18V18H17Z"/>
  <path fill="#373737" opacity="0.695" d="M83 9H84V10H83ZM94 10H95V11H94ZM9 19H10V20H9ZM120 25H121V26H120ZM125 25H126V26H125Z"/>
  <path fill="#373737" opacity="0.685" d="M83 11H84V12H83ZM56 14H57V15H56ZM82 25H83V26H82ZM116 25H120V26H116Z"/>
  <path fill="#373737" opacity="0.68" d="M123 25H124V26H123ZM126 25H127V26H126Z"/>
  <path fill="#373737" opacity="0.675" d="M114 25H116V26H114ZM124 25H125V26H124ZM37 26H38V27H37Z"/>
  <path fill="#373737" opacity="0.67" d="M94 11H95V12H94ZM23 14H24V15H23ZM83 14H84V15H83ZM67 25H68V26H67ZM88 25H90V26H88Z"/>
  <path fill="#373737" opacity="0.665" d="M33 6H34V7H33ZM27 18H28V19H27ZM69 25H70V26H69ZM90 25H91V26H90ZM94 25H95V26H94Z"/>
  <path fill="#373737" opacity="0.66" d="M86 9H87V10H86ZM14 12H15V13H14ZM36 12H37V13H36ZM94 12H95V13H94ZM94 13H95V14H94ZM65 14H66V15H65ZM94 14H95V15H94ZM94 15H95V16H94ZM83 18H84V19H83Z"/>
  <path fill="#373737" opacity="0.65" d="M75 10H76V11H75ZM83 12H84V13H83ZM61 14H62V15H61ZM83 19H84V20H83ZM44 20H45V21H44ZM28 21H29V22H28Z"/>
  <path fill="#373737" opacity="0.645" d="M79 9H80V10H79ZM9 27H10V28H9Z"/>
  <path fill="#373737" opacity="0.64" d="M81 9H83V10H81ZM68 25H69V26H68Z"/>
  <path fill="#373737" opacity="0.635" d="M80 9H81V10H80ZM84 9H86V10H84ZM83 13H84V14H83ZM69 14H70V15H69ZM83 20H84V21H83ZM83 21H84V22H83ZM83 22H84V23H83ZM83 23H84V24H83Z"/>
  <path fill="#373737" opacity="0.63" d="M28 11H29V12H28ZM37 12H38V13H37ZM69 17H70V18H69ZM69 19H70V20H69Z"/>
  <path fill="#373737" opacity="0.625" d="M70 23H71V24H70ZM83 24H84V25H83Z"/>
  <path fill="#373737" opacity="0.615" d="M70 17H71V18H70ZM43 19H44V20H43ZM7 21H8V22H7ZM54 24H55V25H54ZM30 27H31V28H30Z"/>
  <path fill="#373737" opacity="0.61" d="M57 14H58V15H57ZM87 16H88V17H87ZM62 18H63V19H62ZM64 19H65V20H64ZM23 23H24V24H23ZM55 25H56V26H55Z"/>
  <path fill="#373737" opacity="0.605" d="M18 16H19V17H18ZM83 17H84V18H83ZM66 19H67V20H66Z"/>
  <path fill="#373737" opacity="0.6" d="M26 12H27V13H26ZM65 19H66V20H65ZM113 20H114V21H113ZM125 20H126V21H125ZM113 21H114V22H113ZM125 21H126V22H125ZM78 22H79V23H78ZM113 22H114V23H113ZM125 22H126V23H125ZM113 23H114V24H113ZM125 23H126V24H125ZM32 25H33V26H32Z"/>
  <path fill="#373737" opacity="0.595" d="M63 9H64V10H63ZM119 11H120V12H119Z"/>
  <path fill="#373737" opacity="0.59" d="M66 9H67V10H66Z"/>
  <path fill="#373737" opacity="0.58" d="M99 9H100V10H99ZM64 10H65V11H64Z"/>
  <path fill="#373737" opacity="0.575" d="M98 9H99V10H98ZM70 24H71V25H70ZM95 24H96V25H95ZM113 24H114V25H113ZM59 25H60V26H59Z"/>
  <path fill="#373737" opacity="0.565" d="M113 9H114V10H113ZM70 14H71V15H70ZM79 23H80V24H79Z"/>
  <path fill="#373737" opacity="0.56" d="M17 8H18V9H17ZM66 8H67V9H66ZM60 11H61V12H60ZM121 11H122V12H121ZM87 14H88V15H87ZM113 19H114V20H113Z"/>
  <path fill="#373737" opacity="0.555" d="M104 9H108V10H104ZM19 19H20V20H19ZM5 24H6V25H5ZM11 25H12V26H11Z"/>
  <path fill="#373737" opacity="0.545" d="M97 9H98V10H97ZM13 17H14V18H13ZM79 22H80V23H79Z"/>
  <path fill="#373737" opacity="0.54" d="M95 9H96V10H95ZM13 21H14V22H13ZM38 27H39V28H38Z"/>
  <path fill="#373737" opacity="0.535" d="M108 9H110V10H108ZM61 10H62V11H61ZM62 17H63V18H62ZM64 17H65V18H64ZM115 18H116V19H115ZM54 20H55V21H54ZM34 21H35V22H34ZM54 21H55V22H54ZM54 22H55V23H54ZM54 23H55V24H54ZM5 25H6V26H5ZM17 27H18V28H17Z"/>
  <path fill="#373737" opacity="0.53" d="M22 11H23V12H22ZM56 19H57V20H56ZM13 22H14V23H13Z"/>
  <path fill="#373737" opacity="0.525" d="M76 8H77V9H76ZM114 18H115V19H114ZM93 24H94V25H93Z"/>
  <path fill="#373737" opacity="0.52" d="M34 8H35V9H34ZM100 9H101V10H100ZM74 14H75V15H74ZM117 18H118V19H117ZM26 24H27V25H26ZM93 25H94V26H93Z"/>
  <path fill="#373737" opacity="0.51" d="M119 9H120V10H119ZM60 13H61V14H60ZM119 18H120V19H119ZM121 18H122V19H121ZM27 22H28V23H27ZM34 22H35V23H34Z"/>
  <path fill="#373737" opacity="0.505" d="M59 8H60V9H59ZM96 9H97V10H96ZM15 18H16V19H15ZM118 18H119V19H118ZM120 18H121V19H120ZM122 18H123V19H122ZM83 25H84V26H83Z"/>
  <path fill="#373737" opacity="0.5" d="M25 12H26V13H25ZM29 12H30V13H29ZM66 17H67V18H66ZM124 18H125V19H124Z"/>
  <path fill="#373737" opacity="0.495" d="M26 10H27V11H26ZM116 18H117V19H116Z"/>
  <path fill="#373737" opacity="0.49" d="M113 13H114V14H113ZM39 16H40V17H39ZM63 17H64V18H63ZM36 20H37V21H36ZM54 25H55V26H54Z"/>
  <path fill="#373737" opacity="0.485" d="M69 15H70V16H69ZM75 15H76V16H75ZM60 16H61V17H60ZM87 18H88V19H87ZM123 18H124V19H123Z"/>
  <path fill="#373737" opacity="0.475" d="M54 10H55V11H54ZM87 12H88V13H87ZM19 15H20V16H19Z"/>
  <path fill="#373737" opacity="0.47" d="M27 12H28V13H27ZM57 19H58V20H57ZM24 22H25V23H24ZM26 25H27V26H26Z"/>
  <path fill="#373737" opacity="0.465" d="M54 12H55V13H54ZM114 12H115V13H114ZM54 13H55V14H54ZM54 14H55V15H54ZM54 15H55V16H54ZM54 16H55V17H54ZM75 16H76V17H75ZM54 17H55V18H54ZM75 17H76V18H75ZM54 18H55V19H54ZM75 18H76V19H75ZM54 19H55V20H54ZM75 19H76V20H75ZM6 22H7V23H6Z"/>
  <path fill="#373737" opacity="0.46" d="M34 7H35V8H34ZM117 16H118V17H117ZM124 16H125V17H124ZM125 18H126V19H125ZM75 20H76V21H75ZM75 21H76V22H75ZM75 22H76V23H75ZM75 23H76V24H75ZM66 24H67V25H66ZM87 24H88V25H87Z"/>
  <path fill="#373737" opacity="0.455" d="M74 8H75V9H74ZM119 12H120V13H119ZM87 13H88V14H87ZM22 15H23V16H22ZM114 16H115V17H114ZM127 16H128V17H127ZM40 19H41V20H40Z"/>
  <path fill="#373737" opacity="0.45" d="M61 9H62V10H61ZM70 10H71V11H70ZM31 13H32V14H31ZM113 16H114V17H113ZM118 16H120V17H118ZM121 16H122V17H121ZM39 20H40V21H39ZM87 20H88V21H87ZM87 21H88V22H87ZM77 22H78V23H77ZM87 22H88V23H87ZM87 23H88V24H87ZM75 24H76V25H75Z"/>
  <path fill="#373737" opacity="0.44" d="M54 9H55V10H54ZM87 11H88V12H87ZM13 13H14V14H13ZM115 16H117V17H115ZM120 16H121V17H120ZM122 16H123V17H122ZM65 17H66V18H65ZM63 18H64V19H63Z"/>
  <path fill="#373737" opacity="0.435" d="M54 11H55V12H54ZM112 16H113V17H112ZM125 16H126V17H125Z"/>
  <path fill="#373737" opacity="0.43" d="M73 14H74V15H73ZM81 16H82V17H81Z"/>
  <path fill="#373737" opacity="0.425" d="M115 9H116V10H115ZM60 14H61V15H60ZM64 15H65V16H64Z"/>
  <path fill="#373737" opacity="0.42" d="M119 8H120V9H119ZM119 14H120V15H119ZM123 16H124V17H123ZM87 17H88V18H87ZM16 18H17V19H16Z"/>
  <path fill="#373737" opacity="0.415" d="M29 6H30V7H29ZM34 9H35V10H34ZM87 10H88V11H87ZM125 11H126V12H125ZM112 13H113V14H112ZM126 16H127V17H126ZM113 25H114V26H113Z"/>
  <path fill="#373737" opacity="0.41" d="M94 9H95V10H94ZM77 11H78V12H77ZM34 13H35V14H34ZM60 17H61V18H60ZM87 19H88V20H87Z"/>
  <path fill="#373737" opacity="0.4" d="M12 24H13V25H12ZM33 24H34V25H33Z"/>
  <path fill="#373737" opacity="0.395" d="M85 16H86V17H85ZM126 18H127V19H126Z"/>
  <path fill="#373737" opacity="0.385" d="M113 8H114V9H113ZM121 9H122V10H121ZM115 11H116V12H115ZM119 13H120V14H119Z"/>
  <path fill="#373737" opacity="0.38" d="M122 11H123V12H122ZM128 16H129V17H128Z"/>
  <path fill="#373737" opacity="0.375" d="M23 10H24V11H23ZM12 19H13V20H12Z"/>
  <path fill="#373737" opacity="0.365" d="M16 9H17V10H16ZM116 11H117V12H116ZM118 11H119V12H118ZM126 11H127V12H126ZM56 12H57V13H56ZM35 20H36V21H35ZM70 25H71V26H70ZM87 25H88V26H87Z"/>
  <path fill="#373737" opacity="0.36" d="M115 8H116V9H115ZM21 16H22V17H21ZM21 26H22V27H21ZM42 26H43V27H42Z"/>
  <path fill="#373737" opacity="0.355" d="M56 17H57V18H56ZM93 23H94V24H93Z"/>
  <path fill="#373737" opacity="0.35" d="M54 8H55V9H54ZM89 11H90V12H89ZM28 17H29V18H28ZM18 20H19V21H18Z"/>
  <path fill="#373737" opacity="0.345" d="M112 12H113V13H112ZM80 16H81V17H80ZM84 16H85V17H84ZM62 23H64V24H62Z"/>
  <path fill="#373737" opacity="0.34" d="M28 7H29V8H28ZM123 11H125V12H123ZM60 22H61V23H60ZM66 25H67V26H66Z"/>
  <path fill="#373737" opacity="0.33" d="M121 14H122V15H121ZM115 20H116V21H115ZM115 21H116V22H115ZM115 22H116V23H115ZM115 23H116V24H115Z"/>
  <path fill="#373737" opacity="0.325" d="M89 12H90V13H89ZM89 13H90V14H89ZM89 14H90V15H89ZM89 15H90V16H89ZM86 16H87V17H86Z"/>
  <path fill="#373737" opacity="0.32" d="M117 11H118V12H117ZM121 12H122V13H121ZM89 16H90V17H89ZM89 17H90V18H89ZM89 18H90V19H89ZM113 18H114V19H113ZM89 19H90V20H89ZM127 19H128V20H127ZM76 25H77V26H76ZM41 27H42V28H41Z"/>
  <path fill="#373737" opacity="0.315" d="M56 11H57V12H56ZM121 13H122V14H121ZM37 19H38V20H37ZM89 20H90V21H89ZM127 20H128V21H127ZM89 21H90V22H89ZM127 21H128V22H127ZM89 22H90V23H89ZM127 22H128V23H127ZM65 23H66V24H65ZM89 23H90V24H89ZM127 23H128V24H127ZM127 24H128V25H127Z"/>
  <path fill="#373737" opacity="0.31" d="M103 8H104V9H103ZM121 8H122V9H121ZM77 18H78V19H77ZM61 23H62V24H61Z"/>
  <path fill="#373737" opacity="0.305" d="M120 7H121V8H120ZM89 9H90V10H89ZM56 10H57V11H56ZM33 19H34V20H33Z"/>
  <path fill="#373737" opacity="0.295" d="M32 12H33V13H32ZM35 12H36V13H35ZM56 16H57V17H56ZM66 23H67V24H66ZM95 25H96V26H95ZM20 27H21V28H20Z"/>
  <path fill="#373737" opacity="0.29" d="M32 5H33V6H32ZM101 7H103V8H101ZM89 10H90V11H89ZM79 16H80V17H79ZM70 19H71V20H70ZM64 23H65V24H64ZM6 27H7V28H6Z"/>
  <path fill="#373737" opacity="0.285" d="M110 10H111V11H110ZM77 17H78V18H77ZM77 21H78V22H77Z"/>
  <path fill="#373737" opacity="0.28" d="M31 5H32V6H31ZM34 20H35V21H34ZM56 20H57V21H56ZM17 21H18V22H17Z"/>
  <path fill="#373737" opacity="0.275" d="M65 7H66V8H65ZM75 7H76V8H75ZM60 10H61V11H60ZM77 14H78V15H77ZM12 15H13V16H12ZM29 15H30V16H29ZM56 15H57V16H56ZM26 23H27V24H26Z"/>
  <path fill="#373737" opacity="0.27" d="M20 5H21V6H20Z"/>
  <path fill="#373737" opacity="0.26" d="M33 14H34V15H33ZM75 25H76V26H75Z"/>
  <path fill="#373737" opacity="0.255" d="M5 26H6V27H5Z"/>
  <path fill="#373737" opacity="0.25" d="M21 5H22V6H21ZM23 6H24V7H23ZM66 7H67V8H66ZM63 8H64V9H63ZM77 13H78V14H77ZM77 16H78V17H77ZM31 17H32V18H31ZM14 18H15V19H14ZM25 21H26V22H25Z"/>
  <path fill="#373737" opacity="0.245" d="M39 13H40V14H39ZM77 19H78V20H77ZM77 20H78V21H77Z"/>
  <path fill="#373737" opacity="0.24" d="M30 5H31V6H30ZM123 9H124V10H123ZM75 11H76V12H75ZM38 21H39V22H38ZM56 21H57V22H56ZM26 26H27V27H26Z"/>
  <path fill="#373737" opacity="0.235" d="M127 11H128V12H127Z"/>
  <path fill="#373737" opacity="0.225" d="M57 17H58V18H57ZM38 18H39V19H38Z"/>
  <path fill="#373737" opacity="0.22" d="M81 14H82V15H81ZM93 22H94V23H93ZM78 24H79V25H78Z"/>
  <path fill="#373737" opacity="0.215" d="M67 9H68V10H67ZM126 9H127V10H126ZM77 10H78V11H77ZM20 17H21V18H20ZM5 23H6V24H5ZM67 23H68V24H67Z"/>
  <path fill="#373737" opacity="0.21" d="M70 8H71V9H70ZM117 9H118V10H117ZM127 9H128V10H127ZM20 14H21V15H20ZM13 23H14V24H13Z"/>
  <path fill="#373737" opacity="0.205" d="M116 9H117V10H116ZM38 12H39V13H38ZM66 12H67V13H66ZM29 14H30V15H29ZM77 15H78V16H77ZM29 19H30V20H29ZM34 23H35V24H34ZM22 25H23V26H22ZM127 25H128V26H127Z"/>
  <path fill="#373737" opacity="0.2" d="M125 9H126V10H125ZM80 14H81V15H80Z"/>
  <path fill="#373737" opacity="0.19" d="M79 14H80V15H79ZM13 20H14V21H13ZM43 25H44V26H43Z"/>
  <path fill="#373737" opacity="0.185" d="M61 15H62V16H61ZM57 16H58V17H57ZM27 27H28V28H27Z"/>
  <path fill="#373737" opacity="0.18" d="M56 22H57V23H56Z"/>
  <path fill="#373737" opacity="0.175" d="M15 10H16V11H15ZM63 12H64V13H63Z"/>
  <path fill="#373737" opacity="0.17" d="M118 9H119V10H118Z"/>
  <path fill="#373737" opacity="0.165" d="M122 9H123V10H122ZM124 9H125V10H124Z"/>
  <path fill="#373737" opacity="0.155" d="M64 9H65V10H64Z"/>
  <path fill="#373737" opacity="0.15" d="M22 5H23V6H22ZM74 9H75V10H74ZM62 12H63V13H62ZM33 18H34V19H33ZM63 21H64V22H63Z"/>
  <path fill="#373737" opacity="0.145" d="M74 7H75V8H74ZM66 15H67V16H66ZM12 16H13V17H12ZM26 20H27V21H26ZM67 21H68V22H67ZM81 24H82V25H81ZM91 24H92V25H91Z"/>
  <path fill="#373737" opacity="0.14" d="M64 8H65V9H64ZM27 11H28V12H27ZM96 11H97V12H96ZM111 15H112V16H111ZM56 23H57V24H56Z"/>
  <path fill="#373737" opacity="0.135" d="M119 7H120V8H119ZM78 8H79V9H78ZM57 10H58V11H57Z"/>
  <path fill="#373737" opacity="0.13" d="M18 6H19V7H18ZM27 8H28V9H27ZM96 12H97V13H96ZM23 13H24V14H23ZM96 13H97V14H96ZM84 14H85V15H84ZM86 14H87V15H86ZM29 16H30V17H29ZM18 17H19V18H18ZM81 17H82V18H81ZM62 21H63V22H62ZM64 21H65V22H64ZM68 21H69V22H68ZM37 22H38V23H37Z"/>
  <path fill="#373737" opacity="0.12" d="M26 9H27V10H26ZM14 11H15V12H14ZM96 14H97V15H96ZM96 15H97V16H96ZM81 18H82V19H81ZM66 21H67V22H66ZM10 27H11V28H10Z"/>
  <path fill="#373737" opacity="0.115" d="M33 11H34V12H33ZM57 12H58V13H57ZM70 12H71V13H70ZM85 14H86V15H85ZM32 15H33V16H32ZM96 16H97V17H96ZM96 17H97V18H96ZM34 19H35V20H34ZM79 21H80V22H79ZM57 23H58V24H57ZM68 23H69V24H68ZM57 24H58V25H57Z"/>
  <path fill="#373737" opacity="0.11" d="M121 7H122V8H121ZM68 12H69V13H68ZM21 13H22V14H21ZM114 13H115V14H114ZM30 14H31V15H30ZM71 16H72V17H71ZM96 18H97V19H96ZM8 19H9V20H8ZM96 19H97V20H96ZM57 22H58V23H57Z"/>
  <path fill="#373737" opacity="0.105" d="M110 9H111V10H110ZM57 11H58V12H57ZM24 12H25V13H24ZM75 12H76V13H75ZM81 12H82V13H81ZM31 18H32V19H31ZM15 24H16V25H15ZM44 24H45V25H44Z"/>
  <path fill="#373737" opacity="0.1" d="M60 12H61V13H60ZM7 20H8V21H7ZM81 20H82V21H81ZM57 21H58V22H57ZM81 21H82V22H81ZM93 21H94V22H93ZM81 22H82V23H81ZM81 23H82V24H81Z"/>
  <path fill="#373737" opacity="0.095" d="M71 10H72V11H71ZM69 12H70V13H69ZM127 18H128V19H127ZM57 20H58V21H57ZM61 21H62V22H61ZM15 25H16V26H15ZM81 25H82V26H81Z"/>
  <path fill="#373737" opacity="0.085" d="M19 5H20V6H19ZM89 8H90V9H89ZM112 11H113V12H112ZM67 12H68V13H67ZM57 15H58V16H57ZM10 18H11V19H10ZM45 21H46V22H45ZM45 22H46V23H45ZM56 24H57V25H56ZM31 27H32V28H31Z"/>
  <path fill="#373737" opacity="0.08" d="M34 10H35V11H34ZM81 11H82V12H81ZM81 13H82V14H81ZM111 16H112V17H111ZM121 20H122V21H121ZM60 21H61V22H60ZM65 21H66V22H65Z"/>
  <path fill="#373737" opacity="0.075" d="M31 16H32V17H31ZM116 20H119V21H116ZM122 20H123V21H122ZM16 22H17V23H16Z"/>
  <path fill="#373737" opacity="0.07" d="M34 6H35V7H34ZM22 12H23V13H22ZM61 12H62V13H61ZM76 12H77V13H76ZM71 13H72V14H71ZM129 13H130V14H129ZM69 18H70V19H69ZM61 20H62V21H61ZM119 20H121V21H119ZM71 21H72V22H71ZM32 26H33V27H32ZM37 27H38V28H37Z"/>
  <path fill="#373737" opacity="0.065" d="M77 8H78V9H77ZM82 10H83V11H82ZM71 11H72V12H71ZM112 14H113V15H112ZM65 15H66V16H65ZM39 17H40V18H39ZM93 20H94V21H93ZM68 22H69V23H68ZM36 25H37V26H36ZM77 25H78V26H77ZM11 26H12V27H11Z"/>
  <path fill="#373737" opacity="0.06" d="M64 7H65V8H64ZM24 8H25V9H24ZM97 11H98V12H97ZM77 12H78V13H77ZM113 14H114V15H113ZM115 14H116V15H115ZM131 15H132V16H131ZM11 18H12V19H11ZM36 24H37V25H36Z"/>
  <path fill="#373737" opacity="0.05" d="M33 5H34V6H33ZM118 7H119V8H118ZM77 9H78V10H77ZM90 11H91V12H90ZM29 13H30V14H29ZM71 14H72V15H71ZM125 14H127V15H125ZM8 17H9V18H8ZM19 18H20V19H19ZM42 18H43V19H42ZM78 18H79V19H78ZM18 19H19V20H18ZM123 20H124V21H123ZM16 21H17V22H16ZM46 23H47V24H46ZM57 25H58V26H57ZM12 26H13V27H12ZM75 26H76V27H75Z"/>
  <path fill="#373737" opacity="0.045" d="M119 6H120V7H119ZM17 7H18V8H17ZM117 8H118V9H117ZM111 9H112V10H111ZM83 10H84V11H83ZM28 12H29V13H28ZM78 12H79V13H78ZM12 14H13V15H12ZM111 14H112V15H111ZM123 14H124V15H123ZM127 14H129V15H127ZM43 16H44V17H43ZM130 17H131V18H130ZM43 18H44V19H43ZM61 18H62V19H61ZM28 20H29V21H28ZM60 20H61V21H60ZM56 25H57V26H56ZM36 26H37V27H36ZM125 27H126V28H125Z"/>
  <path fill="#373737" opacity="0.04" d="M34 4H35V5H34ZM17 6H18V7H17ZM123 8H124V9H123ZM35 9H36V10H35ZM85 11H86V12H85ZM33 13H34V14H33ZM117 13H118V14H117ZM118 14H119V15H118ZM19 16H20V17H19ZM111 17H112V18H111ZM41 18H42V19H41ZM131 18H132V19H131ZM17 19H18V20H17ZM38 19H39V20H38ZM4 21H5V22H4ZM14 21H15V22H14ZM27 21H28V22H27ZM97 22H98V23H97ZM23 24H24V25H23ZM33 25H35V26H33ZM60 25H61V26H60ZM91 25H92V26H91ZM62 26H63V27H62ZM126 26H127V27H126ZM82 27H83V28H82Z"/>
  <path fill="#373737" opacity="0.035" d="M29 4H30V5H29ZM120 4H121V5H120ZM64 6H65V7H64ZM95 8H96V9H95ZM109 8H110V9H109ZM116 8H117V9H116ZM60 9H61V10H60ZM112 10H113V11H112ZM26 11H27V12H26ZM80 11H81V12H80ZM86 11H87V12H86ZM100 11H101V12H100ZM128 13H129V14H128ZM22 14H23V15H22ZM108 14H109V15H108ZM114 14H115V15H114ZM124 14H125V15H124ZM112 18H113V19H112ZM128 18H129V19H128ZM28 19H29V20H28ZM92 20H93V21H92ZM96 20H97V21H96ZM124 20H125V21H124ZM26 21H27V22H26ZM78 21H79V22H78ZM92 21H93V22H92ZM124 21H125V22H124ZM26 22H27V23H26ZM99 22H100V23H99ZM124 22H125V23H124ZM47 23H48V24H47ZM124 23H125V24H124ZM24 25H25V26H24ZM35 26H36V27H35ZM87 26H88V27H87ZM124 26H125V27H124ZM11 27H12V28H11ZM13 27H14V28H13ZM23 27H24V28H23ZM55 27H56V28H55ZM78 27H79V28H78ZM113 27H114V28H113Z"/>
  <path fill="#373737" opacity="0.03" d="M17 4H18V5H17ZM66 4H67V5H66ZM74 4H75V5H74ZM118 4H119V5H118ZM117 5H118V6H117ZM101 6H103V7H101ZM116 6H117V7H116ZM110 8H111V9H110ZM79 10H80V11H79ZM78 11H79V12H78ZM99 11H100V12H99ZM111 11H112V12H111ZM13 12H14V13H13ZM71 12H72V13H71ZM129 12H130V13H129ZM32 13H33V14H32ZM116 14H117V15H116ZM122 14H123V15H122ZM110 15H111V16H110ZM9 17H10V18H9ZM71 17H72V18H71ZM32 18H33V19H32ZM70 18H71V19H70ZM38 20H39V21H38ZM6 21H7V22H6ZM73 21H74V22H73ZM73 22H74V23H73ZM45 23H46V24H45ZM73 23H74V24H73ZM60 24H61V25H60ZM12 25H13V26H12ZM34 26H35V27H34ZM64 26H65V27H64ZM113 26H114V27H113ZM127 26H128V27H127ZM25 27H26V28H25ZM72 27H73V28H72ZM92 27H93V28H92ZM124 27H125V28H124Z"/>
</svg>