<svg xmlns="http://www.w3.org/2000/svg" width="149" height="30" viewBox="0 0 149 30" role="img" aria-label="image2 10 tencent" shape-rendering="crispEdges">
  <title>image2 10 tencent</title>
  <desc>Pixel-level vector reconstruction extracted from the supplied PNG, with white background removed.</desc>
  <path fill="#373737" d="M28 15H29V16H28Z"/>
  <path fill="#373737" opacity="0.99" d="M85 12H86V13H85ZM48 16H49V17H48ZM88 16H89V17H88Z"/>
  <path fill="#373737" opacity="0.985" d="M95 14H96V15H95ZM28 16H29V17H28ZM32 19H33V20H32Z"/>
  <path fill="#373737" opacity="0.98" d="M18 14H19V15H18ZM49 14H50V15H49ZM117 14H118V15H117ZM120 14H121V15H120ZM121 18H122V19H121Z"/>
  <path fill="#373737" opacity="0.97" d="M11 8H12V9H11ZM69 11H70V12H69ZM110 13H111V14H110ZM72 14H73V15H72ZM118 14H119V15H118ZM34 16H35V17H34ZM96 16H97V17H96ZM48 17H49V18H48ZM127 17H128V18H127ZM139 17H140V18H139ZM139 18H140V19H139ZM42 20H43V21H42ZM49 20H50V21H49Z"/>
  <path fill="#373737" opacity="0.965" d="M115 7H116V8H115ZM141 7H142V8H141ZM135 10H136V11H135ZM114 11H115V12H114ZM21 12H22V13H21ZM23 12H24V13H23ZM67 12H68V13H67ZM84 12H85V13H84ZM98 12H99V13H98ZM135 13H136V14H135ZM12 15H13V16H12ZM119 15H120V16H119ZM127 16H128V17H127ZM88 17H89V18H88ZM18 19H19V20H18Z"/>
  <path fill="#373737" opacity="0.96" d="M117 10H118V11H117ZM25 11H26V12H25ZM122 11H123V12H122ZM80 13H81V14H80ZM62 14H63V15H62ZM77 14H78V15H77ZM127 14H128V15H127ZM133 14H134V15H133ZM62 15H63V16H62ZM72 15H73V16H72ZM10 19H11V20H10ZM62 19H63V20H62ZM77 19H78V20H77ZM63 21H64V22H63Z"/>
  <path fill="#373737" opacity="0.955" d="M109 6H110V7H109ZM84 11H86V12H84ZM119 11H120V12H119ZM27 12H28V13H27ZM99 12H100V13H99ZM107 12H108V13H107ZM36 13H37V14H36ZM132 13H134V14H132ZM140 13H141V14H140ZM11 14H12V15H11ZM88 14H89V15H88ZM94 14H95V15H94ZM34 15H35V16H34ZM87 15H88V16H87ZM127 15H128V16H127ZM133 15H134V16H133ZM107 16H108V17H107ZM18 17H19V18H18ZM20 17H22V18H20ZM28 17H29V18H28ZM109 18H110V19H109ZM11 19H12V20H11ZM138 20H139V21H138ZM105 21H106V22H105ZM126 21H127V22H126ZM54 22H56V23H54ZM64 22H66V23H64ZM71 22H72V23H71Z"/>
  <path fill="#373737" opacity="0.95" d="M108 7H109V8H108ZM11 10H12V11H11ZM11 11H12V12H11ZM23 11H24V12H23ZM39 11H41V12H39ZM118 11H119V12H118ZM41 12H42V13H41ZM52 12H53V13H52ZM92 12H93V13H92ZM94 12H95V13H94ZM97 12H98V13H97ZM34 13H35V14H34ZM19 14H20V15H19ZM115 14H116V15H115ZM121 14H122V15H121ZM134 14H135V15H134ZM43 15H44V16H43ZM17 16H18V17H17ZM109 16H110V17H109ZM22 17H23V18H22ZM61 17H62V18H61ZM65 17H69V18H65ZM127 19H128V20H127ZM9 20H10V21H9ZM11 20H12V21H11ZM33 20H34V21H33ZM105 20H106V21H105ZM120 20H121V21H120ZM76 21H77V22H76ZM133 21H134V22H133ZM138 21H139V22H138ZM70 22H71V23H70ZM138 22H139V23H138ZM22 23H23V24H22Z"/>
  <path fill="#373737" opacity="0.945" d="M14 6H15V7H14ZM140 6H141V7H140ZM12 8H13V9H12ZM141 8H142V9H141ZM95 9H96V10H95ZM95 10H96V11H95ZM67 11H68V12H67ZM39 12H40V13H39ZM57 12H58V13H57ZM66 12H67V13H66ZM93 12H94V13H93ZM119 12H120V13H119ZM11 13H12V14H11ZM10 14H11V15H10ZM43 14H44V15H43ZM96 14H97V15H96ZM106 14H107V15H106ZM122 14H123V15H122ZM139 14H140V15H139ZM42 15H43V16H42ZM73 15H74V16H73ZM95 15H96V16H95ZM106 15H107V16H106ZM43 16H44V17H43ZM72 16H73V17H72ZM23 17H24V18H23ZM27 17H28V18H27ZM43 17H44V18H43ZM62 17H63V18H62ZM10 18H12V19H10ZM17 18H18V19H17ZM48 18H49V19H48ZM63 18H64V19H63ZM88 18H89V19H88ZM95 18H96V19H95ZM41 20H42V21H41ZM115 20H116V21H115ZM126 20H127V21H126ZM139 20H140V21H139ZM27 21H28V22H27ZM49 21H50V22H49ZM95 21H96V22H95ZM139 21H140V22H139ZM23 22H24V23H23ZM27 22H28V23H27ZM108 22H109V23H108ZM53 23H54V24H53Z"/>
  <path fill="#373737" opacity="0.935" d="M5 6H7V7H5ZM13 6H14V7H13ZM15 6H17V7H15ZM111 6H112V7H111ZM141 6H142V7H141ZM121 7H122V8H121ZM11 9H12V10H11ZM108 11H109V12H108ZM110 11H111V12H110ZM120 11H122V12H120ZM128 11H129V12H128ZM140 11H141V12H140ZM12 12H13V13H12ZM20 12H21V13H20ZM65 13H66V14H65ZM96 13H97V14H96ZM134 13H135V14H134ZM136 13H137V14H136ZM33 14H35V15H33ZM48 14H49V15H48ZM64 14H65V15H64ZM71 14H72V15H71ZM113 14H114V15H113ZM128 14H129V15H128ZM63 15H64V16H63ZM77 15H78V16H77ZM62 16H63V17H62ZM114 16H115V17H114ZM32 17H33V18H32ZM34 17H35V18H34ZM72 17H73V18H72ZM106 17H107V18H106ZM109 17H110V18H109ZM43 18H44V19H43ZM43 19H44V20H43ZM63 20H64V21H63ZM114 20H115V21H114ZM9 21H10V22H9ZM11 21H12V22H11ZM41 21H44V22H41ZM50 21H51V22H50ZM22 22H23V23H22ZM25 22H26V23H25Z"/>
  <path fill="#373737" opacity="0.93" d="M7 6H9V7H7ZM12 6H13V7H12ZM17 6H19V7H17ZM108 6H109V7H108ZM110 6H111V7H110ZM129 7H130V8H129ZM13 10H14V11H13ZM97 10H98V11H97ZM107 10H108V11H107ZM57 11H58V12H57ZM68 11H69V12H68ZM70 11H71V12H70ZM43 12H44V13H43ZM51 12H52V13H51ZM70 12H71V13H70ZM72 12H73V13H72ZM82 12H83V13H82ZM35 13H36V14H35ZM43 13H44V14H43ZM72 13H73V14H72ZM78 13H79V14H78ZM120 13H121V14H120ZM73 14H74V15H73ZM27 16H28V17H27ZM78 16H79V17H78ZM86 16H87V17H86ZM94 16H95V17H94ZM134 16H135V17H134ZM139 16H140V17H139ZM19 17H20V18H19ZM26 17H27V18H26ZM95 17H96V18H95ZM119 17H120V18H119ZM61 18H62V19H61ZM77 18H78V19H77ZM109 19H110V20H109ZM10 20H11V21H10ZM43 20H44V21H43ZM86 20H87V21H86ZM95 20H96V21H95ZM112 20H113V21H112ZM117 20H118V21H117ZM128 20H129V21H128ZM33 21H34V22H33ZM62 21H63V22H62ZM64 21H65V22H64ZM86 21H87V22H86ZM57 22H58V23H57ZM66 22H68V23H66Z"/>
  <path fill="#373737" opacity="0.925" d="M9 6H11V7H9ZM19 6H21V7H19ZM13 9H14V10H13ZM117 9H118V10H117ZM141 9H142V10H141ZM41 11H42V12H41ZM56 11H57V12H56ZM97 11H98V12H97ZM107 11H108V12H107ZM109 11H110V12H109ZM113 11H114V12H113ZM22 12H23V13H22ZM40 12H41V13H40ZM42 12H43V13H42ZM65 12H66V13H65ZM87 12H88V13H87ZM110 12H111V13H110ZM116 12H117V13H116ZM79 13H80V14H79ZM139 13H140V14H139ZM44 14H45V15H44ZM63 14H64V15H63ZM140 14H141V15H140ZM11 15H12V16H11ZM17 15H18V16H17ZM33 15H34V16H33ZM49 15H50V16H49ZM78 15H80V16H78ZM96 15H97V16H96ZM134 15H135V16H134ZM61 16H62V17H61ZM133 16H134V17H133ZM11 17H12V18H11ZM17 17H18V18H17ZM24 17H25V18H24ZM71 17H72V18H71ZM86 17H87V18H86ZM114 17H115V18H114ZM47 18H48V19H47ZM41 19H42V20H41ZM95 19H96V20H95ZM87 20H89V21H87ZM113 20H114V21H113ZM116 20H117V21H116ZM18 21H20V22H18ZM32 21H33V22H32ZM72 21H73V22H72ZM77 21H78V22H77ZM120 21H121V22H120ZM132 21H133V22H132ZM20 22H21V23H20ZM41 22H42V23H41ZM53 22H54V23H53ZM77 22H78V23H77ZM54 23H55V24H54Z"/>
  <path fill="#373737" opacity="0.92" d="M11 6H12V7H11ZM121 6H122V7H121ZM128 6H129V7H128ZM111 7H112V8H111ZM13 8H14V9H13ZM111 8H112V9H111ZM107 9H108V10H107ZM12 10H13V11H12ZM96 10H97V11H96ZM117 11H118V12H117ZM126 11H127V12H126ZM135 11H136V12H135ZM25 12H26V13H25ZM38 12H39V13H38ZM53 12H54V13H53ZM58 12H59V13H58ZM69 12H70V13H69ZM20 13H21V14H20ZM27 13H28V14H27ZM41 13H42V14H41ZM87 13H88V14H87ZM137 13H138V14H137ZM12 14H13V15H12ZM50 14H51V15H50ZM119 14H120V15H119ZM10 15H11V16H10ZM27 15H28V16H27ZM32 15H33V16H32ZM50 15H51V16H50ZM94 15H95V16H94ZM140 15H141V16H140ZM12 16H13V17H12ZM33 16H34V17H33ZM49 16H50V17H49ZM73 16H74V17H73ZM119 16H120V17H119ZM10 17H11V18H10ZM25 17H26V18H25ZM33 17H34V18H33ZM42 17H43V18H42ZM70 17H71V18H70ZM96 17H97V18H96ZM133 17H134V18H133ZM32 18H34V19H32ZM42 18H43V19H42ZM86 18H88V19H86ZM42 19H43V20H42ZM47 19H50V20H47ZM86 19H89V20H86ZM139 19H140V20H139ZM62 20H63V21H62ZM77 20H78V21H77ZM127 20H128V21H127ZM31 21H32V22H31ZM87 21H88V22H87ZM9 22H11V23H9ZM18 22H19V23H18ZM56 22H57V23H56ZM86 22H87V23H86ZM139 22H140V23H139ZM23 23H24V24H23ZM52 23H53V24H52ZM68 23H69V24H68Z"/>
  <path fill="#373737" opacity="0.915" d="M114 6H116V7H114ZM133 6H137V7H133ZM117 8H118V9H117ZM118 9H119V10H118ZM134 10H135V11H134ZM12 11H13V12H12ZM24 11H25V12H24ZM55 11H56V12H55ZM95 11H97V12H95ZM115 11H116V12H115ZM54 12H57V13H54ZM78 12H79V13H78ZM83 12H84V13H83ZM88 12H89V13H88ZM134 12H135V13H134ZM10 13H11V14H10ZM51 13H52V14H51ZM64 13H65V14H64ZM77 13H78V14H77ZM95 13H96V14H95ZM42 14H43V15H42ZM86 14H87V15H86ZM114 14H115V15H114ZM48 15H49V16H48ZM110 15H111V16H110ZM18 16H19V17H18ZM42 16H43V17H42ZM63 16H64V17H63ZM77 16H78V17H77ZM49 17H50V18H49ZM64 17H65V18H64ZM78 17H79V18H78ZM87 17H88V18H87ZM118 17H119V18H118ZM18 18H19V19H18ZM34 18H35V19H34ZM49 18H50V19H49ZM120 19H121V20H120ZM76 20H77V21H76ZM93 20H95V21H93ZM10 21H11V22H10ZM51 21H52V22H51ZM78 21H79V22H78ZM93 21H94V22H93ZM24 22H25V23H24ZM42 22H43V23H42ZM49 22H52V23H49ZM93 22H94V23H93ZM66 23H67V24H66Z"/>
  <path fill="#373737" opacity="0.91" d="M137 6H138V7H137ZM139 6H140V7H139ZM115 8H116V9H115ZM120 8H121V9H120ZM140 10H141V11H140ZM42 11H43V12H42ZM26 12H27V13H26ZM33 12H34V13H33ZM59 12H60V13H59ZM12 13H13V14H12ZM33 13H34V14H33ZM42 13H43V14H42ZM138 13H139V14H138ZM28 14H29V15H28ZM71 15H72V16H71ZM11 16H12V17H11ZM87 16H88V17H87ZM47 17H48V18H47ZM69 17H70V18H69ZM73 17H74V18H73ZM77 17H78V18H77ZM79 17H80V18H79ZM9 18H10V19H9ZM62 18H63V19H62ZM33 19H34V20H33ZM105 19H106V20H105ZM78 20H79V21H78ZM20 21H21V22H20ZM31 22H32V23H31ZM33 22H34V23H33ZM63 22H64V23H63ZM87 22H88V23H87ZM95 22H96V23H95ZM132 22H134V23H132ZM21 23H22V24H21Z"/>
  <path fill="#373737" opacity="0.9" d="M132 6H133V7H132ZM9 7H11V8H9ZM107 8H108V9H107ZM116 8H117V9H116ZM129 8H130V9H129ZM140 8H141V9H140ZM12 9H13V10H12ZM86 11H87V12H86ZM127 11H128V12H127ZM68 12H69V13H68ZM128 12H129V13H128ZM140 12H141V13H140ZM19 13H20V14H19ZM50 13H51V14H50ZM71 13H72V14H71ZM128 13H129V14H128ZM78 14H79V15H78ZM10 16H11V17H10ZM63 17H64V18H63ZM133 18H134V19H133ZM9 19H10V20H9ZM61 19H62V20H61ZM78 19H79V20H78ZM94 19H95V20H94ZM18 20H19V21H18ZM127 21H128V22H127ZM21 22H22V23H21ZM26 22H27V23H26ZM69 22H70V23H69ZM94 22H95V23H94ZM126 22H127V23H126Z"/>
  <path fill="#373737" opacity="0.895" d="M138 6H139V7H138ZM11 7H15V8H11ZM118 8H119V9H118ZM96 9H97V10H96ZM140 9H141V10H140ZM54 11H55V12H54ZM94 11H95V12H94ZM11 12H12V13H11ZM71 12H72V13H71ZM28 13H29V14H28ZM52 13H53V14H52ZM63 13H64V14H63ZM107 13H108V14H107ZM115 13H116V14H115ZM127 13H128V14H127ZM79 14H80V15H79ZM110 14H111V15H110ZM18 15H19V16H18ZM44 15H45V16H44ZM139 15H140V16H139ZM71 16H72V17H71ZM79 16H80V17H79ZM95 16H96V17H95ZM106 16H107V17H106ZM94 17H95V18H94ZM78 18H79V19H78ZM127 18H128V19H127ZM133 19H134V20H133ZM48 20H49V21H48ZM50 20H51V21H50ZM17 21H18V22H17ZM94 21H95V22H94ZM52 22H53V23H52ZM105 22H106V23H105ZM65 23H66V24H65Z"/>
  <path fill="#373737" opacity="0.89" d="M118 6H119V7H118ZM129 6H130V7H129ZM119 8H120V9H119ZM141 10H142V11H141ZM116 11H117V12H116ZM95 12H96V13H95ZM86 13H87V14H86ZM131 13H132V14H131ZM51 14H52V15H51ZM19 15H20V16H19ZM108 16H109V17H108ZM94 18H95V19H94ZM63 19H64V20H63ZM93 19H94V20H93ZM121 19H122V20H121ZM32 20H33V21H32ZM61 20H62V21H61ZM109 20H110V21H109ZM43 22H44V23H43ZM68 22H69V23H68ZM120 22H121V23H120ZM141 22H142V23H141ZM67 23H68V24H67Z"/>
  <path fill="#373737" opacity="0.885" d="M15 7H17V8H15ZM128 7H129V8H128ZM121 8H122V9H121ZM111 9H112V10H111ZM53 11H54V12H53ZM58 11H59V12H58ZM91 11H92V12H91ZM24 12H25V13H24ZM37 12H38V13H37ZM96 12H97V13H96ZM115 12H116V13H115ZM88 13H89V14H88ZM94 13H95V14H94ZM35 14H36V15H35ZM87 14H88V15H87ZM116 14H117V15H116ZM113 15H114V16H113ZM47 16H48V17H47ZM134 17H135V18H134ZM17 19H18V20H17ZM76 19H77V20H76ZM138 19H139V20H138ZM17 20H18V21H17ZM140 22H141V23H140Z"/>
  <path fill="#373737" opacity="0.88" d="M17 7H19V8H17ZM140 7H141V8H140ZM98 11H99V12H98ZM64 12H65V13H64ZM86 12H87V13H86ZM86 15H87V16H86ZM88 15H89V16H88ZM44 16H45V17H44ZM64 16H65V17H64ZM128 16H129V17H128ZM16 18H17V19H16ZM120 18H121V19H120ZM34 19H35V20H34ZM76 22H77V23H76ZM78 22H79V23H78ZM119 22H120V23H119Z"/>
  <path fill="#373737" opacity="0.875" d="M19 7H21V8H19ZM118 7H119V8H118ZM22 11H23V12H22ZM134 11H135V12H134ZM141 11H142V12H141ZM26 13H27V14H26ZM81 13H82V14H81ZM119 13H120V14H119ZM32 14H33V15H32ZM128 15H129V16H128ZM32 16H33V17H32ZM113 17H114V18H113ZM108 21H109V22H108ZM19 22H20V23H19ZM32 22H33V23H32Z"/>
  <path fill="#373737" opacity="0.865" d="M122 8H123V9H122ZM110 10H111V11H110ZM92 11H93V12H92ZM49 13H50V14H49ZM114 13H115V14H114ZM27 14H28V15H27ZM129 19H130V20H129ZM133 20H134V21H133ZM48 21H49V22H48ZM71 21H72V22H71ZM109 21H110V22H109ZM51 23H52V24H51ZM69 23H70V24H69Z"/>
  <path fill="#373737" opacity="0.86" d="M114 8H115V9H114ZM128 8H129V9H128ZM127 12H128V13H127ZM135 12H136V13H135ZM44 13H45V14H44ZM112 14H113V15H112ZM122 15H123V16H122ZM138 18H139V19H138ZM129 20H130V21H129ZM11 22H12V23H11Z"/>
  <path fill="#373737" opacity="0.855" d="M122 6H123V7H122ZM10 12H11V13H10ZM77 12H78V13H77ZM80 14H81V15H80ZM89 15H90V16H89ZM19 16H20V17H19ZM121 20H122V21H121ZM20 23H21V24H20Z"/>
  <path fill="#373737" opacity="0.85" d="M26 11H27V12H26ZM73 13H74V14H73ZM26 16H27V17H26ZM85 22H86V23H85Z"/>
  <path fill="#373737" opacity="0.845" d="M113 8H114V9H113ZM83 11H84V12H83ZM120 17H121V18H120ZM16 19H17V20H16Z"/>
  <path fill="#373737" opacity="0.84" d="M95 8H96V9H95ZM93 11H94V12H93ZM100 12H101V13H100ZM12 17H13V18H12ZM106 18H107V19H106ZM126 19H127V20H126Z"/>
  <path fill="#373737" opacity="0.835" d="M5 7H9V8H5ZM70 16H71V17H70ZM47 20H48V21H47ZM57 21H58V22H57ZM24 23H25V24H24Z"/>
  <path fill="#373737" opacity="0.825" d="M134 9H135V10H134ZM66 11H67V12H66ZM34 12H35V13H34ZM112 15H113V16H112ZM117 22H118V23H117Z"/>
  <path fill="#373737" opacity="0.82" d="M13 11H14V12H13ZM87 11H88V12H87ZM89 14H90V15H89ZM109 15H110V16H109ZM115 17H116V18H115ZM19 20H20V21H19ZM31 20H32V21H31ZM65 21H66V22H65Z"/>
  <path fill="#373737" opacity="0.815" d="M108 8H109V9H108ZM111 10H112V11H111ZM71 11H72V12H71ZM106 13H107V14H106ZM107 14H108V15H107ZM9 17H10V18H9ZM41 18H42V19H41ZM134 18H135V19H134ZM88 21H89V22H88ZM116 22H117V23H116ZM55 23H56V24H55Z"/>
  <path fill="#373737" opacity="0.81" d="M107 7H108V8H107ZM99 11H100V12H99ZM17 14H18V15H17ZM135 14H136V15H135ZM113 16H114V17H113ZM108 23H109V24H108Z"/>
  <path fill="#373737" opacity="0.805" d="M18 13H19V14H18ZM58 13H59V14H58ZM21 16H23V17H21ZM16 17H17V18H16ZM118 18H119V19H118ZM26 21H27V22H26ZM10 23H11V24H10ZM85 23H86V24H85Z"/>
  <path fill="#373737" opacity="0.8" d="M81 12H82V13H81ZM23 16H24V17H23ZM65 16H69V17H65ZM79 18H80V19H79ZM104 22H105V23H104ZM77 23H78V24H77ZM119 23H120V24H119ZM140 23H141V24H140Z"/>
  <path fill="#373737" opacity="0.79" d="M91 12H92V13H91ZM139 12H140V13H139ZM85 13H86V14H85ZM25 16H26V17H25ZM118 22H119V23H118ZM94 23H95V24H94ZM138 23H139V24H138Z"/>
  <path fill="#373737" opacity="0.785" d="M38 11H39V12H38ZM69 16H70V17H69ZM140 16H141V17H140ZM119 18H120V19H119ZM72 22H73V23H72ZM31 23H32V24H31ZM41 23H42V24H41Z"/>
  <path fill="#373737" opacity="0.78" d="M24 16H25V17H24ZM108 20H109V21H108ZM111 20H112V21H111ZM52 21H53V22H52ZM42 23H43V24H42Z"/>
  <path fill="#373737" opacity="0.775" d="M10 11H11V12H10ZM20 16H21V17H20ZM132 20H133V21H132ZM93 23H94V24H93ZM117 23H118V24H117ZM132 23H133V24H132Z"/>
  <path fill="#373737" opacity="0.77" d="M59 13H60V14H59ZM35 15H36V16H35ZM44 17H45V18H44ZM96 18H97V19H96ZM117 18H118V19H117ZM134 19H135V20H134ZM32 23H33V24H32ZM86 23H87V24H86ZM118 23H119V24H118ZM120 23H121V24H120ZM133 23H134V24H133ZM139 23H140V24H139Z"/>
  <path fill="#373737" opacity="0.765" d="M139 7H140V8H139ZM116 9H117V10H116ZM120 9H121V10H120ZM79 12H80V13H79ZM107 15H108V16H107ZM109 22H110V23H109ZM9 23H10V24H9Z"/>
  <path fill="#373737" opacity="0.755" d="M135 9H136V10H135ZM138 17H139V18H138Z"/>
  <path fill="#373737" opacity="0.75" d="M19 12H20V13H19ZM117 17H118V18H117ZM113 18H114V19H113ZM128 19H129V20H128ZM33 23H34V24H33ZM87 23H88V24H87ZM116 23H117V24H116Z"/>
  <path fill="#373737" opacity="0.745" d="M110 7H111V8H110ZM110 9H111V10H110ZM32 13H33V14H32ZM97 13H98V14H97ZM50 16H51V17H50ZM50 19H51V20H50ZM76 23H77V24H76Z"/>
  <path fill="#373737" opacity="0.74" d="M115 9H116V10H115ZM121 9H122V10H121ZM129 11H130V12H129ZM138 14H139V15H138ZM76 18H77V19H76Z"/>
  <path fill="#373737" opacity="0.735" d="M114 9H115V10H114ZM77 11H78V12H77ZM29 15H30V16H29ZM110 16H111V17H110ZM105 18H106V19H105ZM115 18H117V19H115ZM25 23H26V24H25Z"/>
  <path fill="#373737" opacity="0.73" d="M21 11H22V12H21ZM109 14H110V15H109ZM128 17H129V18H128Z"/>
  <path fill="#373737" opacity="0.72" d="M122 9H123V10H122ZM137 14H138V15H137ZM93 18H94V19H93ZM34 20H35V21H34Z"/>
  <path fill="#373737" opacity="0.715" d="M114 7H115V8H114ZM116 17H117V18H116ZM108 19H109V20H108Z"/>
  <path fill="#373737" opacity="0.71" d="M119 9H120V10H119ZM120 12H121V13H120ZM136 14H137V15H136ZM114 18H115V19H114ZM85 21H86V22H85ZM95 23H96V24H95Z"/>
  <path fill="#373737" opacity="0.705" d="M26 14H27V15H26ZM41 14H42V15H41ZM126 18H127V19H126ZM104 23H105V24H104Z"/>
  <path fill="#373737" opacity="0.7" d="M13 12H14V13H13ZM50 12H51V13H50ZM53 13H54V14H53ZM118 15H119V16H118ZM89 16H90V17H89ZM76 17H77V18H76ZM64 23H65V24H64Z"/>
  <path fill="#373737" opacity="0.695" d="M133 7H137V8H133ZM113 9H114V10H113ZM121 17H122V18H121ZM70 23H71V24H70Z"/>
  <path fill="#373737" opacity="0.685" d="M20 14H21V15H20ZM121 21H122V22H121ZM43 23H44V24H43Z"/>
  <path fill="#373737" opacity="0.68" d="M137 7H139V8H137ZM118 10H119V11H118ZM123 11H124V12H123ZM131 14H132V15H131ZM106 19H107V20H106ZM64 20H65V21H64Z"/>
  <path fill="#373737" opacity="0.675" d="M107 6H108V7H107ZM9 16H10V17H9ZM56 21H57V22H56ZM105 23H106V24H105Z"/>
  <path fill="#373737" opacity="0.67" d="M108 10H109V11H108ZM78 23H79V24H78Z"/>
  <path fill="#373737" opacity="0.665" d="M132 7H133V8H132ZM28 12H29V13H28ZM21 13H22V14H21ZM64 15H65V16H64ZM16 16H17V17H16ZM56 23H57V24H56Z"/>
  <path fill="#373737" opacity="0.66" d="M132 14H133V15H132ZM41 17H42V18H41Z"/>
  <path fill="#373737" opacity="0.65" d="M141 12H142V13H141ZM123 14H124V15H123Z"/>
  <path fill="#373737" opacity="0.645" d="M139 11H140V12H139ZM31 19H32V20H31ZM88 22H89V23H88Z"/>
  <path fill="#373737" opacity="0.64" d="M109 7H110V8H109ZM129 9H130V10H129ZM37 13H38V14H37ZM61 15H62V16H61ZM29 16H30V17H29ZM138 16H139V17H138ZM11 23H12V24H11ZM137 23H138V24H137Z"/>
  <path fill="#373737" opacity="0.635" d="M116 10H117V11H116ZM33 11H34V12H33ZM112 11H113V12H112ZM106 12H107V13H106ZM89 13H90V14H89ZM79 19H80V20H79ZM40 23H41V24H40Z"/>
  <path fill="#373737" opacity="0.63" d="M129 12H130V13H129ZM132 19H133V20H132ZM16 20H17V21H16ZM28 20H29V21H28ZM8 23H9V24H8Z"/>
  <path fill="#373737" opacity="0.625" d="M118 16H119V17H118ZM12 18H13V19H12ZM128 21H129V22H128Z"/>
  <path fill="#373737" opacity="0.615" d="M108 9H109V10H108ZM111 11H112V12H111ZM47 15H48V16H47ZM140 17H141V18H140Z"/>
  <path fill="#373737" opacity="0.61" d="M36 12H37V13H36ZM116 13H117V14H116ZM121 13H122V14H121ZM120 15H121V16H120ZM44 18H45V19H44ZM8 22H9V23H8Z"/>
  <path fill="#373737" opacity="0.605" d="M117 7H118V8H117ZM52 11H53V12H52ZM32 12H33V13H32ZM70 13H71V14H70ZM111 15H112V16H111ZM128 18H129V19H128ZM70 21H71V22H70ZM40 22H41V23H40Z"/>
  <path fill="#373737" opacity="0.6" d="M119 6H120V7H119ZM40 13H41V14H40ZM110 17H111V18H110ZM126 17H127V18H126ZM96 19H97V20H96ZM85 20H86V21H85ZM137 22H138V23H137Z"/>
  <path fill="#373737" opacity="0.595" d="M4 7H5V8H4ZM10 10H11V11H10ZM59 11H60V12H59ZM21 21H22V22H21Z"/>
  <path fill="#373737" opacity="0.59" d="M114 15H115V16H114Z"/>
  <path fill="#373737" opacity="0.58" d="M105 17H106V18H105Z"/>
  <path fill="#373737" opacity="0.575" d="M128 9H129V10H128ZM98 10H99V11H98ZM134 20H135V21H134ZM25 21H26V22H25ZM53 21H54V22H53Z"/>
  <path fill="#373737" opacity="0.57" d="M133 12H134V13H133ZM121 15H122V16H121Z"/>
  <path fill="#373737" opacity="0.565" d="M26 15H27V16H26ZM93 17H94V18H93Z"/>
  <path fill="#373737" opacity="0.56" d="M109 12H110V13H109ZM118 12H119V13H118ZM13 13H14V14H13ZM29 14H30V15H29ZM66 21H67V22H66ZM62 22H63V23H62ZM50 23H51V24H50Z"/>
  <path fill="#373737" opacity="0.555" d="M128 5H129V6H128ZM110 18H111V19H110ZM130 19H131V20H130ZM125 22H126V23H125Z"/>
  <path fill="#373737" opacity="0.545" d="M10 5H11V6H10ZM112 6H113V7H112ZM142 6H143V7H142ZM41 16H42V17H41ZM89 17H90V18H89ZM75 23H76V24H75Z"/>
  <path fill="#373737" opacity="0.54" d="M8 5H10V6H8ZM11 5H13V6H11ZM4 6H5V7H4ZM76 16H77V17H76ZM19 18H20V19H19ZM72 20H73V21H72ZM55 21H56V22H55Z"/>
  <path fill="#373737" opacity="0.535" d="M5 5H8V6H5ZM13 5H14V6H13ZM108 17H109V18H108ZM61 21H62V22H61ZM19 23H20V24H19Z"/>
  <path fill="#373737" opacity="0.53" d="M14 5H15V6H14ZM41 15H42V16H41ZM104 21H105V22H104ZM92 23H93V24H92ZM141 23H142V24H141Z"/>
  <path fill="#373737" opacity="0.525" d="M118 5H119V6H118ZM43 11H44V12H43ZM127 22H128V23H127ZM109 23H110V24H109Z"/>
  <path fill="#373737" opacity="0.52" d="M15 5H17V6H15ZM122 7H123V8H122ZM125 11H126V12H125ZM109 13H110V14H109ZM93 16H94V17H93ZM108 18H109V19H108ZM34 21H35V22H34Z"/>
  <path fill="#373737" opacity="0.51" d="M17 5H19V6H17ZM112 7H113V8H112ZM123 8H124V9H123ZM32 11H33V12H32ZM84 13H85V14H84ZM129 13H130V14H129ZM130 18H131V19H130ZM75 22H76V23H75ZM125 23H126V24H125Z"/>
  <path fill="#373737" opacity="0.505" d="M19 5H21V6H19ZM142 7H143V8H142ZM110 8H111V9H110ZM82 13H83V14H82ZM97 14H98V15H97ZM9 15H10V16H9ZM31 18H32V19H31ZM44 19H45V20H44ZM58 21H59V22H58Z"/>
  <path fill="#373737" opacity="0.5" d="M93 13H94V14H93ZM141 13H142V14H141ZM111 14H112V15H111ZM54 21H55V22H54Z"/>
  <path fill="#373737" opacity="0.495" d="M119 7H120V8H119ZM94 10H95V11H94ZM59 14H60V15H59ZM106 20H107V21H106ZM118 20H119V21H118ZM121 22H122V23H121Z"/>
  <path fill="#373737" opacity="0.49" d="M97 9H98V10H97ZM82 11H83V12H82ZM57 13H58V14H57ZM113 13H114V14H113ZM28 21H29V22H28Z"/>
  <path fill="#373737" opacity="0.485" d="M106 11H107V12H106ZM126 12H127V13H126ZM92 13H93V14H92ZM29 17H30V18H29ZM92 22H93V23H92Z"/>
  <path fill="#373737" opacity="0.475" d="M111 12H112V13H111ZM50 17H51V18H50ZM50 18H51V19H50ZM24 21H25V22H24ZM69 21H70V22H69Z"/>
  <path fill="#373737" opacity="0.47" d="M139 10H140V11H139ZM65 11H66V12H65ZM25 13H26V14H25ZM38 13H39V14H38ZM66 13H67V14H66ZM80 15H81V16H80ZM46 18H47V19H46Z"/>
  <path fill="#373737" opacity="0.465" d="M120 7H121V8H120ZM99 13H100V14H99ZM35 16H36V17H35ZM132 18H133V19H132ZM8 21H9V22H8ZM67 21H68V22H67Z"/>
  <path fill="#373737" opacity="0.46" d="M44 12H45V13H44ZM135 15H136V16H135ZM58 20H59V21H58ZM79 20H80V21H79Z"/>
  <path fill="#373737" opacity="0.455" d="M27 11H28V12H27ZM36 14H37V15H36ZM123 15H124V16H123ZM51 20H52V21H51Z"/>
  <path fill="#373737" opacity="0.45" d="M100 13H101V14H100ZM22 21H23V22H22ZM131 23H132V24H131Z"/>
  <path fill="#373737" opacity="0.44" d="M117 6H118V7H117ZM62 13H63V14H62ZM110 19H111V20H110ZM137 21H138V22H137Z"/>
  <path fill="#373737" opacity="0.435" d="M10 9H11V10H10ZM140 18H141V19H140ZM26 23H27V24H26Z"/>
  <path fill="#373737" opacity="0.43" d="M54 13H55V14H54ZM40 21H41V22H40ZM48 22H49V23H48Z"/>
  <path fill="#373737" opacity="0.425" d="M35 12H36V13H35ZM117 12H118V13H117ZM39 13H40V14H39ZM31 17H32V18H31ZM19 19H20V20H19ZM119 21H120V22H119Z"/>
  <path fill="#373737" opacity="0.42" d="M37 11H38V12H37ZM78 11H79V12H78ZM98 13H99V14H98ZM126 16H127V17H126ZM96 20H97V21H96ZM47 21H48V22H47ZM68 21H69V22H68ZM116 21H117V22H116Z"/>
  <path fill="#373737" opacity="0.415" d="M83 13H84V14H83ZM13 14H14V15H13Z"/>
  <path fill="#373737" opacity="0.41" d="M112 8H113V9H112ZM64 18H65V19H64Z"/>
  <path fill="#373737" opacity="0.4" d="M119 5H120V6H119ZM118 13H119V14H118ZM120 16H121V17H120ZM46 17H47V18H46ZM23 21H24V22H23ZM17 22H18V23H17Z"/>
  <path fill="#373737" opacity="0.395" d="M130 8H131V9H130ZM101 13H102V14H101ZM138 15H139V16H138ZM12 19H13V20H12ZM115 21H116V22H115Z"/>
  <path fill="#373737" opacity="0.39" d="M129 5H130V6H129ZM63 12H64V13H63ZM107 17H108V18H107ZM125 21H126V22H125Z"/>
  <path fill="#373737" opacity="0.385" d="M122 5H123V6H122ZM80 12H81V13H80ZM114 12H115V13H114ZM115 16H116V17H115ZM57 23H58V24H57ZM88 23H89V24H88Z"/>
  <path fill="#373737" opacity="0.38" d="M14 8H15V9H14ZM130 9H131V10H130ZM106 10H107V11H106ZM73 12H74V13H73ZM115 15H116V16H115ZM105 16H106V17H105Z"/>
  <path fill="#373737" opacity="0.375" d="M109 10H110V11H109ZM111 13H112V14H111ZM75 21H76V22H75ZM117 21H118V22H117Z"/>
  <path fill="#373737" opacity="0.365" d="M114 5H115V6H114ZM142 8H143V9H142ZM134 21H135V22H134Z"/>
  <path fill="#373737" opacity="0.36" d="M21 6H22V7H21ZM125 12H126V13H125ZM97 15H98V16H97ZM116 15H117V16H116ZM140 19H141V20H140Z"/>
  <path fill="#373737" opacity="0.355" d="M122 10H123V11H122ZM56 13H57V14H56ZM65 14H66V15H65ZM51 15H52V16H51ZM21 18H23V19H21ZM114 21H115V22H114ZM58 22H59V23H58Z"/>
  <path fill="#373737" opacity="0.35" d="M93 15H94V16H93ZM23 18H24V19H23ZM73 20H74V21H73ZM92 21H93V22H92Z"/>
  <path fill="#373737" opacity="0.345" d="M45 14H46V15H45ZM76 15H77V16H76ZM27 20H28V21H27ZM115 22H116V23H115ZM30 23H31V24H30Z"/>
  <path fill="#373737" opacity="0.34" d="M9 14H10V15H9ZM129 14H130V15H129ZM74 15H75V16H74ZM117 15H118V16H117ZM24 18H25V19H24ZM89 18H90V19H89Z"/>
  <path fill="#373737" opacity="0.33" d="M127 6H128V7H127ZM134 8H135V9H134ZM108 12H109V13H108ZM55 13H56V14H55ZM45 15H46V16H45ZM25 18H26V19H25ZM69 18H70V19H69ZM114 19H115V20H114ZM113 21H114V22H113ZM34 22H35V23H34Z"/>
  <path fill="#373737" opacity="0.325" d="M121 5H122V6H121ZM112 9H113V10H112ZM115 10H116V11H115ZM126 10H127V11H126ZM26 18H27V19H26ZM65 18H69V19H65ZM70 18H71V19H70ZM44 20H45V21H44Z"/>
  <path fill="#373737" opacity="0.32" d="M121 10H122V11H121ZM16 15H17V16H16ZM135 16H136V17H135ZM112 21H113V22H112Z"/>
  <path fill="#373737" opacity="0.315" d="M21 5H22V6H21ZM35 17H36V18H35ZM27 18H28V19H27ZM71 18H72V19H71ZM73 18H74V19H73ZM85 19H86V20H85Z"/>
  <path fill="#373737" opacity="0.31" d="M128 10H129V11H128ZM90 11H91V12H90ZM20 18H21V19H20ZM72 18H73V19H72ZM46 19H47V20H46Z"/>
  <path fill="#373737" opacity="0.305" d="M28 18H29V19H28ZM113 19H114V20H113ZM116 19H117V20H116ZM71 23H72V24H71ZM121 23H122V24H121Z"/>
  <path fill="#373737" opacity="0.295" d="M10 8H11V9H10ZM113 10H114V11H113ZM129 10H130V11H129ZM72 11H73V12H72ZM129 18H130V19H129ZM117 19H118V20H117ZM115 23H116V24H115Z"/>
  <path fill="#373737" opacity="0.29" d="M4 5H5V6H4ZM127 10H128V11H127ZM22 13H23V14H22ZM125 20H126V21H125ZM106 21H107V22H106ZM140 21H141V22H140ZM131 22H132V23H131Z"/>
  <path fill="#373737" opacity="0.285" d="M96 8H97V9H96ZM123 10H124V11H123ZM51 11H52V12H51ZM121 12H122V13H121ZM31 16H32V17H31ZM111 19H113V20H111Z"/>
  <path fill="#373737" opacity="0.28" d="M85 10H86V11H85ZM115 19H116V20H115ZM28 22H29V23H28ZM107 23H108V24H107Z"/>
  <path fill="#373737" opacity="0.275" d="M21 7H22V8H21ZM94 9H95V10H94ZM120 10H121V11H120ZM48 13H49V14H48ZM117 13H118V14H117ZM52 14H53V15H52ZM8 20H9V21H8Z"/>
  <path fill="#373737" opacity="0.27" d="M133 11H134V12H133ZM130 20H131V21H130ZM111 21H112V22H111Z"/>
  <path fill="#373737" opacity="0.26" d="M142 9H143V10H142ZM114 10H115V11H114ZM20 11H21V12H20ZM69 13H70V14H69ZM61 14H62V15H61ZM74 14H75V15H74ZM74 16H75V17H74ZM60 18H61V19H60ZM12 20H13V21H12ZM104 20H105V21H104Z"/>
  <path fill="#373737" opacity="0.255" d="M56 10H57V11H56ZM119 10H120V11H119ZM113 12H114V13H113ZM79 21H80V22H79Z"/>
  <path fill="#373737" opacity="0.25" d="M115 5H116V6H115ZM127 5H128V6H127ZM14 9H15V10H14ZM29 13H30V14H29ZM67 13H68V14H67ZM81 14H82V15H81ZM118 19H119V20H118ZM137 20H138V21H137Z"/>
  <path fill="#373737" opacity="0.245" d="M120 6H121V7H120ZM139 9H140V10H139ZM73 21H74V22H73ZM118 21H119V22H118Z"/>
  <path fill="#373737" opacity="0.24" d="M131 6H132V7H131ZM106 9H107V10H106ZM68 10H69V11H68ZM136 10H137V11H136ZM93 14H94V15H93ZM122 18H123V19H122Z"/>
  <path fill="#373737" opacity="0.235" d="M126 15H127V16H126ZM16 21H17V22H16Z"/>
  <path fill="#373737" opacity="0.225" d="M138 5H139V6H138ZM112 12H113V13H112ZM108 15H109V16H108ZM135 17H136V18H135ZM85 18H86V19H85ZM140 20H141V21H140ZM63 23H64V24H63Z"/>
  <path fill="#373737" opacity="0.22" d="M111 5H112V6H111ZM116 7H117V8H116ZM123 9H124V10H123ZM24 10H25V11H24ZM89 12H90V13H89ZM122 13H123V14H122ZM141 14H142V15H141ZM40 20H41V21H40ZM75 20H76V21H75ZM103 23H104V24H103Z"/>
  <path fill="#373737" opacity="0.215" d="M139 5H140V6H139ZM14 10H15V11H14ZM13 15H14V16H13ZM105 15H106V16H105ZM132 17H133V18H132ZM30 22H31V23H30Z"/>
  <path fill="#373737" opacity="0.21" d="M108 5H109V6H108ZM137 5H138V6H137ZM40 10H41V11H40ZM69 10H70V11H69ZM88 11H89V12H88ZM112 18H113V19H112ZM92 20H93V21H92ZM129 21H130V22H129Z"/>
  <path fill="#373737" opacity="0.205" d="M130 7H131V8H130ZM122 12H123V13H122ZM91 13H92V14H91ZM76 14H77V15H76ZM96 21H97V22H96Z"/>
  <path fill="#373737" opacity="0.2" d="M109 5H110V6H109ZM23 10H24V11H23ZM55 10H56V11H55ZM49 12H50V13H49ZM17 13H18V14H17ZM119 20H120V21H119ZM107 22H108V23H107ZM49 23H50V24H49Z"/>
  <path fill="#373737" opacity="0.19" d="M136 9H137V10H136ZM101 12H102V13H101ZM24 13H25V14H24ZM97 16H98V17H97ZM64 19H65V20H64ZM89 19H90V20H89Z"/>
  <path fill="#373737" opacity="0.185" d="M110 5H111V6H110ZM132 5H133V6H132ZM136 5H137V6H136ZM41 10H42V11H41ZM80 16H81V17H80ZM60 19H61V20H60Z"/>
  <path fill="#373737" opacity="0.18" d="M117 5H118V6H117ZM140 5H141V6H140ZM123 12H124V13H123ZM60 17H61V18H60ZM110 20H111V21H110ZM131 21H132V22H131ZM126 23H127V24H126Z"/>
  <path fill="#373737" opacity="0.175" d="M133 5H136V6H133ZM57 10H58V11H57ZM141 21H142V22H141Z"/>
  <path fill="#373737" opacity="0.17" d="M47 14H48V15H47ZM129 15H130V16H129ZM74 17H75V18H74ZM122 17H123V18H122ZM137 19H138V20H137Z"/>
  <path fill="#373737" opacity="0.165" d="M134 22H135V23H134Z"/>
  <path fill="#373737" opacity="0.155" d="M70 10H71V11H70ZM84 10H85V11H84ZM112 10H113V11H112ZM112 13H113V14H112ZM20 20H21V21H20Z"/>
  <path fill="#373737" opacity="0.15" d="M107 5H108V6H107ZM106 8H107V9H106ZM60 12H61V13H60ZM126 14H127V15H126ZM45 16H46V17H45Z"/>
  <path fill="#373737" opacity="0.145" d="M141 5H142V6H141ZM9 13H10V14H9ZM31 15H32V16H31ZM46 16H47V17H46ZM44 21H45V22H44ZM106 22H107V23H106ZM66 24H68V25H66Z"/>
  <path fill="#373737" opacity="0.14" d="M45 13H46V14H45ZM29 18H30V19H29ZM35 18H36V19H35ZM8 19H9V20H8ZM57 20H58V21H57Z"/>
  <path fill="#373737" opacity="0.135" d="M25 10H26V11H25ZM39 10H40V11H39ZM86 10H87V11H86ZM105 14H106V15H105ZM71 20H72V21H71ZM34 23H35V24H34Z"/>
  <path fill="#373737" opacity="0.13" d="M125 10H126V11H125ZM23 13H24V14H23ZM132 16H133V17H132Z"/>
  <path fill="#373737" opacity="0.12" d="M116 6H117V7H116ZM54 10H55V11H54ZM133 10H134V11H133ZM122 19H123V20H122ZM142 22H143V23H142ZM21 24H25V25H21ZM52 24H53V25H52Z"/>
  <path fill="#373737" opacity="0.115" d="M127 7H128V8H127ZM64 11H65V12H64ZM100 11H101V12H100ZM136 12H137V13H136ZM130 14H131V15H130ZM89 20H90V21H89ZM18 23H19V24H18ZM84 23H85V24H84Z"/>
  <path fill="#373737" opacity="0.11" d="M94 8H95V9H94ZM142 10H143V11H142ZM81 11H82V12H81Z"/>
  <path fill="#373737" opacity="0.105" d="M42 10H43V11H42ZM67 10H68V11H67ZM136 11H137V12H136ZM85 14H86V15H85ZM85 17H86V18H85ZM75 19H76V20H75ZM73 22H74V23H73ZM79 22H80V23H79ZM27 23H28V24H27ZM53 24H54V25H53Z"/>
  <path fill="#373737" opacity="0.1" d="M142 5H143V6H142ZM102 13H103V14H102ZM97 17H98V18H97ZM46 20H47V21H46ZM58 23H59V24H58ZM65 24H66V25H65ZM68 24H69V25H68Z"/>
  <path fill="#373737" opacity="0.095" d="M139 8H140V9H139ZM13 16H14V17H13ZM8 18H9V19H8ZM135 18H136V19H135ZM96 22H97V23H96Z"/>
  <path fill="#373737" opacity="0.085" d="M22 10H23V11H22ZM14 11H15V12H14ZM131 12H132V13H131ZM68 13H69V14H68ZM130 13H131V14H130ZM58 14H59V15H58ZM70 14H71V15H70ZM12 21H13V22H12ZM44 22H45V23H44ZM134 23H135V24H134Z"/>
  <path fill="#373737" opacity="0.08" d="M58 10H59V11H58ZM18 12H19V13H18ZM76 13H77V14H76ZM141 15H142V16H141ZM80 17H81V18H80ZM84 22H85V23H84Z"/>
  <path fill="#373737" opacity="0.075" d="M113 5H114V6H113ZM124 6H125V7H124ZM99 10H100V11H99ZM143 15H144V16H143ZM129 16H130V17H129ZM15 18H16V19H15ZM30 21H31V22H30ZM51 24H52V25H51Z"/>
  <path fill="#373737" opacity="0.07" d="M131 7H132V8H131ZM135 8H136V9H135ZM91 10H92V11H91ZM132 10H133V11H132ZM20 15H21V16H20ZM36 15H37V16H36ZM123 18H124V19H123ZM137 18H138V19H137ZM54 24H55V25H54Z"/>
  <path fill="#373737" opacity="0.065" d="M67 8H68V9H67ZM126 8H127V9H126ZM53 10H54V11H53ZM87 10H88V11H87ZM16 14H17V15H16ZM122 16H123V17H122ZM130 17H131V18H130ZM75 18H76V19H75ZM26 20H27V21H26Z"/>
  <path fill="#373737" opacity="0.06" d="M107 4H108V5H107ZM120 5H121V6H120ZM127 8H128V9H127ZM26 10H27V11H26ZM32 10H33V11H32ZM93 10H94V11H93ZM60 11H61V12H60ZM132 11H133V12H132ZM137 12H138V13H137ZM31 14H32V15H31ZM75 14H76V15H75ZM111 16H112V17H111ZM13 17H14V18H13ZM125 19H126V20H125ZM38 20H39V21H38ZM72 23H73V24H72Z"/>
  <path fill="#373737" opacity="0.05" d="M127 9H128V10H127ZM34 11H35V12H34ZM36 11H37V12H36ZM79 11H80V12H79ZM132 12H133V13H132ZM54 15H55V16H54ZM85 15H86V16H85ZM107 18H108V19H107ZM13 21H14V22H13Z"/>
  <path fill="#373737" opacity="0.045" d="M106 4H107V5H106ZM128 4H129V5H128ZM116 5H117V6H116ZM113 6H114V7H113ZM143 6H144V7H143ZM17 8H18V9H17ZM91 8H92V9H91ZM83 10H84V11H83ZM19 11H20V12H19ZM44 11H45V12H44ZM137 11H138V12H137ZM9 12H10V13H9ZM74 13H75V14H74ZM108 13H109V14H108ZM102 14H103V15H102ZM51 16H52V17H51ZM15 19H16V20H15ZM51 19H52V20H51ZM60 20H61V21H60ZM142 21H143V22H142ZM103 22H104V23H103ZM44 23H45V24H44ZM81 23H82V24H81ZM25 24H26V25H25Z"/>
  <path fill="#373737" opacity="0.04" d="M131 5H132V6H131ZM123 6H124V7H123ZM95 7H96V8H95ZM38 8H39V9H38ZM29 10H30V11H29ZM90 10H91V11H90ZM138 12H139V13H138ZM105 13H106V14H105ZM125 13H127V14H125ZM37 14H38V15H37ZM131 16H132V17H131ZM141 16H142V17H141ZM35 20H36V21H35ZM124 20H125V21H124ZM131 20H132V21H131ZM107 21H108V22H107ZM12 22H13V23H12ZM45 22H46V23H45ZM5 23H7V24H5ZM14 23H15V24H14ZM38 23H39V24H38ZM69 24H70V25H69Z"/>
  <path fill="#373737" opacity="0.035" d="M132 4H133V5H132ZM112 5H113V6H112ZM130 6H131V7H130ZM144 6H145V7H144ZM23 7H24V8H23ZM16 8H17V9H16ZM22 8H23V9H22ZM25 8H26V9H25ZM44 8H45V9H44ZM62 8H63V9H62ZM65 9H66V10H65ZM72 9H73V10H72ZM79 9H80V10H79ZM99 9H101V10H99ZM37 10H38V11H37ZM66 10H67V11H66ZM89 10H90V11H89ZM17 11H18V12H17ZM63 11H64V12H63ZM30 12H31V13H30ZM124 13H125V14H124ZM40 14H41V15H40ZM82 14H84V15H82ZM15 15H16V16H15ZM21 15H22V16H21ZM130 15H133V16H130ZM142 15H143V16H142ZM116 16H117V17H116ZM45 17H46V18H45ZM112 17H113V18H112ZM28 19H29V20H28ZM35 19H36V20H35ZM58 19H59V20H58ZM80 19H81V20H80ZM25 20H26V21H25ZM90 20H91V21H90ZM107 20H108V21H107ZM84 21H85V22H84ZM89 21H90V22H89ZM55 24H56V25H55ZM52 25H53V26H52Z"/>
  <path fill="#373737" opacity="0.03" d="M111 4H112V5H111ZM123 5H124V6H123ZM106 7H107V8H106ZM60 8H61V9H60ZM77 8H79V9H77ZM133 8H134V9H133ZM31 9H32V10H31ZM52 9H53V10H52ZM81 9H82V10H81ZM105 9H106V10H105ZM9 10H10V11H9ZM77 10H78V11H77ZM100 10H101V11H100ZM105 10H106V11H105ZM50 11H51V12H50ZM76 12H77V13H76ZM90 12H91V13H90ZM39 14H40V15H39ZM55 14H56V15H55ZM103 14H104V15H103ZM37 15H38V16H37ZM39 15H40V16H39ZM81 15H82V16H81ZM98 15H99V16H98ZM104 15H105V16H104ZM90 16H91V17H90ZM112 16H113V17H112ZM121 16H122V17H121ZM142 16H143V17H142ZM15 17H16V18H15ZM30 17H31V18H30ZM125 17H126V18H125ZM141 17H142V18H141ZM36 18H37V19H36ZM30 19H31V20H30ZM107 19H108V20H107ZM6 20H7V21H6ZM122 20H123V21H122ZM136 20H137V21H136ZM110 21H111V22H110ZM80 22H81V23H80ZM122 22H123V23H122ZM56 24H57V25H56ZM51 25H52V26H51ZM53 25H54V26H53Z"/>
</svg>