<svg xmlns="http://www.w3.org/2000/svg" width="120" height="43" viewBox="0 0 120 43" role="img" aria-label="image2 13 ocean-engine" shape-rendering="crispEdges">
  <title>image2 13 ocean-engine</title>
  <desc>Pixel-level vector reconstruction extracted from the supplied PNG, with white background removed.</desc>
  <path fill="#373737" d="M9 21H10V22H9Z"/>
  <path fill="#373737" opacity="0.995" d="M25 16H26V17H25Z"/>
  <path fill="#373737" opacity="0.99" d="M20 9H21V10H20ZM73 17H74V18H73ZM12 19H13V20H12Z"/>
  <path fill="#373737" opacity="0.98" d="M10 15H11V16H10ZM74 22H75V23H74Z"/>
  <path fill="#373737" opacity="0.97" d="M25 15H26V16H25ZM31 18H32V19H31ZM28 19H29V20H28ZM98 19H99V20H98ZM54 21H55V22H54ZM67 22H68V23H67ZM80 23H81V24H80ZM29 28H30V29H29ZM67 28H68V29H67ZM31 29H32V30H31ZM92 29H93V30H92Z"/>
  <path fill="#373737" opacity="0.965" d="M9 14H10V15H9ZM9 24H10V25H9ZM105 25H106V26H105ZM10 26H11V27H10ZM87 26H88V27H87ZM16 27H17V28H16ZM22 27H23V28H22ZM24 27H25V28H24ZM98 27H99V28H98ZM105 27H106V28H105ZM23 29H24V30H23Z"/>
  <path fill="#373737" opacity="0.96" d="M22 11H23V12H22ZM26 13H27V14H26ZM60 16H61V17H60ZM32 18H33V19H32ZM80 18H81V19H80ZM10 22H11V23H10ZM12 22H13V23H12ZM26 22H27V23H26ZM111 22H112V23H111ZM9 25H10V26H9ZM11 25H12V26H11ZM69 25H70V26H69ZM13 28H14V29H13ZM17 29H18V30H17ZM16 30H18V31H16Z"/>
  <path fill="#373737" opacity="0.955" d="M10 12H11V13H10ZM16 13H17V14H16ZM27 14H28V15H27ZM26 15H27V16H26ZM87 17H88V18H87ZM13 19H14V20H13ZM30 19H31V20H30ZM61 19H62V20H61ZM73 19H74V20H73ZM60 22H61V23H60ZM104 22H105V23H104ZM107 22H108V23H107ZM110 22H111V23H110ZM10 23H11V24H10ZM82 23H83V24H82ZM44 24H52V25H44ZM60 25H61V26H60ZM65 25H67V26H65ZM92 25H93V26H92ZM9 26H10V27H9ZM15 27H16V28H15ZM110 27H111V28H110ZM105 28H106V29H105ZM22 29H23V30H22ZM23 30H24V31H23Z"/>
  <path fill="#373737" opacity="0.95" d="M17 12H18V13H17ZM24 12H25V13H24ZM26 14H27V15H26ZM17 15H18V16H17ZM32 15H33V16H32ZM73 15H74V16H73ZM24 17H25V18H24ZM110 18H111V19H110ZM10 19H11V20H10ZM54 19H55V20H54ZM101 20H102V21H101ZM62 21H63V22H62ZM71 21H72V22H71ZM11 22H12V23H11ZM28 24H29V25H28ZM54 24H55V25H54ZM7 26H8V27H7ZM10 27H11V28H10ZM17 27H18V28H17ZM15 28H16V29H15ZM17 28H18V29H17ZM18 31H19V32H18ZM19 32H20V33H19ZM17 35H18V36H17Z"/>
  <path fill="#373737" opacity="0.945" d="M22 8H23V9H22ZM22 13H23V14H22ZM103 14H104V15H103ZM87 15H88V16H87ZM24 16H25V17H24ZM32 17H33V18H32ZM104 17H105V18H104ZM29 18H30V19H29ZM92 18H93V19H92ZM29 19H30V20H29ZM41 19H42V20H41ZM104 19H105V20H104ZM99 20H100V21H99ZM30 22H31V23H30ZM28 23H29V24H28ZM68 25H69V26H68ZM70 25H71V26H70ZM92 26H93V27H92ZM9 27H10V28H9ZM23 27H24V28H23ZM111 27H113V28H111ZM16 28H17V29H16ZM23 28H24V29H23ZM41 28H42V29H41ZM18 29H19V30H18ZM67 29H68V30H67ZM105 29H106V30H105ZM18 32H19V33H18ZM19 34H20V35H19Z"/>
  <path fill="#373737" opacity="0.935" d="M20 8H21V9H20ZM21 10H22V11H21ZM24 11H25V12H24ZM23 12H24V13H23ZM25 12H26V13H25ZM24 13H25V14H24ZM87 14H88V15H87ZM11 15H16V16H11ZM30 15H31V16H30ZM92 15H93V16H92ZM25 17H26V18H25ZM104 18H105V19H104ZM60 19H61V20H60ZM72 19H73V20H72ZM29 20H31V21H29ZM54 20H55V21H54ZM102 20H104V21H102ZM30 21H31V22H30ZM9 22H10V23H9ZM28 22H29V23H28ZM79 22H80V23H79ZM101 22H102V23H101ZM8 23H9V24H8ZM26 23H27V24H26ZM54 23H55V24H54ZM67 23H68V24H67ZM74 23H75V24H74ZM79 23H80V24H79ZM83 23H84V24H83ZM74 24H75V25H74ZM7 25H8V26H7ZM67 27H68V28H67ZM15 29H16V30H15ZM42 29H43V30H42ZM15 32H16V33H15Z"/>
  <path fill="#373737" opacity="0.93" d="M21 8H22V9H21ZM22 9H23V10H22ZM23 11H24V12H23ZM10 14H11V15H10ZM18 14H19V15H18ZM92 14H93V15H92ZM16 15H17V16H16ZM31 16H32V17H31ZM33 16H34V17H33ZM87 16H88V17H87ZM92 16H93V17H92ZM104 16H105V17H104ZM107 16H108V17H107ZM31 17H32V18H31ZM11 18H12V19H11ZM79 18H80V19H79ZM83 18H85V19H83ZM92 19H93V20H92ZM13 20H14V21H13ZM41 20H42V21H41ZM28 21H29V22H28ZM31 21H32V22H31ZM79 21H80V22H79ZM92 21H93V22H92ZM99 22H100V23H99ZM108 22H110V23H108ZM27 23H28V24H27ZM86 23H87V24H86ZM29 24H30V25H29ZM43 24H44V25H43ZM92 24H93V25H92ZM10 25H11V26H10ZM41 25H42V26H41ZM63 25H64V26H63ZM73 25H74V26H73ZM67 26H68V27H67ZM14 27H15V28H14ZM109 27H110V28H109ZM31 28H32V29H31ZM14 29H15V30H14ZM16 29H17V30H16ZM28 29H31V30H28ZM28 30H29V31H28ZM16 31H17V32H16ZM20 33H21V34H20ZM17 34H18V35H17Z"/>
  <path fill="#373737" opacity="0.925" d="M19 8H20V9H19ZM23 9H24V10H23ZM11 12H16V13H11ZM10 13H11V14H10ZM11 14H17V15H11ZM73 14H74V15H73ZM102 14H103V15H102ZM24 15H25V16H24ZM27 15H28V16H27ZM31 15H32V16H31ZM32 16H33V17H32ZM60 17H61V18H60ZM81 18H82V19H81ZM32 19H33V20H32ZM62 19H63V20H62ZM11 20H12V21H11ZM14 20H15V21H14ZM79 20H80V21H79ZM92 20H93V21H92ZM100 20H101V21H100ZM73 21H74V22H73ZM92 22H93V23H92ZM102 22H104V23H102ZM9 23H10V24H9ZM84 23H85V24H84ZM105 26H106V27H105ZM8 27H9V28H8ZM28 27H29V28H28ZM31 27H32V28H31ZM9 28H10V29H9ZM24 28H28V29H24ZM24 29H28V30H24ZM41 29H42V30H41ZM87 29H88V30H87ZM14 30H15V31H14ZM24 30H28V31H24ZM15 31H16V32H15ZM24 31H28V32H24ZM18 33H19V34H18Z"/>
  <path fill="#373737" opacity="0.92" d="M23 8H25V9H23ZM16 12H17V13H16ZM26 12H27V13H26ZM11 13H16V14H11ZM24 14H25V15H24ZM99 14H100V15H99ZM41 15H42V16H41ZM60 15H61V16H60ZM103 16H104V17H103ZM108 17H109V18H108ZM109 18H110V19H109ZM28 20H29V21H28ZM31 20H32V21H31ZM98 20H99V21H98ZM12 21H13V22H12ZM27 21H28V22H27ZM29 21H30V22H29ZM64 21H65V22H64ZM60 23H61V24H60ZM68 23H69V24H68ZM81 23H82V24H81ZM85 23H86V24H85ZM92 23H93V24H92ZM105 23H106V24H105ZM53 24H54V25H53ZM61 25H62V26H61ZM64 25H65V26H64ZM72 25H73V26H72ZM8 26H9V27H8ZM15 26H16V27H15ZM26 27H27V28H26ZM107 27H108V28H107ZM30 28H31V29H30ZM87 28H88V29H87ZM17 33H18V34H17Z"/>
  <path fill="#373737" opacity="0.915" d="M24 10H25V11H24ZM9 13H10V14H9ZM17 13H19V14H17ZM18 15H19V16H18ZM73 16H74V17H73ZM92 17H93V18H92ZM111 17H112V18H111ZM41 18H42V19H41ZM82 18H83V19H82ZM31 19H32V20H31ZM74 19H75V20H74ZM11 21H12V22H11ZM13 22H14V23H13ZM100 22H101V23H100ZM105 22H106V23H105ZM11 23H12V24H11ZM11 24H12V25H11ZM105 24H106V25H105ZM62 25H63V26H62ZM67 25H68V26H67ZM27 27H28V28H27ZM87 27H88V28H87ZM92 27H93V28H92ZM101 27H102V28H101ZM108 27H109V28H108ZM22 30H23V31H22ZM30 30H31V31H30ZM29 31H30V32H29ZM21 34H22V35H21Z"/>
  <path fill="#373737" opacity="0.91" d="M21 9H22V10H21ZM22 10H23V11H22ZM21 11H22V12H21ZM18 12H19V13H18ZM23 13H24V14H23ZM31 14H32V15H31ZM112 14H113V15H112ZM9 15H10V16H9ZM26 16H27V17H26ZM30 16H31V17H30ZM29 17H30V18H29ZM86 18H87V19H86ZM14 19H15V20H14ZM12 20H13V21H12ZM13 21H14V22H13ZM65 21H66V22H65ZM70 21H71V22H70ZM98 22H99V23H98ZM30 23H31V24H30ZM64 23H65V24H64ZM87 23H88V24H87ZM10 24H11V25H10ZM41 24H42V25H41ZM52 24H53V25H52ZM8 25H9V26H8ZM15 25H16V26H15ZM104 27H105V28H104ZM14 28H15V29H14ZM22 28H23V29H22ZM80 29H81V30H80ZM18 30H19V31H18ZM29 30H30V31H29ZM28 31H29V32H28ZM19 33H20V34H19ZM18 34H19V35H18ZM20 34H21V35H20ZM18 35H19V36H18Z"/>
  <path fill="#373737" opacity="0.9" d="M22 12H23V13H22ZM17 14H18V15H17ZM25 14H26V15H25ZM19 15H20V16H19ZM23 15H24V16H23ZM100 16H101V17H100ZM30 18H31V19H30ZM98 18H99V19H98ZM10 21H11V22H10ZM66 21H68V22H66ZM54 22H55V23H54ZM87 24H88V25H87ZM30 27H31V28H30ZM102 27H104V28H102ZM106 27H107V28H106ZM28 28H29V29H28ZM15 30H16V31H15ZM17 31H18V32H17ZM22 31H24V32H22ZM17 32H18V33H17ZM16 34H17V35H16Z"/>
  <path fill="#373737" opacity="0.895" d="M20 10H21V11H20ZM23 10H24V11H23ZM41 14H42V15H41ZM112 15H113V16H112ZM30 17H31V18H30ZM33 18H34V19H33ZM11 19H12V20H11ZM104 20H105V21H104ZM63 21H64V22H63ZM69 21H70V22H69ZM74 21H75V22H74ZM29 22H30V23H29ZM12 23H13V24H12ZM71 23H72V24H71ZM8 24H9V25H8ZM12 24H13V25H12ZM87 25H88V26H87ZM14 26H15V27H14ZM97 27H98V28H97ZM21 28H22V29H21ZM92 28H93V29H92ZM53 29H54V30H53ZM55 29H56V30H55ZM81 29H82V30H81ZM83 29H84V30H83Z"/>
  <path fill="#373737" opacity="0.89" d="M24 9H25V10H24ZM25 11H26V12H25ZM21 12H22V13H21ZM25 13H26V14H25ZM23 14H24V15H23ZM86 14H87V15H86ZM87 18H88V19H87ZM63 19H64V20H63ZM27 20H28V21H27ZM41 21H42V22H41ZM63 23H64V24H63ZM66 23H67V24H66ZM67 24H68V25H67ZM71 25H72V26H71ZM74 25H75V26H74ZM29 27H30V28H29ZM99 27H101V28H99ZM85 29H86V30H85ZM19 31H20V32H19ZM16 32H17V33H16ZM16 33H17V34H16Z"/>
  <path fill="#373737" opacity="0.885" d="M25 10H26V11H25ZM19 14H20V15H19ZM98 14H99V15H98ZM41 16H42V17H41ZM41 17H42V18H41ZM61 17H62V18H61ZM42 19H43V20H42ZM53 19H54V20H53ZM64 19H72V20H64ZM79 19H80V20H79ZM72 21H73V22H72ZM70 23H71V24H70ZM60 24H61V25H60ZM41 27H42V28H41ZM43 29H53V30H43ZM54 29H55V30H54Z"/>
  <path fill="#373737" opacity="0.88" d="M23 7H24V8H23ZM101 16H102V17H101ZM85 18H86V19H85ZM110 19H112V20H110ZM29 23H30V24H29ZM65 23H66V24H65ZM7 24H8V25H7ZM16 26H17V27H16ZM13 27H14V28H13ZM21 27H22V28H21ZM84 29H85V30H84ZM30 31H31V32H30Z"/>
  <path fill="#373737" opacity="0.875" d="M87 13H88V14H87ZM84 14H85V15H84ZM33 17H34V18H33ZM101 18H102V19H101ZM15 19H16V20H15ZM43 19H52V20H43ZM68 21H69V22H68ZM104 24H105V25H104ZM16 25H17V26H16ZM41 26H42V27H41ZM82 29H83V30H82ZM86 29H87V30H86Z"/>
  <path fill="#373737" opacity="0.865" d="M60 14H61V15H60ZM74 16H75V17H74ZM108 18H109V19H108ZM32 20H33V21H32ZM60 21H61V22H60ZM27 22H28V23H27ZM69 23H70V24H69Z"/>
  <path fill="#373737" opacity="0.86" d="M92 13H93V14H92ZM99 16H100V17H99ZM112 16H113V17H112ZM12 18H13V19H12ZM10 20H11V21H10ZM61 21H62V22H61ZM8 22H9V23H8ZM41 22H42V23H41Z"/>
  <path fill="#373737" opacity="0.855" d="M42 14H43V15H42ZM109 19H110V20H109ZM40 21H41V22H40ZM106 22H107V23H106ZM41 23H42V24H41Z"/>
  <path fill="#373737" opacity="0.85" d="M85 13H86V14H85ZM107 13H108V14H107ZM28 18H29V19H28ZM59 19H60V20H59ZM108 19H109V20H108ZM25 23H26V24H25ZM25 27H26V28H25ZM40 27H41V28H40Z"/>
  <path fill="#373737" opacity="0.845" d="M73 13H74V14H73ZM80 13H84V14H80ZM40 14H41V15H40ZM97 16H98V17H97ZM40 17H41V18H40ZM52 19H53V20H52ZM40 22H41V23H40ZM73 22H74V23H73ZM62 23H63V24H62ZM31 30H32V31H31ZM20 32H21V33H20Z"/>
  <path fill="#373737" opacity="0.84" d="M102 16H103V17H102ZM40 20H41V21H40ZM106 20H107V21H106ZM40 23H41V24H40ZM40 24H41V25H40ZM68 27H69V28H68ZM13 29H14V30H13Z"/>
  <path fill="#373737" opacity="0.835" d="M53 13H56V14H53ZM61 13H62V14H61ZM63 13H64V14H63ZM74 14H75V15H74ZM40 15H41V16H40ZM74 15H75V16H74ZM62 17H63V18H62ZM80 19H81V20H80ZM27 24H28V25H27ZM40 25H41V26H40ZM40 26H41V27H40ZM66 27H67V28H66ZM19 30H20V31H19Z"/>
  <path fill="#373737" opacity="0.825" d="M52 13H53V14H52ZM62 13H63V14H62ZM64 13H65V14H64ZM84 13H85V14H84ZM22 14H23V15H22ZM80 14H84V15H80ZM63 15H64V16H63ZM40 16H41V17H40ZM63 17H64V18H63ZM40 18H41V19H40ZM40 19H41V20H40ZM106 25H107V26H106Z"/>
  <path fill="#373737" opacity="0.82" d="M10 11H11V12H10ZM9 12H10V13H9ZM51 13H52V14H51ZM65 13H72V14H65ZM53 14H56V15H53ZM79 14H80V15H79ZM101 14H102V15H101ZM64 15H72V16H64ZM98 16H99V17H98ZM64 17H72V18H64ZM73 24H74V25H73ZM32 27H33V28H32ZM40 28H41V29H40Z"/>
  <path fill="#373737" opacity="0.815" d="M44 13H51V14H44ZM60 13H61V14H60ZM79 13H80V14H79ZM102 13H103V14H102ZM52 14H53V15H52ZM55 19H56V20H55ZM97 20H98V21H97ZM112 22H113V23H112ZM30 24H31V25H30ZM11 26H12V27H11ZM10 28H11V29H10ZM40 29H41V30H40Z"/>
  <path fill="#373737" opacity="0.81" d="M42 13H43V14H42ZM51 14H52V15H51ZM74 17H75V18H74ZM104 25H105V26H104Z"/>
  <path fill="#373737" opacity="0.805" d="M16 11H17V12H16ZM72 13H73V14H72ZM44 14H51V15H44ZM100 14H101V15H100ZM112 19H113V20H112Z"/>
  <path fill="#373737" opacity="0.8" d="M43 13H44V14H43ZM86 13H87V14H86ZM99 13H100V14H99ZM99 18H101V19H99ZM107 19H108V20H107ZM55 20H56V21H55Z"/>
  <path fill="#373737" opacity="0.79" d="M98 13H99V14H98ZM97 14H98V15H97ZM111 14H112V15H111ZM14 21H15V22H14Z"/>
  <path fill="#373737" opacity="0.785" d="M27 13H28V14H27ZM43 14H44V15H43ZM85 14H86V15H85ZM18 28H19V29H18Z"/>
  <path fill="#373737" opacity="0.78" d="M22 7H23V8H22ZM72 17H73V18H72ZM73 23H74V24H73Z"/>
  <path fill="#373737" opacity="0.775" d="M11 11H16V12H11Z"/>
  <path fill="#373737" opacity="0.77" d="M41 13H42V14H41ZM103 13H104V14H103ZM107 14H108V15H107ZM42 18H43V19H42Z"/>
  <path fill="#373737" opacity="0.765" d="M54 18H55V19H54ZM106 24H107V25H106Z"/>
  <path fill="#373737" opacity="0.755" d="M18 11H19V12H18Z"/>
  <path fill="#373737" opacity="0.75" d="M17 11H18V12H17ZM86 17H87V18H86ZM106 26H107V27H106ZM68 29H69V30H68ZM104 29H105V30H104ZM103 30H104V31H103Z"/>
  <path fill="#373737" opacity="0.745" d="M40 13H41V14H40ZM104 14H105V15H104ZM108 14H110V15H108ZM29 16H30V17H29ZM34 17H35V18H34ZM31 22H32V23H31ZM65 27H66V28H65ZM72 27H73V28H72ZM19 35H20V36H19Z"/>
  <path fill="#373737" opacity="0.74" d="M74 13H75V14H74ZM8 15H9V16H8ZM55 21H56V22H55ZM62 27H63V28H62Z"/>
  <path fill="#373737" opacity="0.735" d="M106 14H107V15H106ZM111 16H112V17H111ZM110 17H111V18H110ZM53 18H54V19H53ZM9 20H10V21H9ZM61 27H62V28H61ZM63 27H64V28H63Z"/>
  <path fill="#373737" opacity="0.73" d="M33 19H34V20H33ZM55 22H56V23H55ZM86 24H87V25H86ZM69 27H70V28H69ZM74 27H75V28H74ZM41 30H42V31H41ZM104 30H105V31H104Z"/>
  <path fill="#373737" opacity="0.72" d="M110 14H111V15H110ZM86 15H87V16H86ZM112 20H113V21H112ZM70 27H71V28H70ZM42 30H43V31H42ZM14 31H15V32H14Z"/>
  <path fill="#373737" opacity="0.715" d="M43 18H52V19H43ZM67 30H68V31H67Z"/>
  <path fill="#373737" opacity="0.71" d="M64 27H65V28H64ZM70 30H71V31H70Z"/>
  <path fill="#373737" opacity="0.705" d="M23 16H24V17H23ZM97 19H98V20H97ZM110 24H111V25H110ZM60 27H61V28H60ZM66 29H67V30H66Z"/>
  <path fill="#373737" opacity="0.7" d="M62 15H63V16H62ZM86 16H87V17H86ZM101 24H102V25H101ZM73 27H74V28H73ZM60 30H64V31H60ZM80 30H81V31H80Z"/>
  <path fill="#373737" opacity="0.695" d="M19 9H20V10H19ZM19 13H20V14H19ZM108 16H109V17H108ZM13 18H14V19H13ZM52 18H53V19H52ZM26 21H27V22H26ZM111 24H113V25H111ZM73 30H74V31H73ZM86 30H87V31H86Z"/>
  <path fill="#373737" opacity="0.685" d="M10 18H11V19H10ZM13 23H14V24H13ZM102 24H104V25H102ZM104 26H105V27H104ZM53 30H54V31H53ZM55 30H56V31H55ZM64 30H65V31H64ZM69 30H70V31H69ZM81 30H82V31H81ZM83 30H85V31H83Z"/>
  <path fill="#373737" opacity="0.68" d="M55 18H56V19H55ZM107 20H108V21H107ZM98 24H99V25H98ZM109 24H110V25H109ZM101 25H102V26H101ZM110 25H111V26H110ZM68 30H69V31H68Z"/>
  <path fill="#373737" opacity="0.675" d="M55 23H56V24H55ZM99 24H101V25H99ZM71 27H72V28H71ZM43 30H53V31H43ZM54 30H55V31H54ZM85 30H86V31H85Z"/>
  <path fill="#373737" opacity="0.67" d="M26 11H27V12H26ZM107 24H108V25H107ZM102 25H104V26H102ZM111 25H112V26H111ZM21 29H22V30H21ZM59 30H60V31H59ZM66 30H67V31H66ZM71 30H72V31H71ZM92 30H93V31H92Z"/>
  <path fill="#373737" opacity="0.665" d="M108 24H109V25H108ZM17 26H18V27H17ZM93 28H94V29H93ZM65 30H66V31H65ZM82 30H83V31H82ZM105 30H106V31H105Z"/>
  <path fill="#373737" opacity="0.66" d="M30 14H31V15H30ZM93 14H94V15H93ZM93 15H94V16H93ZM104 23H105V24H104ZM55 24H56V25H55ZM98 25H101V26H98ZM109 25H110V26H109ZM86 28H87V29H86ZM74 30H75V31H74ZM21 33H22V34H21Z"/>
  <path fill="#373737" opacity="0.65" d="M19 16H20V17H19ZM111 18H112V19H111ZM68 28H69V29H68Z"/>
  <path fill="#373737" opacity="0.645" d="M18 16H19V17H18ZM97 18H98V19H97ZM93 25H94V26H93ZM107 25H108V26H107Z"/>
  <path fill="#373737" opacity="0.64" d="M17 16H18V17H17ZM68 24H69V25H68ZM108 25H109V26H108ZM112 25H113V26H112ZM93 29H94V30H93ZM72 30H73V31H72Z"/>
  <path fill="#373737" opacity="0.635" d="M106 13H107V14H106ZM61 14H62V15H61ZM93 18H94V19H93ZM83 19H84V20H83ZM59 23H60V24H59ZM6 25H7V26H6ZM86 25H87V26H86ZM93 26H94V27H93ZM9 29H10V30H9ZM87 30H88V31H87ZM31 31H32V32H31Z"/>
  <path fill="#373737" opacity="0.63" d="M16 16H17V17H16ZM75 19H76V20H75ZM81 19H82V20H81ZM80 22H81V23H80ZM26 24H27V25H26ZM59 25H60V26H59ZM68 26H69V27H68Z"/>
  <path fill="#373737" opacity="0.625" d="M93 16H94V17H93ZM93 19H94V20H93ZM103 19H104V20H103ZM93 21H94V22H93ZM93 24H94V25H93ZM15 33H16V34H15Z"/>
  <path fill="#373737" opacity="0.615" d="M20 11H21V12H20ZM93 20H94V21H93ZM59 22H60V23H59ZM93 22H94V23H93ZM66 28H67V29H66Z"/>
  <path fill="#373737" opacity="0.61" d="M11 16H13V17H11ZM15 16H16V17H15ZM93 23H94V24H93Z"/>
  <path fill="#373737" opacity="0.605" d="M93 13H94V14H93ZM10 16H11V17H10ZM13 16H15V17H13ZM93 17H94V18H93ZM103 18H104V19H103ZM85 19H86V20H85ZM106 23H107V24H106ZM93 27H94V28H93ZM8 28H9V29H8Z"/>
  <path fill="#373737" opacity="0.6" d="M25 18H26V19H25ZM66 24H67V25H66ZM12 25H13V26H12ZM86 26H87V27H86Z"/>
  <path fill="#373737" opacity="0.595" d="M68 22H69V23H68ZM72 23H73V24H72Z"/>
  <path fill="#373737" opacity="0.59" d="M9 16H10V17H9ZM27 16H28V17H27ZM84 19H85V20H84ZM59 21H60V22H59ZM86 27H87V28H86Z"/>
  <path fill="#373737" opacity="0.58" d="M56 14H57V15H56ZM98 15H99V16H98ZM103 17H104V18H103ZM66 22H67V23H66ZM32 28H33V29H32Z"/>
  <path fill="#373737" opacity="0.575" d="M32 21H33V22H32Z"/>
  <path fill="#373737" opacity="0.565" d="M8 16H9V17H8ZM27 19H28V20H27ZM78 23H79V24H78ZM59 24H60V25H59Z"/>
  <path fill="#373737" opacity="0.56" d="M21 7H22V8H21ZM80 20H81V21H80ZM43 25H44V26H43Z"/>
  <path fill="#373737" opacity="0.555" d="M56 29H57V30H56Z"/>
  <path fill="#373737" opacity="0.545" d="M107 17H108V18H107ZM82 19H83V20H82ZM44 25H52V26H44ZM53 25H54V26H53Z"/>
  <path fill="#373737" opacity="0.54" d="M25 9H26V10H25ZM100 13H101V14H100ZM61 15H62V16H61ZM97 24H98V25H97Z"/>
  <path fill="#373737" opacity="0.535" d="M86 19H88V20H86ZM54 25H55V26H54ZM97 25H98V26H97ZM65 29H66V30H65ZM71 29H72V30H71Z"/>
  <path fill="#373737" opacity="0.53" d="M61 16H62V17H61ZM11 27H12V28H11ZM12 28H13V29H12ZM104 28H105V29H104ZM73 29H74V30H73ZM20 31H21V32H20Z"/>
  <path fill="#373737" opacity="0.525" d="M23 26H24V27H23ZM31 26H32V27H31ZM20 35H21V36H20Z"/>
  <path fill="#373737" opacity="0.52" d="M28 26H29V27H28ZM64 29H65V30H64Z"/>
  <path fill="#373737" opacity="0.51" d="M24 18H25V19H24ZM106 28H107V29H106ZM74 29H75V30H74Z"/>
  <path fill="#373737" opacity="0.505" d="M97 15H98V16H97ZM16 24H17V25H16ZM66 26H67V27H66ZM7 27H8V28H7Z"/>
  <path fill="#373737" opacity="0.5" d="M9 11H10V12H9ZM108 13H109V14H108ZM59 14H60V15H59ZM26 17H27V18H26ZM61 22H62V23H61ZM7 23H8V24H7ZM52 25H53V26H52ZM113 27H114V28H113ZM72 29H73V30H72Z"/>
  <path fill="#373737" opacity="0.495" d="M101 13H102V14H101ZM106 19H107V20H106ZM15 20H16V21H15ZM80 21H81V22H80ZM22 26H23V27H22ZM27 26H28V27H27Z"/>
  <path fill="#373737" opacity="0.49" d="M56 13H57V14H56ZM113 14H114V15H113ZM59 17H60V18H59ZM113 20H114V21H113ZM60 29H64V30H60ZM21 30H22V31H21Z"/>
  <path fill="#373737" opacity="0.485" d="M26 26H27V27H26ZM30 26H31V27H30ZM70 29H71V30H70ZM40 30H41V31H40Z"/>
  <path fill="#373737" opacity="0.475" d="M28 15H29V16H28ZM21 26H22V27H21ZM24 26H25V27H24ZM69 29H70V30H69Z"/>
  <path fill="#373737" opacity="0.47" d="M78 22H79V23H78Z"/>
  <path fill="#373737" opacity="0.465" d="M112 13H113V14H112ZM61 24H62V25H61ZM97 26H98V27H97Z"/>
  <path fill="#373737" opacity="0.46" d="M104 13H105V14H104ZM59 15H60V16H59ZM109 17H110V18H109ZM110 26H111V27H110ZM59 29H60V30H59ZM16 35H17V36H16Z"/>
  <path fill="#373737" opacity="0.455" d="M21 13H22V14H21ZM111 13H112V14H111ZM111 20H112V21H111ZM101 26H102V27H101ZM112 26H113V27H112ZM106 29H107V30H106ZM56 30H57V31H56Z"/>
  <path fill="#373737" opacity="0.45" d="M97 13H98V14H97ZM59 16H60V17H59ZM14 18H15V19H14ZM60 18H61V19H60ZM111 26H112V27H111Z"/>
  <path fill="#373737" opacity="0.44" d="M24 7H25V8H24ZM19 12H20V13H19ZM99 15H100V16H99ZM61 23H62V24H61ZM25 26H26V27H25ZM102 26H104V27H102ZM20 27H21V28H20ZM103 29H104V30H103Z"/>
  <path fill="#373737" opacity="0.435" d="M28 17H29V18H28ZM14 25H15V26H14ZM32 26H33V27H32ZM109 26H110V27H109ZM59 27H60V28H59ZM79 29H80V30H79ZM79 30H80V31H79ZM93 30H94V31H93Z"/>
  <path fill="#373737" opacity="0.43" d="M110 13H111V14H110ZM112 17H113V18H112ZM15 24H16V25H15ZM99 26H101V27H99Z"/>
  <path fill="#373737" opacity="0.425" d="M8 14H9V15H8ZM32 14H33V15H32ZM33 15H34V16H33ZM108 20H109V21H108ZM6 26H7V27H6ZM29 26H30V27H29ZM107 26H108V27H107ZM75 30H76V31H75Z"/>
  <path fill="#373737" opacity="0.42" d="M31 13H32V14H31ZM98 26H99V27H98ZM108 26H109V27H108Z"/>
  <path fill="#373737" opacity="0.415" d="M109 13H110V14H109ZM19 29H20V30H19Z"/>
  <path fill="#373737" opacity="0.41" d="M103 15H104V16H103Z"/>
  <path fill="#373737" opacity="0.4" d="M59 13H60V14H59ZM61 18H62V19H61ZM72 18H73V19H72ZM8 21H9V22H8ZM25 24H26V25H25Z"/>
  <path fill="#373737" opacity="0.395" d="M28 14H29V15H28ZM73 18H74V19H73ZM31 23H32V24H31Z"/>
  <path fill="#373737" opacity="0.39" d="M96 14H97V15H96ZM105 16H106V17H105ZM63 18H64V19H63ZM105 18H106V19H105Z"/>
  <path fill="#373737" opacity="0.385" d="M102 15H103V16H102ZM111 15H112V16H111ZM105 17H106V18H105ZM64 18H72V19H64ZM53 23H54V24H53ZM63 24H64V25H63ZM85 24H86V25H85ZM96 27H97V28H96Z"/>
  <path fill="#373737" opacity="0.38" d="M63 16H64V17H63ZM105 19H106V20H105ZM65 24H66V25H65ZM80 24H81V25H80ZM70 28H71V29H70ZM72 28H73V29H72Z"/>
  <path fill="#373737" opacity="0.375" d="M64 16H72V17H64ZM71 28H72V29H71Z"/>
  <path fill="#373737" opacity="0.365" d="M72 14H73V15H72ZM81 24H82V25H81ZM83 24H84V25H83ZM65 28H66V29H65Z"/>
  <path fill="#373737" opacity="0.36" d="M20 15H21V16H20ZM113 15H114V16H113ZM99 17H100V18H99ZM62 18H63V19H62ZM91 20H92V21H91ZM84 24H85V25H84ZM21 35H22V36H21Z"/>
  <path fill="#373737" opacity="0.355" d="M72 15H73V16H72ZM25 22H26V23H25ZM64 28H65V29H64ZM69 28H70V29H69ZM74 28H75V29H74Z"/>
  <path fill="#373737" opacity="0.35" d="M78 21H79V22H78ZM98 21H99V22H98ZM83 22H84V23H83ZM88 23H89V24H88ZM64 24H65V25H64ZM70 24H71V25H70ZM29 25H30V26H29ZM60 28H64V29H60Z"/>
  <path fill="#373737" opacity="0.345" d="M20 7H21V8H20ZM86 22H87V23H86ZM97 22H98V23H97ZM69 24H70V25H69ZM82 24H83V25H82ZM75 29H76V30H75Z"/>
  <path fill="#373737" opacity="0.34" d="M70 20H71V21H70ZM81 22H82V23H81ZM84 22H85V23H84ZM73 28H74V29H73Z"/>
  <path fill="#373737" opacity="0.33" d="M27 12H28V13H27ZM101 21H102V22H101ZM85 22H86V23H85ZM88 25H89V26H88ZM91 25H92V26H91ZM13 26H14V27H13Z"/>
  <path fill="#373737" opacity="0.325" d="M99 21H100V22H99ZM32 29H33V30H32Z"/>
  <path fill="#373737" opacity="0.32" d="M91 16H92V17H91ZM101 17H102V18H101ZM102 21H104V22H102ZM82 22H83V23H82ZM87 22H88V23H87ZM71 24H72V25H71ZM88 26H89V27H88ZM91 26H92V27H91ZM91 28H92V29H91ZM88 29H89V30H88Z"/>
  <path fill="#373737" opacity="0.315" d="M29 15H30V16H29ZM20 16H21V17H20ZM74 20H75V21H74ZM88 24H89V25H88ZM91 24H92V25H91Z"/>
  <path fill="#373737" opacity="0.31" d="M78 13H79V14H78ZM105 14H106V15H105ZM91 15H92V16H91ZM34 16H35V17H34ZM100 17H101V18H100ZM91 21H92V22H91ZM100 21H101V22H100ZM14 22H15V23H14ZM63 22H64V23H63ZM20 26H21V27H20Z"/>
  <path fill="#373737" opacity="0.305" d="M78 14H79V15H78ZM98 17H99V18H98ZM79 24H80V25H79Z"/>
  <path fill="#373737" opacity="0.295" d="M88 28H89V29H88Z"/>
  <path fill="#373737" opacity="0.29" d="M101 15H102V16H101ZM91 18H92V19H91ZM9 19H10V20H9ZM113 19H114V20H113ZM65 20H66V21H65ZM91 23H92V24H91ZM88 27H89V28H88ZM91 27H92V28H91ZM13 30H14V31H13Z"/>
  <path fill="#373737" opacity="0.285" d="M91 17H92V18H91ZM72 20H73V21H72ZM65 22H66V23H65ZM10 29H11V30H10Z"/>
  <path fill="#373737" opacity="0.28" d="M62 16H63V17H62ZM59 20H60V21H59ZM66 20H67V21H66ZM62 22H63V23H62ZM91 22H92V23H91ZM12 27H13V28H12Z"/>
  <path fill="#373737" opacity="0.275" d="M15 18H16V19H15ZM61 20H62V21H61ZM106 21H107V22H106Z"/>
  <path fill="#373737" opacity="0.27" d="M91 13H92V14H91ZM96 13H97V14H96ZM100 15H101V16H100ZM96 16H97V17H96ZM34 18H35V19H34ZM99 19H100V20H99ZM64 20H65V21H64ZM68 20H69V21H68ZM73 20H74V21H73ZM104 21H105V22H104ZM107 21H108V22H107ZM113 24H114V25H113Z"/>
  <path fill="#373737" opacity="0.26" d="M91 19H92V20H91ZM62 20H63V21H62ZM78 20H79V21H78ZM62 24H63V25H62ZM113 26H114V27H113ZM17 36H18V37H17Z"/>
  <path fill="#373737" opacity="0.255" d="M18 8H19V9H18ZM113 13H114V14H113ZM22 15H23V16H22ZM11 17H12V18H11ZM42 24H43V25H42ZM91 29H92V30H91ZM102 30H103V31H102Z"/>
  <path fill="#373737" opacity="0.25" d="M64 14H72V15H64ZM88 15H89V16H88ZM104 15H105V16H104ZM53 20H54V21H53ZM105 20H106V21H105ZM110 21H111V22H110ZM101 23H102V24H101ZM55 25H56V26H55ZM14 32H15V33H14ZM22 34H23V35H22Z"/>
  <path fill="#373737" opacity="0.245" d="M91 14H92V15H91ZM64 22H65V23H64ZM70 22H71V23H70ZM72 22H73V23H72ZM99 23H100V24H99ZM30 25H31V26H30ZM18 27H19V28H18Z"/>
  <path fill="#373737" opacity="0.24" d="M107 15H108V16H107ZM63 20H64V21H63ZM67 20H68V21H67ZM69 20H70V21H69ZM71 20H72V21H71ZM111 21H112V22H111ZM102 23H104V24H102ZM6 24H7V25H6Z"/>
  <path fill="#373737" opacity="0.235" d="M62 14H63V15H62ZM88 17H89V18H88ZM112 21H113V22H112ZM69 22H70V23H69ZM111 23H112V24H111ZM72 26H73V27H72ZM106 30H107V31H106Z"/>
  <path fill="#373737" opacity="0.225" d="M109 21H110V22H109ZM53 22H54V23H53ZM71 22H72V23H71ZM100 23H101V24H100ZM78 24H79V25H78Z"/>
  <path fill="#373737" opacity="0.22" d="M78 19H79V20H78ZM26 20H27V21H26ZM13 24H14V25H13Z"/>
  <path fill="#373737" opacity="0.215" d="M106 16H107V17H106ZM97 17H98V18H97ZM60 20H61V21H60ZM53 21H54V22H53ZM105 21H106V22H105ZM70 26H71V27H70ZM59 28H60V29H59ZM21 32H22V33H21Z"/>
  <path fill="#373737" opacity="0.21" d="M88 13H89V14H88ZM79 17H80V18H79ZM78 18H79V19H78ZM108 21H109V22H108ZM63 26H64V27H63Z"/>
  <path fill="#373737" opacity="0.205" d="M107 23H109V24H107ZM69 26H70V27H69Z"/>
  <path fill="#373737" opacity="0.2" d="M88 16H89V17H88ZM44 23H52V24H44ZM110 23H111V24H110ZM113 25H114V26H113ZM71 26H72V27H71ZM96 26H97V27H96Z"/>
  <path fill="#373737" opacity="0.19" d="M74 18H75V19H74ZM102 19H103V20H102ZM60 26H61V27H60ZM65 26H66V27H65ZM21 31H22V32H21Z"/>
  <path fill="#373737" opacity="0.185" d="M26 10H27V11H26ZM63 14H64V15H63ZM88 14H89V15H88ZM33 20H34V21H33ZM91 30H92V31H91Z"/>
  <path fill="#373737" opacity="0.18" d="M82 17H83V18H82Z"/>
  <path fill="#373737" opacity="0.175" d="M88 18H89V19H88ZM109 23H110V24H109Z"/>
  <path fill="#373737" opacity="0.17" d="M19 10H20V11H19ZM81 17H82V18H81ZM83 17H85V18H83ZM43 23H44V24H43ZM52 23H53V24H52ZM98 23H99V24H98ZM112 23H113V24H112ZM72 24H73V25H72ZM64 26H65V27H64ZM20 28H21V29H20ZM42 28H43V29H42Z"/>
  <path fill="#373737" opacity="0.165" d="M19 7H20V8H19ZM30 13H31V14H30ZM72 16H73V17H72ZM23 17H24V18H23ZM85 17H86V18H85ZM59 18H60V19H59Z"/>
  <path fill="#373737" opacity="0.155" d="M108 15H109V16H108ZM75 20H76V21H75ZM62 26H63V27H62Z"/>
  <path fill="#373737" opacity="0.15" d="M102 18H103V19H102ZM100 19H102V20H100ZM32 22H33V23H32ZM75 22H76V23H75ZM17 25H18V26H17ZM61 26H62V27H61Z"/>
  <path fill="#373737" opacity="0.145" d="M73 26H74V27H73Z"/>
  <path fill="#373737" opacity="0.14" d="M80 17H81V18H80ZM42 20H43V21H42ZM75 21H76V22H75ZM74 26H75V27H74ZM102 29H103V30H102ZM20 30H21V31H20Z"/>
  <path fill="#373737" opacity="0.135" d="M8 13H9V14H8ZM96 15H97V16H96ZM97 21H98V22H97ZM75 25H76V26H75ZM12 26H13V27H12ZM75 27H76V28H75Z"/>
  <path fill="#373737" opacity="0.13" d="M19 11H20V12H19ZM110 20H111V21H110Z"/>
  <path fill="#373737" opacity="0.12" d="M20 12H21V13H20ZM42 23H43V24H42ZM75 23H76V24H75ZM88 30H89V31H88Z"/>
  <path fill="#373737" opacity="0.115" d="M23 6H24V7H23ZM20 14H21V15H20Z"/>
  <path fill="#373737" opacity="0.11" d="M107 18H108V19H107ZM15 21H16V22H15ZM88 22H89V23H88ZM28 25H29V26H28ZM80 28H81V29H80ZM22 32H23V33H22ZM28 32H29V33H28Z"/>
  <path fill="#373737" opacity="0.105" d="M10 17H11V18H10ZM16 19H17V20H16ZM109 20H110V21H109ZM75 24H76V25H75ZM42 25H43V26H42ZM23 32H24V33H23ZM27 32H28V33H27ZM15 34H16V35H15ZM22 35H23V36H22Z"/>
  <path fill="#373737" opacity="0.1" d="M24 6H25V7H24ZM7 22H8V23H7ZM81 28H82V29H81ZM83 28H84V29H83ZM24 32H27V33H24Z"/>
  <path fill="#373737" opacity="0.095" d="M29 32H30V33H29Z"/>
  <path fill="#373737" opacity="0.085" d="M42 15H43V16H42ZM42 16H43V17H42ZM42 17H43V18H42ZM96 20H97V21H96ZM33 26H34V27H33ZM56 28H57V29H56Z"/>
  <path fill="#373737" opacity="0.08" d="M77 19H78V20H77ZM24 24H25V25H24ZM42 27H43V28H42ZM53 28H54V29H53ZM55 28H56V29H55ZM85 28H86V29H85Z"/>
  <path fill="#373737" opacity="0.075" d="M105 15H106V16H105ZM110 16H111V17H110ZM42 21H43V22H42ZM97 23H98V24H97ZM42 26H43V27H42ZM59 26H60V27H59ZM82 28H83V29H82Z"/>
  <path fill="#373737" opacity="0.07" d="M18 7H19V8H18ZM63 12H64V13H63ZM103 12H104V13H103ZM106 15H107V16H106ZM17 19H18V20H17ZM42 22H43V23H42ZM56 27H57V28H56ZM43 28H53V29H43ZM54 28H55V29H54ZM75 28H76V29H75ZM84 28H85V29H84ZM30 32H32V33H30ZM18 36H19V37H18Z"/>
  <path fill="#373737" opacity="0.065" d="M110 12H111V13H110ZM35 17H36V18H35ZM35 25H36V26H35Z"/>
  <path fill="#373737" opacity="0.06" d="M105 13H106V14H105ZM44 20H53V21H44Z"/>
  <path fill="#373737" opacity="0.05" d="M98 12H99V13H98ZM96 17H97V18H96ZM16 18H17V19H16ZM21 19H22V20H21ZM57 19H58V20H57ZM114 19H115V20H114ZM43 20H44V21H43ZM88 20H89V21H88ZM107 28H108V29H107ZM12 29H13V30H12ZM13 31H14V32H13ZM23 35H24V36H23Z"/>
  <path fill="#373737" opacity="0.045" d="M61 12H62V13H61ZM73 12H74V13H73ZM113 16H114V17H113ZM102 17H103V18H102ZM89 18H90V19H89ZM16 20H17V21H16ZM56 20H57V21H56ZM25 21H26V22H25ZM43 22H44V23H43ZM56 22H57V23H56ZM115 22H116V23H115ZM85 25H86V26H85ZM11 28H12V29H11ZM32 30H33V31H32Z"/>
  <path fill="#373737" opacity="0.04" d="M18 4H19V5H18ZM25 8H26V9H25ZM27 9H28V10H27ZM35 12H36V13H35ZM80 12H84V13H80ZM56 15H57V16H56ZM22 16H23V17H22ZM35 16H36V17H35ZM80 16H81V17H80ZM84 16H85V17H84ZM27 17H28V18H27ZM24 19H25V20H24ZM6 22H7V23H6ZM23 25H24V26H23ZM25 25H26V26H25ZM94 25H95V26H94ZM5 27H6V28H5ZM79 28H80V29H79ZM90 30H91V31H90ZM79 31H80V32H79ZM107 31H108V32H107Z"/>
  <path fill="#373737" opacity="0.035" d="M8 12H9V13H8ZM32 12H33V13H32ZM40 12H41V13H40ZM42 12H43V13H42ZM85 12H86V13H85ZM58 13H59V14H58ZM29 14H30V15H29ZM114 14H115V15H114ZM35 15H36V16H35ZM53 16H54V17H53ZM58 16H59V17H58ZM115 16H116V17H115ZM115 17H116V18H115ZM27 18H28V19H27ZM34 19H35V20H34ZM8 20H9V21H8ZM34 21H35V22H34ZM58 21H59V22H58ZM83 21H84V22H83ZM24 22H25V23H24ZM114 22H115V23H114ZM5 24H6V25H5ZM57 25H58V26H57ZM78 25H80V26H78ZM95 25H96V26H95ZM85 26H86V27H85ZM20 29H21V30H20ZM69 31H70V32H69ZM95 31H96V32H95ZM18 38H19V39H18Z"/>
  <path fill="#373737" opacity="0.03" d="M25 5H26V6H25ZM19 6H20V7H19ZM27 11H28V12H27ZM43 12H44V13H43ZM53 12H56V13H53ZM64 12H71V13H64ZM72 12H73V13H72ZM94 15H95V16H94ZM28 16H29V17H28ZM89 16H90V17H89ZM94 18H95V19H94ZM56 19H57V20H56ZM89 20H90V21H89ZM35 21H36V22H35ZM86 21H87V22H86ZM4 22H5V23H4ZM15 23H16V24H15ZM58 23H59V24H58ZM20 24H21V25H20ZM18 26H19V27H18ZM94 26H95V27H94ZM96 28H102V29H96ZM103 28H104V29H103ZM76 29H77V30H76ZM76 30H77V31H76ZM107 30H108V31H107ZM8 31H9V32H8ZM34 31H35V32H34ZM53 31H54V32H53ZM87 31H88V32H87Z"/>
</svg>